<?xml version="1.0" encoding="UTF-8" standalone="no"?>
<!DOCTYPE svg PUBLIC "-//W3C//DTD SVG 1.1//EN"
"http://www.w3.org/Graphics/SVG/1.1/DTD/svg11.dtd">
<svg viewBox="0 0 1286 909" version="1.1" xmlns="http://www.w3.org/2000/svg" xmlns:xlink="http://www.w3.org/1999/xlink">
<defs>
<style type="text/css"><![CDATA[
.g1_1{
}
]]></style>
</defs>
<image preserveAspectRatio="none" x="179" y="22" width="928" height="565" xlink:href="img/1.png" />
<path d="M28.5,223.8l0,4.4l791.7,0l0,-4.4l-791.7,0Z" class="g1_1" />
<path d="M820.2,224.5l0,2.9l82.9,0l0,-2.9l-82.9,0Z" class="g1_1" />
<path d="M24.1,70.8l0,179.2l4.4,0l0,-179.2l-4.4,0Z" class="g1_1" />
<path d="M28.5,247l0,3l453.9,0l0,-3L28.5,247Z" class="g1_1" />
<path d="M817.3,137.2l0,64l2.9,0l0,-64l-2.9,0Z" class="g1_1" />
<path d="M482.4,246.3l0,4.4l513,0l0,-4.4l-513,0Z" class="g1_1" />
<path d="M1087.8,137.2l0,64l2.9,0l0,-64l-2.9,0Z" class="g1_1" />
<path d="M1256.3,75.2l0,174.8l4.4,0l0,-174.8l-4.4,0Z" class="g1_1" />
<path d="M27.8,270.3l0,1.5l378.4,0l0,-1.5l-378.4,0Z" class="g1_1" />
<path d="M409.1,270.3l0,1.5l73.3,0l0,-1.5l-73.3,0Z" class="g1_1" />
<path d="M482.4,228.2l0,18.1l3,0l0,-18.1l-3,0Z" class="g1_1" />
<path d="M485.4,270.3l0,1.5l331.9,0l0,-1.5l-331.9,0Z" class="g1_1" />
<path d="M817.3,228.2l0,18.1l2.9,0l0,-18.1l-2.9,0Z" class="g1_1" />
<path d="M820.2,270.3l0,1.5l82.9,0l0,-1.5l-82.9,0Z" class="g1_1" />
<path d="M903.1,228.2l0,18.1l2.9,0l0,-18.1l-2.9,0Z" class="g1_1" />
<path d="M906,270.3l0,1.5l86.5,0l0,-1.5l-86.5,0Z" class="g1_1" />
<path d="M992.5,228.2l0,18.1l2.9,0l0,-18.1l-2.9,0Z" class="g1_1" />
<path d="M995.4,270.3l0,1.5l92.4,0l0,-1.5l-92.4,0Z" class="g1_1" />
<path d="M1090.7,270.3l0,1.5l90,0l0,-1.5l-90,0Z" class="g1_1" />
<path d="M27.8,292.9l0,1.4l378.4,0l0,-1.4l-378.4,0Z" class="g1_1" />
<path d="M409.1,292.9l0,1.4l73.3,0l0,-1.4l-73.3,0Z" class="g1_1" />
<path d="M485.4,292.9l0,1.4l331.9,0l0,-1.4l-331.9,0Z" class="g1_1" />
<path d="M820.2,292.9l0,1.4l82.9,0l0,-1.4l-82.9,0Z" class="g1_1" />
<path d="M906,292.9l0,1.4l86.5,0l0,-1.4l-86.5,0Z" class="g1_1" />
<path d="M995.4,292.9l0,1.4l92.4,0l0,-1.4l-92.4,0Z" class="g1_1" />
<path d="M1090.7,292.9l0,1.4l90,0l0,-1.4l-90,0Z" class="g1_1" />
<path d="M27.8,315.4l0,1.5l378.4,0l0,-1.5l-378.4,0Z" class="g1_1" />
<path d="M409.1,315.4l0,1.5l73.3,0l0,-1.5l-73.3,0Z" class="g1_1" />
<path d="M485.4,315.4l0,1.5l331.9,0l0,-1.5l-331.9,0Z" class="g1_1" />
<path d="M820.2,315.4l0,1.5l82.9,0l0,-1.5l-82.9,0Z" class="g1_1" />
<path d="M906,315.4l0,1.5l86.5,0l0,-1.5l-86.5,0Z" class="g1_1" />
<path d="M995.4,315.4l0,1.5l92.4,0l0,-1.5l-92.4,0Z" class="g1_1" />
<path d="M1090.7,315.4l0,1.5l90,0l0,-1.5l-90,0Z" class="g1_1" />
<path d="M27.8,338l0,1.4l378.4,0l0,-1.4L27.8,338Z" class="g1_1" />
<path d="M409.1,338l0,1.4l73.3,0l0,-1.4l-73.3,0Z" class="g1_1" />
<path d="M485.4,338l0,1.4l331.9,0l0,-1.4l-331.9,0Z" class="g1_1" />
<path d="M820.2,338l0,1.4l82.9,0l0,-1.4l-82.9,0Z" class="g1_1" />
<path d="M906,338l0,1.4l86.5,0l0,-1.4L906,338Z" class="g1_1" />
<path d="M995.4,338l0,1.4l92.4,0l0,-1.4l-92.4,0Z" class="g1_1" />
<path d="M1090.7,338l0,1.4l90,0l0,-1.4l-90,0Z" class="g1_1" />
<path d="M27.8,360.5l0,1.5l378.4,0l0,-1.5l-378.4,0Z" class="g1_1" />
<path d="M409.1,360.5l0,1.5l73.3,0l0,-1.5l-73.3,0Z" class="g1_1" />
<path d="M485.4,360.5l0,1.5l331.9,0l0,-1.5l-331.9,0Z" class="g1_1" />
<path d="M820.2,360.5l0,1.5l82.9,0l0,-1.5l-82.9,0Z" class="g1_1" />
<path d="M906,360.5l0,1.5l86.5,0l0,-1.5l-86.5,0Z" class="g1_1" />
<path d="M995.4,360.5l0,1.5l92.4,0l0,-1.5l-92.4,0Z" class="g1_1" />
<path d="M1090.7,360.5l0,1.5l90,0l0,-1.5l-90,0Z" class="g1_1" />
<path d="M27.8,383.1l0,1.4l378.4,0l0,-1.4l-378.4,0Z" class="g1_1" />
<path d="M409.1,383.1l0,1.4l73.3,0l0,-1.4l-73.3,0Z" class="g1_1" />
<path d="M485.4,383.1l0,1.4l331.9,0l0,-1.4l-331.9,0Z" class="g1_1" />
<path d="M820.2,383.1l0,1.4l82.9,0l0,-1.4l-82.9,0Z" class="g1_1" />
<path d="M906,383.1l0,1.4l86.5,0l0,-1.4l-86.5,0Z" class="g1_1" />
<path d="M995.4,383.1l0,1.4l92.4,0l0,-1.4l-92.4,0Z" class="g1_1" />
<path d="M1090.7,383.1l0,1.4l90,0l0,-1.4l-90,0Z" class="g1_1" />
<path d="M27.8,405.6l0,1.5l378.4,0l0,-1.5l-378.4,0Z" class="g1_1" />
<path d="M409.1,405.6l0,1.5l73.3,0l0,-1.5l-73.3,0Z" class="g1_1" />
<path d="M485.4,405.6l0,1.5l331.9,0l0,-1.5l-331.9,0Z" class="g1_1" />
<path d="M820.2,405.6l0,1.5l82.9,0l0,-1.5l-82.9,0Z" class="g1_1" />
<path d="M906,405.6l0,1.5l86.5,0l0,-1.5l-86.5,0Z" class="g1_1" />
<path d="M995.4,405.6l0,1.5l92.4,0l0,-1.5l-92.4,0Z" class="g1_1" />
<path d="M1090.7,405.6l0,1.5l90,0l0,-1.5l-90,0Z" class="g1_1" />
<path d="M27.8,428.2l0,1.4l378.4,0l0,-1.4l-378.4,0Z" class="g1_1" />
<path d="M409.1,428.2l0,1.4l73.3,0l0,-1.4l-73.3,0Z" class="g1_1" />
<path d="M485.4,428.2l0,1.4l331.9,0l0,-1.4l-331.9,0Z" class="g1_1" />
<path d="M820.2,428.2l0,1.4l82.9,0l0,-1.4l-82.9,0Z" class="g1_1" />
<path d="M906,428.2l0,1.4l86.5,0l0,-1.4l-86.5,0Z" class="g1_1" />
<path d="M995.4,428.2l0,1.4l92.4,0l0,-1.4l-92.4,0Z" class="g1_1" />
<path d="M1090.7,428.2l0,1.4l90,0l0,-1.4l-90,0Z" class="g1_1" />
<path d="M27.8,450.7l0,1.5l378.4,0l0,-1.5l-378.4,0Z" class="g1_1" />
<path d="M409.1,450.7l0,1.5l73.3,0l0,-1.5l-73.3,0Z" class="g1_1" />
<path d="M485.4,450.7l0,1.5l331.9,0l0,-1.5l-331.9,0Z" class="g1_1" />
<path d="M820.2,450.7l0,1.5l82.9,0l0,-1.5l-82.9,0Z" class="g1_1" />
<path d="M906,450.7l0,1.5l86.5,0l0,-1.5l-86.5,0Z" class="g1_1" />
<path d="M995.4,450.7l0,1.5l92.4,0l0,-1.5l-92.4,0Z" class="g1_1" />
<path d="M1090.7,450.7l0,1.5l90,0l0,-1.5l-90,0Z" class="g1_1" />
<path d="M27.8,473.3l0,1.4l378.4,0l0,-1.4l-378.4,0Z" class="g1_1" />
<path d="M409.1,473.3l0,1.4l73.3,0l0,-1.4l-73.3,0Z" class="g1_1" />
<path d="M485.4,473.3l0,1.4l331.9,0l0,-1.4l-331.9,0Z" class="g1_1" />
<path d="M820.2,473.3l0,1.4l82.9,0l0,-1.4l-82.9,0Z" class="g1_1" />
<path d="M906,473.3l0,1.4l86.5,0l0,-1.4l-86.5,0Z" class="g1_1" />
<path d="M995.4,473.3l0,1.4l92.4,0l0,-1.4l-92.4,0Z" class="g1_1" />
<path d="M1090.7,473.3l0,1.4l90,0l0,-1.4l-90,0Z" class="g1_1" />
<path d="M27.8,495.8l0,1.5l378.4,0l0,-1.5l-378.4,0Z" class="g1_1" />
<path d="M409.1,495.8l0,1.5l73.3,0l0,-1.5l-73.3,0Z" class="g1_1" />
<path d="M485.4,495.8l0,1.5l331.9,0l0,-1.5l-331.9,0Z" class="g1_1" />
<path d="M820.2,495.8l0,1.5l82.9,0l0,-1.5l-82.9,0Z" class="g1_1" />
<path d="M906,495.8l0,1.5l86.5,0l0,-1.5l-86.5,0Z" class="g1_1" />
<path d="M995.4,495.8l0,1.5l92.4,0l0,-1.5l-92.4,0Z" class="g1_1" />
<path d="M1090.7,495.8l0,1.5l90,0l0,-1.5l-90,0Z" class="g1_1" />
<path d="M24.8,250l0,267.6l3,0L27.8,250l-3,0Z" class="g1_1" />
<path d="M28.5,517.6l0,3l453.9,0l0,-3l-453.9,0Z" class="g1_1" />
<path d="M482.4,516.9l0,4.4l513,0l0,-4.4l-513,0Z" class="g1_1" />
<path d="M995.4,518.4l0,1.4l92.4,0l0,-1.4l-92.4,0Z" class="g1_1" />
<path d="M1090.7,518.4l0,1.4l90,0l0,-1.4l-90,0Z" class="g1_1" />
<path d="M1257,250l0,268.4l2.9,0l0,-268.4l-2.9,0Z" class="g1_1" />
<path d="M28.5,766.4l0,1.5l377.7,0l0,-1.5l-377.7,0Z" class="g1_1" />
<path d="M406.2,228.2l0,292.4l2.9,0l0,-292.4l-2.9,0Z" class="g1_1" />
<path d="M409.1,766.4l0,1.5l331.9,0l0,-1.5l-331.9,0Z" class="g1_1" />
<path d="M744,766.4l0,1.5l248.5,0l0,-1.5l-248.5,0Z" class="g1_1" />
<path d="M992.5,250.7l0,266.2l2.9,0l0,-266.2l-2.9,0Z" class="g1_1" />
<path d="M28.5,789l0,1.4l377.7,0l0,-1.4L28.5,789Z" class="g1_1" />
<path d="M409.1,789l0,1.4l331.9,0l0,-1.4l-331.9,0Z" class="g1_1" />
<path d="M744,789l0,1.4l248.5,0l0,-1.4L744,789Z" class="g1_1" />
<path d="M28.5,811.5l0,1.5l377.7,0l0,-1.5l-377.7,0Z" class="g1_1" />
<path d="M409.1,811.5l0,1.5L741,813l0,-1.5l-331.9,0Z" class="g1_1" />
<path d="M744,811.5l0,1.5l248.5,0l0,-1.5l-248.5,0Z" class="g1_1" />
<path d="M24.1,517.6l0,319.4l4.4,0l0,-319.4l-4.4,0Z" class="g1_1" />
<path d="M1256.3,518.4l0,318.6l4.4,0l0,-318.6l-4.4,0Z" class="g1_1" />
<path d="M329.9,137.2l0,64l2.9,0l0,-64l-2.9,0Z" class="g1_1" />
<path d="M635,137.2l0,64l2.9,0l0,-64l-2.9,0Z" class="g1_1" />
<path d="M817.3,250.7l0,266.2l2.9,0l0,-266.2l-2.9,0Z" class="g1_1" />
<path d="M1087.8,228.2l0,291.6l2.9,0l0,-291.6l-2.9,0Z" class="g1_1" />
<path d="M406.2,746.8l0,85.8l2.9,0l0,-85.8l-2.9,0Z" class="g1_1" />
<path d="M482.4,250.7l0,266.2l3,0l0,-266.2l-3,0Z" class="g1_1" />
<path d="M903.1,250.7l0,266.2l2.9,0l0,-266.2l-2.9,0Z" class="g1_1" />
<path d="M992.5,746.8l0,85.8l2.9,0l0,-85.8l-2.9,0Z" class="g1_1" />
<path d="M1180.7,228.2l0,291.6l3,0l0,-291.6l-3,0Z" class="g1_1" />
<path d="M741,746.8l0,85.8l3,0l0,-85.8l-3,0Z" class="g1_1" />
<path d="M28.5,70.8l0,4.4l1232.2,0l0,-4.4L28.5,70.8Z" class="g1_1" />
<path d="M28.5,111l0,4.4l1232.2,0l0,-4.4L28.5,111Z" class="g1_1" />
<path d="M28.5,134.3l0,2.9l1227.8,0l0,-2.9l-1227.8,0Z" class="g1_1" />
<path d="M1090.7,156.8l0,3l165.6,0l0,-3l-165.6,0Z" class="g1_1" />
<path d="M28.5,201.2l0,4.4l1232.2,0l0,-4.4l-1232.2,0Z" class="g1_1" />
<path d="M903.1,223.8l0,4.4l357.6,0l0,-4.4l-357.6,0Z" class="g1_1" />
<path d="M995.4,247l0,3l260.9,0l0,-3l-260.9,0Z" class="g1_1" />
<path d="M1183.7,270.3l0,1.5l73.3,0l0,-1.5l-73.3,0Z" class="g1_1" />
<path d="M1183.7,292.9l0,1.4l73.3,0l0,-1.4l-73.3,0Z" class="g1_1" />
<path d="M1183.7,315.4l0,1.5l73.3,0l0,-1.5l-73.3,0Z" class="g1_1" />
<path d="M1183.7,338l0,1.4l73.3,0l0,-1.4l-73.3,0Z" class="g1_1" />
<path d="M1183.7,360.5l0,1.5l73.3,0l0,-1.5l-73.3,0Z" class="g1_1" />
<path d="M1183.7,383.1l0,1.4l73.3,0l0,-1.4l-73.3,0Z" class="g1_1" />
<path d="M1183.7,405.6l0,1.5l73.3,0l0,-1.5l-73.3,0Z" class="g1_1" />
<path d="M1183.7,428.2l0,1.4l73.3,0l0,-1.4l-73.3,0Z" class="g1_1" />
<path d="M1183.7,450.7l0,1.5l73.3,0l0,-1.5l-73.3,0Z" class="g1_1" />
<path d="M1183.7,473.3l0,1.4l73.3,0l0,-1.4l-73.3,0Z" class="g1_1" />
<path d="M1183.7,495.8l0,1.5l73.3,0l0,-1.5l-73.3,0Z" class="g1_1" />
<path d="M1183.7,518.4l0,1.4l72.6,0l0,-1.4l-72.6,0Z" class="g1_1" />
<path d="M28.5,540.2l0,2.9l1227.8,0l0,-2.9l-1227.8,0Z" class="g1_1" />
<path d="M28.5,563.5l0,1.4l1227.8,0l0,-1.4l-1227.8,0Z" class="g1_1" />
<path d="M28.5,586l0,1.5l1227.8,0l0,-1.5L28.5,586Z" class="g1_1" />
<path d="M28.5,608.6l0,1.4l1227.8,0l0,-1.4l-1227.8,0Z" class="g1_1" />
<path d="M28.5,631.1l0,1.5l1227.8,0l0,-1.5l-1227.8,0Z" class="g1_1" />
<path d="M28.5,653.7l0,1.4l1227.8,0l0,-1.4l-1227.8,0Z" class="g1_1" />
<path d="M28.5,676.2l0,1.5l1227.8,0l0,-1.5l-1227.8,0Z" class="g1_1" />
<path d="M28.5,698.8l0,1.4l1227.8,0l0,-1.4l-1227.8,0Z" class="g1_1" />
<path d="M28.5,719.9l0,4.4l1232.2,0l0,-4.4l-1232.2,0Z" class="g1_1" />
<path d="M28.5,742.4l0,4.4l1232.2,0l0,-4.4l-1232.2,0Z" class="g1_1" />
<path d="M995.4,766.4l0,1.5l260.9,0l0,-1.5l-260.9,0Z" class="g1_1" />
<path d="M995.4,789l0,1.4l260.9,0l0,-1.4l-260.9,0Z" class="g1_1" />
<path d="M995.4,811.5l0,1.5l260.9,0l0,-1.5l-260.9,0Z" class="g1_1" />
<path d="M28.5,832.6l0,4.4l1232.2,0l0,-4.4l-1232.2,0Z" class="g1_1" />
</svg>