<?xml version="1.0" encoding="UTF-8" standalone="no"?>
<!DOCTYPE svg PUBLIC "-//W3C//DTD SVG 1.1//EN"
"http://www.w3.org/Graphics/SVG/1.1/DTD/svg11.dtd">
<svg viewBox="0 0 909 1286" version="1.1" xmlns="http://www.w3.org/2000/svg" xmlns:xlink="http://www.w3.org/1999/xlink">
<defs>
<style type="text/css"><![CDATA[
.g1_1{
fill: #FF9A00;
}
.g2_1{
}
]]></style>
</defs>
<path d="M222.3,162.3l408.6,0l0,-54.3l-408.6,0l0,54.3Z" class="g1_1" />
<path d="M230,142l393.3,0l0,-31L230,111l0,31Z" class="g1_1" />
<path d="M230,159.3l393.3,0l0,-17.3L230,142l0,17.3Z" class="g1_1" />
<image preserveAspectRatio="none" x="680" y="108" width="82" height="54" xlink:href="img/1.png" />
<path d="M45.1,108l0.7,0l0,-0.7l-0.7,0l0,0.7Z" class="g2_1" />
<path d="M45.1,108l766.1,0l0,-0.7l-766.1,0l0,0.7Z" class="g2_1" />
<path d="M810.4,108l0.8,0l0,-0.7l-0.8,0l0,0.7Z" class="g2_1" />
<path d="M45.1,163.1l0.7,0l0,-55.1l-0.7,0l0,55.1Z" class="g2_1" />
<path d="M45.1,163.1l176.6,0l0,-0.8l-176.6,0l0,0.8Z" class="g2_1" />
<path d="M221.7,163.1l0.6,0l0,-55.1l-0.6,0l0,55.1Z" class="g2_1" />
<path d="M222.3,163.1l408.7,0l0,-0.8l-408.7,0l0,0.8Z" class="g2_1" />
<path d="M631,163.1l0.8,0l0,-55.1l-0.8,0l0,55.1Z" class="g2_1" />
<path d="M631.8,163.1l178.6,0l0,-0.8l-178.6,0l0,0.8Z" class="g2_1" />
<path d="M810.4,163.1l0.8,0l0,-55.1l-0.8,0l0,55.1Z" class="g2_1" />
<path d="M810.4,163.1l0.8,0l0,-0.8l-0.8,0l0,0.8Z" class="g2_1" />
<path d="M45.1,184.2l0.7,0l0,-0.7l-0.7,0l0,0.7Z" class="g2_1" />
<path d="M45.1,184.2l766.1,0l0,-0.7l-766.1,0l0,0.7Z" class="g2_1" />
<path d="M810.4,184.2l0.8,0l0,-0.7l-0.8,0l0,0.7Z" class="g2_1" />
<path d="M45.1,235.5l0.7,0l0,-51.2l-0.7,0l0,51.2Z" class="g2_1" />
<path d="M358.5,235.5l0.7,0l0,-51.2l-0.7,0l0,51.2Z" class="g2_1" />
<path d="M810.4,235.5l0.8,0l0,-51.2l-0.8,0l0,51.2Z" class="g2_1" />
<path d="M45.1,236.2l766.1,0l0,-0.7l-766.1,0l0,0.7Z" class="g2_1" />
<path d="M45.1,287.5l0.7,0l0,-51.3l-0.7,0l0,51.3Z" class="g2_1" />
<path d="M358.5,287.5l0.7,0l0,-51.3l-0.7,0l0,51.3Z" class="g2_1" />
<path d="M810.4,287.5l0.8,0l0,-51.3l-0.8,0l0,51.3Z" class="g2_1" />
<path d="M45.1,288.2l766.1,0l0,-0.7l-766.1,0l0,0.7Z" class="g2_1" />
<path d="M45.1,339.5l0.7,0l0,-51.3l-0.7,0l0,51.3Z" class="g2_1" />
<path d="M358.5,339.5l0.7,0l0,-51.3l-0.7,0l0,51.3Z" class="g2_1" />
<path d="M810.4,339.5l0.8,0l0,-51.3l-0.8,0l0,51.3Z" class="g2_1" />
<path d="M45.1,340.3l766.1,0l0,-0.8l-766.1,0l0,0.8Z" class="g2_1" />
<path d="M45.1,391.5l0.7,0l0,-51.2l-0.7,0l0,51.2Z" class="g2_1" />
<path d="M358.5,391.5l0.7,0l0,-51.2l-0.7,0l0,51.2Z" class="g2_1" />
<path d="M810.4,391.5l0.8,0l0,-51.2l-0.8,0l0,51.2Z" class="g2_1" />
<path d="M45.1,392.2l766.1,0l0,-0.7l-766.1,0l0,0.7Z" class="g2_1" />
<path d="M45.1,443.5l0.7,0l0,-51.3l-0.7,0l0,51.3Z" class="g2_1" />
<path d="M358.5,443.5l0.7,0l0,-51.3l-0.7,0l0,51.3Z" class="g2_1" />
<path d="M810.4,443.5l0.8,0l0,-51.3l-0.8,0l0,51.3Z" class="g2_1" />
<path d="M45.1,444.2l766.1,0l0,-0.7l-766.1,0l0,0.7Z" class="g2_1" />
<path d="M45.1,495.5l0.7,0l0,-51.3l-0.7,0l0,51.3Z" class="g2_1" />
<path d="M358.5,495.5l0.7,0l0,-51.3l-0.7,0l0,51.3Z" class="g2_1" />
<path d="M810.4,495.5l0.8,0l0,-51.3l-0.8,0l0,51.3Z" class="g2_1" />
<path d="M45.1,496.2l766.1,0l0,-0.7l-766.1,0l0,0.7Z" class="g2_1" />
<path d="M45.1,548.3l0.7,0l0,-52.1l-0.7,0l0,52.1Z" class="g2_1" />
<path d="M45.1,548.3l313.4,0l0,-0.8l-313.4,0l0,0.8Z" class="g2_1" />
<path d="M358.5,548.3l0.7,0l0,-52.1l-0.7,0l0,52.1Z" class="g2_1" />
<path d="M359.2,548.3l451.2,0l0,-0.8l-451.2,0l0,0.8Z" class="g2_1" />
<path d="M810.4,548.3l0.8,0l0,-52.1l-0.8,0l0,52.1Z" class="g2_1" />
<path d="M810.4,548.3l0.8,0l0,-0.8l-0.8,0l0,0.8Z" class="g2_1" />
<path d="M42.6,600.8l0.8,0l0,-0.8l-0.8,0l0,0.8Z" class="g2_1" />
<path d="M42.6,600.8l769.5,0l0,-0.8L42.6,600l0,0.8Z" class="g2_1" />
<path d="M811.3,600.8l0.8,0l0,-0.8l-0.8,0l0,0.8Z" class="g2_1" />
<path d="M42.6,631.8l0.8,0l0,-31l-0.8,0l0,31Z" class="g2_1" />
<path d="M811.3,631.8l0.8,0l0,-31l-0.8,0l0,31Z" class="g2_1" />
<path d="M42.6,632.5l769.5,0l0,-0.7l-769.5,0l0,0.7Z" class="g2_1" />
<path d="M42.6,663.6l0.8,0l0,-31.1l-0.8,0l0,31.1Z" class="g2_1" />
<path d="M811.3,663.6l0.8,0l0,-31.1l-0.8,0l0,31.1Z" class="g2_1" />
<path d="M42.6,664.3l769.5,0l0,-0.7l-769.5,0l0,0.7Z" class="g2_1" />
<path d="M42.6,695.4l0.8,0l0,-31.1l-0.8,0l0,31.1Z" class="g2_1" />
<path d="M811.3,695.4l0.8,0l0,-31.1l-0.8,0l0,31.1Z" class="g2_1" />
<path d="M42.6,696.1l769.5,0l0,-0.7l-769.5,0l0,0.7Z" class="g2_1" />
<path d="M42.6,727.2l0.8,0l0,-31.1l-0.8,0l0,31.1Z" class="g2_1" />
<path d="M811.3,727.2l0.8,0l0,-31.1l-0.8,0l0,31.1Z" class="g2_1" />
<path d="M42.6,727.8l769.5,0l0,-0.6l-769.5,0l0,0.6Z" class="g2_1" />
<path d="M42.6,759l0.8,0l0,-31.2l-0.8,0l0,31.2Z" class="g2_1" />
<path d="M811.3,759l0.8,0l0,-31.2l-0.8,0l0,31.2Z" class="g2_1" />
<path d="M42.6,759.7l769.5,0l0,-0.7L42.6,759l0,0.7Z" class="g2_1" />
<path d="M42.6,790.8l0.8,0l0,-31.1l-0.8,0l0,31.1Z" class="g2_1" />
<path d="M811.3,790.8l0.8,0l0,-31.1l-0.8,0l0,31.1Z" class="g2_1" />
<path d="M42.6,791.5l769.5,0l0,-0.7l-769.5,0l0,0.7Z" class="g2_1" />
<path d="M42.6,822.5l0.8,0l0,-31l-0.8,0l0,31Z" class="g2_1" />
<path d="M811.3,822.5l0.8,0l0,-31l-0.8,0l0,31Z" class="g2_1" />
<path d="M42.6,823.3l769.5,0l0,-0.8l-769.5,0l0,0.8Z" class="g2_1" />
<path d="M42.6,854.3l0.8,0l0,-31l-0.8,0l0,31Z" class="g2_1" />
<path d="M811.3,854.3l0.8,0l0,-31l-0.8,0l0,31Z" class="g2_1" />
<path d="M42.6,855.1l769.5,0l0,-0.8l-769.5,0l0,0.8Z" class="g2_1" />
<path d="M42.6,886.1l0.8,0l0,-31l-0.8,0l0,31Z" class="g2_1" />
<path d="M811.3,886.1l0.8,0l0,-31l-0.8,0l0,31Z" class="g2_1" />
<path d="M42.6,886.9l769.5,0l0,-0.8l-769.5,0l0,0.8Z" class="g2_1" />
<path d="M42.6,918l0.8,0l0,-31.1l-0.8,0l0,31.1Z" class="g2_1" />
<path d="M811.3,918l0.8,0l0,-31.1l-0.8,0l0,31.1Z" class="g2_1" />
<path d="M42.6,918.6l769.5,0l0,-0.6L42.6,918l0,0.6Z" class="g2_1" />
<path d="M42.6,949.8l0.8,0l0,-31.2l-0.8,0l0,31.2Z" class="g2_1" />
<path d="M811.3,949.8l0.8,0l0,-31.2l-0.8,0l0,31.2Z" class="g2_1" />
<path d="M42.6,950.5l769.5,0l0,-0.7l-769.5,0l0,0.7Z" class="g2_1" />
<path d="M42.6,981.6l0.8,0l0,-31.1l-0.8,0l0,31.1Z" class="g2_1" />
<path d="M811.3,981.6l0.8,0l0,-31.1l-0.8,0l0,31.1Z" class="g2_1" />
<path d="M42.6,982.3l769.5,0l0,-0.7l-769.5,0l0,0.7Z" class="g2_1" />
<path d="M42.6,1013.3l0.8,0l0,-31l-0.8,0l0,31Z" class="g2_1" />
<path d="M811.3,1013.3l0.8,0l0,-31l-0.8,0l0,31Z" class="g2_1" />
<path d="M42.6,1014l769.5,0l0,-0.7l-769.5,0l0,0.7Z" class="g2_1" />
<path d="M42.6,1045.1l0.8,0l0,-31.1l-0.8,0l0,31.1Z" class="g2_1" />
<path d="M811.3,1045.1l0.8,0l0,-31.1l-0.8,0l0,31.1Z" class="g2_1" />
<path d="M42.6,1045.8l769.5,0l0,-0.7l-769.5,0l0,0.7Z" class="g2_1" />
<path d="M42.6,1077l0.8,0l0,-31.2l-0.8,0l0,31.2Z" class="g2_1" />
<path d="M811.3,1077l0.8,0l0,-31.2l-0.8,0l0,31.2Z" class="g2_1" />
<path d="M42.6,1077.6l769.5,0l0,-0.6l-769.5,0l0,0.6Z" class="g2_1" />
<path d="M42.6,1108.7l0.8,0l0,-31.1l-0.8,0l0,31.1Z" class="g2_1" />
<path d="M811.3,1108.7l0.8,0l0,-31.1l-0.8,0l0,31.1Z" class="g2_1" />
<path d="M42.6,1109.4l769.5,0l0,-0.7l-769.5,0l0,0.7Z" class="g2_1" />
<path d="M42.6,1141.3l0.8,0l0,-31.9l-0.8,0l0,31.9Z" class="g2_1" />
<path d="M42.6,1141.3l768.7,0l0,-0.8l-768.7,0l0,0.8Z" class="g2_1" />
<path d="M811.3,1141.3l0.8,0l0,-31.9l-0.8,0l0,31.9Z" class="g2_1" />
<path d="M811.3,1141.3l0.8,0l0,-0.8l-0.8,0l0,0.8Z" class="g2_1" />
</svg>