<?xml version="1.0" encoding="UTF-8" standalone="no"?>
<!DOCTYPE svg PUBLIC "-//W3C//DTD SVG 1.1//EN"
"http://www.w3.org/Graphics/SVG/1.1/DTD/svg11.dtd">
<svg viewBox="0 0 1286 909" version="1.1" xmlns="http://www.w3.org/2000/svg" xmlns:xlink="http://www.w3.org/1999/xlink">
<defs>
<style type="text/css"><![CDATA[
.g1_1{
}
]]></style>
</defs>
<image preserveAspectRatio="none" x="179" y="22" width="928" height="565" xlink:href="img/1.png" />
<path d="M23.1,60.8l0,39.1l2.9,0L26,60.8l-2.9,0Z" class="g1_1" />
<path d="M1258.8,63.7l0,36.2l3,0l0,-36.2l-3,0Z" class="g1_1" />
<path d="M22.4,99.9l0,25.5l4.4,0l0,-25.5l-4.4,0Z" class="g1_1" />
<path d="M1258.1,99.9l0,25.5l4.4,0l0,-25.5l-4.4,0Z" class="g1_1" />
<path d="M23.1,125.4l0,64.7l2.9,0l0,-64.7l-2.9,0Z" class="g1_1" />
<path d="M1258.8,125.4l0,64.7l3,0l0,-64.7l-3,0Z" class="g1_1" />
<path d="M22.4,190.1l0,25.5l4.4,0l0,-25.5l-4.4,0Z" class="g1_1" />
<path d="M814.4,125.4l0,67.7l2.9,0l0,-67.7l-2.9,0Z" class="g1_1" />
<path d="M1089.6,125.4l0,67.7l3,0l0,-67.7l-3,0Z" class="g1_1" />
<path d="M1258.1,190.1l0,25.5l4.4,0l0,-25.5l-4.4,0Z" class="g1_1" />
<path d="M23.1,215.6l0,19.6l2.9,0l0,-19.6l-2.9,0Z" class="g1_1" />
<path d="M26.8,258.5l0,1.5l377.6,0l0,-1.5l-377.6,0Z" class="g1_1" />
<path d="M407.4,258.5l0,1.5l73.3,0l0,-1.5l-73.3,0Z" class="g1_1" />
<path d="M483.6,258.5l0,1.5l330.8,0l0,-1.5l-330.8,0Z" class="g1_1" />
<path d="M817.3,258.5l0,1.5l87.6,0l0,-1.5l-87.6,0Z" class="g1_1" />
<path d="M907.9,258.5l0,1.5l86.4,0l0,-1.5l-86.4,0Z" class="g1_1" />
<path d="M997.2,258.5l0,1.5l92.4,0l0,-1.5l-92.4,0Z" class="g1_1" />
<path d="M1092.6,258.5l0,1.5l90,0l0,-1.5l-90,0Z" class="g1_1" />
<path d="M26.8,281.1l0,1.4l377.6,0l0,-1.4l-377.6,0Z" class="g1_1" />
<path d="M407.4,281.1l0,1.4l73.3,0l0,-1.4l-73.3,0Z" class="g1_1" />
<path d="M483.6,281.1l0,1.4l330.8,0l0,-1.4l-330.8,0Z" class="g1_1" />
<path d="M817.3,281.1l0,1.4l87.6,0l0,-1.4l-87.6,0Z" class="g1_1" />
<path d="M907.9,281.1l0,1.4l86.4,0l0,-1.4l-86.4,0Z" class="g1_1" />
<path d="M997.2,281.1l0,1.4l92.4,0l0,-1.4l-92.4,0Z" class="g1_1" />
<path d="M1092.6,281.1l0,1.4l90,0l0,-1.4l-90,0Z" class="g1_1" />
<path d="M26.8,303.6l0,1.5l377.6,0l0,-1.5l-377.6,0Z" class="g1_1" />
<path d="M407.4,303.6l0,1.5l73.3,0l0,-1.5l-73.3,0Z" class="g1_1" />
<path d="M483.6,303.6l0,1.5l330.8,0l0,-1.5l-330.8,0Z" class="g1_1" />
<path d="M817.3,303.6l0,1.5l87.6,0l0,-1.5l-87.6,0Z" class="g1_1" />
<path d="M907.9,303.6l0,1.5l86.4,0l0,-1.5l-86.4,0Z" class="g1_1" />
<path d="M997.2,303.6l0,1.5l92.4,0l0,-1.5l-92.4,0Z" class="g1_1" />
<path d="M1092.6,303.6l0,1.5l90,0l0,-1.5l-90,0Z" class="g1_1" />
<path d="M26.8,326.1l0,1.5l377.6,0l0,-1.5l-377.6,0Z" class="g1_1" />
<path d="M407.4,326.1l0,1.5l73.3,0l0,-1.5l-73.3,0Z" class="g1_1" />
<path d="M483.6,326.1l0,1.5l330.8,0l0,-1.5l-330.8,0Z" class="g1_1" />
<path d="M817.3,326.1l0,1.5l87.6,0l0,-1.5l-87.6,0Z" class="g1_1" />
<path d="M907.9,326.1l0,1.5l86.4,0l0,-1.5l-86.4,0Z" class="g1_1" />
<path d="M997.2,326.1l0,1.5l92.4,0l0,-1.5l-92.4,0Z" class="g1_1" />
<path d="M1092.6,326.1l0,1.5l90,0l0,-1.5l-90,0Z" class="g1_1" />
<path d="M26.8,348.7l0,1.5l377.6,0l0,-1.5l-377.6,0Z" class="g1_1" />
<path d="M407.4,348.7l0,1.5l73.3,0l0,-1.5l-73.3,0Z" class="g1_1" />
<path d="M483.6,348.7l0,1.5l330.8,0l0,-1.5l-330.8,0Z" class="g1_1" />
<path d="M817.3,348.7l0,1.5l87.6,0l0,-1.5l-87.6,0Z" class="g1_1" />
<path d="M907.9,348.7l0,1.5l86.4,0l0,-1.5l-86.4,0Z" class="g1_1" />
<path d="M997.2,348.7l0,1.5l92.4,0l0,-1.5l-92.4,0Z" class="g1_1" />
<path d="M1092.6,348.7l0,1.5l90,0l0,-1.5l-90,0Z" class="g1_1" />
<path d="M26.8,371.3l0,1.4l377.6,0l0,-1.4l-377.6,0Z" class="g1_1" />
<path d="M407.4,371.3l0,1.4l73.3,0l0,-1.4l-73.3,0Z" class="g1_1" />
<path d="M483.6,371.3l0,1.4l330.8,0l0,-1.4l-330.8,0Z" class="g1_1" />
<path d="M817.3,371.3l0,1.4l87.6,0l0,-1.4l-87.6,0Z" class="g1_1" />
<path d="M907.9,371.3l0,1.4l86.4,0l0,-1.4l-86.4,0Z" class="g1_1" />
<path d="M997.2,371.3l0,1.4l92.4,0l0,-1.4l-92.4,0Z" class="g1_1" />
<path d="M1092.6,371.3l0,1.4l90,0l0,-1.4l-90,0Z" class="g1_1" />
<path d="M26.8,393.8l0,1.5l377.6,0l0,-1.5l-377.6,0Z" class="g1_1" />
<path d="M407.4,393.8l0,1.5l73.3,0l0,-1.5l-73.3,0Z" class="g1_1" />
<path d="M483.6,393.8l0,1.5l330.8,0l0,-1.5l-330.8,0Z" class="g1_1" />
<path d="M817.3,393.8l0,1.5l87.6,0l0,-1.5l-87.6,0Z" class="g1_1" />
<path d="M907.9,393.8l0,1.5l86.4,0l0,-1.5l-86.4,0Z" class="g1_1" />
<path d="M997.2,393.8l0,1.5l92.4,0l0,-1.5l-92.4,0Z" class="g1_1" />
<path d="M1092.6,393.8l0,1.5l90,0l0,-1.5l-90,0Z" class="g1_1" />
<path d="M26.8,416.3l0,1.5l377.6,0l0,-1.5l-377.6,0Z" class="g1_1" />
<path d="M407.4,416.3l0,1.5l73.3,0l0,-1.5l-73.3,0Z" class="g1_1" />
<path d="M483.6,416.3l0,1.5l330.8,0l0,-1.5l-330.8,0Z" class="g1_1" />
<path d="M817.3,416.3l0,1.5l87.6,0l0,-1.5l-87.6,0Z" class="g1_1" />
<path d="M907.9,416.3l0,1.5l86.4,0l0,-1.5l-86.4,0Z" class="g1_1" />
<path d="M997.2,416.3l0,1.5l92.4,0l0,-1.5l-92.4,0Z" class="g1_1" />
<path d="M1092.6,416.3l0,1.5l90,0l0,-1.5l-90,0Z" class="g1_1" />
<path d="M22.4,235.2l0,205.2l4.4,0l0,-205.2l-4.4,0Z" class="g1_1" />
<path d="M26.8,438.9l0,1.5l377.6,0l0,-1.5l-377.6,0Z" class="g1_1" />
<path d="M407.4,438.9l0,1.5l73.3,0l0,-1.5l-73.3,0Z" class="g1_1" />
<path d="M483.6,438.9l0,1.5l330.8,0l0,-1.5l-330.8,0Z" class="g1_1" />
<path d="M817.3,438.9l0,1.5l87.6,0l0,-1.5l-87.6,0Z" class="g1_1" />
<path d="M907.9,438.9l0,1.5l86.4,0l0,-1.5l-86.4,0Z" class="g1_1" />
<path d="M997.2,438.9l0,1.5l92.4,0l0,-1.5l-92.4,0Z" class="g1_1" />
<path d="M1092.6,438.9l0,1.5l90,0l0,-1.5l-90,0Z" class="g1_1" />
<path d="M26,461.4l0,1.5l378.4,0l0,-1.5L26,461.4Z" class="g1_1" />
<path d="M407.4,461.4l0,1.5l73.3,0l0,-1.5l-73.3,0Z" class="g1_1" />
<path d="M483.6,461.4l0,1.5l330.8,0l0,-1.5l-330.8,0Z" class="g1_1" />
<path d="M817.3,461.4l0,1.5l87.6,0l0,-1.5l-87.6,0Z" class="g1_1" />
<path d="M907.9,461.4l0,1.5l86.4,0l0,-1.5l-86.4,0Z" class="g1_1" />
<path d="M997.2,461.4l0,1.5l92.4,0l0,-1.5l-92.4,0Z" class="g1_1" />
<path d="M1092.6,461.4l0,1.5l90,0l0,-1.5l-90,0Z" class="g1_1" />
<path d="M26,484l0,1.5l378.4,0l0,-1.5L26,484Z" class="g1_1" />
<path d="M407.4,484l0,1.5l73.3,0l0,-1.5l-73.3,0Z" class="g1_1" />
<path d="M483.6,484l0,1.5l330.8,0l0,-1.5l-330.8,0Z" class="g1_1" />
<path d="M817.3,484l0,1.5l87.6,0l0,-1.5l-87.6,0Z" class="g1_1" />
<path d="M907.9,484l0,1.5l86.4,0l0,-1.5l-86.4,0Z" class="g1_1" />
<path d="M997.2,484l0,1.5l92.4,0l0,-1.5l-92.4,0Z" class="g1_1" />
<path d="M1092.6,484l0,1.5l90,0l0,-1.5l-90,0Z" class="g1_1" />
<path d="M26,506.6l0,1.4l378.4,0l0,-1.4L26,506.6Z" class="g1_1" />
<path d="M407.4,506.6l0,1.4l73.3,0l0,-1.4l-73.3,0Z" class="g1_1" />
<path d="M483.6,506.6l0,1.4l330.8,0l0,-1.4l-330.8,0Z" class="g1_1" />
<path d="M817.3,506.6l0,1.4l87.6,0l0,-1.4l-87.6,0Z" class="g1_1" />
<path d="M907.9,506.6l0,1.4l86.4,0l0,-1.4l-86.4,0Z" class="g1_1" />
<path d="M997.2,506.6l0,1.4l92.4,0l0,-1.4l-92.4,0Z" class="g1_1" />
<path d="M1092.6,506.6l0,1.4l90,0l0,-1.4l-90,0Z" class="g1_1" />
<path d="M404.4,215.6l0,315.7l3,0l0,-315.7l-3,0Z" class="g1_1" />
<path d="M994.3,215.6l0,315.7l2.9,0l0,-315.7l-2.9,0Z" class="g1_1" />
<path d="M26,777.1l0,1.5l378.4,0l0,-1.5L26,777.1Z" class="g1_1" />
<path d="M407.4,777.1l0,1.5l330.7,0l0,-1.5l-330.7,0Z" class="g1_1" />
<path d="M741,777.1l0,1.5l253.3,0l0,-1.5l-253.3,0Z" class="g1_1" />
<path d="M26,799.7l0,1.5l378.4,0l0,-1.5L26,799.7Z" class="g1_1" />
<path d="M407.4,799.7l0,1.5l330.7,0l0,-1.5l-330.7,0Z" class="g1_1" />
<path d="M741,799.7l0,1.5l253.3,0l0,-1.5l-253.3,0Z" class="g1_1" />
<path d="M26,822.3l0,1.4l378.4,0l0,-1.4L26,822.3Z" class="g1_1" />
<path d="M407.4,822.3l0,1.4l330.7,0l0,-1.4l-330.7,0Z" class="g1_1" />
<path d="M741,822.3l0,1.4l253.3,0l0,-1.4l-253.3,0Z" class="g1_1" />
<path d="M23.1,440.4l0,406.6l2.9,0L26,440.4l-2.9,0Z" class="g1_1" />
<path d="M1258.8,215.6l0,631.4l3,0l0,-631.4l-3,0Z" class="g1_1" />
<path d="M328.2,125.4l0,67.7l2.9,0l0,-67.7l-2.9,0Z" class="g1_1" />
<path d="M633.2,125.4l0,67.7l3,0l0,-67.7l-3,0Z" class="g1_1" />
<path d="M814.4,215.6l0,315.7l2.9,0l0,-315.7l-2.9,0Z" class="g1_1" />
<path d="M1089.6,215.6l0,315.7l3,0l0,-315.7l-3,0Z" class="g1_1" />
<path d="M99.4,215.6l0,22.5l2.9,0l0,-22.5l-2.9,0Z" class="g1_1" />
<path d="M404.4,756.8l0,90.2l3,0l0,-90.2l-3,0Z" class="g1_1" />
<path d="M480.7,215.6l0,315.7l2.9,0l0,-315.7l-2.9,0Z" class="g1_1" />
<path d="M904.9,215.6l0,315.7l3,0l0,-315.7l-3,0Z" class="g1_1" />
<path d="M994.3,756.8l0,90.2l2.9,0l0,-90.2l-2.9,0Z" class="g1_1" />
<path d="M1182.6,215.6l0,315.7l2.9,0l0,-315.7l-2.9,0Z" class="g1_1" />
<path d="M738.1,756.8l0,90.2l2.9,0l0,-90.2l-2.9,0Z" class="g1_1" />
<path d="M26,60.8l0,2.9l1235.8,0l0,-2.9L26,60.8Z" class="g1_1" />
<path d="M26.8,99.9l0,3l1231.3,0l0,-3L26.8,99.9Z" class="g1_1" />
<path d="M26.8,122.5l0,2.9l1231.3,0l0,-2.9l-1231.3,0Z" class="g1_1" />
<path d="M1092.6,145l0,2.9l169.2,0l0,-2.9l-169.2,0Z" class="g1_1" />
<path d="M26.8,190.1l0,3l1231.3,0l0,-3l-1231.3,0Z" class="g1_1" />
<path d="M26.8,212.7l0,2.9l1231.3,0l0,-2.9l-1231.3,0Z" class="g1_1" />
<path d="M26.8,235.2l0,3l1235,0l0,-3l-1235,0Z" class="g1_1" />
<path d="M1185.5,258.5l0,1.5l73.3,0l0,-1.5l-73.3,0Z" class="g1_1" />
<path d="M1185.5,281.1l0,1.4l73.3,0l0,-1.4l-73.3,0Z" class="g1_1" />
<path d="M1185.5,303.6l0,1.5l73.3,0l0,-1.5l-73.3,0Z" class="g1_1" />
<path d="M1185.5,326.1l0,1.5l73.3,0l0,-1.5l-73.3,0Z" class="g1_1" />
<path d="M1185.5,348.7l0,1.5l73.3,0l0,-1.5l-73.3,0Z" class="g1_1" />
<path d="M1185.5,371.3l0,1.4l73.3,0l0,-1.4l-73.3,0Z" class="g1_1" />
<path d="M1185.5,393.8l0,1.5l73.3,0l0,-1.5l-73.3,0Z" class="g1_1" />
<path d="M1185.5,416.3l0,1.5l73.3,0l0,-1.5l-73.3,0Z" class="g1_1" />
<path d="M1185.5,438.9l0,1.5l73.3,0l0,-1.5l-73.3,0Z" class="g1_1" />
<path d="M1185.5,461.4l0,1.5l73.3,0l0,-1.5l-73.3,0Z" class="g1_1" />
<path d="M1185.5,484l0,1.5l73.3,0l0,-1.5l-73.3,0Z" class="g1_1" />
<path d="M1185.5,506.6l0,1.4l73.3,0l0,-1.4l-73.3,0Z" class="g1_1" />
<path d="M26,528.4l0,2.9l1235.8,0l0,-2.9L26,528.4Z" class="g1_1" />
<path d="M26,550.9l0,3l1235.8,0l0,-3L26,550.9Z" class="g1_1" />
<path d="M26,574.2l0,1.5l1232.8,0l0,-1.5L26,574.2Z" class="g1_1" />
<path d="M26,596.8l0,1.4l1232.8,0l0,-1.4L26,596.8Z" class="g1_1" />
<path d="M26,619.3l0,1.5l1232.8,0l0,-1.5L26,619.3Z" class="g1_1" />
<path d="M26,641.8l0,1.5l1232.8,0l0,-1.5L26,641.8Z" class="g1_1" />
<path d="M26,664.4l0,1.5l1232.8,0l0,-1.5L26,664.4Z" class="g1_1" />
<path d="M26,687l0,1.4l1232.8,0l0,-1.4L26,687Z" class="g1_1" />
<path d="M26,709.5l0,1.5l1232.8,0l0,-1.5L26,709.5Z" class="g1_1" />
<path d="M26,731.3l0,3l1235.8,0l0,-3L26,731.3Z" class="g1_1" />
<path d="M26,753.9l0,2.9l1235.8,0l0,-2.9L26,753.9Z" class="g1_1" />
<path d="M997.2,777.1l0,1.5l261.6,0l0,-1.5l-261.6,0Z" class="g1_1" />
<path d="M997.2,799.7l0,1.5l261.6,0l0,-1.5l-261.6,0Z" class="g1_1" />
<path d="M997.2,822.3l0,1.4l261.6,0l0,-1.4l-261.6,0Z" class="g1_1" />
<path d="M26,844.1l0,2.9l1235.8,0l0,-2.9L26,844.1Z" class="g1_1" />
</svg>