<?xml version="1.0" encoding="UTF-8" standalone="no"?>
<!DOCTYPE svg PUBLIC "-//W3C//DTD SVG 1.1//EN"
"http://www.w3.org/Graphics/SVG/1.1/DTD/svg11.dtd">
<svg viewBox="0 0 1286 909" version="1.1" xmlns="http://www.w3.org/2000/svg" xmlns:xlink="http://www.w3.org/1999/xlink">
<defs>
<style type="text/css"><![CDATA[
.g1_1{
}
]]></style>
</defs>
<image preserveAspectRatio="none" x="184" y="22" width="918" height="562" xlink:href="img/1.png" />
<path d="M22.8,73.6l0,39l2.9,0l0,-39l-2.9,0Z" class="g1_1" />
<path d="M1259.1,76.5l0,36.1l3,0l0,-36.1l-3,0Z" class="g1_1" />
<path d="M22.1,112.6l0,25.4l4.4,0l0,-25.4l-4.4,0Z" class="g1_1" />
<path d="M1258.4,112.6l0,25.4l4.4,0l0,-25.4l-4.4,0Z" class="g1_1" />
<path d="M22.8,138l0,64.4l2.9,0l0,-64.4l-2.9,0Z" class="g1_1" />
<path d="M1259.1,138l0,64.4l3,0l0,-64.4l-3,0Z" class="g1_1" />
<path d="M22.1,202.4l0,25.4l4.4,0l0,-25.4l-4.4,0Z" class="g1_1" />
<path d="M805.5,138l0,67.3l2.9,0l0,-67.3l-2.9,0Z" class="g1_1" />
<path d="M1088.3,138l0,67.3l2.9,0l0,-67.3l-2.9,0Z" class="g1_1" />
<path d="M1258.4,202.4l0,25.4l4.4,0l0,-25.4l-4.4,0Z" class="g1_1" />
<path d="M25.7,270.5l0,1.5L400,272l0,-1.5l-374.3,0Z" class="g1_1" />
<path d="M403,270.5l0,1.5l72.5,0l0,-1.5l-72.5,0Z" class="g1_1" />
<path d="M478.4,270.5l0,1.5l327.1,0l0,-1.5l-327.1,0Z" class="g1_1" />
<path d="M808.4,270.5l0,1.5l92.5,0l0,-1.5l-92.5,0Z" class="g1_1" />
<path d="M903.8,270.5l0,1.5l85.5,0l0,-1.5l-85.5,0Z" class="g1_1" />
<path d="M992.2,270.5l0,1.5l96.1,0l0,-1.5l-96.1,0Z" class="g1_1" />
<path d="M1091.2,270.5l0,1.5l92.5,0l0,-1.5l-92.5,0Z" class="g1_1" />
<path d="M25.7,293l0,1.4l374.3,0l0,-1.4L25.7,293Z" class="g1_1" />
<path d="M403,293l0,1.4l72.5,0l0,-1.4L403,293Z" class="g1_1" />
<path d="M478.4,293l0,1.4l327.1,0l0,-1.4l-327.1,0Z" class="g1_1" />
<path d="M808.4,293l0,1.4l92.5,0l0,-1.4l-92.5,0Z" class="g1_1" />
<path d="M903.8,293l0,1.4l85.5,0l0,-1.4l-85.5,0Z" class="g1_1" />
<path d="M992.2,293l0,1.4l96.1,0l0,-1.4l-96.1,0Z" class="g1_1" />
<path d="M1091.2,293l0,1.4l92.5,0l0,-1.4l-92.5,0Z" class="g1_1" />
<path d="M25.7,315.4l0,1.5l374.3,0l0,-1.5l-374.3,0Z" class="g1_1" />
<path d="M403,315.4l0,1.5l72.5,0l0,-1.5l-72.5,0Z" class="g1_1" />
<path d="M478.4,315.4l0,1.5l327.1,0l0,-1.5l-327.1,0Z" class="g1_1" />
<path d="M808.4,315.4l0,1.5l92.5,0l0,-1.5l-92.5,0Z" class="g1_1" />
<path d="M903.8,315.4l0,1.5l85.5,0l0,-1.5l-85.5,0Z" class="g1_1" />
<path d="M992.2,315.4l0,1.5l96.1,0l0,-1.5l-96.1,0Z" class="g1_1" />
<path d="M1091.2,315.4l0,1.5l92.5,0l0,-1.5l-92.5,0Z" class="g1_1" />
<path d="M25.7,337.9l0,1.4l374.3,0l0,-1.4l-374.3,0Z" class="g1_1" />
<path d="M403,337.9l0,1.4l72.5,0l0,-1.4l-72.5,0Z" class="g1_1" />
<path d="M478.4,337.9l0,1.4l327.1,0l0,-1.4l-327.1,0Z" class="g1_1" />
<path d="M808.4,337.9l0,1.4l92.5,0l0,-1.4l-92.5,0Z" class="g1_1" />
<path d="M903.8,337.9l0,1.4l85.5,0l0,-1.4l-85.5,0Z" class="g1_1" />
<path d="M992.2,337.9l0,1.4l96.1,0l0,-1.4l-96.1,0Z" class="g1_1" />
<path d="M1091.2,337.9l0,1.4l92.5,0l0,-1.4l-92.5,0Z" class="g1_1" />
<path d="M25.7,360.3l0,1.5l374.3,0l0,-1.5l-374.3,0Z" class="g1_1" />
<path d="M403,360.3l0,1.5l72.5,0l0,-1.5l-72.5,0Z" class="g1_1" />
<path d="M478.4,360.3l0,1.5l327.1,0l0,-1.5l-327.1,0Z" class="g1_1" />
<path d="M808.4,360.3l0,1.5l92.5,0l0,-1.5l-92.5,0Z" class="g1_1" />
<path d="M903.8,360.3l0,1.5l85.5,0l0,-1.5l-85.5,0Z" class="g1_1" />
<path d="M992.2,360.3l0,1.5l96.1,0l0,-1.5l-96.1,0Z" class="g1_1" />
<path d="M1091.2,360.3l0,1.5l92.5,0l0,-1.5l-92.5,0Z" class="g1_1" />
<path d="M25.7,382.8l0,1.5l374.3,0l0,-1.5l-374.3,0Z" class="g1_1" />
<path d="M403,382.8l0,1.5l72.5,0l0,-1.5l-72.5,0Z" class="g1_1" />
<path d="M478.4,382.8l0,1.5l327.1,0l0,-1.5l-327.1,0Z" class="g1_1" />
<path d="M808.4,382.8l0,1.5l92.5,0l0,-1.5l-92.5,0Z" class="g1_1" />
<path d="M903.8,382.8l0,1.5l85.5,0l0,-1.5l-85.5,0Z" class="g1_1" />
<path d="M992.2,382.8l0,1.5l96.1,0l0,-1.5l-96.1,0Z" class="g1_1" />
<path d="M1091.2,382.8l0,1.5l92.5,0l0,-1.5l-92.5,0Z" class="g1_1" />
<path d="M25.7,405.3l0,1.4l374.3,0l0,-1.4l-374.3,0Z" class="g1_1" />
<path d="M403,405.3l0,1.4l72.5,0l0,-1.4l-72.5,0Z" class="g1_1" />
<path d="M478.4,405.3l0,1.4l327.1,0l0,-1.4l-327.1,0Z" class="g1_1" />
<path d="M808.4,405.3l0,1.4l92.5,0l0,-1.4l-92.5,0Z" class="g1_1" />
<path d="M903.8,405.3l0,1.4l85.5,0l0,-1.4l-85.5,0Z" class="g1_1" />
<path d="M992.2,405.3l0,1.4l96.1,0l0,-1.4l-96.1,0Z" class="g1_1" />
<path d="M1091.2,405.3l0,1.4l92.5,0l0,-1.4l-92.5,0Z" class="g1_1" />
<path d="M25.7,427.7l0,1.5l374.3,0l0,-1.5l-374.3,0Z" class="g1_1" />
<path d="M403,427.7l0,1.5l72.5,0l0,-1.5l-72.5,0Z" class="g1_1" />
<path d="M478.4,427.7l0,1.5l327.1,0l0,-1.5l-327.1,0Z" class="g1_1" />
<path d="M808.4,427.7l0,1.5l92.5,0l0,-1.5l-92.5,0Z" class="g1_1" />
<path d="M903.8,427.7l0,1.5l85.5,0l0,-1.5l-85.5,0Z" class="g1_1" />
<path d="M992.2,427.7l0,1.5l96.1,0l0,-1.5l-96.1,0Z" class="g1_1" />
<path d="M1091.2,427.7l0,1.5l92.5,0l0,-1.5l-92.5,0Z" class="g1_1" />
<path d="M25.7,450.2l0,1.4l374.3,0l0,-1.4l-374.3,0Z" class="g1_1" />
<path d="M403,450.2l0,1.4l72.5,0l0,-1.4l-72.5,0Z" class="g1_1" />
<path d="M478.4,450.2l0,1.4l327.1,0l0,-1.4l-327.1,0Z" class="g1_1" />
<path d="M808.4,450.2l0,1.4l92.5,0l0,-1.4l-92.5,0Z" class="g1_1" />
<path d="M903.8,450.2l0,1.4l85.5,0l0,-1.4l-85.5,0Z" class="g1_1" />
<path d="M992.2,450.2l0,1.4l96.1,0l0,-1.4l-96.1,0Z" class="g1_1" />
<path d="M1091.2,450.2l0,1.4l92.5,0l0,-1.4l-92.5,0Z" class="g1_1" />
<path d="M25.7,472.6l0,1.5l374.3,0l0,-1.5l-374.3,0Z" class="g1_1" />
<path d="M403,472.6l0,1.5l72.5,0l0,-1.5l-72.5,0Z" class="g1_1" />
<path d="M478.4,472.6l0,1.5l327.1,0l0,-1.5l-327.1,0Z" class="g1_1" />
<path d="M808.4,472.6l0,1.5l92.5,0l0,-1.5l-92.5,0Z" class="g1_1" />
<path d="M903.8,472.6l0,1.5l85.5,0l0,-1.5l-85.5,0Z" class="g1_1" />
<path d="M992.2,472.6l0,1.5l96.1,0l0,-1.5l-96.1,0Z" class="g1_1" />
<path d="M1091.2,472.6l0,1.5l92.5,0l0,-1.5l-92.5,0Z" class="g1_1" />
<path d="M25.7,494.4l0,2.9l74.1,0l0,-2.9l-74.1,0Z" class="g1_1" />
<path d="M99.8,495.1l0,1.5l300.2,0l0,-1.5l-300.2,0Z" class="g1_1" />
<path d="M403,495.1l0,1.5l72.5,0l0,-1.5l-72.5,0Z" class="g1_1" />
<path d="M478.4,495.1l0,1.5l327.1,0l0,-1.5l-327.1,0Z" class="g1_1" />
<path d="M808.4,495.1l0,1.5l92.5,0l0,-1.5l-92.5,0Z" class="g1_1" />
<path d="M903.8,495.1l0,1.5l85.5,0l0,-1.5l-85.5,0Z" class="g1_1" />
<path d="M992.2,495.1l0,1.5l96.1,0l0,-1.5l-96.1,0Z" class="g1_1" />
<path d="M1091.2,495.1l0,1.5l92.5,0l0,-1.5l-92.5,0Z" class="g1_1" />
<path d="M22.8,227.8l0,289l2.9,0l0,-289l-2.9,0Z" class="g1_1" />
<path d="M1259.1,227.8l0,289l3,0l0,-289l-3,0Z" class="g1_1" />
<path d="M22.1,516.8l0,205.1l4.4,0l0,-205.1l-4.4,0Z" class="g1_1" />
<path d="M1258.4,516.8l0,205.1l4.4,0l0,-205.1l-4.4,0Z" class="g1_1" />
<path d="M400,227.8l0,292l3,0l0,-292l-3,0Z" class="g1_1" />
<path d="M989.3,227.8l0,292l2.9,0l0,-292l-2.9,0Z" class="g1_1" />
<path d="M25.7,764.6l0,1.5l374.3,0l0,-1.5l-374.3,0Z" class="g1_1" />
<path d="M403,764.6l0,1.5l327,0l0,-1.5l-327,0Z" class="g1_1" />
<path d="M733,764.6l0,1.5l256.3,0l0,-1.5l-256.3,0Z" class="g1_1" />
<path d="M25.7,787l0,1.5l374.3,0l0,-1.5L25.7,787Z" class="g1_1" />
<path d="M403,787l0,1.5l327,0l0,-1.5l-327,0Z" class="g1_1" />
<path d="M733,787l0,1.5l256.3,0l0,-1.5L733,787Z" class="g1_1" />
<path d="M25.7,809.5l0,1.5L400,811l0,-1.5l-374.3,0Z" class="g1_1" />
<path d="M403,809.5l0,1.5l327,0l0,-1.5l-327,0Z" class="g1_1" />
<path d="M733,809.5l0,1.5l256.3,0l0,-1.5l-256.3,0Z" class="g1_1" />
<path d="M22.8,721.9l0,112.3l2.9,0l0,-112.3l-2.9,0Z" class="g1_1" />
<path d="M1259.1,721.9l0,112.3l3,0l0,-112.3l-3,0Z" class="g1_1" />
<path d="M324.6,138l0,67.3l2.9,0l0,-67.3l-2.9,0Z" class="g1_1" />
<path d="M626.3,138l0,67.3l3,0l0,-67.3l-3,0Z" class="g1_1" />
<path d="M805.5,227.8l0,292l2.9,0l0,-292l-2.9,0Z" class="g1_1" />
<path d="M1088.3,227.8l0,292l2.9,0l0,-292l-2.9,0Z" class="g1_1" />
<path d="M400,744.3l0,89.9l3,0l0,-89.9l-3,0Z" class="g1_1" />
<path d="M475.5,227.8l0,292l2.9,0l0,-292l-2.9,0Z" class="g1_1" />
<path d="M900.9,227.8l0,292l2.9,0l0,-292l-2.9,0Z" class="g1_1" />
<path d="M989.3,744.3l0,89.9l2.9,0l0,-89.9l-2.9,0Z" class="g1_1" />
<path d="M1183.7,227.8l0,292l2.9,0l0,-292l-2.9,0Z" class="g1_1" />
<path d="M730,744.3l0,89.9l3,0l0,-89.9l-3,0Z" class="g1_1" />
<path d="M25.7,73.6l0,2.9l1236.4,0l0,-2.9L25.7,73.6Z" class="g1_1" />
<path d="M26.5,112.6l0,2.9l1231.9,0l0,-2.9l-1231.9,0Z" class="g1_1" />
<path d="M26.5,135l0,3l1231.9,0l0,-3L26.5,135Z" class="g1_1" />
<path d="M1091.2,157.5l0,2.9l170.9,0l0,-2.9l-170.9,0Z" class="g1_1" />
<path d="M26.5,202.4l0,2.9l1231.9,0l0,-2.9l-1231.9,0Z" class="g1_1" />
<path d="M26.5,224.9l0,2.9l1231.9,0l0,-2.9l-1231.9,0Z" class="g1_1" />
<path d="M25.7,247.3l0,3l1236.4,0l0,-3l-1236.4,0Z" class="g1_1" />
<path d="M1186.6,270.5l0,1.5l72.5,0l0,-1.5l-72.5,0Z" class="g1_1" />
<path d="M1186.6,293l0,1.4l72.5,0l0,-1.4l-72.5,0Z" class="g1_1" />
<path d="M1186.6,315.4l0,1.5l72.5,0l0,-1.5l-72.5,0Z" class="g1_1" />
<path d="M1186.6,337.9l0,1.4l72.5,0l0,-1.4l-72.5,0Z" class="g1_1" />
<path d="M1186.6,360.3l0,1.5l72.5,0l0,-1.5l-72.5,0Z" class="g1_1" />
<path d="M1186.6,382.8l0,1.5l72.5,0l0,-1.5l-72.5,0Z" class="g1_1" />
<path d="M1186.6,405.3l0,1.4l72.5,0l0,-1.4l-72.5,0Z" class="g1_1" />
<path d="M1186.6,427.7l0,1.5l72.5,0l0,-1.5l-72.5,0Z" class="g1_1" />
<path d="M1186.6,450.2l0,1.4l72.5,0l0,-1.4l-72.5,0Z" class="g1_1" />
<path d="M1186.6,472.6l0,1.5l72.5,0l0,-1.5l-72.5,0Z" class="g1_1" />
<path d="M1186.6,495.1l0,1.5l72.5,0l0,-1.5l-72.5,0Z" class="g1_1" />
<path d="M26.5,516.8l0,3l1231.9,0l0,-3l-1231.9,0Z" class="g1_1" />
<path d="M26.5,539.3l0,2.9l1231.9,0l0,-2.9l-1231.9,0Z" class="g1_1" />
<path d="M26.5,562.5l0,1.4l1231.9,0l0,-1.4l-1231.9,0Z" class="g1_1" />
<path d="M26.5,584.9l0,1.5l1231.9,0l0,-1.5l-1231.9,0Z" class="g1_1" />
<path d="M26.5,607.4l0,1.4l1231.9,0l0,-1.4l-1231.9,0Z" class="g1_1" />
<path d="M26.5,629.8l0,1.5l1231.9,0l0,-1.5l-1231.9,0Z" class="g1_1" />
<path d="M26.5,652.3l0,1.5l1231.9,0l0,-1.5l-1231.9,0Z" class="g1_1" />
<path d="M26.5,674.8l0,1.4l1231.9,0l0,-1.4l-1231.9,0Z" class="g1_1" />
<path d="M26.5,697.2l0,1.5l1231.9,0l0,-1.5l-1231.9,0Z" class="g1_1" />
<path d="M26.5,718.9l0,3l1231.9,0l0,-3l-1231.9,0Z" class="g1_1" />
<path d="M25.7,741.4l0,2.9l1236.4,0l0,-2.9l-1236.4,0Z" class="g1_1" />
<path d="M992.2,764.6l0,1.5l266.9,0l0,-1.5l-266.9,0Z" class="g1_1" />
<path d="M992.2,787l0,1.5l266.9,0l0,-1.5l-266.9,0Z" class="g1_1" />
<path d="M992.2,809.5l0,1.5l266.9,0l0,-1.5l-266.9,0Z" class="g1_1" />
<path d="M25.7,831.2l0,3l1236.4,0l0,-3l-1236.4,0Z" class="g1_1" />
</svg>