<?xml version="1.0" encoding="UTF-8" standalone="no"?>
<!DOCTYPE svg PUBLIC "-//W3C//DTD SVG 1.1//EN"
"http://www.w3.org/Graphics/SVG/1.1/DTD/svg11.dtd">
<svg viewBox="0 0 909 1285" version="1.1" xmlns="http://www.w3.org/2000/svg" xmlns:xlink="http://www.w3.org/1999/xlink">
<defs>
<clipPath id="c0_1"><path d="M238,210.7l0,-22.9l624,0l0,22.9Z" /></clipPath>
<style type="text/css"><![CDATA[
.g1_1{
}
]]></style>
</defs>
<image preserveAspectRatio="none" x="-1" y="2" width="909" height="1282" xlink:href="img/1.png" />
<path fill-rule="evenodd" d="M30.4,210.3l45.9,0l0,-1.6l-45.9,0l0,1.6Z" class="g1_1" />
<g clip-path="url(#c0_1)">
<path fill-rule="evenodd" d="M238,210.3l80.5,0l0,-1.6l-80.5,0l0,1.6Z" class="g1_1" />
</g>
<path fill-rule="evenodd" d="M29,187.8l208.6,0l0,-0.8L29,187l0,0.8Z" class="g1_1" />
<path fill-rule="evenodd" d="M237.6,187.8l0.8,0l0,-0.8l-0.8,0l0,0.8Z" class="g1_1" />
<path fill-rule="evenodd" d="M238.4,187.8l624.2,0l0,-0.8l-624.2,0l0,0.8Z" class="g1_1" />
<path fill-rule="evenodd" d="M862.6,187.8l1.5,0l0,-0.8l-1.5,0l0,0.8Z" class="g1_1" />
<path fill-rule="evenodd" d="M29,210.7l1.4,0l0,-22.9l-1.4,0l0,22.9Z" class="g1_1" />
<path fill-rule="evenodd" d="M237.6,210.7l0.8,0l0,-22.9l-0.8,0l0,22.9Z" class="g1_1" />
<path fill-rule="evenodd" d="M862.6,210.7l1.5,0l0,-22.9l-1.5,0l0,22.9Z" class="g1_1" />
<path fill-rule="evenodd" d="M30.4,234l96.5,0l0,-1.7l-96.5,0l0,1.7Z" class="g1_1" />
<path fill-rule="evenodd" d="M29,211.4l1.4,0l0,-0.7l-1.4,0l0,0.7Z" class="g1_1" />
<path fill-rule="evenodd" d="M30.4,211.4l207.2,0l0,-0.7l-207.2,0l0,0.7Z" class="g1_1" />
<path fill-rule="evenodd" d="M237.6,211.4l0.8,0l0,-0.7l-0.8,0l0,0.7Z" class="g1_1" />
<path fill-rule="evenodd" d="M238.4,211.4l624.2,0l0,-0.7l-624.2,0l0,0.7Z" class="g1_1" />
<path fill-rule="evenodd" d="M862.6,211.4l1.5,0l0,-0.7l-1.5,0l0,0.7Z" class="g1_1" />
<path fill-rule="evenodd" d="M29,234.3l1.4,0l0,-22.9l-1.4,0l0,22.9Z" class="g1_1" />
<path fill-rule="evenodd" d="M862.6,234.3l1.5,0l0,-22.9l-1.5,0l0,22.9Z" class="g1_1" />
<path fill-rule="evenodd" d="M30.4,257.6l201.9,0l0,-1.6L30.4,256l0,1.6Z" class="g1_1" />
<path fill-rule="evenodd" d="M29,235.1l1.4,0l0,-0.8l-1.4,0l0,0.8Z" class="g1_1" />
<path fill-rule="evenodd" d="M30.4,235.1l832.2,0l0,-0.8l-832.2,0l0,0.8Z" class="g1_1" />
<path fill-rule="evenodd" d="M862.6,235.1l1.5,0l0,-0.8l-1.5,0l0,0.8Z" class="g1_1" />
<path fill-rule="evenodd" d="M29,258l1.4,0l0,-22.9l-1.4,0L29,258Z" class="g1_1" />
<path fill-rule="evenodd" d="M862.6,258l1.5,0l0,-22.9l-1.5,0l0,22.9Z" class="g1_1" />
<path fill-rule="evenodd" d="M30.4,281.3l70.5,0l0,-1.7l-70.5,0l0,1.7Z" class="g1_1" />
<path fill-rule="evenodd" d="M29,258.7l1.4,0l0,-0.7L29,258l0,0.7Z" class="g1_1" />
<path fill-rule="evenodd" d="M30.4,258.7l832.2,0l0,-0.7L30.4,258l0,0.7Z" class="g1_1" />
<path fill-rule="evenodd" d="M862.6,258.7l1.5,0l0,-0.7l-1.5,0l0,0.7Z" class="g1_1" />
<path fill-rule="evenodd" d="M29,281.6l1.4,0l0,-22.9l-1.4,0l0,22.9Z" class="g1_1" />
<path fill-rule="evenodd" d="M862.6,281.6l1.5,0l0,-22.9l-1.5,0l0,22.9Z" class="g1_1" />
<path fill-rule="evenodd" d="M29,283.1l1.4,0l0,-1.5l-1.4,0l0,1.5Z" class="g1_1" />
<path fill-rule="evenodd" d="M30.4,283.1l832.2,0l0,-1.5l-832.2,0l0,1.5Z" class="g1_1" />
<path fill-rule="evenodd" d="M862.6,283.1l1.5,0l0,-1.5l-1.5,0l0,1.5Z" class="g1_1" />
<path fill-rule="evenodd" d="M29,306l1.4,0l0,-22.9l-1.4,0L29,306Z" class="g1_1" />
<path fill-rule="evenodd" d="M862.6,306l1.5,0l0,-22.9l-1.5,0l0,22.9Z" class="g1_1" />
<path fill-rule="evenodd" d="M29,307.5l1.4,0l0,-1.5L29,306l0,1.5Z" class="g1_1" />
<path fill-rule="evenodd" d="M30.4,307.5l206.9,0l0,-1.5L30.4,306l0,1.5Z" class="g1_1" />
<path fill-rule="evenodd" d="M237.3,307.5l1.4,0l0,-1.5l-1.4,0l0,1.5Z" class="g1_1" />
<path fill-rule="evenodd" d="M238.7,307.5l207,0l0,-1.5l-207,0l0,1.5Z" class="g1_1" />
<path fill-rule="evenodd" d="M445.8,307.5l1.4,0l0,-1.5l-1.4,0l0,1.5Z" class="g1_1" />
<path fill-rule="evenodd" d="M447.2,307.5l206.9,0l0,-1.5l-206.9,0l0,1.5Z" class="g1_1" />
<path fill-rule="evenodd" d="M654.1,307.5l1.5,0l0,-1.5l-1.5,0l0,1.5Z" class="g1_1" />
<path fill-rule="evenodd" d="M655.6,307.5l207,0l0,-1.5l-207,0l0,1.5Z" class="g1_1" />
<path fill-rule="evenodd" d="M862.6,307.5l1.5,0l0,-1.5l-1.5,0l0,1.5Z" class="g1_1" />
<path fill-rule="evenodd" d="M29,330.4l1.4,0l0,-22.9l-1.4,0l0,22.9Z" class="g1_1" />
<path fill-rule="evenodd" d="M237.3,330.4l1.4,0l0,-22.9l-1.4,0l0,22.9Z" class="g1_1" />
<path fill-rule="evenodd" d="M445.8,330.4l1.4,0l0,-22.9l-1.4,0l0,22.9Z" class="g1_1" />
<path fill-rule="evenodd" d="M654.1,330.4l1.5,0l0,-22.9l-1.5,0l0,22.9Z" class="g1_1" />
<path fill-rule="evenodd" d="M862.6,330.4l1.5,0l0,-22.9l-1.5,0l0,22.9Z" class="g1_1" />
<path fill-rule="evenodd" d="M29,331.9l1.4,0l0,-1.5l-1.4,0l0,1.5Z" class="g1_1" />
<path fill-rule="evenodd" d="M30.4,331.9l206.9,0l0,-1.5l-206.9,0l0,1.5Z" class="g1_1" />
<path fill-rule="evenodd" d="M237.3,331.9l1.4,0l0,-1.5l-1.4,0l0,1.5Z" class="g1_1" />
<path fill-rule="evenodd" d="M238.7,331.9l207,0l0,-1.5l-207,0l0,1.5Z" class="g1_1" />
<path fill-rule="evenodd" d="M445.8,331.9l1.4,0l0,-1.5l-1.4,0l0,1.5Z" class="g1_1" />
<path fill-rule="evenodd" d="M447.2,331.9l206.9,0l0,-1.5l-206.9,0l0,1.5Z" class="g1_1" />
<path fill-rule="evenodd" d="M654.1,331.9l1.5,0l0,-1.5l-1.5,0l0,1.5Z" class="g1_1" />
<path fill-rule="evenodd" d="M655.6,331.9l207,0l0,-1.5l-207,0l0,1.5Z" class="g1_1" />
<path fill-rule="evenodd" d="M862.6,331.9l1.5,0l0,-1.5l-1.5,0l0,1.5Z" class="g1_1" />
<path fill-rule="evenodd" d="M29,354.8l1.4,0l0,-22.9l-1.4,0l0,22.9Z" class="g1_1" />
<path fill-rule="evenodd" d="M237.3,354.8l1.4,0l0,-22.9l-1.4,0l0,22.9Z" class="g1_1" />
<path fill-rule="evenodd" d="M445.8,354.8l1.4,0l0,-22.9l-1.4,0l0,22.9Z" class="g1_1" />
<path fill-rule="evenodd" d="M654.1,354.8l1.5,0l0,-22.9l-1.5,0l0,22.9Z" class="g1_1" />
<path fill-rule="evenodd" d="M862.6,354.8l1.5,0l0,-22.9l-1.5,0l0,22.9Z" class="g1_1" />
<path fill-rule="evenodd" d="M29,356.2l1.4,0l0,-1.4l-1.4,0l0,1.4Z" class="g1_1" />
<path fill-rule="evenodd" d="M30.4,356.2l206.9,0l0,-1.4l-206.9,0l0,1.4Z" class="g1_1" />
<path fill-rule="evenodd" d="M237.3,356.2l1.4,0l0,-1.4l-1.4,0l0,1.4Z" class="g1_1" />
<path fill-rule="evenodd" d="M238.7,356.2l207,0l0,-1.4l-207,0l0,1.4Z" class="g1_1" />
<path fill-rule="evenodd" d="M445.8,356.2l1.4,0l0,-1.4l-1.4,0l0,1.4Z" class="g1_1" />
<path fill-rule="evenodd" d="M447.2,356.2l206.9,0l0,-1.4l-206.9,0l0,1.4Z" class="g1_1" />
<path fill-rule="evenodd" d="M654.1,356.2l1.5,0l0,-1.4l-1.5,0l0,1.4Z" class="g1_1" />
<path fill-rule="evenodd" d="M655.6,356.2l207,0l0,-1.4l-207,0l0,1.4Z" class="g1_1" />
<path fill-rule="evenodd" d="M862.6,356.2l1.5,0l0,-1.4l-1.5,0l0,1.4Z" class="g1_1" />
<path fill-rule="evenodd" d="M29,379.2l1.4,0l0,-22.9l-1.4,0l0,22.9Z" class="g1_1" />
<path fill-rule="evenodd" d="M237.3,379.2l1.4,0l0,-22.9l-1.4,0l0,22.9Z" class="g1_1" />
<path fill-rule="evenodd" d="M445.8,379.2l1.4,0l0,-22.9l-1.4,0l0,22.9Z" class="g1_1" />
<path fill-rule="evenodd" d="M654.1,379.2l1.5,0l0,-22.9l-1.5,0l0,22.9Z" class="g1_1" />
<path fill-rule="evenodd" d="M862.6,379.2l1.5,0l0,-22.9l-1.5,0l0,22.9Z" class="g1_1" />
<path fill-rule="evenodd" d="M29,380.7l1.4,0l0,-1.5l-1.4,0l0,1.5Z" class="g1_1" />
<path fill-rule="evenodd" d="M30.4,380.7l206.9,0l0,-1.5l-206.9,0l0,1.5Z" class="g1_1" />
<path fill-rule="evenodd" d="M237.3,380.7l1.4,0l0,-1.5l-1.4,0l0,1.5Z" class="g1_1" />
<path fill-rule="evenodd" d="M238.7,380.7l207,0l0,-1.5l-207,0l0,1.5Z" class="g1_1" />
<path fill-rule="evenodd" d="M445.8,380.7l1.4,0l0,-1.5l-1.4,0l0,1.5Z" class="g1_1" />
<path fill-rule="evenodd" d="M447.2,380.7l206.9,0l0,-1.5l-206.9,0l0,1.5Z" class="g1_1" />
<path fill-rule="evenodd" d="M654.1,380.7l1.5,0l0,-1.5l-1.5,0l0,1.5Z" class="g1_1" />
<path fill-rule="evenodd" d="M655.6,380.7l207,0l0,-1.5l-207,0l0,1.5Z" class="g1_1" />
<path fill-rule="evenodd" d="M862.6,380.7l1.5,0l0,-1.5l-1.5,0l0,1.5Z" class="g1_1" />
<path fill-rule="evenodd" d="M29,403.6l1.4,0l0,-22.9l-1.4,0l0,22.9Z" class="g1_1" />
<path fill-rule="evenodd" d="M237.3,403.6l1.4,0l0,-22.9l-1.4,0l0,22.9Z" class="g1_1" />
<path fill-rule="evenodd" d="M445.8,403.6l1.4,0l0,-22.9l-1.4,0l0,22.9Z" class="g1_1" />
<path fill-rule="evenodd" d="M654.1,403.6l1.5,0l0,-22.9l-1.5,0l0,22.9Z" class="g1_1" />
<path fill-rule="evenodd" d="M862.6,403.6l1.5,0l0,-22.9l-1.5,0l0,22.9Z" class="g1_1" />
<path fill-rule="evenodd" d="M29,405.1l1.4,0l0,-1.5l-1.4,0l0,1.5Z" class="g1_1" />
<path fill-rule="evenodd" d="M30.4,405.1l206.9,0l0,-1.5l-206.9,0l0,1.5Z" class="g1_1" />
<path fill-rule="evenodd" d="M237.3,405.1l1.4,0l0,-1.5l-1.4,0l0,1.5Z" class="g1_1" />
<path fill-rule="evenodd" d="M238.7,405.1l207,0l0,-1.5l-207,0l0,1.5Z" class="g1_1" />
<path fill-rule="evenodd" d="M445.8,405.1l1.4,0l0,-1.5l-1.4,0l0,1.5Z" class="g1_1" />
<path fill-rule="evenodd" d="M447.2,405.1l206.9,0l0,-1.5l-206.9,0l0,1.5Z" class="g1_1" />
<path fill-rule="evenodd" d="M654.1,405.1l1.5,0l0,-1.5l-1.5,0l0,1.5Z" class="g1_1" />
<path fill-rule="evenodd" d="M655.6,405.1l207,0l0,-1.5l-207,0l0,1.5Z" class="g1_1" />
<path fill-rule="evenodd" d="M862.6,405.1l1.5,0l0,-1.5l-1.5,0l0,1.5Z" class="g1_1" />
<path fill-rule="evenodd" d="M29,428l1.4,0l0,-22.9l-1.4,0L29,428Z" class="g1_1" />
<path fill-rule="evenodd" d="M237.3,428l1.4,0l0,-22.9l-1.4,0l0,22.9Z" class="g1_1" />
<path fill-rule="evenodd" d="M445.8,428l1.4,0l0,-22.9l-1.4,0l0,22.9Z" class="g1_1" />
<path fill-rule="evenodd" d="M654.1,428l1.5,0l0,-22.9l-1.5,0l0,22.9Z" class="g1_1" />
<path fill-rule="evenodd" d="M862.6,428l1.5,0l0,-22.9l-1.5,0l0,22.9Z" class="g1_1" />
<path fill-rule="evenodd" d="M29,429.4l1.4,0l0,-1.4L29,428l0,1.4Z" class="g1_1" />
<path fill-rule="evenodd" d="M30.4,429.4l206.9,0l0,-1.4L30.4,428l0,1.4Z" class="g1_1" />
<path fill-rule="evenodd" d="M237.3,429.4l1.4,0l0,-1.4l-1.4,0l0,1.4Z" class="g1_1" />
<path fill-rule="evenodd" d="M238.7,429.4l207,0l0,-1.4l-207,0l0,1.4Z" class="g1_1" />
<path fill-rule="evenodd" d="M445.8,429.4l1.4,0l0,-1.4l-1.4,0l0,1.4Z" class="g1_1" />
<path fill-rule="evenodd" d="M447.2,429.4l206.9,0l0,-1.4l-206.9,0l0,1.4Z" class="g1_1" />
<path fill-rule="evenodd" d="M654.1,429.4l1.5,0l0,-1.4l-1.5,0l0,1.4Z" class="g1_1" />
<path fill-rule="evenodd" d="M655.6,429.4l207,0l0,-1.4l-207,0l0,1.4Z" class="g1_1" />
<path fill-rule="evenodd" d="M862.6,429.4l1.5,0l0,-1.4l-1.5,0l0,1.4Z" class="g1_1" />
<path fill-rule="evenodd" d="M29,452.4l1.4,0l0,-23l-1.4,0l0,23Z" class="g1_1" />
<path fill-rule="evenodd" d="M237.3,452.4l1.4,0l0,-23l-1.4,0l0,23Z" class="g1_1" />
<path fill-rule="evenodd" d="M445.8,452.4l1.4,0l0,-23l-1.4,0l0,23Z" class="g1_1" />
<path fill-rule="evenodd" d="M654.1,452.4l1.5,0l0,-23l-1.5,0l0,23Z" class="g1_1" />
<path fill-rule="evenodd" d="M862.6,452.4l1.5,0l0,-23l-1.5,0l0,23Z" class="g1_1" />
<path fill-rule="evenodd" d="M29,453.8l1.4,0l0,-1.4l-1.4,0l0,1.4Z" class="g1_1" />
<path fill-rule="evenodd" d="M30.4,453.8l206.9,0l0,-1.4l-206.9,0l0,1.4Z" class="g1_1" />
<path fill-rule="evenodd" d="M237.3,453.8l1.4,0l0,-1.4l-1.4,0l0,1.4Z" class="g1_1" />
<path fill-rule="evenodd" d="M238.7,453.8l207,0l0,-1.4l-207,0l0,1.4Z" class="g1_1" />
<path fill-rule="evenodd" d="M445.8,453.8l1.4,0l0,-1.4l-1.4,0l0,1.4Z" class="g1_1" />
<path fill-rule="evenodd" d="M447.2,453.8l206.9,0l0,-1.4l-206.9,0l0,1.4Z" class="g1_1" />
<path fill-rule="evenodd" d="M654.1,453.8l1.5,0l0,-1.4l-1.5,0l0,1.4Z" class="g1_1" />
<path fill-rule="evenodd" d="M655.6,453.8l207,0l0,-1.4l-207,0l0,1.4Z" class="g1_1" />
<path fill-rule="evenodd" d="M862.6,453.8l1.5,0l0,-1.4l-1.5,0l0,1.4Z" class="g1_1" />
<path fill-rule="evenodd" d="M29,476.7l1.4,0l0,-22.9l-1.4,0l0,22.9Z" class="g1_1" />
<path fill-rule="evenodd" d="M237.3,476.7l1.4,0l0,-22.9l-1.4,0l0,22.9Z" class="g1_1" />
<path fill-rule="evenodd" d="M445.8,476.7l1.4,0l0,-22.9l-1.4,0l0,22.9Z" class="g1_1" />
<path fill-rule="evenodd" d="M654.1,476.7l1.5,0l0,-22.9l-1.5,0l0,22.9Z" class="g1_1" />
<path fill-rule="evenodd" d="M862.6,476.7l1.5,0l0,-22.9l-1.5,0l0,22.9Z" class="g1_1" />
<path fill-rule="evenodd" d="M29,478.2l1.4,0l0,-1.5l-1.4,0l0,1.5Z" class="g1_1" />
<path fill-rule="evenodd" d="M30.4,478.2l206.9,0l0,-1.5l-206.9,0l0,1.5Z" class="g1_1" />
<path fill-rule="evenodd" d="M237.3,478.2l1.4,0l0,-1.5l-1.4,0l0,1.5Z" class="g1_1" />
<path fill-rule="evenodd" d="M238.7,478.2l207,0l0,-1.5l-207,0l0,1.5Z" class="g1_1" />
<path fill-rule="evenodd" d="M445.8,478.2l1.4,0l0,-1.5l-1.4,0l0,1.5Z" class="g1_1" />
<path fill-rule="evenodd" d="M447.2,478.2l206.9,0l0,-1.5l-206.9,0l0,1.5Z" class="g1_1" />
<path fill-rule="evenodd" d="M654.1,478.2l1.5,0l0,-1.5l-1.5,0l0,1.5Z" class="g1_1" />
<path fill-rule="evenodd" d="M655.6,478.2l207,0l0,-1.5l-207,0l0,1.5Z" class="g1_1" />
<path fill-rule="evenodd" d="M862.6,478.2l1.5,0l0,-1.5l-1.5,0l0,1.5Z" class="g1_1" />
<path fill-rule="evenodd" d="M29,501.1l1.4,0l0,-22.9l-1.4,0l0,22.9Z" class="g1_1" />
<path fill-rule="evenodd" d="M237.3,501.1l1.4,0l0,-22.9l-1.4,0l0,22.9Z" class="g1_1" />
<path fill-rule="evenodd" d="M445.8,501.1l1.4,0l0,-22.9l-1.4,0l0,22.9Z" class="g1_1" />
<path fill-rule="evenodd" d="M654.1,501.1l1.5,0l0,-22.9l-1.5,0l0,22.9Z" class="g1_1" />
<path fill-rule="evenodd" d="M862.6,501.1l1.5,0l0,-22.9l-1.5,0l0,22.9Z" class="g1_1" />
<path fill-rule="evenodd" d="M29,502.6l1.4,0l0,-1.5l-1.4,0l0,1.5Z" class="g1_1" />
<path fill-rule="evenodd" d="M30.4,502.6l206.9,0l0,-1.5l-206.9,0l0,1.5Z" class="g1_1" />
<path fill-rule="evenodd" d="M237.3,502.6l1.4,0l0,-1.5l-1.4,0l0,1.5Z" class="g1_1" />
<path fill-rule="evenodd" d="M238.7,502.6l207,0l0,-1.5l-207,0l0,1.5Z" class="g1_1" />
<path fill-rule="evenodd" d="M445.8,502.6l1.4,0l0,-1.5l-1.4,0l0,1.5Z" class="g1_1" />
<path fill-rule="evenodd" d="M447.2,502.6l206.9,0l0,-1.5l-206.9,0l0,1.5Z" class="g1_1" />
<path fill-rule="evenodd" d="M654.1,502.6l1.5,0l0,-1.5l-1.5,0l0,1.5Z" class="g1_1" />
<path fill-rule="evenodd" d="M655.6,502.6l207,0l0,-1.5l-207,0l0,1.5Z" class="g1_1" />
<path fill-rule="evenodd" d="M862.6,502.6l1.5,0l0,-1.5l-1.5,0l0,1.5Z" class="g1_1" />
<path fill-rule="evenodd" d="M29,525.5l1.4,0l0,-22.9l-1.4,0l0,22.9Z" class="g1_1" />
<path fill-rule="evenodd" d="M237.3,525.5l1.4,0l0,-22.9l-1.4,0l0,22.9Z" class="g1_1" />
<path fill-rule="evenodd" d="M445.8,525.5l1.4,0l0,-22.9l-1.4,0l0,22.9Z" class="g1_1" />
<path fill-rule="evenodd" d="M654.1,525.5l1.5,0l0,-22.9l-1.5,0l0,22.9Z" class="g1_1" />
<path fill-rule="evenodd" d="M862.6,525.5l1.5,0l0,-22.9l-1.5,0l0,22.9Z" class="g1_1" />
<path fill-rule="evenodd" d="M29,527l1.4,0l0,-1.5l-1.4,0l0,1.5Z" class="g1_1" />
<path fill-rule="evenodd" d="M30.4,527l206.9,0l0,-1.5l-206.9,0l0,1.5Z" class="g1_1" />
<path fill-rule="evenodd" d="M237.3,527l1.4,0l0,-1.5l-1.4,0l0,1.5Z" class="g1_1" />
<path fill-rule="evenodd" d="M238.7,527l207,0l0,-1.5l-207,0l0,1.5Z" class="g1_1" />
<path fill-rule="evenodd" d="M445.8,527l1.4,0l0,-1.5l-1.4,0l0,1.5Z" class="g1_1" />
<path fill-rule="evenodd" d="M447.2,527l206.9,0l0,-1.5l-206.9,0l0,1.5Z" class="g1_1" />
<path fill-rule="evenodd" d="M654.1,527l1.5,0l0,-1.5l-1.5,0l0,1.5Z" class="g1_1" />
<path fill-rule="evenodd" d="M655.6,527l207,0l0,-1.5l-207,0l0,1.5Z" class="g1_1" />
<path fill-rule="evenodd" d="M862.6,527l1.5,0l0,-1.5l-1.5,0l0,1.5Z" class="g1_1" />
<path fill-rule="evenodd" d="M29,549.9l1.4,0l0,-22.9L29,527l0,22.9Z" class="g1_1" />
<path fill-rule="evenodd" d="M237.3,549.9l1.4,0l0,-22.9l-1.4,0l0,22.9Z" class="g1_1" />
<path fill-rule="evenodd" d="M445.8,549.9l1.4,0l0,-22.9l-1.4,0l0,22.9Z" class="g1_1" />
<path fill-rule="evenodd" d="M654.1,549.9l1.5,0l0,-22.9l-1.5,0l0,22.9Z" class="g1_1" />
<path fill-rule="evenodd" d="M862.6,549.9l1.5,0l0,-22.9l-1.5,0l0,22.9Z" class="g1_1" />
<path fill-rule="evenodd" d="M29,551.4l1.4,0l0,-1.5l-1.4,0l0,1.5Z" class="g1_1" />
<path fill-rule="evenodd" d="M30.4,551.4l206.9,0l0,-1.5l-206.9,0l0,1.5Z" class="g1_1" />
<path fill-rule="evenodd" d="M237.3,551.4l1.4,0l0,-1.5l-1.4,0l0,1.5Z" class="g1_1" />
<path fill-rule="evenodd" d="M238.7,551.4l207,0l0,-1.5l-207,0l0,1.5Z" class="g1_1" />
<path fill-rule="evenodd" d="M445.8,551.4l1.4,0l0,-1.5l-1.4,0l0,1.5Z" class="g1_1" />
<path fill-rule="evenodd" d="M447.2,551.4l206.9,0l0,-1.5l-206.9,0l0,1.5Z" class="g1_1" />
<path fill-rule="evenodd" d="M654.1,551.4l1.5,0l0,-1.5l-1.5,0l0,1.5Z" class="g1_1" />
<path fill-rule="evenodd" d="M655.6,551.4l207,0l0,-1.5l-207,0l0,1.5Z" class="g1_1" />
<path fill-rule="evenodd" d="M862.6,551.4l1.5,0l0,-1.5l-1.5,0l0,1.5Z" class="g1_1" />
<path fill-rule="evenodd" d="M29,574.3l1.4,0l0,-22.9l-1.4,0l0,22.9Z" class="g1_1" />
<path fill-rule="evenodd" d="M237.3,574.3l1.4,0l0,-22.9l-1.4,0l0,22.9Z" class="g1_1" />
<path fill-rule="evenodd" d="M445.8,574.3l1.4,0l0,-22.9l-1.4,0l0,22.9Z" class="g1_1" />
<path fill-rule="evenodd" d="M654.1,574.3l1.5,0l0,-22.9l-1.5,0l0,22.9Z" class="g1_1" />
<path fill-rule="evenodd" d="M862.6,574.3l1.5,0l0,-22.9l-1.5,0l0,22.9Z" class="g1_1" />
<path fill-rule="evenodd" d="M29,575.7l1.4,0l0,-1.4l-1.4,0l0,1.4Z" class="g1_1" />
<path fill-rule="evenodd" d="M30.4,575l206.9,0l0,-0.7l-206.9,0l0,0.7Z" class="g1_1" />
<path fill-rule="evenodd" d="M237.3,575.7l1.4,0l0,-1.4l-1.4,0l0,1.4Z" class="g1_1" />
<path fill-rule="evenodd" d="M237.3,575.7l1.4,0l0,-1.4l-1.4,0l0,1.4Z" class="g1_1" />
<path fill-rule="evenodd" d="M238.7,575.7l207,0l0,-1.4l-207,0l0,1.4Z" class="g1_1" />
<path fill-rule="evenodd" d="M445.8,575.7l1.4,0l0,-1.4l-1.4,0l0,1.4Z" class="g1_1" />
<path fill-rule="evenodd" d="M447.2,575.7l206.9,0l0,-1.4l-206.9,0l0,1.4Z" class="g1_1" />
<path fill-rule="evenodd" d="M654.1,575.7l1.5,0l0,-1.4l-1.5,0l0,1.4Z" class="g1_1" />
<path fill-rule="evenodd" d="M655.6,575.7l207,0l0,-1.4l-207,0l0,1.4Z" class="g1_1" />
<path fill-rule="evenodd" d="M862.6,575.7l1.5,0l0,-1.4l-1.5,0l0,1.4Z" class="g1_1" />
<path fill-rule="evenodd" d="M29,598.7l1.4,0l0,-23l-1.4,0l0,23Z" class="g1_1" />
<path fill-rule="evenodd" d="M862.6,598.7l1.5,0l0,-23l-1.5,0l0,23Z" class="g1_1" />
<path fill-rule="evenodd" d="M29,599.4l1.4,0l0,-0.7l-1.4,0l0,0.7Z" class="g1_1" />
<path fill-rule="evenodd" d="M30.4,599.4l832.2,0l0,-0.7l-832.2,0l0,0.7Z" class="g1_1" />
<path fill-rule="evenodd" d="M862.6,599.4l1.5,0l0,-0.7l-1.5,0l0,0.7Z" class="g1_1" />
<path fill-rule="evenodd" d="M29,622.3l1.4,0l0,-22.9l-1.4,0l0,22.9Z" class="g1_1" />
<path fill-rule="evenodd" d="M862.6,622.3l1.5,0l0,-22.9l-1.5,0l0,22.9Z" class="g1_1" />
<path fill-rule="evenodd" d="M29,623l1.4,0l0,-0.7l-1.4,0l0,0.7Z" class="g1_1" />
<path fill-rule="evenodd" d="M30.4,623l832.2,0l0,-0.7l-832.2,0l0,0.7Z" class="g1_1" />
<path fill-rule="evenodd" d="M862.6,623l1.5,0l0,-0.7l-1.5,0l0,0.7Z" class="g1_1" />
<path fill-rule="evenodd" d="M29,646l1.4,0l0,-23L29,623l0,23Z" class="g1_1" />
<path fill-rule="evenodd" d="M862.6,646l1.5,0l0,-23l-1.5,0l0,23Z" class="g1_1" />
<path fill-rule="evenodd" d="M29,646.7l1.4,0l0,-0.7L29,646l0,0.7Z" class="g1_1" />
<path fill-rule="evenodd" d="M30.4,646.7l832.2,0l0,-0.7L30.4,646l0,0.7Z" class="g1_1" />
<path fill-rule="evenodd" d="M862.6,646.7l1.5,0l0,-0.7l-1.5,0l0,0.7Z" class="g1_1" />
<path fill-rule="evenodd" d="M29,669.6l1.4,0l0,-22.9l-1.4,0l0,22.9Z" class="g1_1" />
<path fill-rule="evenodd" d="M862.6,669.6l1.5,0l0,-22.9l-1.5,0l0,22.9Z" class="g1_1" />
<path fill-rule="evenodd" d="M29,670.4l1.4,0l0,-0.8l-1.4,0l0,0.8Z" class="g1_1" />
<path fill-rule="evenodd" d="M30.4,670.4l832.2,0l0,-0.8l-832.2,0l0,0.8Z" class="g1_1" />
<path fill-rule="evenodd" d="M862.6,670.4l1.5,0l0,-0.8l-1.5,0l0,0.8Z" class="g1_1" />
<path fill-rule="evenodd" d="M29,693.3l1.4,0l0,-22.9l-1.4,0l0,22.9Z" class="g1_1" />
<path fill-rule="evenodd" d="M862.6,693.3l1.5,0l0,-22.9l-1.5,0l0,22.9Z" class="g1_1" />
<path fill-rule="evenodd" d="M29,694l1.4,0l0,-0.7l-1.4,0l0,0.7Z" class="g1_1" />
<path fill-rule="evenodd" d="M30.4,694l832.2,0l0,-0.7l-832.2,0l0,0.7Z" class="g1_1" />
<path fill-rule="evenodd" d="M862.6,694l1.5,0l0,-0.7l-1.5,0l0,0.7Z" class="g1_1" />
<path fill-rule="evenodd" d="M29,716.9l1.4,0l0,-22.9L29,694l0,22.9Z" class="g1_1" />
<path fill-rule="evenodd" d="M862.6,716.9l1.5,0l0,-22.9l-1.5,0l0,22.9Z" class="g1_1" />
<path fill-rule="evenodd" d="M29,717.7l1.4,0l0,-0.8l-1.4,0l0,0.8Z" class="g1_1" />
<path fill-rule="evenodd" d="M30.4,717.7l832.2,0l0,-0.8l-832.2,0l0,0.8Z" class="g1_1" />
<path fill-rule="evenodd" d="M862.6,717.7l1.5,0l0,-0.8l-1.5,0l0,0.8Z" class="g1_1" />
<path fill-rule="evenodd" d="M29,740.6l1.4,0l0,-22.9l-1.4,0l0,22.9Z" class="g1_1" />
<path fill-rule="evenodd" d="M862.6,740.6l1.5,0l0,-22.9l-1.5,0l0,22.9Z" class="g1_1" />
<path fill-rule="evenodd" d="M29,741.3l1.4,0l0,-0.7l-1.4,0l0,0.7Z" class="g1_1" />
<path fill-rule="evenodd" d="M30.4,741.3l832.2,0l0,-0.7l-832.2,0l0,0.7Z" class="g1_1" />
<path fill-rule="evenodd" d="M862.6,741.3l1.5,0l0,-0.7l-1.5,0l0,0.7Z" class="g1_1" />
<path fill-rule="evenodd" d="M29,764.2l1.4,0l0,-22.9l-1.4,0l0,22.9Z" class="g1_1" />
<path fill-rule="evenodd" d="M862.6,764.2l1.5,0l0,-22.9l-1.5,0l0,22.9Z" class="g1_1" />
<path fill-rule="evenodd" d="M29,765l1.4,0l0,-0.8l-1.4,0l0,0.8Z" class="g1_1" />
<path fill-rule="evenodd" d="M30.4,765l832.2,0l0,-0.8l-832.2,0l0,0.8Z" class="g1_1" />
<path fill-rule="evenodd" d="M862.6,765l1.5,0l0,-0.8l-1.5,0l0,0.8Z" class="g1_1" />
<path fill-rule="evenodd" d="M29,787.9l1.4,0l0,-22.9L29,765l0,22.9Z" class="g1_1" />
<path fill-rule="evenodd" d="M862.6,787.9l1.5,0l0,-22.9l-1.5,0l0,22.9Z" class="g1_1" />
<path fill-rule="evenodd" d="M29,788.6l1.4,0l0,-0.7l-1.4,0l0,0.7Z" class="g1_1" />
<path fill-rule="evenodd" d="M30.4,788.6l832.2,0l0,-0.7l-832.2,0l0,0.7Z" class="g1_1" />
<path fill-rule="evenodd" d="M862.6,788.6l1.5,0l0,-0.7l-1.5,0l0,0.7Z" class="g1_1" />
<path fill-rule="evenodd" d="M29,811.5l1.4,0l0,-22.9l-1.4,0l0,22.9Z" class="g1_1" />
<path fill-rule="evenodd" d="M862.6,811.5l1.5,0l0,-22.9l-1.5,0l0,22.9Z" class="g1_1" />
<path fill-rule="evenodd" d="M29,812.3l1.4,0l0,-0.8l-1.4,0l0,0.8Z" class="g1_1" />
<path fill-rule="evenodd" d="M30.4,812.3l832.2,0l0,-0.8l-832.2,0l0,0.8Z" class="g1_1" />
<path fill-rule="evenodd" d="M862.6,812.3l1.5,0l0,-0.8l-1.5,0l0,0.8Z" class="g1_1" />
<path fill-rule="evenodd" d="M29,835.2l1.4,0l0,-22.9l-1.4,0l0,22.9Z" class="g1_1" />
<path fill-rule="evenodd" d="M862.6,835.2l1.5,0l0,-22.9l-1.5,0l0,22.9Z" class="g1_1" />
<path fill-rule="evenodd" d="M29,835.9l1.4,0l0,-0.7l-1.4,0l0,0.7Z" class="g1_1" />
<path fill-rule="evenodd" d="M30.4,835.9l832.2,0l0,-0.7l-832.2,0l0,0.7Z" class="g1_1" />
<path fill-rule="evenodd" d="M862.6,835.9l1.5,0l0,-0.7l-1.5,0l0,0.7Z" class="g1_1" />
<path fill-rule="evenodd" d="M29,858.8l1.4,0l0,-22.9l-1.4,0l0,22.9Z" class="g1_1" />
<path fill-rule="evenodd" d="M862.6,858.8l1.5,0l0,-22.9l-1.5,0l0,22.9Z" class="g1_1" />
<path fill-rule="evenodd" d="M29,859.6l1.4,0l0,-0.8l-1.4,0l0,0.8Z" class="g1_1" />
<path fill-rule="evenodd" d="M30.4,859.6l832.2,0l0,-0.8l-832.2,0l0,0.8Z" class="g1_1" />
<path fill-rule="evenodd" d="M862.6,859.6l1.5,0l0,-0.8l-1.5,0l0,0.8Z" class="g1_1" />
<path fill-rule="evenodd" d="M29,882.5l1.4,0l0,-22.9l-1.4,0l0,22.9Z" class="g1_1" />
<path fill-rule="evenodd" d="M862.6,882.5l1.5,0l0,-22.9l-1.5,0l0,22.9Z" class="g1_1" />
<path fill-rule="evenodd" d="M29,883.3l1.4,0l0,-0.8l-1.4,0l0,0.8Z" class="g1_1" />
<path fill-rule="evenodd" d="M30.4,883.3l832.2,0l0,-0.8l-832.2,0l0,0.8Z" class="g1_1" />
<path fill-rule="evenodd" d="M862.6,883.3l1.5,0l0,-0.8l-1.5,0l0,0.8Z" class="g1_1" />
<path fill-rule="evenodd" d="M29,906.2l1.4,0l0,-22.9l-1.4,0l0,22.9Z" class="g1_1" />
<path fill-rule="evenodd" d="M862.6,906.2l1.5,0l0,-22.9l-1.5,0l0,22.9Z" class="g1_1" />
<path fill-rule="evenodd" d="M29,906.9l1.4,0l0,-0.7l-1.4,0l0,0.7Z" class="g1_1" />
<path fill-rule="evenodd" d="M30.4,906.9l832.2,0l0,-0.7l-832.2,0l0,0.7Z" class="g1_1" />
<path fill-rule="evenodd" d="M862.6,906.9l1.5,0l0,-0.7l-1.5,0l0,0.7Z" class="g1_1" />
<path fill-rule="evenodd" d="M29,929.8l1.4,0l0,-22.9l-1.4,0l0,22.9Z" class="g1_1" />
<path fill-rule="evenodd" d="M862.6,929.8l1.5,0l0,-22.9l-1.5,0l0,22.9Z" class="g1_1" />
<path fill-rule="evenodd" d="M29,930.6l1.4,0l0,-0.8l-1.4,0l0,0.8Z" class="g1_1" />
<path fill-rule="evenodd" d="M30.4,930.6l832.2,0l0,-0.8l-832.2,0l0,0.8Z" class="g1_1" />
<path fill-rule="evenodd" d="M862.6,930.6l1.5,0l0,-0.8l-1.5,0l0,0.8Z" class="g1_1" />
<path fill-rule="evenodd" d="M29,953.5l1.4,0l0,-22.9l-1.4,0l0,22.9Z" class="g1_1" />
<path fill-rule="evenodd" d="M862.6,953.5l1.5,0l0,-22.9l-1.5,0l0,22.9Z" class="g1_1" />
<path fill-rule="evenodd" d="M29,954.2l1.4,0l0,-0.7l-1.4,0l0,0.7Z" class="g1_1" />
<path fill-rule="evenodd" d="M30.4,954.2l832.2,0l0,-0.7l-832.2,0l0,0.7Z" class="g1_1" />
<path fill-rule="evenodd" d="M862.6,954.2l1.5,0l0,-0.7l-1.5,0l0,0.7Z" class="g1_1" />
<path fill-rule="evenodd" d="M29,977.1l1.4,0l0,-22.9l-1.4,0l0,22.9Z" class="g1_1" />
<path fill-rule="evenodd" d="M862.6,977.1l1.5,0l0,-22.9l-1.5,0l0,22.9Z" class="g1_1" />
<path fill-rule="evenodd" d="M29,977.9l1.4,0l0,-0.8l-1.4,0l0,0.8Z" class="g1_1" />
<path fill-rule="evenodd" d="M30.4,977.9l832.2,0l0,-0.8l-832.2,0l0,0.8Z" class="g1_1" />
<path fill-rule="evenodd" d="M862.6,977.9l1.5,0l0,-0.8l-1.5,0l0,0.8Z" class="g1_1" />
<path fill-rule="evenodd" d="M29,1000.8l1.4,0l0,-22.9l-1.4,0l0,22.9Z" class="g1_1" />
<path fill-rule="evenodd" d="M862.6,1000.8l1.5,0l0,-22.9l-1.5,0l0,22.9Z" class="g1_1" />
<path fill-rule="evenodd" d="M29,1001.5l1.4,0l0,-0.7l-1.4,0l0,0.7Z" class="g1_1" />
<path fill-rule="evenodd" d="M30.4,1001.5l832.2,0l0,-0.7l-832.2,0l0,0.7Z" class="g1_1" />
<path fill-rule="evenodd" d="M862.6,1001.5l1.5,0l0,-0.7l-1.5,0l0,0.7Z" class="g1_1" />
<path fill-rule="evenodd" d="M29,1024.4l1.4,0l0,-22.9l-1.4,0l0,22.9Z" class="g1_1" />
<path fill-rule="evenodd" d="M862.6,1024.4l1.5,0l0,-22.9l-1.5,0l0,22.9Z" class="g1_1" />
<path fill-rule="evenodd" d="M29,1025.2l1.4,0l0,-0.8l-1.4,0l0,0.8Z" class="g1_1" />
<path fill-rule="evenodd" d="M30.4,1025.2l832.2,0l0,-0.8l-832.2,0l0,0.8Z" class="g1_1" />
<path fill-rule="evenodd" d="M862.6,1025.2l1.5,0l0,-0.8l-1.5,0l0,0.8Z" class="g1_1" />
<path fill-rule="evenodd" d="M29,1048.1l1.4,0l0,-22.9l-1.4,0l0,22.9Z" class="g1_1" />
<path fill-rule="evenodd" d="M29,1048.8l833.6,0l0,-0.7l-833.6,0l0,0.7Z" class="g1_1" />
<path fill-rule="evenodd" d="M862.6,1048.1l1.5,0l0,-22.9l-1.5,0l0,22.9Z" class="g1_1" />
<path fill-rule="evenodd" d="M862.6,1048.8l1.5,0l0,-0.7l-1.5,0l0,0.7Z" class="g1_1" />
</svg>