<?xml version="1.0" encoding="UTF-8" standalone="no"?>
<!DOCTYPE svg PUBLIC "-//W3C//DTD SVG 1.1//EN"
"http://www.w3.org/Graphics/SVG/1.1/DTD/svg11.dtd">
<svg viewBox="0 0 909 1286" version="1.1" xmlns="http://www.w3.org/2000/svg" xmlns:xlink="http://www.w3.org/1999/xlink">
<defs>
<clipPath id="c0_1"><path d="M0,1286.2L0,0L909.4,0l0,1286.2Z" /></clipPath>
<style type="text/css"><![CDATA[
.g1_1{
fill: none;
stroke: #E2DCEA;
stroke-width: 1.1458334;
stroke-linecap: butt;
stroke-linejoin: miter;
stroke-miterlimit: 4;
}
.g2_1{
fill: #45146B;
}
.g3_1{
fill: none;
stroke: #FFFFFF;
stroke-width: 1.5277778;
stroke-linecap: butt;
stroke-linejoin: miter;
stroke-miterlimit: 4;
}
.g4_1{
fill: #F26430;
}
.g5_1{
fill: none;
stroke: #231F20;
stroke-width: 0.7638889;
stroke-linecap: butt;
stroke-linejoin: miter;
stroke-miterlimit: 4;
stroke-dasharray: 3,2;
}
.g6_1{
fill: none;
stroke: #45146B;
stroke-width: 0.7638889;
stroke-linecap: butt;
stroke-linejoin: miter;
}
.g7_1{
fill: #FFFFFF;
}
.g8_1{
fill: #FDEDE3;
}
.g9_1{
fill: none;
stroke: #45146B;
stroke-width: 1.1458334;
stroke-linecap: butt;
stroke-linejoin: miter;
}
.g10_1{
fill: none;
stroke: #796097;
stroke-width: 0.38194445;
stroke-linecap: butt;
stroke-linejoin: miter;
}
.g11_1{
fill: #FDDCC9;
}
.g12_1{
fill: none;
stroke: #45146B;
stroke-width: 1.5277778;
stroke-linecap: butt;
stroke-linejoin: miter;
}
.g13_1{
fill: #F58428;
}
.g14_1{
fill: none;
stroke: #FFFFFF;
stroke-width: 0.5943056;
stroke-linecap: butt;
stroke-linejoin: miter;
stroke-miterlimit: 4;
}
.g15_1{
fill: #C7BDD6;
}
.g16_1{
fill: #796097;
}
.g17_1{
fill: #5E3C7F;
}
]]></style>
</defs>
<g clip-path="url(#c0_1)">
<path d="M464.6,-10.9c94.1,-6.4,366.2,31.6,541.2,77.8c-5.2,41.3,-15.1,77,4,106.8C935.7,139.7,534.6,-2.9,464.6,-10.9Z" class="g1_1" />
<path d="M-12.9,1299.4l0,-248.7c0,0,296.1,52.1,510.2,225l37.7,34.2Z" class="g2_1" />
<path d="M-23,1242.9c55.9,-3.8,245.3,21.7,349.5,49.2c-3.1,24.6,-9,45.8,2.3,63.5C284.8,1335.4,18.6,1247.7,-23,1242.9Z" class="g3_1" />
<path d="M418.8,1419.2C412.9,1361.2,401.3,1254.7,324,1226c44.7,-27.1,134.9,-63,170.9,-62.1c66.7,38.8,86.3,55.4,111.9,134.4c-39.5,21.4,-136.6,86.4,-188,120.9Z" class="g4_1" />
<path d="M55.2,-12.9l0,1312.1" class="g5_1" />
</g>
<path d="M80.8,242.7l403.1,0" class="g6_1" />
<path d="M81.2,272.7l0,-29.6" class="g6_1" />
<path d="M483.9,242.7l403.1,0" class="g6_1" />
<path d="M483.9,272.7l0,-29.6" class="g6_1" />
<path d="M886.6,273.1l0,-30" class="g6_1" />
<path d="M80.8,273.1l403.5,0" class="g6_1" />
<path d="M81.2,303l0,-29.6" class="g6_1" />
<path d="M483.9,303l0,-29.6" class="g6_1" />
<path d="M886.6,303.4l0,-30.3" class="g6_1" />
<path d="M80.8,303.4l403.5,0" class="g6_1" />
<path d="M81.2,333.3l0,-29.5" class="g6_1" />
<path d="M483.9,333.3l0,-29.5" class="g6_1" />
<path d="M886.6,333.3l0,-29.9" class="g6_1" />
<path d="M80.8,333.7l403.1,0" class="g6_1" />
<path d="M81.2,363.6l0,-29.5" class="g6_1" />
<path d="M483.9,333.7l403.1,0" class="g6_1" />
<path d="M483.9,363.6l0,-29.5" class="g6_1" />
<path d="M886.6,363.6l0,-29.5" class="g6_1" />
<path d="M80.8,364l403.1,0" class="g6_1" />
<path d="M483.9,364L887,364" class="g6_1" />
<path d="M600.9,100.4l285.7,0l0,52l-285.7,0l0,-52Zm0,52l285.7,0l0,52l-285.7,0l0,-52Z" class="g7_1" />
<path d="M600.5,100.4l286.5,0" class="g6_1" />
<path d="M600.9,152l0,-51.2" class="g6_1" />
<path d="M886.6,152l0,-51.2" class="g6_1" />
<path d="M600.5,152.4l286.5,0" class="g6_1" />
<path d="M600.9,204l0,-51.2" class="g6_1" />
<path d="M886.6,204l0,-51.2" class="g6_1" />
<path d="M600.5,204.4l286.5,0" class="g6_1" />
<path d="M81.4,425l76.9,0l0,45.5l-76.9,0l0,-45.5Zm76.9,0l608.4,0l0,45.5l-608.4,0l0,-45.5Zm608.4,0l121.1,0l0,45.5l-121.1,0l0,-45.5Z" class="g8_1" />
<path d="M81.4,470.5l76.9,0l0,25.5l-76.9,0l0,-25.5Zm76.9,0l608.4,0l0,25.5l-608.4,0l0,-25.5Zm608.4,0l121.1,0l0,25.5l-121.1,0l0,-25.5ZM81.4,496l76.9,0l0,25.5l-76.9,0l0,-25.5Zm76.9,0l608.4,0l0,25.5l-608.4,0l0,-25.5Zm608.4,0l121.1,0l0,25.5l-121.1,0l0,-25.5ZM81.4,521.5l76.9,0l0,25.5l-76.9,0l0,-25.5Zm76.9,0l608.4,0l0,25.5l-608.4,0l0,-25.5Zm608.4,0l121.1,0l0,25.5l-121.1,0l0,-25.5ZM81.4,547l76.9,0l0,25.5l-76.9,0l0,-25.5Zm76.9,0l608.4,0l0,25.5l-608.4,0l0,-25.5Zm608.4,0l121.1,0l0,25.5l-121.1,0l0,-25.5ZM81.4,572.5l76.9,0l0,25.5l-76.9,0l0,-25.5Zm76.9,0l608.4,0l0,25.5l-608.4,0l0,-25.5Zm608.4,0l121.1,0l0,25.5l-121.1,0l0,-25.5ZM81.4,598l76.9,0l0,25.5l-76.9,0l0,-25.5Zm76.9,0l608.4,0l0,25.5l-608.4,0l0,-25.5Zm608.4,0l121.1,0l0,25.5l-121.1,0l0,-25.5ZM81.4,623.5l76.9,0l0,25.5l-76.9,0l0,-25.5Zm76.9,0l608.4,0l0,25.5l-608.4,0l0,-25.5Zm608.4,0l121.1,0l0,25.5l-121.1,0l0,-25.5ZM81.4,649l76.9,0l0,25.5l-76.9,0l0,-25.5Zm76.9,0l608.4,0l0,25.5l-608.4,0l0,-25.5Zm608.4,0l121.1,0l0,25.5l-121.1,0l0,-25.5ZM81.4,674.5l76.9,0l0,25.4l-76.9,0l0,-25.4Zm76.9,0l608.4,0l0,25.4l-608.4,0l0,-25.4Zm608.4,0l121.1,0l0,25.4l-121.1,0l0,-25.4ZM81.4,699.9l76.9,0l0,25.5l-76.9,0l0,-25.5Zm76.9,0l608.4,0l0,25.5l-608.4,0l0,-25.5Zm608.4,0l121.1,0l0,25.5l-121.1,0l0,-25.5ZM81.4,725.4l76.9,0l0,25.5l-76.9,0l0,-25.5Zm76.9,0l608.4,0l0,25.5l-608.4,0l0,-25.5Zm608.4,0l121.1,0l0,25.5l-121.1,0l0,-25.5ZM81.4,750.9l76.9,0l0,25.5l-76.9,0l0,-25.5Zm76.9,0l608.4,0l0,25.5l-608.4,0l0,-25.5Zm608.4,0l121.1,0l0,25.5l-121.1,0l0,-25.5ZM81.4,776.4l76.9,0l0,25.5l-76.9,0l0,-25.5Zm76.9,0l608.4,0l0,25.5l-608.4,0l0,-25.5Zm608.4,0l121.1,0l0,25.5l-121.1,0l0,-25.5ZM81.4,801.9l76.9,0l0,25.5l-76.9,0l0,-25.5Zm76.9,0l608.4,0l0,25.5l-608.4,0l0,-25.5Zm608.4,0l121.1,0l0,25.5l-121.1,0l0,-25.5ZM81.4,827.4l76.9,0l0,25.5l-76.9,0l0,-25.5Zm76.9,0l608.4,0l0,25.5l-608.4,0l0,-25.5Zm608.4,0l121.1,0l0,25.5l-121.1,0l0,-25.5ZM81.4,852.9l76.9,0l0,25.5l-76.9,0l0,-25.5Zm76.9,0l608.4,0l0,25.5l-608.4,0l0,-25.5Zm608.4,0l121.1,0l0,25.5l-121.1,0l0,-25.5ZM81.4,878.4l76.9,0l0,25.5l-76.9,0l0,-25.5Zm76.9,0l608.4,0l0,25.5l-608.4,0l0,-25.5Zm608.4,0l121.1,0l0,25.5l-121.1,0l0,-25.5ZM81.4,903.9l76.9,0l0,25.5l-76.9,0l0,-25.5Zm76.9,0l608.4,0l0,25.5l-608.4,0l0,-25.5Zm608.4,0l121.1,0l0,25.5l-121.1,0l0,-25.5ZM81.4,929.4l76.9,0l0,25.5l-76.9,0l0,-25.5Zm76.9,0l608.4,0l0,25.5l-608.4,0l0,-25.5Zm608.4,0l121.1,0l0,25.5l-121.1,0l0,-25.5ZM81.4,954.9l76.9,0l0,25.5l-76.9,0l0,-25.5Zm76.9,0l608.4,0l0,25.5l-608.4,0l0,-25.5Zm608.4,0l121.1,0l0,25.5l-121.1,0l0,-25.5ZM81.4,980.4l76.9,0l0,25.5l-76.9,0l0,-25.5Zm76.9,0l608.4,0l0,25.5l-608.4,0l0,-25.5Zm608.4,0l121.1,0l0,25.5l-121.1,0l0,-25.5ZM81.4,1005.9l76.9,0l0,25.5l-76.9,0l0,-25.5Zm76.9,0l608.4,0l0,25.5l-608.4,0l0,-25.5Zm608.4,0l121.1,0l0,25.5l-121.1,0l0,-25.5ZM81.4,1031.4l76.9,0l0,25.5l-76.9,0l0,-25.5Zm76.9,0l608.4,0l0,25.5l-608.4,0l0,-25.5Zm608.4,0l121.1,0l0,25.5l-121.1,0l0,-25.5Z" class="g7_1" />
<path d="M81.4,496l0,-25" class="g9_1" />
<path d="M158.3,495.8l0,-24.8" class="g9_1" />
<path d="M81.4,521.5l0,-25.5" class="g9_1" />
<path d="M158.3,521.3l0,-25.1" class="g9_1" />
<path d="M81.4,547l0,-25.5" class="g9_1" />
<path d="M158.3,546.8l0,-25.1" class="g9_1" />
<path d="M81.4,572.5l0,-25.5" class="g9_1" />
<path d="M158.3,572.3l0,-25.2" class="g9_1" />
<path d="M81.4,598l0,-25.5" class="g9_1" />
<path d="M158.3,597.8l0,-25.2" class="g9_1" />
<path d="M81.4,623.5l0,-25.5" class="g9_1" />
<path d="M158.3,623.3l0,-25.2" class="g9_1" />
<path d="M81.4,649l0,-25.5" class="g9_1" />
<path d="M158.3,648.8l0,-25.2" class="g9_1" />
<path d="M81.4,674.5l0,-25.5" class="g9_1" />
<path d="M158.3,674.3l0,-25.2" class="g9_1" />
<path d="M81.4,699.9l0,-25.4" class="g9_1" />
<path d="M158.3,699.8l0,-25.2" class="g9_1" />
<path d="M81.4,725.4l0,-25.4" class="g9_1" />
<path d="M158.3,725.3l0,-25.2" class="g9_1" />
<path d="M81.4,750.9l0,-25.5" class="g9_1" />
<path d="M158.3,750.8l0,-25.2" class="g9_1" />
<path d="M81.4,776.4l0,-25.5" class="g9_1" />
<path d="M158.3,776.3l0,-25.2" class="g9_1" />
<path d="M81.4,801.9l0,-25.5" class="g9_1" />
<path d="M158.3,801.8l0,-25.2" class="g9_1" />
<path d="M81.4,827.4l0,-25.5" class="g9_1" />
<path d="M158.3,827.3l0,-25.2" class="g9_1" />
<path d="M81.4,852.9l0,-25.5" class="g9_1" />
<path d="M158.3,852.7l0,-25.1" class="g9_1" />
<path d="M81.4,878.4l0,-25.5" class="g9_1" />
<path d="M158.3,878.2l0,-25.1" class="g9_1" />
<path d="M81.4,903.9l0,-25.5" class="g9_1" />
<path d="M158.3,903.7l0,-25.1" class="g9_1" />
<path d="M81.4,929.4l0,-25.5" class="g9_1" />
<path d="M158.3,929.2l0,-25.1" class="g9_1" />
<path d="M81.4,954.9l0,-25.5" class="g9_1" />
<path d="M158.3,954.7l0,-25.1" class="g9_1" />
<path d="M81.4,980.4l0,-25.5" class="g9_1" />
<path d="M158.3,980.2l0,-25.1" class="g9_1" />
<path d="M81.4,1005.9l0,-25.5" class="g9_1" />
<path d="M158.3,1005.7l0,-25.1" class="g9_1" />
<path d="M81.4,1031.4l0,-25.5" class="g9_1" />
<path d="M158.3,1031.2l0,-25.1" class="g9_1" />
<path d="M81.4,1056.4l0,-25" class="g9_1" />
<path d="M158.3,1056.4l0,-24.8" class="g9_1" />
<path d="M80.8,425l77.5,0" class="g9_1" />
<path d="M81.4,469.9l0,-44.3" class="g9_1" />
<path d="M158.3,425l608.4,0" class="g9_1" />
<path d="M158.3,469.9l0,-44.3" class="g9_1" />
<path d="M766.7,425l121.7,0" class="g9_1" />
<path d="M766.7,469.9l0,-44.3" class="g9_1" />
<path d="M887.8,469.9l0,-44.3" class="g9_1" />
<path d="M766.7,495.8l0,-24.8" class="g9_1" />
<path d="M887.8,496l0,-25" class="g9_1" />
<path d="M766.7,521.3l0,-25.1" class="g9_1" />
<path d="M887.8,521.5l0,-25.5" class="g9_1" />
<path d="M766.7,546.8l0,-25.1" class="g9_1" />
<path d="M887.8,547l0,-25.5" class="g9_1" />
<path d="M766.7,572.3l0,-25.2" class="g9_1" />
<path d="M887.8,572.5l0,-25.5" class="g9_1" />
<path d="M766.7,597.8l0,-25.2" class="g9_1" />
<path d="M887.8,598l0,-25.5" class="g9_1" />
<path d="M766.7,623.3l0,-25.2" class="g9_1" />
<path d="M887.8,623.5l0,-25.5" class="g9_1" />
<path d="M766.7,648.8l0,-25.2" class="g9_1" />
<path d="M887.8,649l0,-25.5" class="g9_1" />
<path d="M766.7,674.3l0,-25.2" class="g9_1" />
<path d="M887.8,674.5l0,-25.5" class="g9_1" />
<path d="M766.7,699.8l0,-25.2" class="g9_1" />
<path d="M887.8,699.9l0,-25.4" class="g9_1" />
<path d="M766.7,725.3l0,-25.2" class="g9_1" />
<path d="M887.8,725.4l0,-25.4" class="g9_1" />
<path d="M766.7,750.8l0,-25.2" class="g9_1" />
<path d="M887.8,750.9l0,-25.5" class="g9_1" />
<path d="M766.7,776.3l0,-25.2" class="g9_1" />
<path d="M887.8,776.4l0,-25.5" class="g9_1" />
<path d="M766.7,801.8l0,-25.2" class="g9_1" />
<path d="M887.8,801.9l0,-25.5" class="g9_1" />
<path d="M766.7,827.3l0,-25.2" class="g9_1" />
<path d="M887.8,827.4l0,-25.5" class="g9_1" />
<path d="M766.7,852.7l0,-25.1" class="g9_1" />
<path d="M887.8,852.9l0,-25.5" class="g9_1" />
<path d="M766.7,878.2l0,-25.1" class="g9_1" />
<path d="M887.8,878.4l0,-25.5" class="g9_1" />
<path d="M766.7,903.7l0,-25.1" class="g9_1" />
<path d="M887.8,903.9l0,-25.5" class="g9_1" />
<path d="M766.7,929.2l0,-25.1" class="g9_1" />
<path d="M887.8,929.4l0,-25.5" class="g9_1" />
<path d="M766.7,954.7l0,-25.1" class="g9_1" />
<path d="M887.8,954.9l0,-25.5" class="g9_1" />
<path d="M766.7,980.2l0,-25.1" class="g9_1" />
<path d="M887.8,980.4l0,-25.5" class="g9_1" />
<path d="M766.7,1005.7l0,-25.1" class="g9_1" />
<path d="M887.8,1005.9l0,-25.5" class="g9_1" />
<path d="M766.7,1031.2l0,-25.1" class="g9_1" />
<path d="M887.8,1031.4l0,-25.5" class="g9_1" />
<path d="M766.7,1056.4l0,-24.8" class="g9_1" />
<path d="M887.8,1056.4l0,-25" class="g9_1" />
<path d="M80.8,1056.9l77.5,0" class="g9_1" />
<path d="M158.3,1056.9l608.4,0" class="g9_1" />
<path d="M766.7,1056.9l121.7,0" class="g9_1" />
<path d="M82,496l76.3,0" class="g10_1" />
<path d="M158.3,496l608.4,0" class="g10_1" />
<path d="M766.7,496l120.6,0" class="g10_1" />
<path d="M82,521.5l76.3,0" class="g10_1" />
<path d="M158.3,521.5l608.4,0" class="g10_1" />
<path d="M766.7,521.5l120.6,0" class="g10_1" />
<path d="M82,547l76.3,0" class="g10_1" />
<path d="M158.3,547l608.4,0" class="g10_1" />
<path d="M766.7,547l120.6,0" class="g10_1" />
<path d="M82,572.5l76.3,0" class="g10_1" />
<path d="M158.3,572.5l608.4,0" class="g10_1" />
<path d="M766.7,572.5l120.6,0" class="g10_1" />
<path d="M82,598l76.3,0" class="g10_1" />
<path d="M158.3,598l608.4,0" class="g10_1" />
<path d="M766.7,598l120.6,0" class="g10_1" />
<path d="M82,623.5l76.3,0" class="g10_1" />
<path d="M158.3,623.5l608.4,0" class="g10_1" />
<path d="M766.7,623.5l120.6,0" class="g10_1" />
<path d="M82,649l76.3,0" class="g10_1" />
<path d="M158.3,649l608.4,0" class="g10_1" />
<path d="M766.7,649l120.6,0" class="g10_1" />
<path d="M82,674.5l76.3,0" class="g10_1" />
<path d="M158.3,674.5l608.4,0" class="g10_1" />
<path d="M766.7,674.5l120.6,0" class="g10_1" />
<path d="M82,699.9l76.3,0" class="g10_1" />
<path d="M158.3,699.9l608.4,0" class="g10_1" />
<path d="M766.7,699.9l120.6,0" class="g10_1" />
<path d="M82,725.4l76.3,0" class="g10_1" />
<path d="M158.3,725.4l608.4,0" class="g10_1" />
<path d="M766.7,725.4l120.6,0" class="g10_1" />
<path d="M82,750.9l76.3,0" class="g10_1" />
<path d="M158.3,750.9l608.4,0" class="g10_1" />
<path d="M766.7,750.9l120.6,0" class="g10_1" />
<path d="M82,776.4l76.3,0" class="g10_1" />
<path d="M158.3,776.4l608.4,0" class="g10_1" />
<path d="M766.7,776.4l120.6,0" class="g10_1" />
<path d="M82,801.9l76.3,0" class="g10_1" />
<path d="M158.3,801.9l608.4,0" class="g10_1" />
<path d="M766.7,801.9l120.6,0" class="g10_1" />
<path d="M82,827.4l76.3,0" class="g10_1" />
<path d="M158.3,827.4l608.4,0" class="g10_1" />
<path d="M766.7,827.4l120.6,0" class="g10_1" />
<path d="M82,852.9l76.3,0" class="g10_1" />
<path d="M158.3,852.9l608.4,0" class="g10_1" />
<path d="M766.7,852.9l120.6,0" class="g10_1" />
<path d="M82,878.4l76.3,0" class="g10_1" />
<path d="M158.3,878.4l608.4,0" class="g10_1" />
<path d="M766.7,878.4l120.6,0" class="g10_1" />
<path d="M82,903.9l76.3,0" class="g10_1" />
<path d="M158.3,903.9l608.4,0" class="g10_1" />
<path d="M766.7,903.9l120.6,0" class="g10_1" />
<path d="M82,929.4l76.3,0" class="g10_1" />
<path d="M158.3,929.4l608.4,0" class="g10_1" />
<path d="M766.7,929.4l120.6,0" class="g10_1" />
<path d="M82,954.9l76.3,0" class="g10_1" />
<path d="M158.3,954.9l608.4,0" class="g10_1" />
<path d="M766.7,954.9l120.6,0" class="g10_1" />
<path d="M82,980.4l76.3,0" class="g10_1" />
<path d="M158.3,980.4l608.4,0" class="g10_1" />
<path d="M766.7,980.4l120.6,0" class="g10_1" />
<path d="M82,1005.9l76.3,0" class="g10_1" />
<path d="M158.3,1005.9l608.4,0" class="g10_1" />
<path d="M766.7,1005.9l120.6,0" class="g10_1" />
<path d="M82,1031.4l76.3,0" class="g10_1" />
<path d="M158.3,1031.4l608.4,0" class="g10_1" />
<path d="M766.7,1031.4l120.6,0" class="g10_1" />
<path d="M80.8,470.5l77.5,0" class="g9_1" />
<path d="M158.3,470.5l608.4,0" class="g9_1" />
<path d="M766.7,470.5l121.7,0" class="g9_1" />
<path d="M675.4,1064.4l92.3,0l0,25.5l-92.3,0l0,-25.5Zm92.3,0l119.7,0l0,25.5l-119.7,0l0,-25.5Z" class="g8_1" />
<path d="M675.4,1089.9l92.3,0l0,26l-92.3,0l0,-26Zm92.3,0l119.7,0l0,26l-119.7,0l0,-26Z" class="g11_1" />
<path d="M675.4,1089.9l0,-24.8" class="g6_1" />
<path d="M767.7,1089.2l0,-24.1" class="g6_1" />
<path d="M887.4,1089.9l0,-24.8" class="g6_1" />
<path d="M675.4,1115.1l0,-25.2" class="g6_1" />
<path d="M767.7,1115.1l0,-24.4" class="g6_1" />
<path d="M887.4,1115.1l0,-25.2" class="g6_1" />
<path d="M675,1064.4l92.7,0" class="g12_1" />
<path d="M767.7,1064.4l120.1,0" class="g12_1" />
<path d="M675.8,1089.9l91.9,0" class="g12_1" />
<path d="M767.7,1089.9l119.3,0" class="g12_1" />
<path d="M675,1115.9l92.7,0" class="g12_1" />
<path d="M767.7,1115.9l120.1,0" class="g12_1" />
<path d="M148.2,118.6l0,0.3c0,2.7,1.2,3.6,4.7,3.6l2.5,0c2.9,0,4,-0.7,4,-2.7l0,-1.6c0,-2.1,-1.3,-2.4,-3.9,-2.7l-7.9,-0.9c-5.9,-0.6,-8.5,-3.5,-8.5,-9.5l0,-2.3c0,-3.4,1.1,-6.1,3.1,-7.8c2.1,-1.7,4.9,-2,8.8,-2l5.9,0c7.3,0,11.2,3.1,11.2,8.6l0,2.5l-9.4,0l0,-0.4c0,-2.2,-0.9,-2.9,-3.5,-2.9l-2.3,0c-2.8,0,-4,0.5,-4,2.4l0,1.5c0,2,1.3,2.2,3.9,2.5L160,108c6.2,0.7,9.3,3.6,9.3,8.8l0,3.5c0,6,-4,10,-10.4,10l-7.9,0c-8.4,0,-12.2,-2.7,-12.2,-9.2l0,-2.5l9.4,0Z" class="g13_1" />
<path d="M218.4,93.5l0,36.3l-9.4,0l0,-26.7l-7.3,26.7l-9.8,0l-7.3,-27l0,27l-9.5,0l0,-36.3l14.2,0l7.5,26.3l7.4,-26.3Z" class="g13_1" />
<path d="M244.3,116.1L240.7,101l-0.7,0l-3.7,15.1ZM232.9,93.5l15,0l10.2,36.3l-10.5,0L246,123.5l-11.5,0l-1.6,6.3l-10.5,0Z" class="g13_1" />
<path d="M277.2,111c3.2,0,4.2,-0.8,4.2,-4l0,-1.4c0,-3.1,-1,-4,-4.2,-4l-5.4,0l0,9.4ZM262,93.5l14.7,0c10.2,0,14.6,1.9,14.6,9.9l0,3c0,4.9,-2.4,7.7,-7,8.3c4.9,0.8,7,3.1,7,7.6l0,7.5l-9.9,0l0,-6.5c0,-3.2,-1.1,-4.1,-4.2,-4.1l-5.4,0l0,10.6l-9.8,0l0,-36.3Z" class="g13_1" />
<path d="M305,101.6l-9.3,0l0,-8.1l28.5,0l0,8.1l-9.3,0l0,28.2l-9.9,0Z" class="g13_1" />
<path d="M219.4,158.9c0,-1,-0.4,-1.1,-1.5,-1.1l-2.7,0l0,3.4l2.7,0c1,0,1.5,-0.1,1.5,-1.1Zm-5.2,-2l3.7,0c1.8,0,2.5,0.4,2.5,1.9l0,1.3c0,1.6,-0.7,2,-2.5,2l-2.7,0l0,3.4l-1,0l0,-8.6Z" class="g2_1" />
<path d="M221.3,159.4l0.8,0l0,-1.4l0.9,0l0,1.4l3,0l0,0.8l-3,0l0,3.3c0,1,0.2,1.3,1.1,1.3c0.9,0,1.1,-0.3,1.1,-1.3l0,-0.2l0.9,0l0,0.1c0,1.8,-0.5,2.2,-2.2,2.2c-1.4,0,-1.8,-0.6,-1.8,-2.2l0,-3.2l-0.8,0l0,-0.8Z" class="g2_1" />
<path d="M228,159.4l1.8,5.2l1.8,-5.2l0.9,0l-2.3,6.6c-0.4,1.3,-0.8,1.9,-1.8,1.9c-0.1,0,-0.3,0,-0.5,-0.1l0,-0.8c0.1,0.1,0.2,0.1,0.3,0.1c0.6,0,0.8,-0.3,1.1,-1l0.2,-0.6l-0.3,0l-2.1,-6.1l0.9,0Z" class="g2_1" />
<path d="M237.7,156.9l1,0l0,7.7l4.9,0l0,0.9l-5.9,0Z" class="g2_1" />
<path d="M244.1,159.4l0.8,0l0,-1.4l0.9,0l0,1.4l3,0l0,0.8l-3,0l0,3.3c0,1,0.2,1.3,1.1,1.3c0.9,0,1.1,-0.3,1.1,-1.3l0,-0.2l0.9,0l0,0.1c0,1.8,-0.5,2.2,-2.2,2.2c-1.4,0,-1.8,-0.6,-1.8,-2.2l0,-3.2l-0.8,0l0,-0.8Z" class="g2_1" />
<path d="M254.6,161.9c0,-1.2,-0.5,-1.8,-1.9,-1.8c-1.3,0,-1.4,0.4,-1.4,1.8l0,1.1c0,1.3,0.1,1.8,1.4,1.8c1.4,0,1.9,-0.6,1.9,-1.9Zm-1.9,3.7c-1.8,0,-2.4,-0.7,-2.4,-2.4l0,-1.5c0,-1.7,0.6,-2.4,2.4,-2.4c1,0,1.6,0.3,1.9,1l0,-3.4l0.9,0l0,8.6l-0.9,0l0,-0.9c-0.3,0.7,-0.9,1,-1.9,1Z" class="g2_1" />
<path d="M229.3,21.7c0,0,-12.9,25.1,-26.1,34.5c6.6,7.4,12.2,17.3,30.5,20.3c-4.4,3.3,-7.5,4.9,-10.7,8.3c-5.5,-5,-17,-18.2,-20.1,-20.3c-3,-2.1,-6.2,-5.3,-12.1,-6.4c7.4,-4.8,26.8,-19.8,38.5,-36.4Z" class="g2_1" />
<path d="M235.1,19.4C239.7,30.1,253.2,47,267.5,51c-9.7,0.6,-14.6,0.8,-20.7,-5.9C240.7,38.4,236.1,30.9,234.4,27.7c-3.6,4.4,-7.3,8.2,-10.2,12c6.1,-12.2,10.9,-20.3,10.9,-20.3Z" class="g2_1" />
<path d="M233.8,28.4c4,9.7,11.5,27.6,26.4,28.6C253.8,64,240,74.8,233.7,76.5C220.2,73.2,216,71.3,207.5,59c5.7,-5.8,19.2,-22,26.3,-30.6Z" class="g13_1" />
<path d="M270,53.1c-8.6,4.4,-30.6,22,-43.5,35.2c2.6,3.4,5.3,6,5.2,9.6C236.4,91.1,264.3,57.5,270,53.1Z" class="g2_1" />
<path d="M270,53.1c-8.6,4.4,-30.6,22,-43.5,35.2c2.6,3.4,5.3,6,5.2,9.6C236.4,91.1,264.3,57.5,270,53.1Z" class="g14_1" />
<path d="M222.4,59.6c0,1.8,-1.5,3.3,-3.4,3.3c-1.8,0,-3.3,-1.5,-3.3,-3.3c0,-1.9,1.5,-3.4,3.3,-3.4c1.9,0,3.4,1.5,3.4,3.4Z" class="g2_1" />
<path d="M244.5,49.4c0,1.1,-0.9,1.9,-1.9,1.9c-1.1,0,-1.9,-0.8,-1.9,-1.9c0,-1,0.8,-1.8,1.9,-1.8c1,0,1.9,0.8,1.9,1.8Z" class="g15_1" />
<path d="M222.5,66.2c0,1.2,-1,2.2,-2.2,2.2c-1.3,0,-2.2,-1,-2.2,-2.2C218.1,65,219,64,220.3,64c1.2,0,2.2,1,2.2,2.2Z" class="g7_1" />
<path d="M233.8,58.3c0,0.7,-0.6,1.3,-1.4,1.3c-0.7,0,-1.3,-0.6,-1.3,-1.3c0,-0.8,0.6,-1.4,1.3,-1.4c0.8,0,1.4,0.6,1.4,1.4Z" class="g7_1" />
<path d="M230.5,65.1c0,1.6,-1.2,2.9,-2.8,2.9c-1.6,0,-2.8,-1.3,-2.8,-2.9c0,-1.5,1.2,-2.8,2.8,-2.8c1.6,0,2.8,1.3,2.8,2.8Z" class="g16_1" />
<path d="M237.3,52.9c0,1.6,-1.4,3,-3.1,3c-1.6,0,-3,-1.4,-3,-3c0,-1.7,1.4,-3.1,3,-3.1c1.7,0,3.1,1.4,3.1,3.1Z" class="g7_1" />
<path d="M229.5,58.7c0,1.5,-1.3,2.8,-2.9,2.8c-1.5,0,-2.8,-1.3,-2.8,-2.8c0,-1.6,1.3,-2.9,2.8,-2.9c1.6,0,2.9,1.3,2.9,2.9Z" class="g17_1" />
<path d="M241.7,54.3c0,0.9,-0.7,1.7,-1.7,1.7c-0.9,0,-1.6,-0.8,-1.6,-1.7c0,-0.9,0.7,-1.6,1.6,-1.6c1,0,1.7,0.7,1.7,1.6Z" class="g16_1" />
<path d="M238.5,70.6c0,2.6,-2.1,4.7,-4.6,4.7c-2.6,0,-4.7,-2.1,-4.7,-4.7c0,-2.5,2.1,-4.6,4.7,-4.6c2.5,0,4.6,2.1,4.6,4.6Z" class="g7_1" />
<path d="M239.8,43.3c0,2.6,-2.1,4.6,-4.6,4.6c-2.6,0,-4.7,-2,-4.7,-4.6c0,-2.6,2.1,-4.6,4.7,-4.6c2.5,0,4.6,2,4.6,4.6Z" class="g7_1" />
</svg>