<?xml version="1.0" encoding="UTF-8" standalone="no"?>
<!DOCTYPE svg PUBLIC "-//W3C//DTD SVG 1.1//EN"
"http://www.w3.org/Graphics/SVG/1.1/DTD/svg11.dtd">
<svg viewBox="0 0 1286 909" version="1.1" xmlns="http://www.w3.org/2000/svg" xmlns:xlink="http://www.w3.org/1999/xlink">
<defs>
<style type="text/css"><![CDATA[
.g1_1{
}
]]></style>
</defs>
<image preserveAspectRatio="none" x="174" y="22" width="938" height="576" xlink:href="img/1.png" />
<path d="M23.8,220.2l0,4.4l799.9,0l0,-4.4l-799.9,0Z" class="g1_1" />
<path d="M823.7,220.9l0,3l80.1,0l0,-3l-80.1,0Z" class="g1_1" />
<path d="M19.4,64.5l0,182.3l4.4,0l0,-182.3l-4.4,0Z" class="g1_1" />
<path d="M820.8,132.2l0,65.1l2.9,0l0,-65.1l-2.9,0Z" class="g1_1" />
<path d="M1090.6,132.2l0,65.1l3,0l0,-65.1l-3,0Z" class="g1_1" />
<path d="M1261.1,68.9l0,177.9l4.4,0l0,-177.9l-4.4,0Z" class="g1_1" />
<path d="M23.1,267.5l0,1.5l383,0l0,-1.5l-383,0Z" class="g1_1" />
<path d="M409,267.5l0,1.5l74.3,0l0,-1.5l-74.3,0Z" class="g1_1" />
<path d="M486.2,267.5l0,1.5l334.6,0l0,-1.5l-334.6,0Z" class="g1_1" />
<path d="M823.7,267.5l0,1.5l80.1,0l0,-1.5l-80.1,0Z" class="g1_1" />
<path d="M906.7,267.5l0,1.5l87.5,0l0,-1.5l-87.5,0Z" class="g1_1" />
<path d="M997.1,267.5l0,1.5l93.5,0l0,-1.5l-93.5,0Z" class="g1_1" />
<path d="M1093.6,267.5l0,1.5l91.1,0l0,-1.5l-91.1,0Z" class="g1_1" />
<path d="M23.1,290.4l0,1.5l383,0l0,-1.5l-383,0Z" class="g1_1" />
<path d="M409,290.4l0,1.5l74.3,0l0,-1.5l-74.3,0Z" class="g1_1" />
<path d="M486.2,290.4l0,1.5l334.6,0l0,-1.5l-334.6,0Z" class="g1_1" />
<path d="M823.7,290.4l0,1.5l80.1,0l0,-1.5l-80.1,0Z" class="g1_1" />
<path d="M906.7,290.4l0,1.5l87.5,0l0,-1.5l-87.5,0Z" class="g1_1" />
<path d="M997.1,290.4l0,1.5l93.5,0l0,-1.5l-93.5,0Z" class="g1_1" />
<path d="M1093.6,290.4l0,1.5l91.1,0l0,-1.5l-91.1,0Z" class="g1_1" />
<path d="M23.1,313.3l0,1.5l383,0l0,-1.5l-383,0Z" class="g1_1" />
<path d="M409,313.3l0,1.5l74.3,0l0,-1.5l-74.3,0Z" class="g1_1" />
<path d="M486.2,313.3l0,1.5l334.6,0l0,-1.5l-334.6,0Z" class="g1_1" />
<path d="M823.7,313.3l0,1.5l80.1,0l0,-1.5l-80.1,0Z" class="g1_1" />
<path d="M906.7,313.3l0,1.5l87.5,0l0,-1.5l-87.5,0Z" class="g1_1" />
<path d="M997.1,313.3l0,1.5l93.5,0l0,-1.5l-93.5,0Z" class="g1_1" />
<path d="M1093.6,313.3l0,1.5l91.1,0l0,-1.5l-91.1,0Z" class="g1_1" />
<path d="M23.1,336.2l0,1.5l383,0l0,-1.5l-383,0Z" class="g1_1" />
<path d="M409,336.2l0,1.5l74.3,0l0,-1.5l-74.3,0Z" class="g1_1" />
<path d="M486.2,336.2l0,1.5l334.6,0l0,-1.5l-334.6,0Z" class="g1_1" />
<path d="M823.7,336.2l0,1.5l80.1,0l0,-1.5l-80.1,0Z" class="g1_1" />
<path d="M906.7,336.2l0,1.5l87.5,0l0,-1.5l-87.5,0Z" class="g1_1" />
<path d="M997.1,336.2l0,1.5l93.5,0l0,-1.5l-93.5,0Z" class="g1_1" />
<path d="M1093.6,336.2l0,1.5l91.1,0l0,-1.5l-91.1,0Z" class="g1_1" />
<path d="M23.1,359.2l0,1.4l383,0l0,-1.4l-383,0Z" class="g1_1" />
<path d="M409,359.2l0,1.4l74.3,0l0,-1.4l-74.3,0Z" class="g1_1" />
<path d="M486.2,359.2l0,1.4l334.6,0l0,-1.4l-334.6,0Z" class="g1_1" />
<path d="M823.7,359.2l0,1.4l80.1,0l0,-1.4l-80.1,0Z" class="g1_1" />
<path d="M906.7,359.2l0,1.4l87.5,0l0,-1.4l-87.5,0Z" class="g1_1" />
<path d="M997.1,359.2l0,1.4l93.5,0l0,-1.4l-93.5,0Z" class="g1_1" />
<path d="M1093.6,359.2l0,1.4l91.1,0l0,-1.4l-91.1,0Z" class="g1_1" />
<path d="M23.1,382.1l0,1.4l383,0l0,-1.4l-383,0Z" class="g1_1" />
<path d="M409,382.1l0,1.4l74.3,0l0,-1.4l-74.3,0Z" class="g1_1" />
<path d="M486.2,382.1l0,1.4l334.6,0l0,-1.4l-334.6,0Z" class="g1_1" />
<path d="M823.7,382.1l0,1.4l80.1,0l0,-1.4l-80.1,0Z" class="g1_1" />
<path d="M906.7,382.1l0,1.4l87.5,0l0,-1.4l-87.5,0Z" class="g1_1" />
<path d="M997.1,382.1l0,1.4l93.5,0l0,-1.4l-93.5,0Z" class="g1_1" />
<path d="M1093.6,382.1l0,1.4l91.1,0l0,-1.4l-91.1,0Z" class="g1_1" />
<path d="M23.1,405l0,1.4l383,0l0,-1.4l-383,0Z" class="g1_1" />
<path d="M409,405l0,1.4l74.3,0l0,-1.4L409,405Z" class="g1_1" />
<path d="M486.2,405l0,1.4l334.6,0l0,-1.4l-334.6,0Z" class="g1_1" />
<path d="M823.7,405l0,1.4l80.1,0l0,-1.4l-80.1,0Z" class="g1_1" />
<path d="M906.7,405l0,1.4l87.5,0l0,-1.4l-87.5,0Z" class="g1_1" />
<path d="M997.1,405l0,1.4l93.5,0l0,-1.4l-93.5,0Z" class="g1_1" />
<path d="M1093.6,405l0,1.4l91.1,0l0,-1.4l-91.1,0Z" class="g1_1" />
<path d="M23.1,427.9l0,1.5l383,0l0,-1.5l-383,0Z" class="g1_1" />
<path d="M409,427.9l0,1.5l74.3,0l0,-1.5l-74.3,0Z" class="g1_1" />
<path d="M486.2,427.9l0,1.5l334.6,0l0,-1.5l-334.6,0Z" class="g1_1" />
<path d="M823.7,427.9l0,1.5l80.1,0l0,-1.5l-80.1,0Z" class="g1_1" />
<path d="M906.7,427.9l0,1.5l87.5,0l0,-1.5l-87.5,0Z" class="g1_1" />
<path d="M997.1,427.9l0,1.5l93.5,0l0,-1.5l-93.5,0Z" class="g1_1" />
<path d="M1093.6,427.9l0,1.5l91.1,0l0,-1.5l-91.1,0Z" class="g1_1" />
<path d="M23.1,450.8l0,1.5l383,0l0,-1.5l-383,0Z" class="g1_1" />
<path d="M409,450.8l0,1.5l74.3,0l0,-1.5l-74.3,0Z" class="g1_1" />
<path d="M486.2,450.8l0,1.5l334.6,0l0,-1.5l-334.6,0Z" class="g1_1" />
<path d="M823.7,450.8l0,1.5l80.1,0l0,-1.5l-80.1,0Z" class="g1_1" />
<path d="M906.7,450.8l0,1.5l87.5,0l0,-1.5l-87.5,0Z" class="g1_1" />
<path d="M997.1,450.8l0,1.5l93.5,0l0,-1.5l-93.5,0Z" class="g1_1" />
<path d="M1093.6,450.8l0,1.5l91.1,0l0,-1.5l-91.1,0Z" class="g1_1" />
<path d="M23.1,473.7l0,1.5l383,0l0,-1.5l-383,0Z" class="g1_1" />
<path d="M409,473.7l0,1.5l74.3,0l0,-1.5l-74.3,0Z" class="g1_1" />
<path d="M486.2,473.7l0,1.5l334.6,0l0,-1.5l-334.6,0Z" class="g1_1" />
<path d="M823.7,473.7l0,1.5l80.1,0l0,-1.5l-80.1,0Z" class="g1_1" />
<path d="M906.7,473.7l0,1.5l87.5,0l0,-1.5l-87.5,0Z" class="g1_1" />
<path d="M997.1,473.7l0,1.5l93.5,0l0,-1.5l-93.5,0Z" class="g1_1" />
<path d="M1093.6,473.7l0,1.5l91.1,0l0,-1.5l-91.1,0Z" class="g1_1" />
<path d="M23.1,496.6l0,1.5l383,0l0,-1.5l-383,0Z" class="g1_1" />
<path d="M409,496.6l0,1.5l74.3,0l0,-1.5l-74.3,0Z" class="g1_1" />
<path d="M486.2,496.6l0,1.5l334.6,0l0,-1.5l-334.6,0Z" class="g1_1" />
<path d="M823.7,496.6l0,1.5l80.1,0l0,-1.5l-80.1,0Z" class="g1_1" />
<path d="M906.7,496.6l0,1.5l87.5,0l0,-1.5l-87.5,0Z" class="g1_1" />
<path d="M997.1,496.6l0,1.5l93.5,0l0,-1.5l-93.5,0Z" class="g1_1" />
<path d="M1093.6,496.6l0,1.5l91.1,0l0,-1.5l-91.1,0Z" class="g1_1" />
<path d="M20.2,246.8l0,272l2.9,0l0,-272l-2.9,0Z" class="g1_1" />
<path d="M1261.9,246.8l0,272l2.9,0l0,-272l-2.9,0Z" class="g1_1" />
<path d="M23.8,771.6l0,1.5l382.3,0l0,-1.5l-382.3,0Z" class="g1_1" />
<path d="M406.1,224.6l0,297.2l2.9,0l0,-297.2l-2.9,0Z" class="g1_1" />
<path d="M409,771.6l0,1.5l334.6,0l0,-1.5l-334.6,0Z" class="g1_1" />
<path d="M746.5,771.6l0,1.5l247.7,0l0,-1.5l-247.7,0Z" class="g1_1" />
<path d="M994.2,224.6l0,297.2l2.9,0l0,-297.2l-2.9,0Z" class="g1_1" />
<path d="M23.8,794.6l0,1.4l382.3,0l0,-1.4l-382.3,0Z" class="g1_1" />
<path d="M409,794.6l0,1.4l334.6,0l0,-1.4l-334.6,0Z" class="g1_1" />
<path d="M746.5,794.6l0,1.4l247.7,0l0,-1.4l-247.7,0Z" class="g1_1" />
<path d="M23.8,817.5l0,1.4l382.3,0l0,-1.4l-382.3,0Z" class="g1_1" />
<path d="M409,817.5l0,1.4l334.6,0l0,-1.4l-334.6,0Z" class="g1_1" />
<path d="M746.5,817.5l0,1.4l247.7,0l0,-1.4l-247.7,0Z" class="g1_1" />
<path d="M19.4,518.8l0,324.5l4.4,0l0,-324.5l-4.4,0Z" class="g1_1" />
<path d="M1261.1,518.8l0,324.5l4.4,0l0,-324.5l-4.4,0Z" class="g1_1" />
<path d="M328.9,132.2l0,65.1l2.9,0l0,-65.1l-2.9,0Z" class="g1_1" />
<path d="M637.6,132.2l0,65.1l3,0l0,-65.1l-3,0Z" class="g1_1" />
<path d="M820.8,224.6l0,297.2l2.9,0l0,-297.2l-2.9,0Z" class="g1_1" />
<path d="M1090.6,224.6l0,297.2l3,0l0,-297.2l-3,0Z" class="g1_1" />
<path d="M406.1,751.7l0,87.2l2.9,0l0,-87.2l-2.9,0Z" class="g1_1" />
<path d="M483.3,224.6l0,297.2l2.9,0l0,-297.2l-2.9,0Z" class="g1_1" />
<path d="M903.8,224.6l0,297.2l3,0l0,-297.2l-3,0Z" class="g1_1" />
<path d="M994.2,751.7l0,87.2l2.9,0l0,-87.2l-2.9,0Z" class="g1_1" />
<path d="M1184.7,224.6l0,297.2l2.9,0l0,-297.2l-2.9,0Z" class="g1_1" />
<path d="M743.6,751.7l0,87.2l2.9,0l0,-87.2l-2.9,0Z" class="g1_1" />
<path d="M23.8,64.5l0,4.4l1241.7,0l0,-4.4L23.8,64.5Z" class="g1_1" />
<path d="M23.8,105.6l0,4.4l1241.7,0l0,-4.4l-1241.7,0Z" class="g1_1" />
<path d="M23.8,129.2l0,3l1237.3,0l0,-3l-1237.3,0Z" class="g1_1" />
<path d="M1093.6,152.2l0,2.9l167.5,0l0,-2.9l-167.5,0Z" class="g1_1" />
<path d="M23.8,197.3l0,4.4l1241.7,0l0,-4.4l-1241.7,0Z" class="g1_1" />
<path d="M903.8,220.2l361.7,0l0,4.4l-361.7,0Z" class="g1_1" />
<path d="M23.8,243.8l0,3l1237.3,0l0,-3l-1237.3,0Z" class="g1_1" />
<path d="M1187.6,267.5l0,1.5l74.3,0l0,-1.5l-74.3,0Z" class="g1_1" />
<path d="M1187.6,290.4l0,1.5l74.3,0l0,-1.5l-74.3,0Z" class="g1_1" />
<path d="M1187.6,313.3l0,1.5l74.3,0l0,-1.5l-74.3,0Z" class="g1_1" />
<path d="M1187.6,336.2l0,1.5l74.3,0l0,-1.5l-74.3,0Z" class="g1_1" />
<path d="M1187.6,359.2l0,1.4l74.3,0l0,-1.4l-74.3,0Z" class="g1_1" />
<path d="M1187.6,382.1l0,1.4l74.3,0l0,-1.4l-74.3,0Z" class="g1_1" />
<path d="M1187.6,405l0,1.4l74.3,0l0,-1.4l-74.3,0Z" class="g1_1" />
<path d="M1187.6,427.9l0,1.5l74.3,0l0,-1.5l-74.3,0Z" class="g1_1" />
<path d="M1187.6,450.8l0,1.5l74.3,0l0,-1.5l-74.3,0Z" class="g1_1" />
<path d="M1187.6,473.7l0,1.5l74.3,0l0,-1.5l-74.3,0Z" class="g1_1" />
<path d="M1187.6,496.6l0,1.5l74.3,0l0,-1.5l-74.3,0Z" class="g1_1" />
<path d="M23.8,518.8l0,3l1237.3,0l0,-3l-1237.3,0Z" class="g1_1" />
<path d="M23.8,541.8l0,2.9l1237.3,0l0,-2.9l-1237.3,0Z" class="g1_1" />
<path d="M23.8,565.4l0,1.5l1237.3,0l0,-1.5l-1237.3,0Z" class="g1_1" />
<path d="M23.8,588.3l0,1.5l1237.3,0l0,-1.5l-1237.3,0Z" class="g1_1" />
<path d="M23.8,611.2l0,1.5l1237.3,0l0,-1.5l-1237.3,0Z" class="g1_1" />
<path d="M23.8,634.1l0,1.5l1237.3,0l0,-1.5l-1237.3,0Z" class="g1_1" />
<path d="M23.8,657.1l0,1.4l1237.3,0l0,-1.4l-1237.3,0Z" class="g1_1" />
<path d="M23.8,680l0,1.4l1237.3,0l0,-1.4L23.8,680Z" class="g1_1" />
<path d="M23.8,702.9l0,1.5l1237.3,0l0,-1.5l-1237.3,0Z" class="g1_1" />
<path d="M23.8,724.3l0,4.5l1241.7,0l0,-4.5l-1241.7,0Z" class="g1_1" />
<path d="M23.8,747.3l0,4.4l1241.7,0l0,-4.4l-1241.7,0Z" class="g1_1" />
<path d="M997.1,771.6l0,1.5l264,0l0,-1.5l-264,0Z" class="g1_1" />
<path d="M997.1,794.6l0,1.4l264,0l0,-1.4l-264,0Z" class="g1_1" />
<path d="M997.1,817.5l0,1.4l264,0l0,-1.4l-264,0Z" class="g1_1" />
<path d="M23.8,838.9l0,4.4l1241.7,0l0,-4.4l-1241.7,0Z" class="g1_1" />
</svg>