<?xml version="1.0" encoding="UTF-8" standalone="no"?>
<!DOCTYPE svg PUBLIC "-//W3C//DTD SVG 1.1//EN"
"http://www.w3.org/Graphics/SVG/1.1/DTD/svg11.dtd">
<svg viewBox="0 0 1286 909" version="1.1" xmlns="http://www.w3.org/2000/svg" xmlns:xlink="http://www.w3.org/1999/xlink">
<defs>
<style type="text/css"><![CDATA[
.g1_1{
}
]]></style>
</defs>
<image preserveAspectRatio="none" x="179" y="22" width="928" height="565" xlink:href="img/1.png" />
<path d="M26.1,212.5l0,4.4l794.1,0l0,-4.4l-794.1,0Z" class="g1_1" />
<path d="M820.2,213.2l0,2.9l85.3,0l0,-2.9l-85.3,0Z" class="g1_1" />
<path d="M21.7,59.5l0,179.2l4.4,0l0,-179.2l-4.4,0Z" class="g1_1" />
<path d="M817.3,126l0,63.9l2.9,0l0,-63.9l-2.9,0Z" class="g1_1" />
<path d="M1090.2,126l0,63.9l2.9,0l0,-63.9l-2.9,0Z" class="g1_1" />
<path d="M1258.7,63.9l0,174.8l4.4,0l0,-174.8l-4.4,0Z" class="g1_1" />
<path d="M25.4,259l0,1.5l378.4,0l0,-1.5L25.4,259Z" class="g1_1" />
<path d="M406.7,259l0,1.5l73.3,0l0,-1.5l-73.3,0Z" class="g1_1" />
<path d="M483,259l0,1.5l334.3,0l0,-1.5L483,259Z" class="g1_1" />
<path d="M820.2,259l0,1.5l85.3,0l0,-1.5l-85.3,0Z" class="g1_1" />
<path d="M908.4,259l0,1.5l86.4,0l0,-1.5l-86.4,0Z" class="g1_1" />
<path d="M997.8,259l0,1.5l92.4,0l0,-1.5l-92.4,0Z" class="g1_1" />
<path d="M1093.1,259l0,1.5l90,0l0,-1.5l-90,0Z" class="g1_1" />
<path d="M25.4,281.6l0,1.5l378.4,0l0,-1.5l-378.4,0Z" class="g1_1" />
<path d="M406.7,281.6l0,1.5l73.3,0l0,-1.5l-73.3,0Z" class="g1_1" />
<path d="M483,281.6l0,1.5l334.3,0l0,-1.5l-334.3,0Z" class="g1_1" />
<path d="M820.2,281.6l0,1.5l85.3,0l0,-1.5l-85.3,0Z" class="g1_1" />
<path d="M908.4,281.6l0,1.5l86.4,0l0,-1.5l-86.4,0Z" class="g1_1" />
<path d="M997.8,281.6l0,1.5l92.4,0l0,-1.5l-92.4,0Z" class="g1_1" />
<path d="M1093.1,281.6l0,1.5l90,0l0,-1.5l-90,0Z" class="g1_1" />
<path d="M25.4,304.2l0,1.4l378.4,0l0,-1.4l-378.4,0Z" class="g1_1" />
<path d="M406.7,304.2l0,1.4l73.3,0l0,-1.4l-73.3,0Z" class="g1_1" />
<path d="M483,304.2l0,1.4l334.3,0l0,-1.4l-334.3,0Z" class="g1_1" />
<path d="M820.2,304.2l0,1.4l85.3,0l0,-1.4l-85.3,0Z" class="g1_1" />
<path d="M908.4,304.2l0,1.4l86.4,0l0,-1.4l-86.4,0Z" class="g1_1" />
<path d="M997.8,304.2l0,1.4l92.4,0l0,-1.4l-92.4,0Z" class="g1_1" />
<path d="M1093.1,304.2l0,1.4l90,0l0,-1.4l-90,0Z" class="g1_1" />
<path d="M25.4,326.7l0,1.5l378.4,0l0,-1.5l-378.4,0Z" class="g1_1" />
<path d="M406.7,326.7l0,1.5l73.3,0l0,-1.5l-73.3,0Z" class="g1_1" />
<path d="M483,326.7l0,1.5l334.3,0l0,-1.5l-334.3,0Z" class="g1_1" />
<path d="M820.2,326.7l0,1.5l85.3,0l0,-1.5l-85.3,0Z" class="g1_1" />
<path d="M908.4,326.7l0,1.5l86.4,0l0,-1.5l-86.4,0Z" class="g1_1" />
<path d="M997.8,326.7l0,1.5l92.4,0l0,-1.5l-92.4,0Z" class="g1_1" />
<path d="M1093.1,326.7l0,1.5l90,0l0,-1.5l-90,0Z" class="g1_1" />
<path d="M25.4,349.3l0,1.4l378.4,0l0,-1.4l-378.4,0Z" class="g1_1" />
<path d="M406.7,349.3l0,1.4l73.3,0l0,-1.4l-73.3,0Z" class="g1_1" />
<path d="M483,349.3l0,1.4l334.3,0l0,-1.4l-334.3,0Z" class="g1_1" />
<path d="M820.2,349.3l0,1.4l85.3,0l0,-1.4l-85.3,0Z" class="g1_1" />
<path d="M908.4,349.3l0,1.4l86.4,0l0,-1.4l-86.4,0Z" class="g1_1" />
<path d="M997.8,349.3l0,1.4l92.4,0l0,-1.4l-92.4,0Z" class="g1_1" />
<path d="M1093.1,349.3l0,1.4l90,0l0,-1.4l-90,0Z" class="g1_1" />
<path d="M25.4,371.8l0,1.5l378.4,0l0,-1.5l-378.4,0Z" class="g1_1" />
<path d="M406.7,371.8l0,1.5l73.3,0l0,-1.5l-73.3,0Z" class="g1_1" />
<path d="M483,371.8l0,1.5l334.3,0l0,-1.5l-334.3,0Z" class="g1_1" />
<path d="M820.2,371.8l0,1.5l85.3,0l0,-1.5l-85.3,0Z" class="g1_1" />
<path d="M908.4,371.8l0,1.5l86.4,0l0,-1.5l-86.4,0Z" class="g1_1" />
<path d="M997.8,371.8l0,1.5l92.4,0l0,-1.5l-92.4,0Z" class="g1_1" />
<path d="M1093.1,371.8l0,1.5l90,0l0,-1.5l-90,0Z" class="g1_1" />
<path d="M25.4,394.3l0,1.5l378.4,0l0,-1.5l-378.4,0Z" class="g1_1" />
<path d="M406.7,394.3l0,1.5l73.3,0l0,-1.5l-73.3,0Z" class="g1_1" />
<path d="M483,394.3l0,1.5l334.3,0l0,-1.5l-334.3,0Z" class="g1_1" />
<path d="M820.2,394.3l0,1.5l85.3,0l0,-1.5l-85.3,0Z" class="g1_1" />
<path d="M908.4,394.3l0,1.5l86.4,0l0,-1.5l-86.4,0Z" class="g1_1" />
<path d="M997.8,394.3l0,1.5l92.4,0l0,-1.5l-92.4,0Z" class="g1_1" />
<path d="M1093.1,394.3l0,1.5l90,0l0,-1.5l-90,0Z" class="g1_1" />
<path d="M25.4,416.9l0,1.5l378.4,0l0,-1.5l-378.4,0Z" class="g1_1" />
<path d="M406.7,416.9l0,1.5l73.3,0l0,-1.5l-73.3,0Z" class="g1_1" />
<path d="M483,416.9l0,1.5l334.3,0l0,-1.5l-334.3,0Z" class="g1_1" />
<path d="M820.2,416.9l0,1.5l85.3,0l0,-1.5l-85.3,0Z" class="g1_1" />
<path d="M908.4,416.9l0,1.5l86.4,0l0,-1.5l-86.4,0Z" class="g1_1" />
<path d="M997.8,416.9l0,1.5l92.4,0l0,-1.5l-92.4,0Z" class="g1_1" />
<path d="M1093.1,416.9l0,1.5l90,0l0,-1.5l-90,0Z" class="g1_1" />
<path d="M25.4,439.5l0,1.4l378.4,0l0,-1.4l-378.4,0Z" class="g1_1" />
<path d="M406.7,439.5l0,1.4l73.3,0l0,-1.4l-73.3,0Z" class="g1_1" />
<path d="M483,439.5l0,1.4l334.3,0l0,-1.4l-334.3,0Z" class="g1_1" />
<path d="M820.2,439.5l0,1.4l85.3,0l0,-1.4l-85.3,0Z" class="g1_1" />
<path d="M908.4,439.5l0,1.4l86.4,0l0,-1.4l-86.4,0Z" class="g1_1" />
<path d="M997.8,439.5l0,1.4l92.4,0l0,-1.4l-92.4,0Z" class="g1_1" />
<path d="M1093.1,439.5l0,1.4l90,0l0,-1.4l-90,0Z" class="g1_1" />
<path d="M25.4,462l0,1.5l378.4,0l0,-1.5L25.4,462Z" class="g1_1" />
<path d="M406.7,462l0,1.5l73.3,0l0,-1.5l-73.3,0Z" class="g1_1" />
<path d="M483,462l0,1.5l334.3,0l0,-1.5L483,462Z" class="g1_1" />
<path d="M820.2,462l0,1.5l85.3,0l0,-1.5l-85.3,0Z" class="g1_1" />
<path d="M908.4,462l0,1.5l86.4,0l0,-1.5l-86.4,0Z" class="g1_1" />
<path d="M997.8,462l0,1.5l92.4,0l0,-1.5l-92.4,0Z" class="g1_1" />
<path d="M1093.1,462l0,1.5l90,0l0,-1.5l-90,0Z" class="g1_1" />
<path d="M25.4,484.6l0,1.4l378.4,0l0,-1.4l-378.4,0Z" class="g1_1" />
<path d="M406.7,484.6l0,1.4l73.3,0l0,-1.4l-73.3,0Z" class="g1_1" />
<path d="M483,484.6l0,1.4l334.3,0l0,-1.4l-334.3,0Z" class="g1_1" />
<path d="M820.2,484.6l0,1.4l85.3,0l0,-1.4l-85.3,0Z" class="g1_1" />
<path d="M908.4,484.6l0,1.4l86.4,0l0,-1.4l-86.4,0Z" class="g1_1" />
<path d="M997.8,484.6l0,1.4l92.4,0l0,-1.4l-92.4,0Z" class="g1_1" />
<path d="M1093.1,484.6l0,1.4l90,0l0,-1.4l-90,0Z" class="g1_1" />
<path d="M25.4,507.1l0,1.5l378.4,0l0,-1.5l-378.4,0Z" class="g1_1" />
<path d="M406.7,507.1l0,1.5l73.3,0l0,-1.5l-73.3,0Z" class="g1_1" />
<path d="M483,507.1l0,1.5l334.3,0l0,-1.5l-334.3,0Z" class="g1_1" />
<path d="M820.2,507.1l0,1.5l85.3,0l0,-1.5l-85.3,0Z" class="g1_1" />
<path d="M908.4,507.1l0,1.5l86.4,0l0,-1.5l-86.4,0Z" class="g1_1" />
<path d="M997.8,507.1l0,1.5l92.4,0l0,-1.5l-92.4,0Z" class="g1_1" />
<path d="M1093.1,507.1l0,1.5l90,0l0,-1.5l-90,0Z" class="g1_1" />
<path d="M22.4,238.7l0,290.2l3,0l0,-290.2l-3,0Z" class="g1_1" />
<path d="M1259.4,238.7l0,290.2l2.9,0l0,-290.2l-2.9,0Z" class="g1_1" />
<path d="M21.7,528.9l0,228.5l4.4,0l0,-228.5l-4.4,0Z" class="g1_1" />
<path d="M403.8,216.9l0,314.9l2.9,0l0,-314.9l-2.9,0Z" class="g1_1" />
<path d="M994.8,216.9l0,314.9l3,0l0,-314.9l-3,0Z" class="g1_1" />
<path d="M1258.7,528.9l0,228.5l4.4,0l0,-228.5l-4.4,0Z" class="g1_1" />
<path d="M25.4,777.7l0,1.5l378.4,0l0,-1.5l-378.4,0Z" class="g1_1" />
<path d="M406.7,777.7l0,1.5l334.3,0l0,-1.5l-334.3,0Z" class="g1_1" />
<path d="M744,777.7l0,1.5l250.8,0l0,-1.5l-250.8,0Z" class="g1_1" />
<path d="M25.4,800.2l0,1.5l378.4,0l0,-1.5l-378.4,0Z" class="g1_1" />
<path d="M406.7,800.2l0,1.5l334.3,0l0,-1.5l-334.3,0Z" class="g1_1" />
<path d="M744,800.2l0,1.5l250.8,0l0,-1.5l-250.8,0Z" class="g1_1" />
<path d="M25.4,822.8l0,1.5l378.4,0l0,-1.5l-378.4,0Z" class="g1_1" />
<path d="M406.7,822.8l0,1.5l334.3,0l0,-1.5l-334.3,0Z" class="g1_1" />
<path d="M744,822.8l0,1.5l250.8,0l0,-1.5l-250.8,0Z" class="g1_1" />
<path d="M22.4,757.4l0,90.2l3,0l0,-90.2l-3,0Z" class="g1_1" />
<path d="M1259.4,757.4l0,90.2l2.9,0l0,-90.2l-2.9,0Z" class="g1_1" />
<path d="M327.5,126l0,63.9l2.9,0l0,-63.9l-2.9,0Z" class="g1_1" />
<path d="M632.6,126l0,63.9l2.9,0l0,-63.9l-2.9,0Z" class="g1_1" />
<path d="M817.3,216.9l0,314.9l2.9,0l0,-314.9l-2.9,0Z" class="g1_1" />
<path d="M1090.2,216.9l0,314.9l2.9,0l0,-314.9l-2.9,0Z" class="g1_1" />
<path d="M403.8,757.4l0,90.2l2.9,0l0,-90.2l-2.9,0Z" class="g1_1" />
<path d="M480,216.9l0,314.9l3,0l0,-314.9l-3,0Z" class="g1_1" />
<path d="M905.5,216.9l0,314.9l2.9,0l0,-314.9l-2.9,0Z" class="g1_1" />
<path d="M994.8,757.4l0,90.2l3,0l0,-90.2l-3,0Z" class="g1_1" />
<path d="M1183.1,216.9l0,314.9l3,0l0,-314.9l-3,0Z" class="g1_1" />
<path d="M741,757.4l0,90.2l3,0l0,-90.2l-3,0Z" class="g1_1" />
<path d="M26.1,59.5l0,4.4l1237,0l0,-4.4l-1237,0Z" class="g1_1" />
<path d="M26.1,99.7l0,4.4l1237,0l0,-4.4l-1237,0Z" class="g1_1" />
<path d="M26.1,123l0,2.9l1232.6,0l0,-2.9L26.1,123Z" class="g1_1" />
<path d="M1093.1,145.6l0,2.9l165.6,0l0,-2.9l-165.6,0Z" class="g1_1" />
<path d="M26.1,189.9l0,4.4l1237,0l0,-4.4l-1237,0Z" class="g1_1" />
<path d="M905.5,212.5l357.6,0l0,4.4l-357.6,0Z" class="g1_1" />
<path d="M26.1,235.8l0,2.9l1232.6,0l0,-2.9l-1232.6,0Z" class="g1_1" />
<path d="M1186.1,259l0,1.5l73.3,0l0,-1.5l-73.3,0Z" class="g1_1" />
<path d="M1186.1,281.6l0,1.5l73.3,0l0,-1.5l-73.3,0Z" class="g1_1" />
<path d="M1186.1,304.2l0,1.4l73.3,0l0,-1.4l-73.3,0Z" class="g1_1" />
<path d="M1186.1,326.7l0,1.5l73.3,0l0,-1.5l-73.3,0Z" class="g1_1" />
<path d="M1186.1,349.3l0,1.4l73.3,0l0,-1.4l-73.3,0Z" class="g1_1" />
<path d="M1186.1,371.8l0,1.5l73.3,0l0,-1.5l-73.3,0Z" class="g1_1" />
<path d="M1186.1,394.3l0,1.5l73.3,0l0,-1.5l-73.3,0Z" class="g1_1" />
<path d="M1186.1,416.9l0,1.5l73.3,0l0,-1.5l-73.3,0Z" class="g1_1" />
<path d="M1186.1,439.5l0,1.4l73.3,0l0,-1.4l-73.3,0Z" class="g1_1" />
<path d="M1186.1,462l0,1.5l73.3,0l0,-1.5l-73.3,0Z" class="g1_1" />
<path d="M1186.1,484.6l0,1.4l73.3,0l0,-1.4l-73.3,0Z" class="g1_1" />
<path d="M1186.1,507.1l0,1.5l73.3,0l0,-1.5l-73.3,0Z" class="g1_1" />
<path d="M26.1,528.9l0,3l1232.6,0l0,-3l-1232.6,0Z" class="g1_1" />
<path d="M26.1,551.5l0,2.9l1232.6,0l0,-2.9l-1232.6,0Z" class="g1_1" />
<path d="M26.1,574.8l0,1.4l1232.6,0l0,-1.4l-1232.6,0Z" class="g1_1" />
<path d="M26.1,597.3l0,1.5l1232.6,0l0,-1.5l-1232.6,0Z" class="g1_1" />
<path d="M26.1,619.9l0,1.4l1232.6,0l0,-1.4l-1232.6,0Z" class="g1_1" />
<path d="M26.1,642.4l0,1.5l1232.6,0l0,-1.5l-1232.6,0Z" class="g1_1" />
<path d="M26.1,664.9l0,1.5l1232.6,0l0,-1.5l-1232.6,0Z" class="g1_1" />
<path d="M26.1,687.5l0,1.5l1232.6,0l0,-1.5l-1232.6,0Z" class="g1_1" />
<path d="M26.1,710.1l0,1.4l1232.6,0l0,-1.4l-1232.6,0Z" class="g1_1" />
<path d="M26.1,731.1l0,4.4l1237,0l0,-4.4l-1237,0Z" class="g1_1" />
<path d="M26.1,754.4l0,3l1232.6,0l0,-3l-1232.6,0Z" class="g1_1" />
<path d="M997.8,777.7l0,1.5l261.6,0l0,-1.5l-261.6,0Z" class="g1_1" />
<path d="M997.8,800.2l0,1.5l261.6,0l0,-1.5l-261.6,0Z" class="g1_1" />
<path d="M997.8,822.8l0,1.5l261.6,0l0,-1.5l-261.6,0Z" class="g1_1" />
<path d="M25.4,844.6l0,3l1236.9,0l0,-3l-1236.9,0Z" class="g1_1" />
</svg>