<?xml version="1.0" encoding="UTF-8" standalone="no"?>
<!DOCTYPE svg PUBLIC "-//W3C//DTD SVG 1.1//EN"
"http://www.w3.org/Graphics/SVG/1.1/DTD/svg11.dtd">
<svg viewBox="0 0 1286 909" version="1.1" xmlns="http://www.w3.org/2000/svg" xmlns:xlink="http://www.w3.org/1999/xlink">
<defs>
<style type="text/css"><![CDATA[
.g1_1{
}
]]></style>
</defs>
<image preserveAspectRatio="none" x="189" y="22" width="908" height="557" xlink:href="img/1.png" />
<path d="M20.5,86.6l0,154.8l4.4,0l0,-154.8l-4.4,0Z" class="g1_1" />
<path d="M795.4,152.3l0,63.1l2.9,0l0,-63.1l-2.9,0Z" class="g1_1" />
<path d="M988.9,130.7l0,21.6l2.9,0l0,-21.6l-2.9,0Z" class="g1_1" />
<path d="M1082.2,152.3l0,63.1l2.9,0l0,-63.1l-2.9,0Z" class="g1_1" />
<path d="M1259.9,91l0,150.4l4.4,0l0,-150.4l-4.4,0Z" class="g1_1" />
<path d="M21.3,241.4l0,19.3l2.9,0l0,-19.3l-2.9,0Z" class="g1_1" />
<path d="M24.9,283.7l0,1.5l369.4,0l0,-1.5l-369.4,0Z" class="g1_1" />
<path d="M397.3,283.7l0,1.5l71.7,0l0,-1.5l-71.7,0Z" class="g1_1" />
<path d="M471.9,283.7l0,1.5l323.5,0l0,-1.5l-323.5,0Z" class="g1_1" />
<path d="M798.3,283.7l0,1.5l103.1,0l0,-1.5l-103.1,0Z" class="g1_1" />
<path d="M904.4,283.7l0,1.5l84.5,0l0,-1.5l-84.5,0Z" class="g1_1" />
<path d="M991.8,283.7l0,1.5l90.4,0l0,-1.5l-90.4,0Z" class="g1_1" />
<path d="M1085.1,283.7l0,1.5l100.9,0l0,-1.5l-100.9,0Z" class="g1_1" />
<path d="M24.9,306l0,1.5l369.4,0l0,-1.5L24.9,306Z" class="g1_1" />
<path d="M397.3,306l0,1.5l71.7,0l0,-1.5l-71.7,0Z" class="g1_1" />
<path d="M471.9,306l0,1.5l323.5,0l0,-1.5l-323.5,0Z" class="g1_1" />
<path d="M798.3,306l0,1.5l103.1,0l0,-1.5l-103.1,0Z" class="g1_1" />
<path d="M904.4,306l0,1.5l84.5,0l0,-1.5l-84.5,0Z" class="g1_1" />
<path d="M991.8,306l0,1.5l90.4,0l0,-1.5l-90.4,0Z" class="g1_1" />
<path d="M1085.1,306l0,1.5l100.9,0l0,-1.5l-100.9,0Z" class="g1_1" />
<path d="M24.9,328.3l0,1.4l369.4,0l0,-1.4l-369.4,0Z" class="g1_1" />
<path d="M397.3,328.3l0,1.4l71.7,0l0,-1.4l-71.7,0Z" class="g1_1" />
<path d="M471.9,328.3l0,1.4l323.5,0l0,-1.4l-323.5,0Z" class="g1_1" />
<path d="M798.3,328.3l0,1.4l103.1,0l0,-1.4l-103.1,0Z" class="g1_1" />
<path d="M904.4,328.3l0,1.4l84.5,0l0,-1.4l-84.5,0Z" class="g1_1" />
<path d="M991.8,328.3l0,1.4l90.4,0l0,-1.4l-90.4,0Z" class="g1_1" />
<path d="M1085.1,328.3l0,1.4l100.9,0l0,-1.4l-100.9,0Z" class="g1_1" />
<path d="M24.9,350.5l0,1.5l369.4,0l0,-1.5l-369.4,0Z" class="g1_1" />
<path d="M397.3,350.5l0,1.5l71.7,0l0,-1.5l-71.7,0Z" class="g1_1" />
<path d="M471.9,350.5l0,1.5l323.5,0l0,-1.5l-323.5,0Z" class="g1_1" />
<path d="M798.3,350.5l0,1.5l103.1,0l0,-1.5l-103.1,0Z" class="g1_1" />
<path d="M904.4,350.5l0,1.5l84.5,0l0,-1.5l-84.5,0Z" class="g1_1" />
<path d="M991.8,350.5l0,1.5l90.4,0l0,-1.5l-90.4,0Z" class="g1_1" />
<path d="M1085.1,350.5l0,1.5l100.9,0l0,-1.5l-100.9,0Z" class="g1_1" />
<path d="M24.9,372.8l0,1.5l369.4,0l0,-1.5l-369.4,0Z" class="g1_1" />
<path d="M397.3,372.8l0,1.5l71.7,0l0,-1.5l-71.7,0Z" class="g1_1" />
<path d="M471.9,372.8l0,1.5l323.5,0l0,-1.5l-323.5,0Z" class="g1_1" />
<path d="M798.3,372.8l0,1.5l103.1,0l0,-1.5l-103.1,0Z" class="g1_1" />
<path d="M904.4,372.8l0,1.5l84.5,0l0,-1.5l-84.5,0Z" class="g1_1" />
<path d="M991.8,372.8l0,1.5l90.4,0l0,-1.5l-90.4,0Z" class="g1_1" />
<path d="M1085.1,372.8l0,1.5l100.9,0l0,-1.5l-100.9,0Z" class="g1_1" />
<path d="M24.9,395.1l0,1.4l369.4,0l0,-1.4l-369.4,0Z" class="g1_1" />
<path d="M397.3,395.1l0,1.4l71.7,0l0,-1.4l-71.7,0Z" class="g1_1" />
<path d="M471.9,395.1l0,1.4l323.5,0l0,-1.4l-323.5,0Z" class="g1_1" />
<path d="M798.3,395.1l0,1.4l103.1,0l0,-1.4l-103.1,0Z" class="g1_1" />
<path d="M904.4,395.1l0,1.4l84.5,0l0,-1.4l-84.5,0Z" class="g1_1" />
<path d="M991.8,395.1l0,1.4l90.4,0l0,-1.4l-90.4,0Z" class="g1_1" />
<path d="M1085.1,395.1l0,1.4l100.9,0l0,-1.4l-100.9,0Z" class="g1_1" />
<path d="M24.9,417.4l0,1.4l369.4,0l0,-1.4l-369.4,0Z" class="g1_1" />
<path d="M397.3,417.4l0,1.4l71.7,0l0,-1.4l-71.7,0Z" class="g1_1" />
<path d="M471.9,417.4l0,1.4l323.5,0l0,-1.4l-323.5,0Z" class="g1_1" />
<path d="M798.3,417.4l0,1.4l103.1,0l0,-1.4l-103.1,0Z" class="g1_1" />
<path d="M904.4,417.4l0,1.4l84.5,0l0,-1.4l-84.5,0Z" class="g1_1" />
<path d="M991.8,417.4l0,1.4l90.4,0l0,-1.4l-90.4,0Z" class="g1_1" />
<path d="M1085.1,417.4l0,1.4l100.9,0l0,-1.4l-100.9,0Z" class="g1_1" />
<path d="M24.9,439.6l0,1.5l369.4,0l0,-1.5l-369.4,0Z" class="g1_1" />
<path d="M397.3,439.6l0,1.5l71.7,0l0,-1.5l-71.7,0Z" class="g1_1" />
<path d="M471.9,439.6l0,1.5l323.5,0l0,-1.5l-323.5,0Z" class="g1_1" />
<path d="M798.3,439.6l0,1.5l103.1,0l0,-1.5l-103.1,0Z" class="g1_1" />
<path d="M904.4,439.6l0,1.5l84.5,0l0,-1.5l-84.5,0Z" class="g1_1" />
<path d="M991.8,439.6l0,1.5l90.4,0l0,-1.5l-90.4,0Z" class="g1_1" />
<path d="M1085.1,439.6l0,1.5l100.9,0l0,-1.5l-100.9,0Z" class="g1_1" />
<path d="M24.9,461.9l0,1.5l369.4,0l0,-1.5l-369.4,0Z" class="g1_1" />
<path d="M397.3,461.9l0,1.5l71.7,0l0,-1.5l-71.7,0Z" class="g1_1" />
<path d="M471.9,461.9l0,1.5l323.5,0l0,-1.5l-323.5,0Z" class="g1_1" />
<path d="M798.3,461.9l0,1.5l103.1,0l0,-1.5l-103.1,0Z" class="g1_1" />
<path d="M904.4,461.9l0,1.5l84.5,0l0,-1.5l-84.5,0Z" class="g1_1" />
<path d="M991.8,461.9l0,1.5l90.4,0l0,-1.5l-90.4,0Z" class="g1_1" />
<path d="M1085.1,461.9l0,1.5l100.9,0l0,-1.5l-100.9,0Z" class="g1_1" />
<path d="M24.9,484.2l0,1.5l369.4,0l0,-1.5l-369.4,0Z" class="g1_1" />
<path d="M397.3,484.2l0,1.5l71.7,0l0,-1.5l-71.7,0Z" class="g1_1" />
<path d="M471.9,484.2l0,1.5l323.5,0l0,-1.5l-323.5,0Z" class="g1_1" />
<path d="M798.3,484.2l0,1.5l103.1,0l0,-1.5l-103.1,0Z" class="g1_1" />
<path d="M904.4,484.2l0,1.5l84.5,0l0,-1.5l-84.5,0Z" class="g1_1" />
<path d="M991.8,484.2l0,1.5l90.4,0l0,-1.5l-90.4,0Z" class="g1_1" />
<path d="M1085.1,484.2l0,1.5l100.9,0l0,-1.5l-100.9,0Z" class="g1_1" />
<path d="M24.9,505l0,4.4l372.4,0l0,-4.4L24.9,505Z" class="g1_1" />
<path d="M1260.6,241.4l0,264.3l2.9,0l0,-264.3l-2.9,0Z" class="g1_1" />
<path d="M20.5,260.7l0,448.4l4.4,0l0,-448.4l-4.4,0Z" class="g1_1" />
<path d="M1259.9,505.7l0,203.4l4.4,0l0,-203.4l-4.4,0Z" class="g1_1" />
<path d="M394.3,241.4l0,263.6l3,0l0,-263.6l-3,0Z" class="g1_1" />
<path d="M988.9,241.4l0,267.3l2.9,0l0,-267.3l-2.9,0Z" class="g1_1" />
<path d="M24.2,751.5l0,1.5l370.1,0l0,-1.5l-370.1,0Z" class="g1_1" />
<path d="M397.3,751.5l0,1.5l323.5,0l0,-1.5l-323.5,0Z" class="g1_1" />
<path d="M723.7,751.5l0,1.5l265.2,0l0,-1.5l-265.2,0Z" class="g1_1" />
<path d="M24.2,773.8l0,1.4l370.1,0l0,-1.4l-370.1,0Z" class="g1_1" />
<path d="M397.3,773.8l0,1.4l323.5,0l0,-1.4l-323.5,0Z" class="g1_1" />
<path d="M723.7,773.8l0,1.4l265.2,0l0,-1.4l-265.2,0Z" class="g1_1" />
<path d="M24.2,796l0,1.5l370.1,0l0,-1.5L24.2,796Z" class="g1_1" />
<path d="M397.3,796l0,1.5l323.5,0l0,-1.5l-323.5,0Z" class="g1_1" />
<path d="M723.7,796l0,1.5l265.2,0l0,-1.5l-265.2,0Z" class="g1_1" />
<path d="M21.3,709.1l0,111.4l2.9,0l0,-111.4l-2.9,0Z" class="g1_1" />
<path d="M1260.6,709.1l0,111.4l2.9,0l0,-111.4l-2.9,0Z" class="g1_1" />
<path d="M319.7,152.3l0,63.1l3,0l0,-63.1l-3,0Z" class="g1_1" />
<path d="M618.2,152.3l0,63.1l2.9,0l0,-63.1l-2.9,0Z" class="g1_1" />
<path d="M795.4,241.4l0,267.3l2.9,0l0,-267.3l-2.9,0Z" class="g1_1" />
<path d="M988.9,731.4l0,89.1l2.9,0l0,-89.1l-2.9,0Z" class="g1_1" />
<path d="M1082.2,241.4l0,267.3l2.9,0l0,-267.3l-2.9,0Z" class="g1_1" />
<path d="M394.3,731.4l0,89.1l3,0l0,-89.1l-3,0Z" class="g1_1" />
<path d="M469,241.4l0,267.3l2.9,0l0,-267.3l-2.9,0Z" class="g1_1" />
<path d="M901.4,241.4l0,267.3l3,0l0,-267.3l-3,0Z" class="g1_1" />
<path d="M1186,241.4l0,267.3l2.9,0l0,-267.3l-2.9,0Z" class="g1_1" />
<path d="M720.8,731.4l0,89.1l2.9,0l0,-89.1l-2.9,0Z" class="g1_1" />
<path d="M24.9,86.6l0,4.4l1239.4,0l0,-4.4L24.9,86.6Z" class="g1_1" />
<path d="M24.9,126.3l0,4.4l1239.4,0l0,-4.4l-1239.4,0Z" class="g1_1" />
<path d="M24.9,149.3l0,3l1235,0l0,-3l-1235,0Z" class="g1_1" />
<path d="M1085.1,171.6l0,2.9l174.8,0l0,-2.9l-174.8,0Z" class="g1_1" />
<path d="M24.9,215.4l0,4.4l1239.4,0l0,-4.4l-1239.4,0Z" class="g1_1" />
<path d="M24.9,238.4l0,3l1235,0l0,-3l-1235,0Z" class="g1_1" />
<path d="M24.9,260.7l0,2.9l1238.6,0l0,-2.9l-1238.6,0Z" class="g1_1" />
<path d="M1188.9,283.7l0,1.5l71.7,0l0,-1.5l-71.7,0Z" class="g1_1" />
<path d="M1188.9,306l0,1.5l71.7,0l0,-1.5l-71.7,0Z" class="g1_1" />
<path d="M1188.9,328.3l0,1.4l71.7,0l0,-1.4l-71.7,0Z" class="g1_1" />
<path d="M1188.9,350.5l0,1.5l71.7,0l0,-1.5l-71.7,0Z" class="g1_1" />
<path d="M1188.9,372.8l0,1.5l71.7,0l0,-1.5l-71.7,0Z" class="g1_1" />
<path d="M1188.9,395.1l0,1.4l71.7,0l0,-1.4l-71.7,0Z" class="g1_1" />
<path d="M1188.9,417.4l0,1.4l71.7,0l0,-1.4l-71.7,0Z" class="g1_1" />
<path d="M1188.9,439.6l0,1.5l71.7,0l0,-1.5l-71.7,0Z" class="g1_1" />
<path d="M1188.9,461.9l0,1.5l71.7,0l0,-1.5l-71.7,0Z" class="g1_1" />
<path d="M1188.9,484.2l0,1.5l71.7,0l0,-1.5l-71.7,0Z" class="g1_1" />
<path d="M397.3,505.7l0,3l862.6,0l0,-3l-862.6,0Z" class="g1_1" />
<path d="M24.9,528l0,2.9l1235,0l0,-2.9l-1235,0Z" class="g1_1" />
<path d="M24.9,551l0,1.5l1235,0l0,-1.5l-1235,0Z" class="g1_1" />
<path d="M24.9,573.3l0,1.4l1235,0l0,-1.4l-1235,0Z" class="g1_1" />
<path d="M24.9,595.6l0,1.4l1235,0l0,-1.4l-1235,0Z" class="g1_1" />
<path d="M24.9,617.8l0,1.5l1235,0l0,-1.5l-1235,0Z" class="g1_1" />
<path d="M24.9,640.1l0,1.5l1235,0l0,-1.5l-1235,0Z" class="g1_1" />
<path d="M24.9,662.4l0,1.4l1235,0l0,-1.4l-1235,0Z" class="g1_1" />
<path d="M24.9,684.7l0,1.4l1235,0l0,-1.4l-1235,0Z" class="g1_1" />
<path d="M24.9,706.2l0,2.9l1235,0l0,-2.9l-1235,0Z" class="g1_1" />
<path d="M24.2,728.5l0,2.9l1239.3,0l0,-2.9l-1239.3,0Z" class="g1_1" />
<path d="M991.8,751.5l0,1.5l268.8,0l0,-1.5l-268.8,0Z" class="g1_1" />
<path d="M991.8,773.8l0,1.4l268.8,0l0,-1.4l-268.8,0Z" class="g1_1" />
<path d="M991.8,796l0,1.5l268.8,0l0,-1.5l-268.8,0Z" class="g1_1" />
<path d="M24.2,817.6l0,2.9l1239.3,0l0,-2.9l-1239.3,0Z" class="g1_1" />
</svg>