<?xml version="1.0" encoding="UTF-8" standalone="no"?>
<!DOCTYPE svg PUBLIC "-//W3C//DTD SVG 1.1//EN"
"http://www.w3.org/Graphics/SVG/1.1/DTD/svg11.dtd">
<svg viewBox="0 0 981 1358" version="1.1" xmlns="http://www.w3.org/2000/svg" xmlns:xlink="http://www.w3.org/1999/xlink">
<defs>
<clipPath id="c0_1"><path d="M57.6,212l0,-148.5l223,0l0,148.5Z" /></clipPath>
<clipPath id="c1_1"><path d="M14.3,1343.8L14.3,14.3l952.7,0l0,1329.5Z" /></clipPath>
<clipPath id="c2_1"><path d="M0,1358L0,0L981.3,0l0,1358Z" /></clipPath>
<style type="text/css"><![CDATA[
.g1_1{
fill: #F58428;
}
.g2_1{
fill: #45146B;
}
.g3_1{
fill: none;
stroke: #FFFFFF;
stroke-width: 0.5943056;
stroke-linecap: butt;
stroke-linejoin: miter;
stroke-miterlimit: 4;
}
.g4_1{
fill: #C7BDD6;
}
.g5_1{
fill: #FFFFFF;
}
.g6_1{
fill: #796097;
}
.g7_1{
fill: #5E3C7F;
}
.g8_1{
fill: none;
stroke: #FFFFFF;
stroke-width: 1.5277778;
stroke-linecap: butt;
stroke-linejoin: miter;
stroke-miterlimit: 4;
}
.g9_1{
fill: none;
stroke: #E2DCEA;
stroke-width: 1.1458334;
stroke-linecap: butt;
stroke-linejoin: miter;
stroke-miterlimit: 4;
}
.g10_1{
fill: none;
stroke: #FFFFFF;
stroke-width: 1.9097222;
stroke-linecap: butt;
stroke-linejoin: miter;
}
.g11_1{
fill: none;
stroke: #000000;
stroke-width: 0.38194445;
stroke-linecap: butt;
stroke-linejoin: miter;
}
.g12_1{
}
.g13_1{
fill: none;
stroke: #FFFFFF;
stroke-width: 0.38194445;
stroke-linecap: butt;
stroke-linejoin: miter;
}
]]></style>
</defs>
<path d="M82.2,162.7l0,0.3c0,2.7,1.2,3.6,4.8,3.6l2.4,0c2.9,0,4,-0.7,4,-2.7l0,-1.6c0,-2.1,-1.2,-2.4,-3.9,-2.7l-7.9,-0.9c-5.8,-0.6,-8.4,-3.5,-8.4,-9.5l0,-2.3c0,-3.4,1.1,-6.1,3.1,-7.8c2.1,-1.7,4.8,-2,8.8,-2l5.8,0c7.4,0,11.2,3.1,11.2,8.6l0,2.5l-9.3,0l0,-0.4c0,-2.2,-0.9,-2.9,-3.6,-2.9l-2.2,0c-2.9,0,-4.1,0.5,-4.1,2.4l0,1.5c0,2,1.4,2.2,4,2.5l7.2,0.8c6.2,0.7,9.2,3.6,9.2,8.8l0,3.5c0,6,-3.9,10,-10.3,10l-8,0c-8.3,0,-12.1,-2.7,-12.1,-9.2l0,-2.5Z" class="g1_1" />
<path d="M152.5,137.6l0,36.3l-9.5,0l0,-26.7l-7.3,26.7l-9.7,0l-7.4,-27l0,27l-9.5,0l0,-36.3l14.3,0l7.4,26.3l7.5,-26.3Z" class="g1_1" />
<path d="M178.3,160.2l-3.6,-15.1l-0.6,0l-3.7,15.1ZM167,137.6l14.9,0l10.2,36.3l-10.4,0L180,167.6l-11.4,0l-1.6,6.3l-10.5,0Z" class="g1_1" />
<path d="M211.3,155.1c3.1,0,4.2,-0.8,4.2,-4l0,-1.4c0,-3.1,-1.1,-4,-4.2,-4l-5.5,0l0,9.4ZM196.1,137.6l14.6,0c10.2,0,14.7,1.9,14.7,9.9l0,3c0,4.9,-2.4,7.7,-7.1,8.3c4.9,0.8,7.1,3.1,7.1,7.6l0,7.5l-10,0l0,-6.5c0,-3.2,-1,-4.1,-4.2,-4.1l-5.4,0l0,10.6l-9.7,0Z" class="g1_1" />
<path d="M239.1,145.7l-9.3,0l0,-8.1l28.5,0l0,8.1l-9.3,0l0,28.2l-9.9,0Z" class="g1_1" />
<g clip-path="url(#c0_1)">
<path d="M58.9,187.7l6.2,0c1,0,1.6,-0.1,1.9,-0.3c0.3,-0.3,0.5,-0.7,0.5,-1.4l0,-0.5c0,-0.8,-0.2,-1.2,-0.5,-1.4c-0.3,-0.3,-0.9,-0.4,-1.9,-0.4l-6.2,0Zm0,5.3l-1.3,0l0,-10.4l7.2,0c1.6,0,2.7,0.2,3.2,0.5c0.6,0.4,0.8,1,0.8,2l0,1.3c0,1,-0.2,1.6,-0.7,1.9c-0.6,0.4,-1.7,0.6,-3.3,0.6l-5.9,0Z" class="g2_1" />
</g>
<path d="M70.8,193l0,-10.4l1.3,0l0,9.2l8,0l0,1.2Z" class="g2_1" />
<path d="M85.6,193.1c-1,0,-1.8,-0.1,-2.3,-0.2c-0.5,-0.1,-0.9,-0.3,-1.2,-0.5c-0.3,-0.3,-0.6,-0.7,-0.7,-1.2c-0.2,-0.5,-0.2,-1.1,-0.2,-1.9l0,-6.7l1.3,0l0,6.7c0,0.6,0,1,0.1,1.2c0,0.3,0.1,0.5,0.2,0.7c0.2,0.2,0.5,0.4,0.8,0.5c0.4,0.2,0.8,0.2,1.4,0.2l4.3,0c0.6,0,1.1,0,1.4,-0.2c0.3,-0.1,0.6,-0.3,0.8,-0.5c0.1,-0.2,0.2,-0.4,0.3,-0.7c0,-0.2,0,-0.6,0,-1.2l0,-0.3l0,-6.4l1.4,0l0,6.6c0,0.8,-0.1,1.5,-0.3,2c-0.1,0.5,-0.4,0.9,-0.7,1.2c-0.3,0.2,-0.7,0.4,-1.2,0.5c-0.5,0.1,-1.2,0.2,-2.2,0.2Z" class="g2_1" />
<path d="M96.9,193l-1.3,0l0,-10.4l1.9,0l6.2,9l6.3,-9l1.9,0l0,10.4l-1.3,0l0,-9.2l-6.4,9.2l-0.9,0l-6.4,-9.2Z" class="g2_1" />
<path d="M122.5,188.2l-6.8,0l0,3.6l6.8,0c1,0,1.7,-0.1,2,-0.3c0.3,-0.3,0.4,-0.7,0.4,-1.4c0,-0.8,-0.1,-1.3,-0.4,-1.6c-0.3,-0.2,-1,-0.3,-2,-0.3m-6.8,-4.5l0,3.2l5.9,0c1.4,0,2.2,-0.1,2.5,-0.3c0.3,-0.2,0.5,-0.6,0.5,-1.2c0,-0.4,-0.1,-0.7,-0.1,-0.9c-0.1,-0.2,-0.2,-0.4,-0.4,-0.5c-0.1,-0.1,-0.4,-0.2,-0.7,-0.2c-0.3,-0.1,-0.8,-0.1,-1.6,-0.1l-0.3,0Zm8.4,3.7c0.8,0.1,1.3,0.3,1.6,0.6c0.3,0.3,0.5,0.8,0.5,1.5l0,1.1c0,0.9,-0.3,1.5,-0.9,1.9c-0.6,0.3,-1.8,0.5,-3.7,0.5l-7.2,0l0,-10.4l7.4,0c0.9,0,1.6,0,2.1,0.1c0.4,0.1,0.8,0.2,1.1,0.4c0.3,0.2,0.5,0.4,0.6,0.7c0.2,0.3,0.2,0.8,0.2,1.4c0,0.7,-0.1,1.3,-0.3,1.6c-0.3,0.3,-0.7,0.5,-1.4,0.6Z" class="g2_1" />
<path d="M129.5,193l-1.3,0l0,-10.4l1.3,0l0,10.4Z" class="g2_1" />
<path d="M133.4,193l-1.3,0l0,-10.4l2.1,0l9.4,9.2l0,-9.2l1.2,0l0,10.4l-1.8,0l-9.6,-9.4Z" class="g2_1" />
<path d="M156.1,191.9c1,0,1.6,-0.2,1.9,-0.5c0.4,-0.3,0.5,-1,0.5,-2l0,-0.5l-5.3,0l0,-1.2l6.6,0l0,1.7c0,1,0,1.7,-0.2,2.1c-0.1,0.4,-0.3,0.7,-0.6,0.9c-0.3,0.3,-0.7,0.5,-1.2,0.6c-0.5,0,-1.3,0.1,-2.4,0.1l-3.7,0c-1.1,0,-1.8,-0.1,-2.3,-0.2c-0.5,-0.1,-0.9,-0.3,-1.3,-0.5c-0.3,-0.3,-0.5,-0.7,-0.7,-1.2c-0.2,-0.5,-0.2,-1.1,-0.2,-1.9l0,-2.8c0,-0.9,0,-1.6,0.2,-2.1c0.2,-0.5,0.4,-0.9,0.7,-1.2c0.4,-0.3,0.8,-0.5,1.3,-0.6c0.5,-0.1,1.2,-0.1,2.3,-0.1l3.7,0c1.7,0,2.8,0.2,3.4,0.6c0.6,0.4,0.9,1.2,0.9,2.3c0,0.1,0,0.2,0,0.3c0,0.1,0,0.2,0,0.2l-1.2,0l0,-0.1c0,-0.8,-0.1,-1.4,-0.5,-1.7c-0.4,-0.3,-1,-0.5,-1.9,-0.5l-5,0c-0.6,0,-1.1,0.1,-1.4,0.2c-0.3,0.1,-0.6,0.3,-0.8,0.6c-0.1,0.2,-0.2,0.4,-0.3,0.6c0,0.3,-0.1,0.8,-0.1,1.4l0,0.2l0,2.5c0,0.7,0.1,1.1,0.1,1.4c0.1,0.2,0.2,0.5,0.3,0.6c0.2,0.3,0.5,0.5,0.8,0.6c0.4,0.1,0.8,0.2,1.4,0.2Z" class="g2_1" />
<path d="M168.7,189.6l1.2,0c0,0,0,0.1,0,0.2c0,0.2,0,0.3,0,0.4c0,0.7,0.2,1.1,0.7,1.4c0.4,0.2,1.2,0.3,2.4,0.3l2.7,0c1.4,0,2.3,-0.1,2.7,-0.4c0.4,-0.3,0.7,-0.8,0.7,-1.6c0,-0.6,-0.2,-1.1,-0.5,-1.3c-0.3,-0.3,-0.9,-0.4,-1.8,-0.4l-4.4,0c-1.4,0,-2.4,-0.2,-2.9,-0.6c-0.6,-0.5,-0.9,-1.2,-0.9,-2.2c0,-1.1,0.4,-1.9,1,-2.3c0.6,-0.4,1.8,-0.6,3.5,-0.6l2.4,0c1.3,0,2.2,0,2.7,0.1c0.5,0.1,0.9,0.3,1.2,0.5c0.2,0.2,0.4,0.5,0.5,0.8c0.1,0.4,0.2,0.8,0.2,1.3l0,0.3l-1.3,0l0,-0.2c0,-0.7,-0.1,-1.1,-0.5,-1.4c-0.3,-0.2,-1,-0.3,-2,-0.3l-3.6,0c-1.1,0,-1.8,0.1,-2.2,0.3c-0.3,0.3,-0.5,0.7,-0.5,1.4c0,0.7,0.2,1.1,0.5,1.4c0.4,0.2,1.2,0.4,2.3,0.4l3.7,0c0.9,0,1.5,0,1.9,0.1c0.4,0,0.7,0.1,1,0.3c0.3,0.2,0.6,0.5,0.7,0.9c0.2,0.3,0.3,0.9,0.3,1.6c0,1.2,-0.4,2,-1,2.4c-0.6,0.5,-1.7,0.7,-3.3,0.7l-3.6,0c-1.4,0,-2.3,-0.2,-2.9,-0.6c-0.6,-0.5,-0.9,-1.2,-0.9,-2.1c0,-0.2,0,-0.4,0,-0.7c0,0,0,-0.1,0,-0.1Z" class="g2_1" />
<path d="M191.2,183.6l-4.7,0c-0.7,0,-1.2,0.1,-1.6,0.2c-0.3,0.1,-0.6,0.3,-0.8,0.6c-0.2,0.2,-0.3,0.4,-0.3,0.7c-0.1,0.2,-0.1,0.7,-0.1,1.3l0,0.2l0,2.5c0,0.6,0,1.1,0.1,1.4c0,0.2,0.1,0.4,0.3,0.6c0.2,0.3,0.5,0.5,0.8,0.6c0.4,0.1,0.9,0.2,1.6,0.2l4.7,0c0.7,0,1.2,-0.1,1.5,-0.2c0.4,-0.1,0.7,-0.3,0.9,-0.6c0.1,-0.1,0.2,-0.4,0.3,-0.6c0,-0.3,0.1,-0.7,0.1,-1.2l0,-0.4l0,-2.7c0,-0.5,-0.1,-0.9,-0.1,-1.2c-0.1,-0.2,-0.2,-0.5,-0.3,-0.6c-0.2,-0.3,-0.5,-0.5,-0.9,-0.6c-0.3,-0.1,-0.8,-0.2,-1.5,-0.2m-4.1,9.5c-1.1,0,-1.9,-0.1,-2.4,-0.2c-0.6,-0.1,-1,-0.3,-1.3,-0.5c-0.4,-0.3,-0.7,-0.7,-0.8,-1.2c-0.2,-0.5,-0.3,-1.1,-0.3,-1.9l0,-2.8c0,-0.9,0.1,-1.6,0.3,-2.1c0.1,-0.5,0.4,-0.9,0.7,-1.2c0.4,-0.3,0.8,-0.5,1.4,-0.6c0.5,-0.1,1.3,-0.1,2.4,-0.1l3.5,0c1.1,0,1.9,0,2.4,0.1c0.6,0.1,1,0.3,1.3,0.6c0.4,0.3,0.7,0.7,0.8,1.2c0.2,0.5,0.3,1.1,0.3,1.9l0,2.9c0,0.8,-0.1,1.5,-0.3,2c-0.1,0.5,-0.4,0.9,-0.8,1.2c-0.3,0.2,-0.7,0.4,-1.3,0.5c-0.5,0.1,-1.3,0.2,-2.4,0.2Z" class="g2_1" />
<path d="M197.7,193l0,-10.4l1.3,0l0,9.2l8,0l0,1.2Z" class="g2_1" />
<path d="M212.5,193.1c-1,0,-1.8,-0.1,-2.3,-0.2c-0.5,-0.1,-0.9,-0.3,-1.2,-0.5c-0.3,-0.3,-0.6,-0.7,-0.7,-1.2c-0.2,-0.5,-0.2,-1.1,-0.2,-1.9l0,-6.7l1.3,0l0,6.7c0,0.6,0,1,0.1,1.2c0,0.3,0.1,0.5,0.2,0.7c0.2,0.2,0.5,0.4,0.8,0.5c0.4,0.2,0.8,0.2,1.4,0.2l4.3,0c0.6,0,1.1,0,1.4,-0.2c0.3,-0.1,0.6,-0.3,0.8,-0.5c0.1,-0.2,0.2,-0.4,0.3,-0.7c0,-0.2,0,-0.6,0,-1.2l0,-0.3l0,-6.4l1.4,0l0,6.6c0,0.8,-0.1,1.5,-0.3,2c-0.1,0.5,-0.4,0.9,-0.7,1.2c-0.3,0.2,-0.7,0.4,-1.2,0.5c-0.5,0.1,-1.2,0.2,-2.2,0.2Z" class="g2_1" />
<path d="M228,193l-1.3,0l0,-9.3l-5.1,0l0,-1.1l11.6,0l0,1.1l-5.2,0Z" class="g2_1" />
<path d="M236.1,193l-1.3,0l0,-10.4l1.3,0l0,10.4Z" class="g2_1" />
<path d="M247.4,183.6l-4.7,0c-0.6,0,-1.2,0.1,-1.5,0.2c-0.4,0.1,-0.7,0.3,-0.9,0.6c-0.1,0.2,-0.2,0.4,-0.3,0.7c-0.1,0.2,-0.1,0.7,-0.1,1.3l0,0.2l0,2.5c0,0.6,0,1.1,0.1,1.4c0.1,0.2,0.2,0.4,0.3,0.6c0.2,0.3,0.5,0.5,0.9,0.6c0.3,0.1,0.9,0.2,1.5,0.2l4.7,0c0.7,0,1.2,-0.1,1.6,-0.2c0.3,-0.1,0.6,-0.3,0.8,-0.6c0.2,-0.1,0.3,-0.4,0.3,-0.6c0.1,-0.3,0.1,-0.7,0.1,-1.2l0,-0.4l0,-2.7c0,-0.5,0,-0.9,-0.1,-1.2c0,-0.2,-0.1,-0.5,-0.3,-0.6c-0.2,-0.3,-0.5,-0.5,-0.8,-0.6c-0.4,-0.1,-0.9,-0.2,-1.6,-0.2m-4.1,9.5c-1.1,0,-1.9,-0.1,-2.4,-0.2c-0.5,-0.1,-1,-0.3,-1.3,-0.5c-0.4,-0.3,-0.7,-0.7,-0.8,-1.2c-0.2,-0.5,-0.3,-1.1,-0.3,-1.9l0,-2.8c0,-0.9,0.1,-1.6,0.3,-2.1c0.1,-0.5,0.4,-0.9,0.8,-1.2c0.3,-0.3,0.7,-0.5,1.3,-0.6c0.5,-0.1,1.3,-0.1,2.4,-0.1l3.5,0c1.1,0,1.9,0,2.5,0.1c0.5,0.1,0.9,0.3,1.3,0.6c0.3,0.3,0.6,0.7,0.7,1.2c0.2,0.5,0.3,1.1,0.3,1.9l0,2.9c0,0.8,-0.1,1.5,-0.3,2c-0.1,0.5,-0.4,0.9,-0.7,1.2c-0.4,0.2,-0.8,0.4,-1.3,0.5c-0.6,0.1,-1.4,0.2,-2.5,0.2Z" class="g2_1" />
<path d="M255.2,193l-1.3,0l0,-10.4l2,0l9.4,9.2l0,-9.2l1.3,0l0,10.4l-1.9,0l-9.5,-9.4Z" class="g2_1" />
<path d="M268.9,189.6l1.3,0c0,0,0,0.1,0,0.2c0,0.2,0,0.3,0,0.4c0,0.7,0.2,1.1,0.6,1.4c0.4,0.2,1.2,0.3,2.4,0.3l2.7,0c1.4,0,2.3,-0.1,2.8,-0.4c0.4,-0.3,0.6,-0.8,0.6,-1.6c0,-0.6,-0.1,-1.1,-0.4,-1.3c-0.3,-0.3,-1,-0.4,-1.9,-0.4l-4.4,0c-1.3,0,-2.3,-0.2,-2.9,-0.6c-0.5,-0.5,-0.8,-1.2,-0.8,-2.2c0,-1.1,0.3,-1.9,0.9,-2.3c0.7,-0.4,1.8,-0.6,3.6,-0.6l2.3,0c1.3,0,2.2,0,2.7,0.1c0.5,0.1,0.9,0.3,1.2,0.5c0.3,0.2,0.4,0.5,0.6,0.8c0.1,0.4,0.1,0.8,0.1,1.3l0,0.3l-1.2,0l0,-0.2c0,-0.7,-0.2,-1.1,-0.5,-1.4c-0.3,-0.2,-1,-0.3,-2.1,-0.3l-3.5,0c-1.1,0,-1.8,0.1,-2.2,0.3c-0.4,0.3,-0.6,0.7,-0.6,1.4c0,0.7,0.2,1.1,0.6,1.4c0.3,0.2,1.1,0.4,2.3,0.4l3.7,0c0.8,0,1.4,0,1.8,0.1c0.4,0,0.8,0.1,1,0.3c0.4,0.2,0.6,0.5,0.8,0.9c0.1,0.3,0.2,0.9,0.2,1.6c0,1.2,-0.3,2,-0.9,2.4c-0.7,0.5,-1.8,0.7,-3.4,0.7l-3.5,0c-1.4,0,-2.4,-0.2,-3,-0.6c-0.6,-0.5,-0.9,-1.2,-0.9,-2.1c0,-0.2,0,-0.4,0,-0.7c0,0,0,-0.1,0,-0.1Z" class="g2_1" />
<path d="M153.5,203c0,-1,-0.5,-1.1,-1.6,-1.1l-2.7,0l0,3.5l2.7,0c1.1,0,1.6,-0.2,1.6,-1.1Zm-5.2,-2l3.6,0c1.9,0,2.6,0.4,2.6,2l0,1.3c0,1.5,-0.7,2,-2.6,2l-2.7,0l0,3.3l-0.9,0Z" class="g2_1" />
<path d="M155.4,203.5l0.7,0l0,-1.4l0.9,0l0,1.4l3,0l0,0.8l-3,0l0,3.4c0,0.9,0.3,1.2,1.2,1.2c0.9,0,1.1,-0.3,1.1,-1.2l0,-0.2l0.9,0c0,1.9,-0.5,2.2,-2.2,2.2c-1.4,0,-1.9,-0.6,-1.9,-2.2l0,-3.2l-0.7,0Z" class="g2_1" />
<path d="M162.1,203.5l1.8,5.3l1.8,-5.3l0.9,0l-2.3,6.7c-0.4,1.2,-0.8,1.8,-1.8,1.8c-0.2,0,-0.3,0,-0.5,0l0,-0.8c0.1,0,0.2,0,0.3,0c0.6,0,0.8,-0.3,1.1,-0.9l0.2,-0.7l-0.3,0l-2.1,-6.1Z" class="g2_1" />
<path d="M171.8,201l0.9,0l0,7.7l4.9,0l0,0.9l-5.8,0Z" class="g2_1" />
<path d="M178.2,203.5l0.7,0l0,-1.4l0.9,0l0,1.4l3,0l0,0.8l-3,0l0,3.4c0,0.9,0.3,1.2,1.2,1.2c0.9,0,1.1,-0.3,1.1,-1.2l0,-0.2l0.9,0c0,1.9,-0.5,2.2,-2.2,2.2c-1.4,0,-1.9,-0.6,-1.9,-2.2l0,-3.2l-0.7,0Z" class="g2_1" />
<path d="M188.7,206.1c0,-1.3,-0.6,-1.8,-1.9,-1.8c-1.3,0,-1.5,0.4,-1.5,1.7l0,1.1c0,1.4,0.2,1.8,1.5,1.8c1.3,0,1.9,-0.6,1.9,-1.8Zm-1.9,3.6c-1.8,0,-2.4,-0.7,-2.4,-2.4l0,-1.5c0,-1.7,0.6,-2.4,2.4,-2.4c0.9,0,1.5,0.3,1.9,1l0,-3.4l0.9,0l0,8.6l-0.9,0l0,-0.9c-0.3,0.7,-0.9,1,-1.9,1Z" class="g2_1" />
<path d="M163.4,65.9c0,0,-12.9,25,-26.1,34.4c6.5,7.4,12.2,17.3,30.5,20.3c-4.4,3.4,-7.6,4.9,-10.8,8.4c-5.4,-5,-17,-18.2,-20,-20.4c-3,-2.1,-6.2,-5.3,-12.1,-6.3c7.4,-4.9,26.7,-19.8,38.5,-36.4Z" class="g2_1" />
<path d="M169.1,63.5c4.7,10.7,18.2,27.6,32.5,31.6C191.9,95.7,187,96,180.9,89.2C174.8,82.5,170.1,75,168.5,71.9c-3.6,4.3,-7.4,8.1,-10.2,12c6.1,-12.3,10.8,-20.4,10.8,-20.4Z" class="g2_1" />
<path d="M167.9,72.5c4,9.7,11.5,27.6,26.3,28.6c-6.3,7,-20.1,17.8,-26.4,19.5C154.3,117.3,150,115.5,141.5,103.1c5.8,-5.8,19.3,-22,26.4,-30.6Z" class="g1_1" />
<path d="M204.1,97.2c-8.6,4.4,-30.6,22,-43.6,35.2c2.6,3.4,5.4,6,5.3,9.7c4.7,-6.9,32.6,-40.5,38.3,-44.9Z" class="g2_1" />
<path d="M204.1,97.2c-8.6,4.4,-30.6,22,-43.6,35.2c2.6,3.4,5.4,6,5.3,9.7c4.7,-6.9,32.6,-40.5,38.3,-44.9Z" class="g3_1" />
<path d="M156.4,103.7c0,1.9,-1.5,3.4,-3.3,3.4c-1.9,0,-3.4,-1.5,-3.4,-3.4c0,-1.8,1.5,-3.3,3.4,-3.3c1.8,0,3.3,1.5,3.3,3.3Z" class="g2_1" />
<path d="M178.5,93.6c0,1,-0.8,1.8,-1.9,1.8c-1,0,-1.8,-0.8,-1.8,-1.8c0,-1.1,0.8,-1.9,1.8,-1.9c1.1,0,1.9,0.8,1.9,1.9Z" class="g4_1" />
<path d="M156.6,110.3c0,1.2,-1,2.2,-2.3,2.2c-1.2,0,-2.2,-1,-2.2,-2.2c0,-1.2,1,-2.2,2.2,-2.2c1.3,0,2.3,1,2.3,2.2Z" class="g5_1" />
<path d="M167.9,102.4c0,0.7,-0.6,1.4,-1.4,1.4c-0.7,0,-1.3,-0.7,-1.3,-1.4c0,-0.7,0.6,-1.4,1.3,-1.4c0.8,0,1.4,0.7,1.4,1.4Z" class="g5_1" />
<path d="M164.6,109.3c0,1.5,-1.3,2.8,-2.8,2.8c-1.6,0,-2.9,-1.3,-2.9,-2.8c0,-1.6,1.3,-2.9,2.9,-2.9c1.5,0,2.8,1.3,2.8,2.9Z" class="g6_1" />
<path d="M171.4,97c0,1.7,-1.4,3,-3.1,3c-1.7,0,-3,-1.3,-3,-3c0,-1.7,1.3,-3.1,3,-3.1c1.7,0,3.1,1.4,3.1,3.1Z" class="g5_1" />
<path d="M163.5,102.8c0,1.6,-1.2,2.8,-2.8,2.8c-1.6,0,-2.8,-1.2,-2.8,-2.8c0,-1.6,1.2,-2.8,2.8,-2.8c1.6,0,2.8,1.2,2.8,2.8Z" class="g7_1" />
<path d="M175.8,98.5c0,0.9,-0.8,1.6,-1.7,1.6c-0.9,0,-1.6,-0.7,-1.6,-1.6c0,-1,0.7,-1.7,1.6,-1.7c0.9,0,1.7,0.7,1.7,1.7Z" class="g6_1" />
<path d="M172.6,114.8c0,2.5,-2.1,4.6,-4.7,4.6c-2.5,0,-4.6,-2.1,-4.6,-4.6c0,-2.6,2.1,-4.7,4.6,-4.7c2.6,0,4.7,2.1,4.7,4.7Z" class="g5_1" />
<path d="M173.9,87.4c0,2.6,-2.1,4.7,-4.7,4.7c-2.5,0,-4.6,-2.1,-4.6,-4.7c0,-2.5,2.1,-4.6,4.6,-4.6c2.6,0,4.7,2.1,4.7,4.6Z" class="g5_1" />
<g clip-path="url(#c1_1)">
<path d="M17.7,1345.8l0,-248.7c0,0,240.3,41.7,454.4,214.6l37.7,34.1Z" class="g2_1" />
<path d="M-20.8,1281.6c55.9,-3.8,217.9,18.9,322.1,46.4c-3.1,24.6,-9,45.8,2.3,63.5C259.6,1371.3,20.8,1286.4,-20.8,1281.6Z" class="g8_1" />
<path d="M393.6,1455.1c-5.9,-58,-17.6,-164.5,-94.8,-193.2c44.7,-27.1,134.9,-63,170.9,-62.1c66.7,38.8,86.2,55.4,111.9,134.4c-39.5,21.4,-136.6,86.4,-188,120.9Z" class="g1_1" />
<path d="M500.5,24.9c94.1,-6.3,366.3,31.7,541.2,77.9c-5.2,41.3,-15.1,77,4,106.8C971.6,175.7,570.5,32.9,500.5,24.9Z" class="g9_1" />
</g>
<g clip-path="url(#c2_1)">
<path d="M22.9,35.9L0,35.9m958.4,0l22.9,0M22.9,1322.1l-22.9,0m958.4,0l22.9,0M35.9,22.9L35.9,0m0,1335.1l0,22.9M945.4,22.9L945.4,0m0,1335.1l0,22.9" class="g10_1" />
<path d="M22.9,35.9L0,35.9m958.4,0l22.9,0M22.9,1322.1l-22.9,0m958.4,0l22.9,0M35.9,22.9L35.9,0m0,1335.1l0,22.9M945.4,22.9L945.4,0m0,1335.1l0,22.9" class="g11_1" />
</g>
<path d="M498.3,11.5c0,4.2,-3.4,7.6,-7.7,7.6c-4.2,0,-7.6,-3.4,-7.6,-7.6c0,-4.3,3.4,-7.7,7.6,-7.7c4.3,0,7.7,3.4,7.7,7.7Z" class="g10_1" />
<path d="M481.5,11.5l18.3,0" class="g10_1" />
<path d="M490.6,2.3l0,18.3" class="g10_1" />
<path d="M495.2,11.5c0,2.5,-2,4.5,-4.6,4.5C488.1,16,486,14,486,11.5c0,-2.6,2.1,-4.6,4.6,-4.6c2.6,0,4.6,2,4.6,4.6Z" class="g10_1" />
<path d="M498.3,11.5c0,4.2,-3.4,7.6,-7.7,7.6c-4.2,0,-7.6,-3.4,-7.6,-7.6c0,-4.3,3.4,-7.7,7.6,-7.7c4.3,0,7.7,3.4,7.7,7.7Z" class="g11_1" />
<path d="M481.5,11.5l18.3,0" class="g11_1" />
<path d="M490.6,2.3l0,18.3" class="g11_1" />
<path d="M495.2,11.5c0,2.5,-2,4.5,-4.6,4.5C488.1,16,486,14,486,11.5c0,-2.6,2.1,-4.6,4.6,-4.6c2.6,0,4.6,2,4.6,4.6Z" class="g12_1" />
<path d="M486,11.5l9.2,0" class="g13_1" />
<path d="M490.6,6.9l0,9.1" class="g13_1" />
<path d="M498.3,1346.6c0,4.2,-3.4,7.6,-7.7,7.6c-4.2,0,-7.6,-3.4,-7.6,-7.6c0,-4.2,3.4,-7.7,7.6,-7.7c4.3,0,7.7,3.5,7.7,7.7Z" class="g10_1" />
<path d="M481.5,1346.6l18.3,0" class="g10_1" />
<path d="M490.6,1337.4l0,18.3" class="g10_1" />
<path d="M495.2,1346.6c0,2.5,-2,4.6,-4.6,4.6c-2.5,0,-4.6,-2.1,-4.6,-4.6c0,-2.6,2.1,-4.6,4.6,-4.6c2.6,0,4.6,2,4.6,4.6Z" class="g10_1" />
<path d="M498.3,1346.6c0,4.2,-3.4,7.6,-7.7,7.6c-4.2,0,-7.6,-3.4,-7.6,-7.6c0,-4.2,3.4,-7.7,7.6,-7.7c4.3,0,7.7,3.5,7.7,7.7Z" class="g11_1" />
<path d="M481.5,1346.6l18.3,0" class="g11_1" />
<path d="M490.6,1337.4l0,18.3" class="g11_1" />
<path d="M495.2,1346.6c0,2.5,-2,4.6,-4.6,4.6c-2.5,0,-4.6,-2.1,-4.6,-4.6c0,-2.6,2.1,-4.6,4.6,-4.6c2.6,0,4.6,2,4.6,4.6Z" class="g12_1" />
<path d="M486,1346.6l9.2,0" class="g13_1" />
<path d="M490.6,1342l0,9.2" class="g13_1" />
<path d="M19.1,679c0,4.2,-3.4,7.7,-7.6,7.7c-4.3,0,-7.7,-3.5,-7.7,-7.7c0,-4.2,3.4,-7.6,7.7,-7.6c4.2,0,7.6,3.4,7.6,7.6Z" class="g10_1" />
<path d="M2.3,679l18.3,0" class="g10_1" />
<path d="M11.5,669.9l0,18.3" class="g10_1" />
<path d="M16,679c0,2.6,-2,4.6,-4.5,4.6c-2.6,0,-4.6,-2,-4.6,-4.6c0,-2.5,2,-4.6,4.6,-4.6c2.5,0,4.5,2.1,4.5,4.6Z" class="g10_1" />
<path d="M19.1,679c0,4.2,-3.4,7.7,-7.6,7.7c-4.3,0,-7.7,-3.5,-7.7,-7.7c0,-4.2,3.4,-7.6,7.7,-7.6c4.2,0,7.6,3.4,7.6,7.6Z" class="g11_1" />
<path d="M2.3,679l18.3,0" class="g11_1" />
<path d="M11.5,669.9l0,18.3" class="g11_1" />
<path d="M16,679c0,2.6,-2,4.6,-4.5,4.6c-2.6,0,-4.6,-2,-4.6,-4.6c0,-2.5,2,-4.6,4.6,-4.6c2.5,0,4.5,2.1,4.5,4.6Z" class="g12_1" />
<path d="M6.9,679l9.1,0" class="g13_1" />
<path d="M11.5,674.4l0,9.2" class="g13_1" />
<path d="M977.4,679c0,4.2,-3.4,7.7,-7.6,7.7c-4.2,0,-7.6,-3.5,-7.6,-7.7c0,-4.2,3.4,-7.6,7.6,-7.6c4.2,0,7.6,3.4,7.6,7.6Z" class="g10_1" />
<path d="M960.6,679l18.4,0" class="g10_1" />
<path d="M969.8,669.9l0,18.3" class="g10_1" />
<path d="M974.4,679c0,2.6,-2.1,4.6,-4.6,4.6c-2.5,0,-4.6,-2,-4.6,-4.6c0,-2.5,2.1,-4.6,4.6,-4.6c2.5,0,4.6,2.1,4.6,4.6Z" class="g10_1" />
<path d="M977.4,679c0,4.2,-3.4,7.7,-7.6,7.7c-4.2,0,-7.6,-3.5,-7.6,-7.7c0,-4.2,3.4,-7.6,7.6,-7.6c4.2,0,7.6,3.4,7.6,7.6Z" class="g11_1" />
<path d="M960.6,679l18.4,0" class="g11_1" />
<path d="M969.8,669.9l0,18.3" class="g11_1" />
<path d="M974.4,679c0,2.6,-2.1,4.6,-4.6,4.6c-2.5,0,-4.6,-2,-4.6,-4.6c0,-2.5,2.1,-4.6,4.6,-4.6c2.5,0,4.6,2.1,4.6,4.6Z" class="g12_1" />
<path d="M965.2,679l9.2,0" class="g13_1" />
<path d="M969.8,674.4l0,9.2" class="g13_1" />
</svg>