<?xml version="1.0" encoding="UTF-8" standalone="no"?>
<!DOCTYPE svg PUBLIC "-//W3C//DTD SVG 1.1//EN"
"http://www.w3.org/Graphics/SVG/1.1/DTD/svg11.dtd">
<svg viewBox="0 0 909 1286" version="1.1" xmlns="http://www.w3.org/2000/svg" xmlns:xlink="http://www.w3.org/1999/xlink">
<defs>
<style type="text/css"><![CDATA[
.g1_2{
}
.g2_2{
fill: #FF9A00;
}
]]></style>
</defs>
<path d="M71.7,97.4l0.7,0l0,-0.7l-0.7,0l0,0.7Z" class="g1_2" />
<path d="M71.7,97.4l770.9,0l0,-0.7l-770.9,0l0,0.7Z" class="g1_2" />
<path d="M841.9,97.4l0.7,0l0,-0.7l-0.7,0l0,0.7Z" class="g1_2" />
<path d="M71.7,121.5l0.7,0l0,-24.1l-0.7,0l0,24.1Z" class="g1_2" />
<path d="M681.5,121.5l0.7,0l0,-24.1l-0.7,0l0,24.1Z" class="g1_2" />
<path d="M841.9,121.5l0.7,0l0,-24.1l-0.7,0l0,24.1Z" class="g1_2" />
<path d="M71.7,122.3l770.9,0l0,-0.8l-770.9,0l0,0.8Z" class="g1_2" />
<path d="M71.7,146.5l0.7,0l0,-24.2l-0.7,0l0,24.2Z" class="g1_2" />
<path d="M681.5,146.5l0.7,0l0,-24.2l-0.7,0l0,24.2Z" class="g1_2" />
<path d="M841.9,146.5l0.7,0l0,-24.2l-0.7,0l0,24.2Z" class="g1_2" />
<path d="M71.7,147.1l770.9,0l0,-0.6l-770.9,0l0,0.6Z" class="g1_2" />
<path d="M71.7,171.3l0.7,0l0,-24.2l-0.7,0l0,24.2Z" class="g1_2" />
<path d="M681.5,171.3l0.7,0l0,-24.2l-0.7,0l0,24.2Z" class="g1_2" />
<path d="M841.9,171.3l0.7,0l0,-24.2l-0.7,0l0,24.2Z" class="g1_2" />
<path d="M71.7,172.1l770.9,0l0,-0.8l-770.9,0l0,0.8Z" class="g1_2" />
<path d="M71.7,196.3l0.7,0l0,-24.2l-0.7,0l0,24.2Z" class="g1_2" />
<path d="M681.5,196.3l0.7,0l0,-24.2l-0.7,0l0,24.2Z" class="g1_2" />
<path d="M841.9,196.3l0.7,0l0,-24.2l-0.7,0l0,24.2Z" class="g1_2" />
<path d="M71.7,197l770.9,0l0,-0.7l-770.9,0l0,0.7Z" class="g1_2" />
<path d="M71.7,221.2l0.7,0l0,-24.2l-0.7,0l0,24.2Z" class="g1_2" />
<path d="M681.5,221.2l0.7,0l0,-24.2l-0.7,0l0,24.2Z" class="g1_2" />
<path d="M841.9,221.2l0.7,0l0,-24.2l-0.7,0l0,24.2Z" class="g1_2" />
<path d="M71.7,221.8l770.9,0l0,-0.6l-770.9,0l0,0.6Z" class="g1_2" />
<path d="M71.7,246l0.7,0l0,-24.2l-0.7,0l0,24.2Z" class="g1_2" />
<path d="M681.5,246l0.7,0l0,-24.2l-0.7,0l0,24.2Z" class="g1_2" />
<path d="M841.9,246l0.7,0l0,-24.2l-0.7,0l0,24.2Z" class="g1_2" />
<path d="M71.7,246.8l770.9,0l0,-0.8L71.7,246l0,0.8Z" class="g1_2" />
<path d="M71.7,270.9l0.7,0l0,-24.1l-0.7,0l0,24.1Z" class="g1_2" />
<path d="M681.5,270.9l0.7,0l0,-24.1l-0.7,0l0,24.1Z" class="g1_2" />
<path d="M841.9,270.9l0.7,0l0,-24.1l-0.7,0l0,24.1Z" class="g1_2" />
<path d="M71.7,271.6l770.9,0l0,-0.7l-770.9,0l0,0.7Z" class="g1_2" />
<path d="M71.7,295.9l0.7,0l0,-24.3l-0.7,0l0,24.3Z" class="g1_2" />
<path d="M681.5,295.9l0.7,0l0,-24.3l-0.7,0l0,24.3Z" class="g1_2" />
<path d="M841.9,295.9l0.7,0l0,-24.3l-0.7,0l0,24.3Z" class="g1_2" />
<path d="M71.7,296.5l770.9,0l0,-0.6l-770.9,0l0,0.6Z" class="g1_2" />
<path d="M71.7,320.7l0.7,0l0,-24.2l-0.7,0l0,24.2Z" class="g1_2" />
<path d="M681.5,320.7l0.7,0l0,-24.2l-0.7,0l0,24.2Z" class="g1_2" />
<path d="M841.9,320.7l0.7,0l0,-24.2l-0.7,0l0,24.2Z" class="g1_2" />
<path d="M71.7,321.5l770.9,0l0,-0.8l-770.9,0l0,0.8Z" class="g1_2" />
<path d="M71.7,345.6l0.7,0l0,-24.1l-0.7,0l0,24.1Z" class="g1_2" />
<path d="M681.5,345.6l0.7,0l0,-24.1l-0.7,0l0,24.1Z" class="g1_2" />
<path d="M841.9,345.6l0.7,0l0,-24.1l-0.7,0l0,24.1Z" class="g1_2" />
<path d="M71.7,346.3l770.9,0l0,-0.7l-770.9,0l0,0.7Z" class="g1_2" />
<path d="M71.7,370.5l0.7,0l0,-24.2l-0.7,0l0,24.2Z" class="g1_2" />
<path d="M681.5,370.5l0.7,0l0,-24.2l-0.7,0l0,24.2Z" class="g1_2" />
<path d="M841.9,370.5l0.7,0l0,-24.2l-0.7,0l0,24.2Z" class="g1_2" />
<path d="M71.7,371.2l770.9,0l0,-0.7l-770.9,0l0,0.7Z" class="g1_2" />
<path d="M71.7,395.5l0.7,0l0,-24.3l-0.7,0l0,24.3Z" class="g1_2" />
<path d="M681.5,395.5l0.7,0l0,-24.3l-0.7,0l0,24.3Z" class="g1_2" />
<path d="M841.9,395.5l0.7,0l0,-24.3l-0.7,0l0,24.3Z" class="g1_2" />
<path d="M71.7,396.2l770.9,0l0,-0.8l-770.9,0l0,0.8Z" class="g1_2" />
<path d="M71.7,420.3l0.7,0l0,-24.1l-0.7,0l0,24.1Z" class="g1_2" />
<path d="M681.5,420.3l0.7,0l0,-24.1l-0.7,0l0,24.1Z" class="g1_2" />
<path d="M841.9,420.3l0.7,0l0,-24.1l-0.7,0l0,24.1Z" class="g1_2" />
<path d="M71.7,421l770.9,0l0,-0.7l-770.9,0l0,0.7Z" class="g1_2" />
<path d="M71.7,445.2l0.7,0l0,-24.2l-0.7,0l0,24.2Z" class="g1_2" />
<path d="M681.5,445.2l0.7,0l0,-24.2l-0.7,0l0,24.2Z" class="g1_2" />
<path d="M841.9,445.2l0.7,0l0,-24.2l-0.7,0l0,24.2Z" class="g1_2" />
<path d="M71.7,445.9l770.9,0l0,-0.7l-770.9,0l0,0.7Z" class="g1_2" />
<path d="M71.7,470.1l0.7,0l0,-24.2l-0.7,0l0,24.2Z" class="g1_2" />
<path d="M681.5,470.1l0.7,0l0,-24.2l-0.7,0l0,24.2Z" class="g1_2" />
<path d="M841.9,470.1l0.7,0l0,-24.2l-0.7,0l0,24.2Z" class="g1_2" />
<path d="M71.7,470.8l770.9,0l0,-0.7l-770.9,0l0,0.7Z" class="g1_2" />
<path d="M71.7,495l0.7,0l0,-24.2l-0.7,0l0,24.2Z" class="g1_2" />
<path d="M681.5,495l0.7,0l0,-24.2l-0.7,0l0,24.2Z" class="g1_2" />
<path d="M841.9,495l0.7,0l0,-24.2l-0.7,0l0,24.2Z" class="g1_2" />
<path d="M71.7,495.7l770.9,0l0,-0.7L71.7,495l0,0.7Z" class="g1_2" />
<path d="M71.7,519.8l0.7,0l0,-24.1l-0.7,0l0,24.1Z" class="g1_2" />
<path d="M681.5,519.8l0.7,0l0,-24.1l-0.7,0l0,24.1Z" class="g1_2" />
<path d="M841.9,519.8l0.7,0l0,-24.1l-0.7,0l0,24.1Z" class="g1_2" />
<path d="M71.7,520.6l770.9,0l0,-0.8l-770.9,0l0,0.8Z" class="g1_2" />
<path d="M71.7,544.8l0.7,0l0,-24.2l-0.7,0l0,24.2Z" class="g1_2" />
<path d="M681.5,544.8l0.7,0l0,-24.2l-0.7,0l0,24.2Z" class="g1_2" />
<path d="M841.9,544.8l0.7,0l0,-24.2l-0.7,0l0,24.2Z" class="g1_2" />
<path d="M71.7,545.5l770.9,0l0,-0.7l-770.9,0l0,0.7Z" class="g1_2" />
<path d="M71.7,569.7l0.7,0l0,-24.2l-0.7,0l0,24.2Z" class="g1_2" />
<path d="M681.5,569.7l0.7,0l0,-24.2l-0.7,0l0,24.2Z" class="g1_2" />
<path d="M841.9,569.7l0.7,0l0,-24.2l-0.7,0l0,24.2Z" class="g1_2" />
<path d="M71.7,570.4l770.9,0l0,-0.7l-770.9,0l0,0.7Z" class="g1_2" />
<path d="M71.7,594.6l0.7,0l0,-24.2l-0.7,0l0,24.2Z" class="g1_2" />
<path d="M681.5,594.6l0.7,0l0,-24.2l-0.7,0l0,24.2Z" class="g1_2" />
<path d="M841.9,594.6l0.7,0l0,-24.2l-0.7,0l0,24.2Z" class="g1_2" />
<path d="M71.7,595.3l0.7,0l0,-0.7l-0.7,0l0,0.7Z" class="g1_2" />
<path d="M71.7,595.3l770.9,0l0,-0.7l-770.9,0l0,0.7Z" class="g1_2" />
<path d="M72.4,662l207.4,0l0,-24.5l-207.4,0l0,24.5Z" class="g2_2" />
<path d="M80,658.2l192.2,0l0,-20.8L80,637.4l0,20.8Z" class="g2_2" />
<path d="M280.5,662l177.6,0l0,-24.5l-177.6,0l0,24.5Z" class="g2_2" />
<path d="M288.1,658.2l163,0l0,-20.8l-163,0l0,20.8Z" class="g2_2" />
<path d="M460.3,662l188.1,0l0,-24.5l-188.1,0l0,24.5Z" class="g2_2" />
<path d="M467.1,658.2l173.6,0l0,-20.8l-173.6,0l0,20.8Z" class="g2_2" />
<path d="M649.1,662l192.7,0l0,-24.5l-192.7,0l0,24.5Z" class="g2_2" />
<path d="M656.7,658.2l177.5,0l0,-20.8l-177.5,0l0,20.8Z" class="g2_2" />
<path d="M71.7,637.4l0.7,0l0,-0.7l-0.7,0l0,0.7Z" class="g1_2" />
<path d="M71.7,637.4l770.9,0l0,-0.7l-770.9,0l0,0.7Z" class="g1_2" />
<path d="M71.7,662l0.7,0l0,-24.5l-0.7,0l0,24.5Z" class="g1_2" />
<path d="M279.9,662l0.6,0l0,-24.5l-0.6,0l0,24.5Z" class="g1_2" />
<path d="M459.5,662l0.8,0l0,-24.5l-0.8,0l0,24.5Z" class="g1_2" />
<path d="M458.2,662l0.6,0l0,-24.5l-0.6,0l0,24.5Z" class="g1_2" />
<path d="M648.4,662l0.7,0l0,-24.5l-0.7,0l0,24.5Z" class="g1_2" />
<path d="M841.9,662l0.7,0l0,-24.5l-0.7,0l0,24.5Z" class="g1_2" />
<path d="M71.7,662.7l386.5,0l0,-0.7L71.7,662l0,0.7Z" class="g1_2" />
<path d="M459.5,662.7l0.8,0l0,-0.7l-0.8,0l0,0.7Z" class="g1_2" />
<path d="M458.2,662.7l0.6,0l0,-0.7l-0.6,0l0,0.7Z" class="g1_2" />
<path d="M460.3,662.7l382.3,0l0,-0.7l-382.3,0l0,0.7Z" class="g1_2" />
<path d="M71.7,687.2l0.7,0l0,-24.5l-0.7,0l0,24.5Z" class="g1_2" />
<path d="M279.9,687.2l0.6,0l0,-24.5l-0.6,0l0,24.5Z" class="g1_2" />
<path d="M459.5,687.2l0.8,0l0,-24.5l-0.8,0l0,24.5Z" class="g1_2" />
<path d="M458.2,687.2l0.6,0l0,-24.5l-0.6,0l0,24.5Z" class="g1_2" />
<path d="M648.4,687.2l0.7,0l0,-24.5l-0.7,0l0,24.5Z" class="g1_2" />
<path d="M841.9,687.2l0.7,0l0,-24.5l-0.7,0l0,24.5Z" class="g1_2" />
<path d="M71.7,688l386.5,0l0,-0.8l-386.5,0l0,0.8Z" class="g1_2" />
<path d="M459.5,688l0.8,0l0,-0.8l-0.8,0l0,0.8Z" class="g1_2" />
<path d="M458.2,688l0.6,0l0,-0.8l-0.6,0l0,0.8Z" class="g1_2" />
<path d="M460.3,688l382.3,0l0,-0.8l-382.3,0l0,0.8Z" class="g1_2" />
<path d="M71.7,712.5l0.7,0l0,-24.5l-0.7,0l0,24.5Z" class="g1_2" />
<path d="M279.9,712.5l0.6,0l0,-24.5l-0.6,0l0,24.5Z" class="g1_2" />
<path d="M459.5,712.5l0.8,0l0,-24.5l-0.8,0l0,24.5Z" class="g1_2" />
<path d="M458.2,712.5l0.6,0l0,-24.5l-0.6,0l0,24.5Z" class="g1_2" />
<path d="M648.4,712.5l0.7,0l0,-24.5l-0.7,0l0,24.5Z" class="g1_2" />
<path d="M841.9,712.5l0.7,0l0,-24.5l-0.7,0l0,24.5Z" class="g1_2" />
<path d="M71.7,713.3l386.5,0l0,-0.8l-386.5,0l0,0.8Z" class="g1_2" />
<path d="M459.5,713.3l0.8,0l0,-0.8l-0.8,0l0,0.8Z" class="g1_2" />
<path d="M458.2,713.3l0.6,0l0,-0.8l-0.6,0l0,0.8Z" class="g1_2" />
<path d="M460.3,713.3l382.3,0l0,-0.8l-382.3,0l0,0.8Z" class="g1_2" />
<path d="M71.7,737.7l0.7,0l0,-24.4l-0.7,0l0,24.4Z" class="g1_2" />
<path d="M279.9,737.7l0.6,0l0,-24.4l-0.6,0l0,24.4Z" class="g1_2" />
<path d="M459.5,737.7l0.8,0l0,-24.4l-0.8,0l0,24.4Z" class="g1_2" />
<path d="M458.2,737.7l0.6,0l0,-24.4l-0.6,0l0,24.4Z" class="g1_2" />
<path d="M648.4,737.7l0.7,0l0,-24.4l-0.7,0l0,24.4Z" class="g1_2" />
<path d="M841.9,737.7l0.7,0l0,-24.4l-0.7,0l0,24.4Z" class="g1_2" />
<path d="M71.7,738.5l386.5,0l0,-0.8l-386.5,0l0,0.8Z" class="g1_2" />
<path d="M459.5,738.5l0.8,0l0,-0.8l-0.8,0l0,0.8Z" class="g1_2" />
<path d="M458.2,738.5l0.6,0l0,-0.8l-0.6,0l0,0.8Z" class="g1_2" />
<path d="M460.3,738.5l382.3,0l0,-0.8l-382.3,0l0,0.8Z" class="g1_2" />
<path d="M71.7,762.9l0.7,0l0,-24.4l-0.7,0l0,24.4Z" class="g1_2" />
<path d="M279.9,762.9l0.6,0l0,-24.4l-0.6,0l0,24.4Z" class="g1_2" />
<path d="M459.5,762.9l0.8,0l0,-24.4l-0.8,0l0,24.4Z" class="g1_2" />
<path d="M458.2,762.9l0.6,0l0,-24.4l-0.6,0l0,24.4Z" class="g1_2" />
<path d="M648.4,762.9l0.7,0l0,-24.4l-0.7,0l0,24.4Z" class="g1_2" />
<path d="M841.9,762.9l0.7,0l0,-24.4l-0.7,0l0,24.4Z" class="g1_2" />
<path d="M71.7,763.7l386.5,0l0,-0.8l-386.5,0l0,0.8Z" class="g1_2" />
<path d="M459.5,763.7l0.8,0l0,-0.8l-0.8,0l0,0.8Z" class="g1_2" />
<path d="M458.2,763.7l0.6,0l0,-0.8l-0.6,0l0,0.8Z" class="g1_2" />
<path d="M460.3,763.7l382.3,0l0,-0.8l-382.3,0l0,0.8Z" class="g1_2" />
<path d="M71.7,788.3l0.7,0l0,-24.6l-0.7,0l0,24.6Z" class="g1_2" />
<path d="M279.9,788.3l0.6,0l0,-24.6l-0.6,0l0,24.6Z" class="g1_2" />
<path d="M459.5,788.3l0.8,0l0,-24.6l-0.8,0l0,24.6Z" class="g1_2" />
<path d="M458.2,788.3l0.6,0l0,-24.6l-0.6,0l0,24.6Z" class="g1_2" />
<path d="M648.4,788.3l0.7,0l0,-24.6l-0.7,0l0,24.6Z" class="g1_2" />
<path d="M841.9,788.3l0.7,0l0,-24.6l-0.7,0l0,24.6Z" class="g1_2" />
<path d="M71.7,789l386.5,0l0,-0.7l-386.5,0l0,0.7Z" class="g1_2" />
<path d="M459.5,789l0.8,0l0,-0.7l-0.8,0l0,0.7Z" class="g1_2" />
<path d="M458.2,789l0.6,0l0,-0.7l-0.6,0l0,0.7Z" class="g1_2" />
<path d="M460.3,789l382.3,0l0,-0.7l-382.3,0l0,0.7Z" class="g1_2" />
<path d="M71.7,813.5l0.7,0l0,-24.5l-0.7,0l0,24.5Z" class="g1_2" />
<path d="M279.9,813.5l0.6,0l0,-24.5l-0.6,0l0,24.5Z" class="g1_2" />
<path d="M459.5,813.5l0.8,0l0,-24.5l-0.8,0l0,24.5Z" class="g1_2" />
<path d="M458.2,813.5l0.6,0l0,-24.5l-0.6,0l0,24.5Z" class="g1_2" />
<path d="M648.4,813.5l0.7,0l0,-24.5l-0.7,0l0,24.5Z" class="g1_2" />
<path d="M841.9,813.5l0.7,0l0,-24.5l-0.7,0l0,24.5Z" class="g1_2" />
<path d="M71.7,814.3l386.5,0l0,-0.8l-386.5,0l0,0.8Z" class="g1_2" />
<path d="M459.5,814.3l0.8,0l0,-0.8l-0.8,0l0,0.8Z" class="g1_2" />
<path d="M458.2,814.3l0.6,0l0,-0.8l-0.6,0l0,0.8Z" class="g1_2" />
<path d="M460.3,814.3l382.3,0l0,-0.8l-382.3,0l0,0.8Z" class="g1_2" />
<path d="M71.7,838.8l0.7,0l0,-24.5l-0.7,0l0,24.5Z" class="g1_2" />
<path d="M279.9,838.8l0.6,0l0,-24.5l-0.6,0l0,24.5Z" class="g1_2" />
<path d="M459.5,838.8l0.8,0l0,-24.5l-0.8,0l0,24.5Z" class="g1_2" />
<path d="M458.2,838.8l0.6,0l0,-24.5l-0.6,0l0,24.5Z" class="g1_2" />
<path d="M648.4,838.8l0.7,0l0,-24.5l-0.7,0l0,24.5Z" class="g1_2" />
<path d="M841.9,838.8l0.7,0l0,-24.5l-0.7,0l0,24.5Z" class="g1_2" />
<path d="M71.7,839.5l386.5,0l0,-0.8l-386.5,0l0,0.8Z" class="g1_2" />
<path d="M459.5,839.5l0.8,0l0,-0.8l-0.8,0l0,0.8Z" class="g1_2" />
<path d="M458.2,839.5l0.6,0l0,-0.8l-0.6,0l0,0.8Z" class="g1_2" />
<path d="M460.3,839.5l382.3,0l0,-0.8l-382.3,0l0,0.8Z" class="g1_2" />
<path d="M71.7,864.1l0.7,0l0,-24.6l-0.7,0l0,24.6Z" class="g1_2" />
<path d="M279.9,864.1l0.6,0l0,-24.6l-0.6,0l0,24.6Z" class="g1_2" />
<path d="M459.5,864.1l0.8,0l0,-24.6l-0.8,0l0,24.6Z" class="g1_2" />
<path d="M458.2,864.1l0.6,0l0,-24.6l-0.6,0l0,24.6Z" class="g1_2" />
<path d="M648.4,864.1l0.7,0l0,-24.6l-0.7,0l0,24.6Z" class="g1_2" />
<path d="M841.9,864.1l0.7,0l0,-24.6l-0.7,0l0,24.6Z" class="g1_2" />
<path d="M71.7,864.8l386.5,0l0,-0.8L71.7,864l0,0.8Z" class="g1_2" />
<path d="M459.5,864.8l0.8,0l0,-0.8l-0.8,0l0,0.8Z" class="g1_2" />
<path d="M458.2,864.8l0.6,0l0,-0.8l-0.6,0l0,0.8Z" class="g1_2" />
<path d="M460.3,864.8l382.3,0l0,-0.8l-382.3,0l0,0.8Z" class="g1_2" />
<path d="M71.7,889.4l0.7,0l0,-24.6l-0.7,0l0,24.6Z" class="g1_2" />
<path d="M279.9,889.4l0.6,0l0,-24.6l-0.6,0l0,24.6Z" class="g1_2" />
<path d="M459.5,889.4l0.8,0l0,-24.6l-0.8,0l0,24.6Z" class="g1_2" />
<path d="M458.2,889.4l0.6,0l0,-24.6l-0.6,0l0,24.6Z" class="g1_2" />
<path d="M648.4,889.4l0.7,0l0,-24.6l-0.7,0l0,24.6Z" class="g1_2" />
<path d="M841.9,889.4l0.7,0l0,-24.6l-0.7,0l0,24.6Z" class="g1_2" />
<path d="M71.7,890l386.5,0l0,-0.6l-386.5,0l0,0.6Z" class="g1_2" />
<path d="M459.5,890l0.8,0l0,-0.6l-0.8,0l0,0.6Z" class="g1_2" />
<path d="M458.2,890l0.6,0l0,-0.6l-0.6,0l0,0.6Z" class="g1_2" />
<path d="M460.3,890l382.3,0l0,-0.6l-382.3,0l0,0.6Z" class="g1_2" />
<path d="M71.7,914.6l0.7,0l0,-24.6l-0.7,0l0,24.6Z" class="g1_2" />
<path d="M279.9,914.6l0.6,0l0,-24.6l-0.6,0l0,24.6Z" class="g1_2" />
<path d="M459.5,914.6l0.8,0l0,-24.6l-0.8,0l0,24.6Z" class="g1_2" />
<path d="M458.2,914.6l0.6,0l0,-24.6l-0.6,0l0,24.6Z" class="g1_2" />
<path d="M648.4,914.6l0.7,0l0,-24.6l-0.7,0l0,24.6Z" class="g1_2" />
<path d="M841.9,914.6l0.7,0l0,-24.6l-0.7,0l0,24.6Z" class="g1_2" />
<path d="M71.7,915.3l386.5,0l0,-0.7l-386.5,0l0,0.7Z" class="g1_2" />
<path d="M459.5,915.3l0.8,0l0,-0.7l-0.8,0l0,0.7Z" class="g1_2" />
<path d="M458.2,915.3l0.6,0l0,-0.7l-0.6,0l0,0.7Z" class="g1_2" />
<path d="M460.3,915.3l382.3,0l0,-0.7l-382.3,0l0,0.7Z" class="g1_2" />
<path d="M71.7,939.9l0.7,0l0,-24.6l-0.7,0l0,24.6Z" class="g1_2" />
<path d="M279.9,939.9l0.6,0l0,-24.6l-0.6,0l0,24.6Z" class="g1_2" />
<path d="M459.5,939.9l0.8,0l0,-24.6l-0.8,0l0,24.6Z" class="g1_2" />
<path d="M458.2,939.9l0.6,0l0,-24.6l-0.6,0l0,24.6Z" class="g1_2" />
<path d="M648.4,939.9l0.7,0l0,-24.6l-0.7,0l0,24.6Z" class="g1_2" />
<path d="M841.9,939.9l0.7,0l0,-24.6l-0.7,0l0,24.6Z" class="g1_2" />
<path d="M71.7,940.6l386.5,0l0,-0.7l-386.5,0l0,0.7Z" class="g1_2" />
<path d="M459.5,940.6l0.8,0l0,-0.7l-0.8,0l0,0.7Z" class="g1_2" />
<path d="M458.2,940.6l0.6,0l0,-0.7l-0.6,0l0,0.7Z" class="g1_2" />
<path d="M460.3,940.6l382.3,0l0,-0.7l-382.3,0l0,0.7Z" class="g1_2" />
<path d="M71.7,965.1l0.7,0l0,-24.5l-0.7,0l0,24.5Z" class="g1_2" />
<path d="M279.9,965.1l0.6,0l0,-24.5l-0.6,0l0,24.5Z" class="g1_2" />
<path d="M459.5,965.1l0.8,0l0,-24.5l-0.8,0l0,24.5Z" class="g1_2" />
<path d="M458.2,965.1l0.6,0l0,-24.5l-0.6,0l0,24.5Z" class="g1_2" />
<path d="M648.4,965.1l0.7,0l0,-24.5l-0.7,0l0,24.5Z" class="g1_2" />
<path d="M841.9,965.1l0.7,0l0,-24.5l-0.7,0l0,24.5Z" class="g1_2" />
<path d="M71.7,965.8l386.5,0l0,-0.7l-386.5,0l0,0.7Z" class="g1_2" />
<path d="M459.5,965.8l0.8,0l0,-0.7l-0.8,0l0,0.7Z" class="g1_2" />
<path d="M458.2,965.8l0.6,0l0,-0.7l-0.6,0l0,0.7Z" class="g1_2" />
<path d="M460.3,965.8l382.3,0l0,-0.7l-382.3,0l0,0.7Z" class="g1_2" />
<path d="M71.7,990.3l0.7,0l0,-24.5l-0.7,0l0,24.5Z" class="g1_2" />
<path d="M279.9,990.3l0.6,0l0,-24.5l-0.6,0l0,24.5Z" class="g1_2" />
<path d="M459.5,990.3l0.8,0l0,-24.5l-0.8,0l0,24.5Z" class="g1_2" />
<path d="M458.2,990.3l0.6,0l0,-24.5l-0.6,0l0,24.5Z" class="g1_2" />
<path d="M648.4,990.3l0.7,0l0,-24.5l-0.7,0l0,24.5Z" class="g1_2" />
<path d="M841.9,990.3l0.7,0l0,-24.5l-0.7,0l0,24.5Z" class="g1_2" />
<path d="M71.7,991l386.5,0l0,-0.7l-386.5,0l0,0.7Z" class="g1_2" />
<path d="M459.5,991l0.8,0l0,-0.7l-0.8,0l0,0.7Z" class="g1_2" />
<path d="M458.2,991l0.6,0l0,-0.7l-0.6,0l0,0.7Z" class="g1_2" />
<path d="M460.3,991l382.3,0l0,-0.7l-382.3,0l0,0.7Z" class="g1_2" />
<path d="M71.7,1015.7l0.7,0l0,-24.7l-0.7,0l0,24.7Z" class="g1_2" />
<path d="M279.9,1015.7l0.6,0l0,-24.7l-0.6,0l0,24.7Z" class="g1_2" />
<path d="M459.5,1015.7l0.8,0l0,-24.7l-0.8,0l0,24.7Z" class="g1_2" />
<path d="M458.2,1015.7l0.6,0l0,-24.7l-0.6,0l0,24.7Z" class="g1_2" />
<path d="M648.4,1015.7l0.7,0l0,-24.7l-0.7,0l0,24.7Z" class="g1_2" />
<path d="M841.9,1015.7l0.7,0l0,-24.7l-0.7,0l0,24.7Z" class="g1_2" />
<path d="M71.7,1016.3l386.5,0l0,-0.6l-386.5,0l0,0.6Z" class="g1_2" />
<path d="M459.5,1016.3l0.8,0l0,-0.6l-0.8,0l0,0.6Z" class="g1_2" />
<path d="M458.2,1016.3l0.6,0l0,-0.6l-0.6,0l0,0.6Z" class="g1_2" />
<path d="M460.3,1016.3l382.3,0l0,-0.6l-382.3,0l0,0.6Z" class="g1_2" />
<path d="M71.7,1040.9l0.7,0l0,-24.6l-0.7,0l0,24.6Z" class="g1_2" />
<path d="M279.9,1040.9l0.6,0l0,-24.6l-0.6,0l0,24.6Z" class="g1_2" />
<path d="M459.5,1040.9l0.8,0l0,-24.6l-0.8,0l0,24.6Z" class="g1_2" />
<path d="M458.2,1040.9l0.6,0l0,-24.6l-0.6,0l0,24.6Z" class="g1_2" />
<path d="M648.4,1040.9l0.7,0l0,-24.6l-0.7,0l0,24.6Z" class="g1_2" />
<path d="M841.9,1040.9l0.7,0l0,-24.6l-0.7,0l0,24.6Z" class="g1_2" />
<path d="M71.7,1041.6l386.5,0l0,-0.7l-386.5,0l0,0.7Z" class="g1_2" />
<path d="M459.5,1041.6l0.8,0l0,-0.7l-0.8,0l0,0.7Z" class="g1_2" />
<path d="M458.2,1041.6l0.6,0l0,-0.7l-0.6,0l0,0.7Z" class="g1_2" />
<path d="M460.3,1041.6l382.3,0l0,-0.7l-382.3,0l0,0.7Z" class="g1_2" />
<path d="M71.7,1066.1l0.7,0l0,-24.5l-0.7,0l0,24.5Z" class="g1_2" />
<path d="M279.9,1066.1l0.6,0l0,-24.5l-0.6,0l0,24.5Z" class="g1_2" />
<path d="M459.5,1066.1l0.8,0l0,-24.5l-0.8,0l0,24.5Z" class="g1_2" />
<path d="M458.2,1066.1l0.6,0l0,-24.5l-0.6,0l0,24.5Z" class="g1_2" />
<path d="M648.4,1066.1l0.7,0l0,-24.5l-0.7,0l0,24.5Z" class="g1_2" />
<path d="M841.9,1066.1l0.7,0l0,-24.5l-0.7,0l0,24.5Z" class="g1_2" />
<path d="M71.7,1066.8l386.5,0l0,-0.7l-386.5,0l0,0.7Z" class="g1_2" />
<path d="M459.5,1066.8l0.8,0l0,-0.7l-0.8,0l0,0.7Z" class="g1_2" />
<path d="M458.2,1066.8l0.6,0l0,-0.7l-0.6,0l0,0.7Z" class="g1_2" />
<path d="M460.3,1066.8l382.3,0l0,-0.7l-382.3,0l0,0.7Z" class="g1_2" />
<path d="M71.7,1092.1l0.7,0l0,-25.3l-0.7,0l0,25.3Z" class="g1_2" />
<path d="M71.7,1092.1l208.2,0l0,-0.7l-208.2,0l0,0.7Z" class="g1_2" />
<path d="M279.9,1092.1l0.6,0l0,-25.3l-0.6,0l0,25.3Z" class="g1_2" />
<path d="M280.5,1092.1l177.7,0l0,-0.7l-177.7,0l0,0.7Z" class="g1_2" />
<path d="M459.5,1091.4l0.8,0l0,-24.6l-0.8,0l0,24.6Z" class="g1_2" />
<path d="M458.2,1092.1l0.6,0l0,-25.3l-0.6,0l0,25.3Z" class="g1_2" />
<path d="M458.8,1092.1l189.6,0l0,-0.7l-189.6,0l0,0.7Z" class="g1_2" />
<path d="M648.4,1092.1l0.7,0l0,-25.3l-0.7,0l0,25.3Z" class="g1_2" />
<path d="M649.1,1092.1l192.8,0l0,-0.7l-192.8,0l0,0.7Z" class="g1_2" />
<path d="M841.9,1092.1l0.7,0l0,-25.3l-0.7,0l0,25.3Z" class="g1_2" />
<path d="M841.9,1092.1l0.7,0l0,-0.7l-0.7,0l0,0.7Z" class="g1_2" />
</svg>