<?xml version="1.0" encoding="UTF-8" standalone="no"?>
<!DOCTYPE svg PUBLIC "-//W3C//DTD SVG 1.1//EN"
"http://www.w3.org/Graphics/SVG/1.1/DTD/svg11.dtd">
<svg viewBox="0 0 1286 909" version="1.1" xmlns="http://www.w3.org/2000/svg" xmlns:xlink="http://www.w3.org/1999/xlink">
<defs>
<style type="text/css"><![CDATA[
.g1_1{
}
]]></style>
</defs>
<image preserveAspectRatio="none" x="179" y="22" width="928" height="565" xlink:href="img/1.png" />
<path d="M26.1,223.8l0,4.4l790.5,0l0,-4.4l-790.5,0Z" class="g1_1" />
<path d="M816.6,224.5l0,2.9l88.9,0l0,-2.9l-88.9,0Z" class="g1_1" />
<path d="M26.1,246.3l0,4.4l380.6,0l0,-4.4l-380.6,0Z" class="g1_1" />
<path d="M406.7,247l0,3l73.3,0l0,-3l-73.3,0Z" class="g1_1" />
<path d="M480,246.3l0,4.4l336.6,0l0,-4.4l-336.6,0Z" class="g1_1" />
<path d="M813.7,137.2l0,64l2.9,0l0,-64l-2.9,0Z" class="g1_1" />
<path d="M1090.2,137.2l0,64l2.9,0l0,-64l-2.9,0Z" class="g1_1" />
<path d="M1258.7,75.2l0,174.8l4.4,0l0,-174.8l-4.4,0Z" class="g1_1" />
<path d="M26.1,270.3l0,1.5l377.7,0l0,-1.5l-377.7,0Z" class="g1_1" />
<path d="M403.8,228.2l0,18.1l2.9,0l0,-18.1l-2.9,0Z" class="g1_1" />
<path d="M406.7,270.3l0,1.5l73.3,0l0,-1.5l-73.3,0Z" class="g1_1" />
<path d="M480,228.2l0,18.1l3,0l0,-18.1l-3,0Z" class="g1_1" />
<path d="M483,270.3l0,1.5l330.7,0l0,-1.5l-330.7,0Z" class="g1_1" />
<path d="M813.7,228.2l0,18.1l2.9,0l0,-18.1l-2.9,0Z" class="g1_1" />
<path d="M816.6,270.3l0,1.5l88.9,0l0,-1.5l-88.9,0Z" class="g1_1" />
<path d="M908.4,270.3l0,1.5l86.4,0l0,-1.5l-86.4,0Z" class="g1_1" />
<path d="M997.8,270.3l0,1.5l92.4,0l0,-1.5l-92.4,0Z" class="g1_1" />
<path d="M1093.1,270.3l0,1.5l90,0l0,-1.5l-90,0Z" class="g1_1" />
<path d="M26.1,292.9l0,1.4l377.7,0l0,-1.4l-377.7,0Z" class="g1_1" />
<path d="M406.7,292.9l0,1.4l73.3,0l0,-1.4l-73.3,0Z" class="g1_1" />
<path d="M483,292.9l0,1.4l330.7,0l0,-1.4l-330.7,0Z" class="g1_1" />
<path d="M816.6,292.9l0,1.4l88.9,0l0,-1.4l-88.9,0Z" class="g1_1" />
<path d="M908.4,292.9l0,1.4l86.4,0l0,-1.4l-86.4,0Z" class="g1_1" />
<path d="M997.8,292.9l0,1.4l92.4,0l0,-1.4l-92.4,0Z" class="g1_1" />
<path d="M1093.1,292.9l0,1.4l90,0l0,-1.4l-90,0Z" class="g1_1" />
<path d="M26.1,315.4l0,1.5l377.7,0l0,-1.5l-377.7,0Z" class="g1_1" />
<path d="M406.7,315.4l0,1.5l73.3,0l0,-1.5l-73.3,0Z" class="g1_1" />
<path d="M483,315.4l0,1.5l330.7,0l0,-1.5l-330.7,0Z" class="g1_1" />
<path d="M816.6,315.4l0,1.5l88.9,0l0,-1.5l-88.9,0Z" class="g1_1" />
<path d="M908.4,315.4l0,1.5l86.4,0l0,-1.5l-86.4,0Z" class="g1_1" />
<path d="M997.8,315.4l0,1.5l92.4,0l0,-1.5l-92.4,0Z" class="g1_1" />
<path d="M1093.1,315.4l0,1.5l90,0l0,-1.5l-90,0Z" class="g1_1" />
<path d="M26.1,338l0,1.4l377.7,0l0,-1.4L26.1,338Z" class="g1_1" />
<path d="M406.7,338l0,1.4l73.3,0l0,-1.4l-73.3,0Z" class="g1_1" />
<path d="M483,338l0,1.4l330.7,0l0,-1.4L483,338Z" class="g1_1" />
<path d="M816.6,338l0,1.4l88.9,0l0,-1.4l-88.9,0Z" class="g1_1" />
<path d="M908.4,338l0,1.4l86.4,0l0,-1.4l-86.4,0Z" class="g1_1" />
<path d="M997.8,338l0,1.4l92.4,0l0,-1.4l-92.4,0Z" class="g1_1" />
<path d="M1093.1,338l0,1.4l90,0l0,-1.4l-90,0Z" class="g1_1" />
<path d="M26.1,360.5l0,1.5l377.7,0l0,-1.5l-377.7,0Z" class="g1_1" />
<path d="M406.7,360.5l0,1.5l73.3,0l0,-1.5l-73.3,0Z" class="g1_1" />
<path d="M483,360.5l0,1.5l330.7,0l0,-1.5l-330.7,0Z" class="g1_1" />
<path d="M816.6,360.5l0,1.5l88.9,0l0,-1.5l-88.9,0Z" class="g1_1" />
<path d="M908.4,360.5l0,1.5l86.4,0l0,-1.5l-86.4,0Z" class="g1_1" />
<path d="M997.8,360.5l0,1.5l92.4,0l0,-1.5l-92.4,0Z" class="g1_1" />
<path d="M1093.1,360.5l0,1.5l90,0l0,-1.5l-90,0Z" class="g1_1" />
<path d="M26.1,383.1l0,1.4l377.7,0l0,-1.4l-377.7,0Z" class="g1_1" />
<path d="M406.7,383.1l0,1.4l73.3,0l0,-1.4l-73.3,0Z" class="g1_1" />
<path d="M483,383.1l0,1.4l330.7,0l0,-1.4l-330.7,0Z" class="g1_1" />
<path d="M816.6,383.1l0,1.4l88.9,0l0,-1.4l-88.9,0Z" class="g1_1" />
<path d="M908.4,383.1l0,1.4l86.4,0l0,-1.4l-86.4,0Z" class="g1_1" />
<path d="M997.8,383.1l0,1.4l92.4,0l0,-1.4l-92.4,0Z" class="g1_1" />
<path d="M1093.1,383.1l0,1.4l90,0l0,-1.4l-90,0Z" class="g1_1" />
<path d="M26.1,405.6l0,1.5l377.7,0l0,-1.5l-377.7,0Z" class="g1_1" />
<path d="M406.7,405.6l0,1.5l73.3,0l0,-1.5l-73.3,0Z" class="g1_1" />
<path d="M483,405.6l0,1.5l330.7,0l0,-1.5l-330.7,0Z" class="g1_1" />
<path d="M816.6,405.6l0,1.5l88.9,0l0,-1.5l-88.9,0Z" class="g1_1" />
<path d="M908.4,405.6l0,1.5l86.4,0l0,-1.5l-86.4,0Z" class="g1_1" />
<path d="M997.8,405.6l0,1.5l92.4,0l0,-1.5l-92.4,0Z" class="g1_1" />
<path d="M1093.1,405.6l0,1.5l90,0l0,-1.5l-90,0Z" class="g1_1" />
<path d="M26.1,428.2l0,1.4l377.7,0l0,-1.4l-377.7,0Z" class="g1_1" />
<path d="M406.7,428.2l0,1.4l73.3,0l0,-1.4l-73.3,0Z" class="g1_1" />
<path d="M483,428.2l0,1.4l330.7,0l0,-1.4l-330.7,0Z" class="g1_1" />
<path d="M816.6,428.2l0,1.4l88.9,0l0,-1.4l-88.9,0Z" class="g1_1" />
<path d="M908.4,428.2l0,1.4l86.4,0l0,-1.4l-86.4,0Z" class="g1_1" />
<path d="M997.8,428.2l0,1.4l92.4,0l0,-1.4l-92.4,0Z" class="g1_1" />
<path d="M1093.1,428.2l0,1.4l90,0l0,-1.4l-90,0Z" class="g1_1" />
<path d="M21.7,70.8l0,381.4l4.4,0l0,-381.4l-4.4,0Z" class="g1_1" />
<path d="M26.1,450.7l0,1.5l377.7,0l0,-1.5l-377.7,0Z" class="g1_1" />
<path d="M406.7,450.7l0,1.5l73.3,0l0,-1.5l-73.3,0Z" class="g1_1" />
<path d="M483,450.7l0,1.5l330.7,0l0,-1.5l-330.7,0Z" class="g1_1" />
<path d="M816.6,450.7l0,1.5l88.9,0l0,-1.5l-88.9,0Z" class="g1_1" />
<path d="M908.4,450.7l0,1.5l86.4,0l0,-1.5l-86.4,0Z" class="g1_1" />
<path d="M997.8,450.7l0,1.5l92.4,0l0,-1.5l-92.4,0Z" class="g1_1" />
<path d="M1093.1,450.7l0,1.5l90,0l0,-1.5l-90,0Z" class="g1_1" />
<path d="M25.4,473.3l0,1.4l378.4,0l0,-1.4l-378.4,0Z" class="g1_1" />
<path d="M406.7,473.3l0,1.4l73.3,0l0,-1.4l-73.3,0Z" class="g1_1" />
<path d="M483,473.3l0,1.4l330.7,0l0,-1.4l-330.7,0Z" class="g1_1" />
<path d="M816.6,473.3l0,1.4l88.9,0l0,-1.4l-88.9,0Z" class="g1_1" />
<path d="M908.4,473.3l0,1.4l86.4,0l0,-1.4l-86.4,0Z" class="g1_1" />
<path d="M997.8,473.3l0,1.4l92.4,0l0,-1.4l-92.4,0Z" class="g1_1" />
<path d="M1093.1,473.3l0,1.4l90,0l0,-1.4l-90,0Z" class="g1_1" />
<path d="M25.4,495.8l0,1.5l378.4,0l0,-1.5l-378.4,0Z" class="g1_1" />
<path d="M406.7,495.8l0,1.5l73.3,0l0,-1.5l-73.3,0Z" class="g1_1" />
<path d="M483,495.8l0,1.5l330.7,0l0,-1.5l-330.7,0Z" class="g1_1" />
<path d="M816.6,495.8l0,1.5l88.9,0l0,-1.5l-88.9,0Z" class="g1_1" />
<path d="M908.4,495.8l0,1.5l86.4,0l0,-1.5l-86.4,0Z" class="g1_1" />
<path d="M997.8,495.8l0,1.5l92.4,0l0,-1.5l-92.4,0Z" class="g1_1" />
<path d="M1093.1,495.8l0,1.5l90,0l0,-1.5l-90,0Z" class="g1_1" />
<path d="M22.4,452.2l0,65.4l3,0l0,-65.4l-3,0Z" class="g1_1" />
<path d="M1259.4,250l0,267.6l2.9,0l0,-267.6l-2.9,0Z" class="g1_1" />
<path d="M21.7,517.6l0,228.5l4.4,0l0,-228.5l-4.4,0Z" class="g1_1" />
<path d="M403.8,250.7l0,269.9l2.9,0l0,-269.9l-2.9,0Z" class="g1_1" />
<path d="M994.8,228.2l0,292.4l3,0l0,-292.4l-3,0Z" class="g1_1" />
<path d="M1258.7,517.6l0,228.5l4.4,0l0,-228.5l-4.4,0Z" class="g1_1" />
<path d="M25.4,766.4l0,1.5l378.4,0l0,-1.5l-378.4,0Z" class="g1_1" />
<path d="M406.7,766.4l0,1.5l330.7,0l0,-1.5l-330.7,0Z" class="g1_1" />
<path d="M740.4,766.4l0,1.5l254.4,0l0,-1.5l-254.4,0Z" class="g1_1" />
<path d="M25.4,789l0,1.4l378.4,0l0,-1.4L25.4,789Z" class="g1_1" />
<path d="M406.7,789l0,1.4l330.7,0l0,-1.4l-330.7,0Z" class="g1_1" />
<path d="M740.4,789l0,1.4l254.4,0l0,-1.4l-254.4,0Z" class="g1_1" />
<path d="M25.4,811.5l0,1.5l378.4,0l0,-1.5l-378.4,0Z" class="g1_1" />
<path d="M406.7,811.5l0,1.5l330.7,0l0,-1.5l-330.7,0Z" class="g1_1" />
<path d="M740.4,811.5l0,1.5l254.4,0l0,-1.5l-254.4,0Z" class="g1_1" />
<path d="M22.4,746.1l0,90.2l3,0l0,-90.2l-3,0Z" class="g1_1" />
<path d="M1259.4,746.1l0,90.2l2.9,0l0,-90.2l-2.9,0Z" class="g1_1" />
<path d="M327.5,137.2l0,64l2.9,0l0,-64l-2.9,0Z" class="g1_1" />
<path d="M632.6,137.2l0,64l2.9,0l0,-64l-2.9,0Z" class="g1_1" />
<path d="M813.7,250.7l0,269.9l2.9,0l0,-269.9l-2.9,0Z" class="g1_1" />
<path d="M1090.2,228.2l0,292.4l2.9,0l0,-292.4l-2.9,0Z" class="g1_1" />
<path d="M403.8,746.1l0,90.2l2.9,0l0,-90.2l-2.9,0Z" class="g1_1" />
<path d="M480,250.7l0,269.9l3,0l0,-269.9l-3,0Z" class="g1_1" />
<path d="M905.5,228.2l0,292.4l2.9,0l0,-292.4l-2.9,0Z" class="g1_1" />
<path d="M994.8,746.1l0,90.2l3,0l0,-90.2l-3,0Z" class="g1_1" />
<path d="M1183.1,228.2l0,292.4l3,0l0,-292.4l-3,0Z" class="g1_1" />
<path d="M737.4,746.1l0,90.2l3,0l0,-90.2l-3,0Z" class="g1_1" />
<path d="M26.1,70.8l0,4.4l1237,0l0,-4.4l-1237,0Z" class="g1_1" />
<path d="M26.1,111l0,4.4l1237,0l0,-4.4l-1237,0Z" class="g1_1" />
<path d="M26.1,134.3l0,2.9l1232.6,0l0,-2.9l-1232.6,0Z" class="g1_1" />
<path d="M1093.1,156.8l0,3l165.6,0l0,-3l-165.6,0Z" class="g1_1" />
<path d="M26.1,201.2l0,4.4l1237,0l0,-4.4l-1237,0Z" class="g1_1" />
<path d="M905.5,223.8l357.6,0l0,4.4l-357.6,0Z" class="g1_1" />
<path d="M816.6,247l0,3l442.1,0l0,-3l-442.1,0Z" class="g1_1" />
<path d="M1186.1,270.3l0,1.5l73.3,0l0,-1.5l-73.3,0Z" class="g1_1" />
<path d="M1186.1,292.9l0,1.4l73.3,0l0,-1.4l-73.3,0Z" class="g1_1" />
<path d="M1186.1,315.4l0,1.5l73.3,0l0,-1.5l-73.3,0Z" class="g1_1" />
<path d="M1186.1,338l0,1.4l73.3,0l0,-1.4l-73.3,0Z" class="g1_1" />
<path d="M1186.1,360.5l0,1.5l73.3,0l0,-1.5l-73.3,0Z" class="g1_1" />
<path d="M1186.1,383.1l0,1.4l73.3,0l0,-1.4l-73.3,0Z" class="g1_1" />
<path d="M1186.1,405.6l0,1.5l73.3,0l0,-1.5l-73.3,0Z" class="g1_1" />
<path d="M1186.1,428.2l0,1.4l73.3,0l0,-1.4l-73.3,0Z" class="g1_1" />
<path d="M1186.1,450.7l0,1.5l73.3,0l0,-1.5l-73.3,0Z" class="g1_1" />
<path d="M1186.1,473.3l0,1.4l73.3,0l0,-1.4l-73.3,0Z" class="g1_1" />
<path d="M1186.1,495.8l0,1.5l73.3,0l0,-1.5l-73.3,0Z" class="g1_1" />
<path d="M26.1,517.6l0,3l1232.6,0l0,-3l-1232.6,0Z" class="g1_1" />
<path d="M26.1,540.2l0,2.9l1232.6,0l0,-2.9l-1232.6,0Z" class="g1_1" />
<path d="M26.1,563.5l0,1.4l1232.6,0l0,-1.4l-1232.6,0Z" class="g1_1" />
<path d="M26.1,586l0,1.5l1232.6,0l0,-1.5L26.1,586Z" class="g1_1" />
<path d="M26.1,608.6l0,1.4l1232.6,0l0,-1.4l-1232.6,0Z" class="g1_1" />
<path d="M26.1,631.1l0,1.5l1232.6,0l0,-1.5l-1232.6,0Z" class="g1_1" />
<path d="M26.1,653.7l0,1.4l1232.6,0l0,-1.4l-1232.6,0Z" class="g1_1" />
<path d="M26.1,676.2l0,1.5l1232.6,0l0,-1.5l-1232.6,0Z" class="g1_1" />
<path d="M26.1,698.8l0,1.4l1232.6,0l0,-1.4l-1232.6,0Z" class="g1_1" />
<path d="M26.1,719.9l0,4.4l1237,0l0,-4.4l-1237,0Z" class="g1_1" />
<path d="M26.1,743.1l0,3l1232.6,0l0,-3l-1232.6,0Z" class="g1_1" />
<path d="M997.8,766.4l0,1.5l261.6,0l0,-1.5l-261.6,0Z" class="g1_1" />
<path d="M997.8,789l0,1.4l261.6,0l0,-1.4l-261.6,0Z" class="g1_1" />
<path d="M997.8,811.5l0,1.5l261.6,0l0,-1.5l-261.6,0Z" class="g1_1" />
<path d="M25.4,833.3l0,3l1236.9,0l0,-3l-1236.9,0Z" class="g1_1" />
</svg>