<?xml version="1.0" encoding="UTF-8" standalone="no"?>
<!DOCTYPE svg PUBLIC "-//W3C//DTD SVG 1.1//EN"
"http://www.w3.org/Graphics/SVG/1.1/DTD/svg11.dtd">
<svg viewBox="0 0 1286 909" version="1.1" xmlns="http://www.w3.org/2000/svg" xmlns:xlink="http://www.w3.org/1999/xlink">
<defs>
<style type="text/css"><![CDATA[
.g1_1{
}
]]></style>
</defs>
<image preserveAspectRatio="none" x="179" y="22" width="928" height="565" xlink:href="img/1.png" />
<path d="M24.8,72.1l0,39.1l3,0l0,-39.1l-3,0Z" class="g1_1" />
<path d="M1257,75l0,36.2l2.9,0l0,-36.2l-2.9,0Z" class="g1_1" />
<path d="M24.1,111.2l0,25.5l4.4,0l0,-25.5l-4.4,0Z" class="g1_1" />
<path d="M1256.3,111.2l0,25.5l4.4,0l0,-25.5l-4.4,0Z" class="g1_1" />
<path d="M24.8,136.7l0,64.7l3,0l0,-64.7l-3,0Z" class="g1_1" />
<path d="M1257,136.7l0,64.7l2.9,0l0,-64.7l-2.9,0Z" class="g1_1" />
<path d="M24.1,201.4l0,25.5l4.4,0l0,-25.5l-4.4,0Z" class="g1_1" />
<path d="M816.1,136.7l0,67.6l2.9,0l0,-67.6l-2.9,0Z" class="g1_1" />
<path d="M1087.8,136.7l0,67.6l2.9,0l0,-67.6l-2.9,0Z" class="g1_1" />
<path d="M1256.3,201.4l0,25.5l4.4,0l0,-25.5l-4.4,0Z" class="g1_1" />
<path d="M24.8,226.9l0,18.9l3,0l0,-18.9l-3,0Z" class="g1_1" />
<path d="M28.5,245.8l0,4.4l380.6,0l0,-4.4l-380.6,0Z" class="g1_1" />
<path d="M28.5,269.8l0,1.4l377.7,0l0,-1.4l-377.7,0Z" class="g1_1" />
<path d="M406.2,226.9l0,18.9l2.9,0l0,-18.9l-2.9,0Z" class="g1_1" />
<path d="M409.1,269.8l0,1.4l73.3,0l0,-1.4l-73.3,0Z" class="g1_1" />
<path d="M485.4,269.8l0,1.4l330.7,0l0,-1.4l-330.7,0Z" class="g1_1" />
<path d="M819,269.8l0,1.4l84.1,0l0,-1.4l-84.1,0Z" class="g1_1" />
<path d="M906,269.8l0,1.4l86.5,0l0,-1.4l-86.5,0Z" class="g1_1" />
<path d="M995.4,269.8l0,1.4l92.4,0l0,-1.4l-92.4,0Z" class="g1_1" />
<path d="M1090.7,269.8l0,1.4l90,0l0,-1.4l-90,0Z" class="g1_1" />
<path d="M28.5,292.3l0,1.5l377.7,0l0,-1.5l-377.7,0Z" class="g1_1" />
<path d="M409.1,292.3l0,1.5l73.3,0l0,-1.5l-73.3,0Z" class="g1_1" />
<path d="M485.4,292.3l0,1.5l330.7,0l0,-1.5l-330.7,0Z" class="g1_1" />
<path d="M819,292.3l0,1.5l84.1,0l0,-1.5l-84.1,0Z" class="g1_1" />
<path d="M906,292.3l0,1.5l86.5,0l0,-1.5l-86.5,0Z" class="g1_1" />
<path d="M995.4,292.3l0,1.5l92.4,0l0,-1.5l-92.4,0Z" class="g1_1" />
<path d="M1090.7,292.3l0,1.5l90,0l0,-1.5l-90,0Z" class="g1_1" />
<path d="M28.5,314.9l0,1.4l377.7,0l0,-1.4l-377.7,0Z" class="g1_1" />
<path d="M409.1,314.9l0,1.4l73.3,0l0,-1.4l-73.3,0Z" class="g1_1" />
<path d="M485.4,314.9l0,1.4l330.7,0l0,-1.4l-330.7,0Z" class="g1_1" />
<path d="M819,314.9l0,1.4l84.1,0l0,-1.4l-84.1,0Z" class="g1_1" />
<path d="M906,314.9l0,1.4l86.5,0l0,-1.4l-86.5,0Z" class="g1_1" />
<path d="M995.4,314.9l0,1.4l92.4,0l0,-1.4l-92.4,0Z" class="g1_1" />
<path d="M1090.7,314.9l0,1.4l90,0l0,-1.4l-90,0Z" class="g1_1" />
<path d="M28.5,337.4l0,1.5l377.7,0l0,-1.5l-377.7,0Z" class="g1_1" />
<path d="M409.1,337.4l0,1.5l73.3,0l0,-1.5l-73.3,0Z" class="g1_1" />
<path d="M485.4,337.4l0,1.5l330.7,0l0,-1.5l-330.7,0Z" class="g1_1" />
<path d="M819,337.4l0,1.5l84.1,0l0,-1.5l-84.1,0Z" class="g1_1" />
<path d="M906,337.4l0,1.5l86.5,0l0,-1.5l-86.5,0Z" class="g1_1" />
<path d="M995.4,337.4l0,1.5l92.4,0l0,-1.5l-92.4,0Z" class="g1_1" />
<path d="M1090.7,337.4l0,1.5l90,0l0,-1.5l-90,0Z" class="g1_1" />
<path d="M28.5,360l0,1.4l377.7,0l0,-1.4L28.5,360Z" class="g1_1" />
<path d="M409.1,360l0,1.4l73.3,0l0,-1.4l-73.3,0Z" class="g1_1" />
<path d="M485.4,360l0,1.4l330.7,0l0,-1.4l-330.7,0Z" class="g1_1" />
<path d="M819,360l0,1.4l84.1,0l0,-1.4L819,360Z" class="g1_1" />
<path d="M906,360l0,1.4l86.5,0l0,-1.4L906,360Z" class="g1_1" />
<path d="M995.4,360l0,1.4l92.4,0l0,-1.4l-92.4,0Z" class="g1_1" />
<path d="M1090.7,360l0,1.4l90,0l0,-1.4l-90,0Z" class="g1_1" />
<path d="M28.5,382.5l0,1.5l377.7,0l0,-1.5l-377.7,0Z" class="g1_1" />
<path d="M409.1,382.5l0,1.5l73.3,0l0,-1.5l-73.3,0Z" class="g1_1" />
<path d="M485.4,382.5l0,1.5l330.7,0l0,-1.5l-330.7,0Z" class="g1_1" />
<path d="M819,382.5l0,1.5l84.1,0l0,-1.5l-84.1,0Z" class="g1_1" />
<path d="M906,382.5l0,1.5l86.5,0l0,-1.5l-86.5,0Z" class="g1_1" />
<path d="M995.4,382.5l0,1.5l92.4,0l0,-1.5l-92.4,0Z" class="g1_1" />
<path d="M1090.7,382.5l0,1.5l90,0l0,-1.5l-90,0Z" class="g1_1" />
<path d="M28.5,405.1l0,1.4l377.7,0l0,-1.4l-377.7,0Z" class="g1_1" />
<path d="M409.1,405.1l0,1.4l73.3,0l0,-1.4l-73.3,0Z" class="g1_1" />
<path d="M485.4,405.1l0,1.4l330.7,0l0,-1.4l-330.7,0Z" class="g1_1" />
<path d="M819,405.1l0,1.4l84.1,0l0,-1.4l-84.1,0Z" class="g1_1" />
<path d="M906,405.1l0,1.4l86.5,0l0,-1.4l-86.5,0Z" class="g1_1" />
<path d="M995.4,405.1l0,1.4l92.4,0l0,-1.4l-92.4,0Z" class="g1_1" />
<path d="M1090.7,405.1l0,1.4l90,0l0,-1.4l-90,0Z" class="g1_1" />
<path d="M28.5,427.6l0,1.5l377.7,0l0,-1.5l-377.7,0Z" class="g1_1" />
<path d="M409.1,427.6l0,1.5l73.3,0l0,-1.5l-73.3,0Z" class="g1_1" />
<path d="M485.4,427.6l0,1.5l330.7,0l0,-1.5l-330.7,0Z" class="g1_1" />
<path d="M819,427.6l0,1.5l84.1,0l0,-1.5l-84.1,0Z" class="g1_1" />
<path d="M906,427.6l0,1.5l86.5,0l0,-1.5l-86.5,0Z" class="g1_1" />
<path d="M995.4,427.6l0,1.5l92.4,0l0,-1.5l-92.4,0Z" class="g1_1" />
<path d="M1090.7,427.6l0,1.5l90,0l0,-1.5l-90,0Z" class="g1_1" />
<path d="M28.5,450.2l0,1.4l377.7,0l0,-1.4l-377.7,0Z" class="g1_1" />
<path d="M409.1,450.2l0,1.4l73.3,0l0,-1.4l-73.3,0Z" class="g1_1" />
<path d="M485.4,450.2l0,1.4l330.7,0l0,-1.4l-330.7,0Z" class="g1_1" />
<path d="M819,450.2l0,1.4l84.1,0l0,-1.4l-84.1,0Z" class="g1_1" />
<path d="M906,450.2l0,1.4l86.5,0l0,-1.4l-86.5,0Z" class="g1_1" />
<path d="M995.4,450.2l0,1.4l92.4,0l0,-1.4l-92.4,0Z" class="g1_1" />
<path d="M1090.7,450.2l0,1.4l90,0l0,-1.4l-90,0Z" class="g1_1" />
<path d="M24.1,245.8l0,228.4l4.4,0l0,-228.4l-4.4,0Z" class="g1_1" />
<path d="M28.5,472.7l0,1.5l377.7,0l0,-1.5l-377.7,0Z" class="g1_1" />
<path d="M409.1,472.7l0,1.5l73.3,0l0,-1.5l-73.3,0Z" class="g1_1" />
<path d="M485.4,472.7l0,1.5l330.7,0l0,-1.5l-330.7,0Z" class="g1_1" />
<path d="M819,472.7l0,1.5l84.1,0l0,-1.5l-84.1,0Z" class="g1_1" />
<path d="M906,472.7l0,1.5l86.5,0l0,-1.5l-86.5,0Z" class="g1_1" />
<path d="M995.4,472.7l0,1.5l92.4,0l0,-1.5l-92.4,0Z" class="g1_1" />
<path d="M1090.7,472.7l0,1.5l90,0l0,-1.5l-90,0Z" class="g1_1" />
<path d="M25.6,474.2l0,21.1l1.4,0l0,-21.1l-1.4,0Z" class="g1_1" />
<path d="M27.8,495.3l0,1.4l378.4,0l0,-1.4l-378.4,0Z" class="g1_1" />
<path d="M409.1,495.3l0,1.4l73.3,0l0,-1.4l-73.3,0Z" class="g1_1" />
<path d="M485.4,495.3l0,1.4l330.7,0l0,-1.4l-330.7,0Z" class="g1_1" />
<path d="M819,495.3l0,1.4l84.1,0l0,-1.4l-84.1,0Z" class="g1_1" />
<path d="M906,495.3l0,1.4l86.5,0l0,-1.4l-86.5,0Z" class="g1_1" />
<path d="M995.4,495.3l0,1.4l92.4,0l0,-1.4l-92.4,0Z" class="g1_1" />
<path d="M1090.7,495.3l0,1.4l90,0l0,-1.4l-90,0Z" class="g1_1" />
<path d="M406.2,250.2l0,269.8l2.9,0l0,-269.8l-2.9,0Z" class="g1_1" />
<path d="M992.5,226.9l0,293.1l2.9,0l0,-293.1l-2.9,0Z" class="g1_1" />
<path d="M27.8,765.9l0,1.4l378.4,0l0,-1.4l-378.4,0Z" class="g1_1" />
<path d="M409.1,765.9l0,1.4l330.7,0l0,-1.4l-330.7,0Z" class="g1_1" />
<path d="M742.8,765.9l0,1.4l249.7,0l0,-1.4l-249.7,0Z" class="g1_1" />
<path d="M27.8,788.4l0,1.5l378.4,0l0,-1.5l-378.4,0Z" class="g1_1" />
<path d="M409.1,788.4l0,1.5l330.7,0l0,-1.5l-330.7,0Z" class="g1_1" />
<path d="M742.8,788.4l0,1.5l249.7,0l0,-1.5l-249.7,0Z" class="g1_1" />
<path d="M27.8,811l0,1.4l378.4,0l0,-1.4L27.8,811Z" class="g1_1" />
<path d="M409.1,811l0,1.4l330.7,0l0,-1.4l-330.7,0Z" class="g1_1" />
<path d="M742.8,811l0,1.4l249.7,0l0,-1.4l-249.7,0Z" class="g1_1" />
<path d="M24.8,495.3l0,340.4l3,0l0,-340.4l-3,0Z" class="g1_1" />
<path d="M1257,226.9l0,608.8l2.9,0l0,-608.8l-2.9,0Z" class="g1_1" />
<path d="M329.9,136.7l0,67.6l2.9,0l0,-67.6l-2.9,0Z" class="g1_1" />
<path d="M635,136.7l0,67.6l2.9,0l0,-67.6l-2.9,0Z" class="g1_1" />
<path d="M816.1,226.9l0,293.1l2.9,0l0,-293.1l-2.9,0Z" class="g1_1" />
<path d="M1087.8,226.9l0,293.1l2.9,0l0,-293.1l-2.9,0Z" class="g1_1" />
<path d="M101.1,226.9l0,18.9l2.9,0l0,-18.9l-2.9,0Z" class="g1_1" />
<path d="M406.2,745.5l0,90.2l2.9,0l0,-90.2l-2.9,0Z" class="g1_1" />
<path d="M482.4,226.9l0,293.1l3,0l0,-293.1l-3,0Z" class="g1_1" />
<path d="M903.1,226.9l0,293.1l2.9,0l0,-293.1l-2.9,0Z" class="g1_1" />
<path d="M992.5,745.5l0,90.2l2.9,0l0,-90.2l-2.9,0Z" class="g1_1" />
<path d="M1180.7,226.9l0,293.1l3,0l0,-293.1l-3,0Z" class="g1_1" />
<path d="M739.8,745.5l0,90.2l3,0l0,-90.2l-3,0Z" class="g1_1" />
<path d="M27.8,72.1l0,2.9l1232.1,0l0,-2.9L27.8,72.1Z" class="g1_1" />
<path d="M28.5,111.2l0,2.9l1227.8,0l0,-2.9l-1227.8,0Z" class="g1_1" />
<path d="M28.5,133.7l0,3l1227.8,0l0,-3l-1227.8,0Z" class="g1_1" />
<path d="M1090.7,156.3l0,2.9l169.2,0l0,-2.9l-169.2,0Z" class="g1_1" />
<path d="M28.5,201.4l0,2.9l1227.8,0l0,-2.9l-1227.8,0Z" class="g1_1" />
<path d="M28.5,223.9l0,3l1227.8,0l0,-3l-1227.8,0Z" class="g1_1" />
<path d="M409.1,246.5l0,2.9l850.8,0l0,-2.9l-850.8,0Z" class="g1_1" />
<path d="M1183.7,269.8l0,1.4l73.3,0l0,-1.4l-73.3,0Z" class="g1_1" />
<path d="M1183.7,292.3l0,1.5l73.3,0l0,-1.5l-73.3,0Z" class="g1_1" />
<path d="M1183.7,314.9l0,1.4l73.3,0l0,-1.4l-73.3,0Z" class="g1_1" />
<path d="M1183.7,337.4l0,1.5l73.3,0l0,-1.5l-73.3,0Z" class="g1_1" />
<path d="M1183.7,360l0,1.4l73.3,0l0,-1.4l-73.3,0Z" class="g1_1" />
<path d="M1183.7,382.5l0,1.5l73.3,0l0,-1.5l-73.3,0Z" class="g1_1" />
<path d="M1183.7,405.1l0,1.4l73.3,0l0,-1.4l-73.3,0Z" class="g1_1" />
<path d="M1183.7,427.6l0,1.5l73.3,0l0,-1.5l-73.3,0Z" class="g1_1" />
<path d="M1183.7,450.2l0,1.4l73.3,0l0,-1.4l-73.3,0Z" class="g1_1" />
<path d="M1183.7,472.7l0,1.5l73.3,0l0,-1.5l-73.3,0Z" class="g1_1" />
<path d="M1183.7,495.3l0,1.4l73.3,0l0,-1.4l-73.3,0Z" class="g1_1" />
<path d="M27.8,517.1l0,2.9l1232.1,0l0,-2.9l-1232.1,0Z" class="g1_1" />
<path d="M27.8,539.6l0,3l1232.1,0l0,-3l-1232.1,0Z" class="g1_1" />
<path d="M27.8,562.9l0,1.5l1229.2,0l0,-1.5l-1229.2,0Z" class="g1_1" />
<path d="M27.8,585.5l0,1.4l1229.2,0l0,-1.4l-1229.2,0Z" class="g1_1" />
<path d="M27.8,608l0,1.5l1229.2,0l0,-1.5L27.8,608Z" class="g1_1" />
<path d="M27.8,630.6l0,1.4L1257,632l0,-1.4l-1229.2,0Z" class="g1_1" />
<path d="M27.8,653.1l0,1.5l1229.2,0l0,-1.5l-1229.2,0Z" class="g1_1" />
<path d="M27.8,675.7l0,1.4l1229.2,0l0,-1.4l-1229.2,0Z" class="g1_1" />
<path d="M27.8,698.2l0,1.5l1229.2,0l0,-1.5l-1229.2,0Z" class="g1_1" />
<path d="M27.8,720l0,3l1232.1,0l0,-3L27.8,720Z" class="g1_1" />
<path d="M27.8,742.6l0,2.9l1232.1,0l0,-2.9l-1232.1,0Z" class="g1_1" />
<path d="M995.4,765.9l0,1.4l261.6,0l0,-1.4l-261.6,0Z" class="g1_1" />
<path d="M995.4,788.4l0,1.5l261.6,0l0,-1.5l-261.6,0Z" class="g1_1" />
<path d="M995.4,811l0,1.4l261.6,0l0,-1.4l-261.6,0Z" class="g1_1" />
<path d="M27.8,832.8l0,2.9l1232.1,0l0,-2.9l-1232.1,0Z" class="g1_1" />
</svg>