<?xml version="1.0" encoding="UTF-8" standalone="no"?>
<!DOCTYPE svg PUBLIC "-//W3C//DTD SVG 1.1//EN"
"http://www.w3.org/Graphics/SVG/1.1/DTD/svg11.dtd">
<svg viewBox="0 0 1286 909" version="1.1" xmlns="http://www.w3.org/2000/svg" xmlns:xlink="http://www.w3.org/1999/xlink">
<defs>
<style type="text/css"><![CDATA[
.g1_1{
fill: #FF9A00;
}
.g2_1{
}
]]></style>
</defs>
<path d="M326.5,53.4l0,96.7l595.3,0l0,-96.7l-595.3,0Z" class="g1_1" />
<path d="M334.2,53.4l0,20.7l580,0l0,-20.7l-580,0Z" class="g1_1" />
<path d="M334.2,74.1l0,27.6l580,0l0,-27.6l-580,0Z" class="g1_1" />
<path d="M334.2,101.7l0,27.6l580,0l0,-27.6l-580,0Z" class="g1_1" />
<path d="M334.2,129.3l0,20.8l580,0l0,-20.8l-580,0Z" class="g1_1" />
<image preserveAspectRatio="none" x="980" y="56" width="139" height="92" xlink:href="img/1.png" />
<path d="M107.5,52.7l0,0.7l0.7,0l0,-0.7l-0.7,0Z" class="g2_1" />
<path d="M107.5,52.7l0,0.7l1070.5,0l0,-0.7l-1070.5,0Z" class="g2_1" />
<path d="M1177.3,52.7l0,0.7l0.7,0l0,-0.7l-0.7,0Z" class="g2_1" />
<path d="M107.5,53.4l0,97.4l0.7,0l0,-97.4l-0.7,0Z" class="g2_1" />
<path d="M107.5,150.1l0,0.7l218.3,0l0,-0.7l-218.3,0Z" class="g2_1" />
<path d="M325.8,53.4l0,97.4l0.7,0l0,-97.4l-0.7,0Z" class="g2_1" />
<path d="M326.5,150.1l0,0.7l595.4,0l0,-0.7l-595.4,0Z" class="g2_1" />
<path d="M921.9,53.4l0,97.4l0.6,0l0,-97.4l-0.6,0Z" class="g2_1" />
<path d="M922.5,150.1l0,0.7l254.8,0l0,-0.7l-254.8,0Z" class="g2_1" />
<path d="M1177.3,53.4l0,97.4l0.7,0l0,-97.4l-0.7,0Z" class="g2_1" />
<path d="M1177.3,150.1l0,0.7l0.7,0l0,-0.7l-0.7,0Z" class="g2_1" />
<path d="M107.9,159.4l0,0.7l1069.7,0l0,-0.7l-1069.7,0Z" class="g2_1" />
<path d="M107.5,193.5l0,0.7l0.7,0l0,-0.7l-0.7,0Z" class="g2_1" />
<path d="M107.5,193.5l0,0.7l1070.5,0l0,-0.7l-1070.5,0Z" class="g2_1" />
<path d="M107.5,194.2l0,46.7l0.7,0l0,-46.7l-0.7,0Z" class="g2_1" />
<path d="M161,194.2l0,46.7l0.7,0l0,-46.7l-0.7,0Z" class="g2_1" />
<path d="M254.5,194.2l0,46.7l0.8,0l0,-46.7l-0.8,0Z" class="g2_1" />
<path d="M441.8,194.2l0,46.7l0.7,0l0,-46.7l-0.7,0Z" class="g2_1" />
<path d="M629,194.2l0,46.7l0.7,0l0,-46.7l-0.7,0Z" class="g2_1" />
<path d="M789.4,194.2l0,46.7l0.8,0l0,-46.7l-0.8,0Z" class="g2_1" />
<path d="M896.4,194.2l0,46.7l0.7,0l0,-46.7l-0.7,0Z" class="g2_1" />
<path d="M1083.7,194.2l0,46.7l0.6,0l0,-46.7l-0.6,0Z" class="g2_1" />
<path d="M1177.3,194.2l0,46.7l0.7,0l0,-46.7l-0.7,0Z" class="g2_1" />
<path d="M107.5,240.9l0,0.7l1070.5,0l0,-0.7l-1070.5,0Z" class="g2_1" />
<path d="M107.5,241.6l0,20.7l0.7,0l0,-20.7l-0.7,0Z" class="g2_1" />
<path d="M161,241.6l0,20.7l0.7,0l0,-20.7l-0.7,0Z" class="g2_1" />
<path d="M254.5,241.6l0,20.7l0.8,0l0,-20.7l-0.8,0Z" class="g2_1" />
<path d="M441.8,241.6l0,20.7l0.7,0l0,-20.7l-0.7,0Z" class="g2_1" />
<path d="M629,241.6l0,20.7l0.7,0l0,-20.7l-0.7,0Z" class="g2_1" />
<path d="M789.4,241.6l0,20.7l0.8,0l0,-20.7l-0.8,0Z" class="g2_1" />
<path d="M896.4,241.6l0,20.7l0.7,0l0,-20.7l-0.7,0Z" class="g2_1" />
<path d="M1083.7,241.6l0,20.7l0.6,0l0,-20.7l-0.6,0Z" class="g2_1" />
<path d="M1177.3,241.6l0,20.7l0.7,0l0,-20.7l-0.7,0Z" class="g2_1" />
<path d="M107.5,262.3l0,0.7L1178,263l0,-0.7l-1070.5,0Z" class="g2_1" />
<path d="M107.5,263l0,20.6l0.7,0l0,-20.6l-0.7,0Z" class="g2_1" />
<path d="M161,263l0,20.6l0.7,0l0,-20.6l-0.7,0Z" class="g2_1" />
<path d="M254.5,263l0,20.6l0.8,0l0,-20.6l-0.8,0Z" class="g2_1" />
<path d="M441.8,263l0,20.6l0.7,0l0,-20.6l-0.7,0Z" class="g2_1" />
<path d="M629,263l0,20.6l0.7,0l0,-20.6l-0.7,0Z" class="g2_1" />
<path d="M789.4,263l0,20.6l0.8,0l0,-20.6l-0.8,0Z" class="g2_1" />
<path d="M896.4,263l0,20.6l0.7,0l0,-20.6l-0.7,0Z" class="g2_1" />
<path d="M1083.7,263l0,20.6l0.6,0l0,-20.6l-0.6,0Z" class="g2_1" />
<path d="M1177.3,263l0,20.6l0.7,0l0,-20.6l-0.7,0Z" class="g2_1" />
<path d="M107.5,283.6l0,0.7l1070.5,0l0,-0.7l-1070.5,0Z" class="g2_1" />
<path d="M107.5,284.3l0,20.6l0.7,0l0,-20.6l-0.7,0Z" class="g2_1" />
<path d="M161,284.3l0,20.6l0.7,0l0,-20.6l-0.7,0Z" class="g2_1" />
<path d="M254.5,284.3l0,20.6l0.8,0l0,-20.6l-0.8,0Z" class="g2_1" />
<path d="M441.8,284.3l0,20.6l0.7,0l0,-20.6l-0.7,0Z" class="g2_1" />
<path d="M629,284.3l0,20.6l0.7,0l0,-20.6l-0.7,0Z" class="g2_1" />
<path d="M789.4,284.3l0,20.6l0.8,0l0,-20.6l-0.8,0Z" class="g2_1" />
<path d="M896.4,284.3l0,20.6l0.7,0l0,-20.6l-0.7,0Z" class="g2_1" />
<path d="M1083.7,284.3l0,20.6l0.6,0l0,-20.6l-0.6,0Z" class="g2_1" />
<path d="M1177.3,284.3l0,20.6l0.7,0l0,-20.6l-0.7,0Z" class="g2_1" />
<path d="M107.5,304.9l0,0.7l1070.5,0l0,-0.7l-1070.5,0Z" class="g2_1" />
<path d="M107.5,305.6l0,20.6l0.7,0l0,-20.6l-0.7,0Z" class="g2_1" />
<path d="M161,305.6l0,20.6l0.7,0l0,-20.6l-0.7,0Z" class="g2_1" />
<path d="M254.5,305.6l0,20.6l0.8,0l0,-20.6l-0.8,0Z" class="g2_1" />
<path d="M441.8,305.6l0,20.6l0.7,0l0,-20.6l-0.7,0Z" class="g2_1" />
<path d="M629,305.6l0,20.6l0.7,0l0,-20.6l-0.7,0Z" class="g2_1" />
<path d="M789.4,305.6l0,20.6l0.8,0l0,-20.6l-0.8,0Z" class="g2_1" />
<path d="M896.4,305.6l0,20.6l0.7,0l0,-20.6l-0.7,0Z" class="g2_1" />
<path d="M1083.7,305.6l0,20.6l0.6,0l0,-20.6l-0.6,0Z" class="g2_1" />
<path d="M1177.3,305.6l0,20.6l0.7,0l0,-20.6l-0.7,0Z" class="g2_1" />
<path d="M107.5,326.2l0,0.8L1178,327l0,-0.8l-1070.5,0Z" class="g2_1" />
<path d="M107.5,327l0,20.6l0.7,0l0,-20.6l-0.7,0Z" class="g2_1" />
<path d="M161,327l0,20.6l0.7,0l0,-20.6l-0.7,0Z" class="g2_1" />
<path d="M254.5,327l0,20.6l0.8,0l0,-20.6l-0.8,0Z" class="g2_1" />
<path d="M441.8,327l0,20.6l0.7,0l0,-20.6l-0.7,0Z" class="g2_1" />
<path d="M629,327l0,20.6l0.7,0l0,-20.6l-0.7,0Z" class="g2_1" />
<path d="M789.4,327l0,20.6l0.8,0l0,-20.6l-0.8,0Z" class="g2_1" />
<path d="M896.4,327l0,20.6l0.7,0l0,-20.6l-0.7,0Z" class="g2_1" />
<path d="M1083.7,327l0,20.6l0.6,0l0,-20.6l-0.6,0Z" class="g2_1" />
<path d="M1177.3,327l0,20.6l0.7,0l0,-20.6l-0.7,0Z" class="g2_1" />
<path d="M107.5,347.6l0,0.7l1070.5,0l0,-0.7l-1070.5,0Z" class="g2_1" />
<path d="M107.5,348.3l0,20.6l0.7,0l0,-20.6l-0.7,0Z" class="g2_1" />
<path d="M161,348.3l0,20.6l0.7,0l0,-20.6l-0.7,0Z" class="g2_1" />
<path d="M254.5,348.3l0,20.6l0.8,0l0,-20.6l-0.8,0Z" class="g2_1" />
<path d="M441.8,348.3l0,20.6l0.7,0l0,-20.6l-0.7,0Z" class="g2_1" />
<path d="M629,348.3l0,20.6l0.7,0l0,-20.6l-0.7,0Z" class="g2_1" />
<path d="M789.4,348.3l0,20.6l0.8,0l0,-20.6l-0.8,0Z" class="g2_1" />
<path d="M896.4,348.3l0,20.6l0.7,0l0,-20.6l-0.7,0Z" class="g2_1" />
<path d="M1083.7,348.3l0,20.6l0.6,0l0,-20.6l-0.6,0Z" class="g2_1" />
<path d="M1177.3,348.3l0,20.6l0.7,0l0,-20.6l-0.7,0Z" class="g2_1" />
<path d="M107.5,368.9l0,0.7l1070.5,0l0,-0.7l-1070.5,0Z" class="g2_1" />
<path d="M107.5,369.6l0,20.7l0.7,0l0,-20.7l-0.7,0Z" class="g2_1" />
<path d="M161,369.6l0,20.7l0.7,0l0,-20.7l-0.7,0Z" class="g2_1" />
<path d="M254.5,369.6l0,20.7l0.8,0l0,-20.7l-0.8,0Z" class="g2_1" />
<path d="M441.8,369.6l0,20.7l0.7,0l0,-20.7l-0.7,0Z" class="g2_1" />
<path d="M629,369.6l0,20.7l0.7,0l0,-20.7l-0.7,0Z" class="g2_1" />
<path d="M789.4,369.6l0,20.7l0.8,0l0,-20.7l-0.8,0Z" class="g2_1" />
<path d="M896.4,369.6l0,20.7l0.7,0l0,-20.7l-0.7,0Z" class="g2_1" />
<path d="M1083.7,369.6l0,20.7l0.6,0l0,-20.7l-0.6,0Z" class="g2_1" />
<path d="M1177.3,369.6l0,20.7l0.7,0l0,-20.7l-0.7,0Z" class="g2_1" />
<path d="M107.5,390.3l0,0.7L1178,391l0,-0.7l-1070.5,0Z" class="g2_1" />
<path d="M107.5,391l0,20.6l0.7,0l0,-20.6l-0.7,0Z" class="g2_1" />
<path d="M161,391l0,20.6l0.7,0l0,-20.6l-0.7,0Z" class="g2_1" />
<path d="M254.5,391l0,20.6l0.8,0l0,-20.6l-0.8,0Z" class="g2_1" />
<path d="M441.8,391l0,20.6l0.7,0l0,-20.6l-0.7,0Z" class="g2_1" />
<path d="M629,391l0,20.6l0.7,0l0,-20.6l-0.7,0Z" class="g2_1" />
<path d="M789.4,391l0,20.6l0.8,0l0,-20.6l-0.8,0Z" class="g2_1" />
<path d="M896.4,391l0,20.6l0.7,0l0,-20.6l-0.7,0Z" class="g2_1" />
<path d="M1083.7,391l0,20.6l0.6,0l0,-20.6l-0.6,0Z" class="g2_1" />
<path d="M1177.3,391l0,20.6l0.7,0l0,-20.6l-0.7,0Z" class="g2_1" />
<path d="M107.5,411.6l0,0.7l1070.5,0l0,-0.7l-1070.5,0Z" class="g2_1" />
<path d="M107.5,412.3l0,20.6l0.7,0l0,-20.6l-0.7,0Z" class="g2_1" />
<path d="M161,412.3l0,20.6l0.7,0l0,-20.6l-0.7,0Z" class="g2_1" />
<path d="M254.5,412.3l0,20.6l0.8,0l0,-20.6l-0.8,0Z" class="g2_1" />
<path d="M441.8,412.3l0,20.6l0.7,0l0,-20.6l-0.7,0Z" class="g2_1" />
<path d="M629,412.3l0,20.6l0.7,0l0,-20.6l-0.7,0Z" class="g2_1" />
<path d="M789.4,412.3l0,20.6l0.8,0l0,-20.6l-0.8,0Z" class="g2_1" />
<path d="M896.4,412.3l0,20.6l0.7,0l0,-20.6l-0.7,0Z" class="g2_1" />
<path d="M1083.7,412.3l0,20.6l0.6,0l0,-20.6l-0.6,0Z" class="g2_1" />
<path d="M1177.3,412.3l0,20.6l0.7,0l0,-20.6l-0.7,0Z" class="g2_1" />
<path d="M107.5,432.9l0,0.8l1070.5,0l0,-0.8l-1070.5,0Z" class="g2_1" />
<path d="M107.5,433.7l0,20.6l0.7,0l0,-20.6l-0.7,0Z" class="g2_1" />
<path d="M161,433.7l0,20.6l0.7,0l0,-20.6l-0.7,0Z" class="g2_1" />
<path d="M254.5,433.7l0,20.6l0.8,0l0,-20.6l-0.8,0Z" class="g2_1" />
<path d="M441.8,433.7l0,20.6l0.7,0l0,-20.6l-0.7,0Z" class="g2_1" />
<path d="M629,433.7l0,20.6l0.7,0l0,-20.6l-0.7,0Z" class="g2_1" />
<path d="M789.4,433.7l0,20.6l0.8,0l0,-20.6l-0.8,0Z" class="g2_1" />
<path d="M896.4,433.7l0,20.6l0.7,0l0,-20.6l-0.7,0Z" class="g2_1" />
<path d="M1083.7,433.7l0,20.6l0.6,0l0,-20.6l-0.6,0Z" class="g2_1" />
<path d="M1177.3,433.7l0,20.6l0.7,0l0,-20.6l-0.7,0Z" class="g2_1" />
<path d="M107.5,454.3l0,0.7L1178,455l0,-0.7l-1070.5,0Z" class="g2_1" />
<path d="M107.5,455l0,20.6l0.7,0l0,-20.6l-0.7,0Z" class="g2_1" />
<path d="M161,455l0,20.6l0.7,0l0,-20.6l-0.7,0Z" class="g2_1" />
<path d="M254.5,455l0,20.6l0.8,0l0,-20.6l-0.8,0Z" class="g2_1" />
<path d="M441.8,455l0,20.6l0.7,0l0,-20.6l-0.7,0Z" class="g2_1" />
<path d="M629,455l0,20.6l0.7,0l0,-20.6l-0.7,0Z" class="g2_1" />
<path d="M789.4,455l0,20.6l0.8,0l0,-20.6l-0.8,0Z" class="g2_1" />
<path d="M896.4,455l0,20.6l0.7,0l0,-20.6l-0.7,0Z" class="g2_1" />
<path d="M1083.7,455l0,20.6l0.6,0l0,-20.6l-0.6,0Z" class="g2_1" />
<path d="M1177.3,455l0,20.6l0.7,0l0,-20.6l-0.7,0Z" class="g2_1" />
<path d="M107.5,475.6l0,0.7l1070.5,0l0,-0.7l-1070.5,0Z" class="g2_1" />
<path d="M107.5,476.3l0,20.7l0.7,0l0,-20.7l-0.7,0Z" class="g2_1" />
<path d="M161,476.3l0,20.7l0.7,0l0,-20.7l-0.7,0Z" class="g2_1" />
<path d="M254.5,476.3l0,20.7l0.8,0l0,-20.7l-0.8,0Z" class="g2_1" />
<path d="M441.8,476.3l0,20.7l0.7,0l0,-20.7l-0.7,0Z" class="g2_1" />
<path d="M629,476.3l0,20.7l0.7,0l0,-20.7l-0.7,0Z" class="g2_1" />
<path d="M789.4,476.3l0,20.7l0.8,0l0,-20.7l-0.8,0Z" class="g2_1" />
<path d="M896.4,476.3l0,20.7l0.7,0l0,-20.7l-0.7,0Z" class="g2_1" />
<path d="M1083.7,476.3l0,20.7l0.6,0l0,-20.7l-0.6,0Z" class="g2_1" />
<path d="M1177.3,476.3l0,20.7l0.7,0l0,-20.7l-0.7,0Z" class="g2_1" />
<path d="M107.5,497l0,0.7l1070.5,0l0,-0.7L107.5,497Z" class="g2_1" />
<path d="M107.5,497.7l0,20.6l0.7,0l0,-20.6l-0.7,0Z" class="g2_1" />
<path d="M161,497.7l0,20.6l0.7,0l0,-20.6l-0.7,0Z" class="g2_1" />
<path d="M254.5,497.7l0,20.6l0.8,0l0,-20.6l-0.8,0Z" class="g2_1" />
<path d="M441.8,497.7l0,20.6l0.7,0l0,-20.6l-0.7,0Z" class="g2_1" />
<path d="M629,497.7l0,20.6l0.7,0l0,-20.6l-0.7,0Z" class="g2_1" />
<path d="M789.4,497.7l0,20.6l0.8,0l0,-20.6l-0.8,0Z" class="g2_1" />
<path d="M896.4,497.7l0,20.6l0.7,0l0,-20.6l-0.7,0Z" class="g2_1" />
<path d="M1083.7,497.7l0,20.6l0.6,0l0,-20.6l-0.6,0Z" class="g2_1" />
<path d="M1177.3,497.7l0,20.6l0.7,0l0,-20.6l-0.7,0Z" class="g2_1" />
<path d="M107.5,518.3l0,0.7L1178,519l0,-0.7l-1070.5,0Z" class="g2_1" />
<path d="M107.5,519l0,20.6l0.7,0l0,-20.6l-0.7,0Z" class="g2_1" />
<path d="M161,519l0,20.6l0.7,0l0,-20.6l-0.7,0Z" class="g2_1" />
<path d="M254.5,519l0,20.6l0.8,0l0,-20.6l-0.8,0Z" class="g2_1" />
<path d="M441.8,519l0,20.6l0.7,0l0,-20.6l-0.7,0Z" class="g2_1" />
<path d="M629,519l0,20.6l0.7,0l0,-20.6l-0.7,0Z" class="g2_1" />
<path d="M789.4,519l0,20.6l0.8,0l0,-20.6l-0.8,0Z" class="g2_1" />
<path d="M896.4,519l0,20.6l0.7,0l0,-20.6l-0.7,0Z" class="g2_1" />
<path d="M1083.7,519l0,20.6l0.6,0l0,-20.6l-0.6,0Z" class="g2_1" />
<path d="M1177.3,519l0,20.6l0.7,0l0,-20.6l-0.7,0Z" class="g2_1" />
<path d="M107.5,539.6l0,0.7l1070.5,0l0,-0.7l-1070.5,0Z" class="g2_1" />
<path d="M107.5,540.3l0,20.7l0.7,0l0,-20.7l-0.7,0Z" class="g2_1" />
<path d="M161,540.3l0,20.7l0.7,0l0,-20.7l-0.7,0Z" class="g2_1" />
<path d="M254.5,540.3l0,20.7l0.8,0l0,-20.7l-0.8,0Z" class="g2_1" />
<path d="M441.8,540.3l0,20.7l0.7,0l0,-20.7l-0.7,0Z" class="g2_1" />
<path d="M629,540.3l0,20.7l0.7,0l0,-20.7l-0.7,0Z" class="g2_1" />
<path d="M789.4,540.3l0,20.7l0.8,0l0,-20.7l-0.8,0Z" class="g2_1" />
<path d="M896.4,540.3l0,20.7l0.7,0l0,-20.7l-0.7,0Z" class="g2_1" />
<path d="M1083.7,540.3l0,20.7l0.6,0l0,-20.7l-0.6,0Z" class="g2_1" />
<path d="M1177.3,540.3l0,20.7l0.7,0l0,-20.7l-0.7,0Z" class="g2_1" />
<path d="M107.5,561l0,0.7l1070.5,0l0,-0.7L107.5,561Z" class="g2_1" />
<path d="M107.5,561.7l0,20.6l0.7,0l0,-20.6l-0.7,0Z" class="g2_1" />
<path d="M161,561.7l0,20.6l0.7,0l0,-20.6l-0.7,0Z" class="g2_1" />
<path d="M254.5,561.7l0,20.6l0.8,0l0,-20.6l-0.8,0Z" class="g2_1" />
<path d="M441.8,561.7l0,20.6l0.7,0l0,-20.6l-0.7,0Z" class="g2_1" />
<path d="M629,561.7l0,20.6l0.7,0l0,-20.6l-0.7,0Z" class="g2_1" />
<path d="M789.4,561.7l0,20.6l0.8,0l0,-20.6l-0.8,0Z" class="g2_1" />
<path d="M896.4,561.7l0,20.6l0.7,0l0,-20.6l-0.7,0Z" class="g2_1" />
<path d="M1083.7,561.7l0,20.6l0.6,0l0,-20.6l-0.6,0Z" class="g2_1" />
<path d="M1177.3,561.7l0,20.6l0.7,0l0,-20.6l-0.7,0Z" class="g2_1" />
<path d="M107.5,582.3l0,0.7L1178,583l0,-0.7l-1070.5,0Z" class="g2_1" />
<path d="M107.5,583l0,20.6l0.7,0l0,-20.6l-0.7,0Z" class="g2_1" />
<path d="M161,583l0,20.6l0.7,0l0,-20.6l-0.7,0Z" class="g2_1" />
<path d="M254.5,583l0,20.6l0.8,0l0,-20.6l-0.8,0Z" class="g2_1" />
<path d="M441.8,583l0,20.6l0.7,0l0,-20.6l-0.7,0Z" class="g2_1" />
<path d="M629,583l0,20.6l0.7,0l0,-20.6l-0.7,0Z" class="g2_1" />
<path d="M789.4,583l0,20.6l0.8,0l0,-20.6l-0.8,0Z" class="g2_1" />
<path d="M896.4,583l0,20.6l0.7,0l0,-20.6l-0.7,0Z" class="g2_1" />
<path d="M1083.7,583l0,20.6l0.6,0l0,-20.6l-0.6,0Z" class="g2_1" />
<path d="M1177.3,583l0,20.6l0.7,0l0,-20.6l-0.7,0Z" class="g2_1" />
<path d="M107.5,603.6l0,0.8l1070.5,0l0,-0.8l-1070.5,0Z" class="g2_1" />
<path d="M107.5,604.4l0,20.6l0.7,0l0,-20.6l-0.7,0Z" class="g2_1" />
<path d="M161,604.4l0,20.6l0.7,0l0,-20.6l-0.7,0Z" class="g2_1" />
<path d="M254.5,604.4l0,20.6l0.8,0l0,-20.6l-0.8,0Z" class="g2_1" />
<path d="M441.8,604.4l0,20.6l0.7,0l0,-20.6l-0.7,0Z" class="g2_1" />
<path d="M629,604.4l0,20.6l0.7,0l0,-20.6l-0.7,0Z" class="g2_1" />
<path d="M789.4,604.4l0,20.6l0.8,0l0,-20.6l-0.8,0Z" class="g2_1" />
<path d="M896.4,604.4l0,20.6l0.7,0l0,-20.6l-0.7,0Z" class="g2_1" />
<path d="M1083.7,604.4l0,20.6l0.6,0l0,-20.6l-0.6,0Z" class="g2_1" />
<path d="M1177.3,604.4l0,20.6l0.7,0l0,-20.6l-0.7,0Z" class="g2_1" />
<path d="M107.5,625l0,0.7l1070.5,0l0,-0.7L107.5,625Z" class="g2_1" />
<path d="M107.5,625.7l0,20.6l0.7,0l0,-20.6l-0.7,0Z" class="g2_1" />
<path d="M161,625.7l0,20.6l0.7,0l0,-20.6l-0.7,0Z" class="g2_1" />
<path d="M254.5,625.7l0,20.6l0.8,0l0,-20.6l-0.8,0Z" class="g2_1" />
<path d="M441.8,625.7l0,20.6l0.7,0l0,-20.6l-0.7,0Z" class="g2_1" />
<path d="M629,625.7l0,20.6l0.7,0l0,-20.6l-0.7,0Z" class="g2_1" />
<path d="M789.4,625.7l0,20.6l0.8,0l0,-20.6l-0.8,0Z" class="g2_1" />
<path d="M896.4,625.7l0,20.6l0.7,0l0,-20.6l-0.7,0Z" class="g2_1" />
<path d="M1083.7,625.7l0,20.6l0.6,0l0,-20.6l-0.6,0Z" class="g2_1" />
<path d="M1177.3,625.7l0,20.6l0.7,0l0,-20.6l-0.7,0Z" class="g2_1" />
<path d="M107.5,646.3l0,0.7L1178,647l0,-0.7l-1070.5,0Z" class="g2_1" />
<path d="M107.5,647l0,20.7l0.7,0l0,-20.7l-0.7,0Z" class="g2_1" />
<path d="M161,647l0,20.7l0.7,0l0,-20.7l-0.7,0Z" class="g2_1" />
<path d="M254.5,647l0,20.7l0.8,0l0,-20.7l-0.8,0Z" class="g2_1" />
<path d="M441.8,647l0,20.7l0.7,0l0,-20.7l-0.7,0Z" class="g2_1" />
<path d="M629,647l0,20.7l0.7,0l0,-20.7l-0.7,0Z" class="g2_1" />
<path d="M789.4,647l0,20.7l0.8,0l0,-20.7l-0.8,0Z" class="g2_1" />
<path d="M896.4,647l0,20.7l0.7,0l0,-20.7l-0.7,0Z" class="g2_1" />
<path d="M1083.7,647l0,20.7l0.6,0l0,-20.7l-0.6,0Z" class="g2_1" />
<path d="M1177.3,647l0,20.7l0.7,0l0,-20.7l-0.7,0Z" class="g2_1" />
<path d="M107.5,667.7l0,0.7l1070.5,0l0,-0.7l-1070.5,0Z" class="g2_1" />
<path d="M107.5,668.4l0,20.6l0.7,0l0,-20.6l-0.7,0Z" class="g2_1" />
<path d="M161,668.4l0,20.6l0.7,0l0,-20.6l-0.7,0Z" class="g2_1" />
<path d="M254.5,668.4l0,20.6l0.8,0l0,-20.6l-0.8,0Z" class="g2_1" />
<path d="M441.8,668.4l0,20.6l0.7,0l0,-20.6l-0.7,0Z" class="g2_1" />
<path d="M629,668.4l0,20.6l0.7,0l0,-20.6l-0.7,0Z" class="g2_1" />
<path d="M789.4,668.4l0,20.6l0.8,0l0,-20.6l-0.8,0Z" class="g2_1" />
<path d="M896.4,668.4l0,20.6l0.7,0l0,-20.6l-0.7,0Z" class="g2_1" />
<path d="M1083.7,668.4l0,20.6l0.6,0l0,-20.6l-0.6,0Z" class="g2_1" />
<path d="M1177.3,668.4l0,20.6l0.7,0l0,-20.6l-0.7,0Z" class="g2_1" />
<path d="M107.5,689l0,0.7l1070.5,0l0,-0.7L107.5,689Z" class="g2_1" />
<path d="M107.5,689.7l0,20.6l0.7,0l0,-20.6l-0.7,0Z" class="g2_1" />
<path d="M161,689.7l0,20.6l0.7,0l0,-20.6l-0.7,0Z" class="g2_1" />
<path d="M254.5,689.7l0,20.6l0.8,0l0,-20.6l-0.8,0Z" class="g2_1" />
<path d="M441.8,689.7l0,20.6l0.7,0l0,-20.6l-0.7,0Z" class="g2_1" />
<path d="M629,689.7l0,20.6l0.7,0l0,-20.6l-0.7,0Z" class="g2_1" />
<path d="M789.4,689.7l0,20.6l0.8,0l0,-20.6l-0.8,0Z" class="g2_1" />
<path d="M896.4,689.7l0,20.6l0.7,0l0,-20.6l-0.7,0Z" class="g2_1" />
<path d="M1083.7,689.7l0,20.6l0.6,0l0,-20.6l-0.6,0Z" class="g2_1" />
<path d="M1177.3,689.7l0,20.6l0.7,0l0,-20.6l-0.7,0Z" class="g2_1" />
<path d="M107.5,710.3l0,0.8l1070.5,0l0,-0.8l-1070.5,0Z" class="g2_1" />
<path d="M107.5,711.1l0,20.6l0.7,0l0,-20.6l-0.7,0Z" class="g2_1" />
<path d="M161,711.1l0,20.6l0.7,0l0,-20.6l-0.7,0Z" class="g2_1" />
<path d="M254.5,711.1l0,20.6l0.8,0l0,-20.6l-0.8,0Z" class="g2_1" />
<path d="M441.8,711.1l0,20.6l0.7,0l0,-20.6l-0.7,0Z" class="g2_1" />
<path d="M629,711.1l0,20.6l0.7,0l0,-20.6l-0.7,0Z" class="g2_1" />
<path d="M789.4,711.1l0,20.6l0.8,0l0,-20.6l-0.8,0Z" class="g2_1" />
<path d="M896.4,711.1l0,20.6l0.7,0l0,-20.6l-0.7,0Z" class="g2_1" />
<path d="M1083.7,711.1l0,20.6l0.6,0l0,-20.6l-0.6,0Z" class="g2_1" />
<path d="M1177.3,711.1l0,20.6l0.7,0l0,-20.6l-0.7,0Z" class="g2_1" />
<path d="M107.5,731.7l0,0.7l1070.5,0l0,-0.7l-1070.5,0Z" class="g2_1" />
<path d="M107.5,732.4l0,20.6l0.7,0l0,-20.6l-0.7,0Z" class="g2_1" />
<path d="M161,732.4l0,20.6l0.7,0l0,-20.6l-0.7,0Z" class="g2_1" />
<path d="M254.5,732.4l0,20.6l0.8,0l0,-20.6l-0.8,0Z" class="g2_1" />
<path d="M441.8,732.4l0,20.6l0.7,0l0,-20.6l-0.7,0Z" class="g2_1" />
<path d="M629,732.4l0,20.6l0.7,0l0,-20.6l-0.7,0Z" class="g2_1" />
<path d="M789.4,732.4l0,20.6l0.8,0l0,-20.6l-0.8,0Z" class="g2_1" />
<path d="M896.4,732.4l0,20.6l0.7,0l0,-20.6l-0.7,0Z" class="g2_1" />
<path d="M1083.7,732.4l0,20.6l0.6,0l0,-20.6l-0.6,0Z" class="g2_1" />
<path d="M1177.3,732.4l0,20.6l0.7,0l0,-20.6l-0.7,0Z" class="g2_1" />
<path d="M107.5,753l0,0.8l1070.5,0l0,-0.8L107.5,753Z" class="g2_1" />
<path d="M107.5,753.8l0,21.3l0.7,0l0,-21.3l-0.7,0Z" class="g2_1" />
<path d="M107.5,774.4l0,0.7l53.5,0l0,-0.7l-53.5,0Z" class="g2_1" />
<path d="M161,753.8l0,21.3l0.7,0l0,-21.3l-0.7,0Z" class="g2_1" />
<path d="M161.7,774.4l0,0.7l92.8,0l0,-0.7l-92.8,0Z" class="g2_1" />
<path d="M254.5,753.8l0,21.3l0.8,0l0,-21.3l-0.8,0Z" class="g2_1" />
<path d="M255.3,774.4l0,0.7l186.5,0l0,-0.7l-186.5,0Z" class="g2_1" />
<path d="M441.8,753.8l0,21.3l0.7,0l0,-21.3l-0.7,0Z" class="g2_1" />
<path d="M442.5,774.4l0,0.7l186.5,0l0,-0.7l-186.5,0Z" class="g2_1" />
<path d="M629,753.8l0,21.3l0.7,0l0,-21.3l-0.7,0Z" class="g2_1" />
<path d="M629.7,774.4l0,0.7l159.7,0l0,-0.7l-159.7,0Z" class="g2_1" />
<path d="M789.4,753.8l0,21.3l0.8,0l0,-21.3l-0.8,0Z" class="g2_1" />
<path d="M790.2,774.4l0,0.7l106.2,0l0,-0.7l-106.2,0Z" class="g2_1" />
<path d="M896.4,753.8l0,21.3l0.7,0l0,-21.3l-0.7,0Z" class="g2_1" />
<path d="M897.1,774.4l0,0.7l186.6,0l0,-0.7l-186.6,0Z" class="g2_1" />
<path d="M1083.7,753.8l0,21.3l0.6,0l0,-21.3l-0.6,0Z" class="g2_1" />
<path d="M1084.3,774.4l0,0.7l93,0l0,-0.7l-93,0Z" class="g2_1" />
<path d="M1177.3,753.8l0,21.3l0.7,0l0,-21.3l-0.7,0Z" class="g2_1" />
<path d="M1177.3,774.4l0,0.7l0.7,0l0,-0.7l-0.7,0Z" class="g2_1" />
</svg>