<?xml version="1.0" encoding="UTF-8" standalone="no"?>
<!DOCTYPE svg PUBLIC "-//W3C//DTD SVG 1.1//EN"
"http://www.w3.org/Graphics/SVG/1.1/DTD/svg11.dtd">
<svg viewBox="0 0 909 1286" version="1.1" xmlns="http://www.w3.org/2000/svg" xmlns:xlink="http://www.w3.org/1999/xlink">
<defs>
<style type="text/css"><![CDATA[
.g1_2{
fill: #FF9A00;
}
.g2_2{
}
]]></style>
</defs>
<path d="M222.3,162.3l408.6,0l0,-54.3l-408.6,0l0,54.3Z" class="g1_2" />
<path d="M230,142l393.3,0l0,-31L230,111l0,31Z" class="g1_2" />
<path d="M230,159.3l393.3,0l0,-17.3L230,142l0,17.3Z" class="g1_2" />
<image preserveAspectRatio="none" x="680" y="108" width="82" height="54" xlink:href="img/1.png" />
<path d="M45.1,108l0.7,0l0,-0.7l-0.7,0l0,0.7Z" class="g2_2" />
<path d="M45.1,108l766.1,0l0,-0.7l-766.1,0l0,0.7Z" class="g2_2" />
<path d="M810.4,108l0.8,0l0,-0.7l-0.8,0l0,0.7Z" class="g2_2" />
<path d="M45.1,163.1l0.7,0l0,-55.1l-0.7,0l0,55.1Z" class="g2_2" />
<path d="M45.1,163.1l176.6,0l0,-0.8l-176.6,0l0,0.8Z" class="g2_2" />
<path d="M221.7,163.1l0.6,0l0,-55.1l-0.6,0l0,55.1Z" class="g2_2" />
<path d="M222.3,163.1l408.7,0l0,-0.8l-408.7,0l0,0.8Z" class="g2_2" />
<path d="M631,163.1l0.8,0l0,-55.1l-0.8,0l0,55.1Z" class="g2_2" />
<path d="M631.8,163.1l178.6,0l0,-0.8l-178.6,0l0,0.8Z" class="g2_2" />
<path d="M810.4,163.1l0.8,0l0,-55.1l-0.8,0l0,55.1Z" class="g2_2" />
<path d="M810.4,163.1l0.8,0l0,-0.8l-0.8,0l0,0.8Z" class="g2_2" />
<path d="M45.1,218.3l0.7,0l0,-0.6l-0.7,0l0,0.6Z" class="g2_2" />
<path d="M45.1,218.3l766.1,0l0,-0.6l-766.1,0l0,0.6Z" class="g2_2" />
<path d="M810.4,218.3l0.8,0l0,-0.6l-0.8,0l0,0.6Z" class="g2_2" />
<path d="M45.1,280.7l0.7,0l0,-62.4l-0.7,0l0,62.4Z" class="g2_2" />
<path d="M45.1,280.7l765.3,0l0,-0.8l-765.3,0l0,0.8Z" class="g2_2" />
<path d="M810.4,280.7l0.8,0l0,-62.4l-0.8,0l0,62.4Z" class="g2_2" />
<path d="M810.4,280.7l0.8,0l0,-0.8l-0.8,0l0,0.8Z" class="g2_2" />
<path d="M42.6,332.7l0.8,0l0,-0.8l-0.8,0l0,0.8Z" class="g2_2" />
<path d="M42.6,332.7l769.5,0l0,-0.8l-769.5,0l0,0.8Z" class="g2_2" />
<path d="M811.3,332.7l0.8,0l0,-0.8l-0.8,0l0,0.8Z" class="g2_2" />
<path d="M42.6,366.8l0.8,0l0,-34.1l-0.8,0l0,34.1Z" class="g2_2" />
<path d="M305.9,366.8l0.6,0l0,-34.1l-0.6,0l0,34.1Z" class="g2_2" />
<path d="M569.1,366.8l0.7,0l0,-34.1l-0.7,0l0,34.1Z" class="g2_2" />
<path d="M634.8,366.8l0.7,0l0,-34.1l-0.7,0l0,34.1Z" class="g2_2" />
<path d="M716.6,366.8l0.8,0l0,-34.1l-0.8,0l0,34.1Z" class="g2_2" />
<path d="M811.3,366.8l0.8,0l0,-34.1l-0.8,0l0,34.1Z" class="g2_2" />
<path d="M42.6,367.5l769.5,0l0,-0.7l-769.5,0l0,0.7Z" class="g2_2" />
<path d="M42.6,398.4l0.8,0l0,-30.9l-0.8,0l0,30.9Z" class="g2_2" />
<path d="M305.9,398.4l0.6,0l0,-30.9l-0.6,0l0,30.9Z" class="g2_2" />
<path d="M569.1,398.4l0.7,0l0,-30.9l-0.7,0l0,30.9Z" class="g2_2" />
<path d="M634.8,398.4l0.7,0l0,-30.9l-0.7,0l0,30.9Z" class="g2_2" />
<path d="M716.6,398.4l0.8,0l0,-30.9l-0.8,0l0,30.9Z" class="g2_2" />
<path d="M811.3,398.4l0.8,0l0,-30.9l-0.8,0l0,30.9Z" class="g2_2" />
<path d="M42.6,399.1l769.5,0l0,-0.7l-769.5,0l0,0.7Z" class="g2_2" />
<path d="M42.6,430.1l0.8,0l0,-31l-0.8,0l0,31Z" class="g2_2" />
<path d="M305.9,430.1l0.6,0l0,-31l-0.6,0l0,31Z" class="g2_2" />
<path d="M569.1,430.1l0.7,0l0,-31l-0.7,0l0,31Z" class="g2_2" />
<path d="M634.8,430.1l0.7,0l0,-31l-0.7,0l0,31Z" class="g2_2" />
<path d="M716.6,430.1l0.8,0l0,-31l-0.8,0l0,31Z" class="g2_2" />
<path d="M811.3,430.1l0.8,0l0,-31l-0.8,0l0,31Z" class="g2_2" />
<path d="M42.6,430.8l769.5,0l0,-0.7l-769.5,0l0,0.7Z" class="g2_2" />
<path d="M42.6,461.9l0.8,0l0,-31.1l-0.8,0l0,31.1Z" class="g2_2" />
<path d="M305.9,461.9l0.6,0l0,-31.1l-0.6,0l0,31.1Z" class="g2_2" />
<path d="M569.1,461.9l0.7,0l0,-31.1l-0.7,0l0,31.1Z" class="g2_2" />
<path d="M634.8,461.9l0.7,0l0,-31.1l-0.7,0l0,31.1Z" class="g2_2" />
<path d="M716.6,461.9l0.8,0l0,-31.1l-0.8,0l0,31.1Z" class="g2_2" />
<path d="M811.3,461.9l0.8,0l0,-31.1l-0.8,0l0,31.1Z" class="g2_2" />
<path d="M42.6,462.6l769.5,0l0,-0.7l-769.5,0l0,0.7Z" class="g2_2" />
<path d="M42.6,493.8l0.8,0l0,-31.2l-0.8,0l0,31.2Z" class="g2_2" />
<path d="M305.9,493.8l0.6,0l0,-31.2l-0.6,0l0,31.2Z" class="g2_2" />
<path d="M569.1,493.8l0.7,0l0,-31.2l-0.7,0l0,31.2Z" class="g2_2" />
<path d="M634.8,493.8l0.7,0l0,-31.2l-0.7,0l0,31.2Z" class="g2_2" />
<path d="M716.6,493.8l0.8,0l0,-31.2l-0.8,0l0,31.2Z" class="g2_2" />
<path d="M811.3,493.8l0.8,0l0,-31.2l-0.8,0l0,31.2Z" class="g2_2" />
<path d="M42.6,494.5l769.5,0l0,-0.7l-769.5,0l0,0.7Z" class="g2_2" />
<path d="M42.6,525.5l0.8,0l0,-31l-0.8,0l0,31Z" class="g2_2" />
<path d="M305.9,525.5l0.6,0l0,-31l-0.6,0l0,31Z" class="g2_2" />
<path d="M569.1,525.5l0.7,0l0,-31l-0.7,0l0,31Z" class="g2_2" />
<path d="M634.8,525.5l0.7,0l0,-31l-0.7,0l0,31Z" class="g2_2" />
<path d="M716.6,525.5l0.8,0l0,-31l-0.8,0l0,31Z" class="g2_2" />
<path d="M811.3,525.5l0.8,0l0,-31l-0.8,0l0,31Z" class="g2_2" />
<path d="M42.6,526.3l769.5,0l0,-0.8l-769.5,0l0,0.8Z" class="g2_2" />
<path d="M42.6,557.3l0.8,0l0,-31l-0.8,0l0,31Z" class="g2_2" />
<path d="M305.9,557.3l0.6,0l0,-31l-0.6,0l0,31Z" class="g2_2" />
<path d="M569.1,557.3l0.7,0l0,-31l-0.7,0l0,31Z" class="g2_2" />
<path d="M634.8,557.3l0.7,0l0,-31l-0.7,0l0,31Z" class="g2_2" />
<path d="M716.6,557.3l0.8,0l0,-31l-0.8,0l0,31Z" class="g2_2" />
<path d="M811.3,557.3l0.8,0l0,-31l-0.8,0l0,31Z" class="g2_2" />
<path d="M42.6,558.1l769.5,0l0,-0.8l-769.5,0l0,0.8Z" class="g2_2" />
<path d="M42.6,589.1l0.8,0l0,-31l-0.8,0l0,31Z" class="g2_2" />
<path d="M305.9,589.1l0.6,0l0,-31l-0.6,0l0,31Z" class="g2_2" />
<path d="M569.1,589.1l0.7,0l0,-31l-0.7,0l0,31Z" class="g2_2" />
<path d="M634.8,589.1l0.7,0l0,-31l-0.7,0l0,31Z" class="g2_2" />
<path d="M716.6,589.1l0.8,0l0,-31l-0.8,0l0,31Z" class="g2_2" />
<path d="M811.3,589.1l0.8,0l0,-31l-0.8,0l0,31Z" class="g2_2" />
<path d="M42.6,589.9l769.5,0l0,-0.8l-769.5,0l0,0.8Z" class="g2_2" />
<path d="M42.6,620.9l0.8,0l0,-31l-0.8,0l0,31Z" class="g2_2" />
<path d="M305.9,620.9l0.6,0l0,-31l-0.6,0l0,31Z" class="g2_2" />
<path d="M569.1,620.9l0.7,0l0,-31l-0.7,0l0,31Z" class="g2_2" />
<path d="M634.8,620.9l0.7,0l0,-31l-0.7,0l0,31Z" class="g2_2" />
<path d="M716.6,620.9l0.8,0l0,-31l-0.8,0l0,31Z" class="g2_2" />
<path d="M811.3,620.9l0.8,0l0,-31l-0.8,0l0,31Z" class="g2_2" />
<path d="M42.6,621.6l769.5,0l0,-0.7l-769.5,0l0,0.7Z" class="g2_2" />
<path d="M42.6,652.8l0.8,0l0,-31.2l-0.8,0l0,31.2Z" class="g2_2" />
<path d="M305.9,652.8l0.6,0l0,-31.2l-0.6,0l0,31.2Z" class="g2_2" />
<path d="M569.1,652.8l0.7,0l0,-31.2l-0.7,0l0,31.2Z" class="g2_2" />
<path d="M634.8,652.8l0.7,0l0,-31.2l-0.7,0l0,31.2Z" class="g2_2" />
<path d="M716.6,652.8l0.8,0l0,-31.2l-0.8,0l0,31.2Z" class="g2_2" />
<path d="M811.3,652.8l0.8,0l0,-31.2l-0.8,0l0,31.2Z" class="g2_2" />
<path d="M42.6,653.4l769.5,0l0,-0.6l-769.5,0l0,0.6Z" class="g2_2" />
<path d="M42.6,684.6l0.8,0l0,-31.2l-0.8,0l0,31.2Z" class="g2_2" />
<path d="M305.9,684.6l0.6,0l0,-31.2l-0.6,0l0,31.2Z" class="g2_2" />
<path d="M569.1,684.6l0.7,0l0,-31.2l-0.7,0l0,31.2Z" class="g2_2" />
<path d="M634.8,684.6l0.7,0l0,-31.2l-0.7,0l0,31.2Z" class="g2_2" />
<path d="M716.6,684.6l0.8,0l0,-31.2l-0.8,0l0,31.2Z" class="g2_2" />
<path d="M811.3,684.6l0.8,0l0,-31.2l-0.8,0l0,31.2Z" class="g2_2" />
<path d="M42.6,685.2l769.5,0l0,-0.6l-769.5,0l0,0.6Z" class="g2_2" />
<path d="M42.6,716.3l0.8,0l0,-31.1l-0.8,0l0,31.1Z" class="g2_2" />
<path d="M305.9,716.3l0.6,0l0,-31.1l-0.6,0l0,31.1Z" class="g2_2" />
<path d="M569.1,716.3l0.7,0l0,-31.1l-0.7,0l0,31.1Z" class="g2_2" />
<path d="M634.8,716.3l0.7,0l0,-31.1l-0.7,0l0,31.1Z" class="g2_2" />
<path d="M716.6,716.3l0.8,0l0,-31.1l-0.8,0l0,31.1Z" class="g2_2" />
<path d="M811.3,716.3l0.8,0l0,-31.1l-0.8,0l0,31.1Z" class="g2_2" />
<path d="M42.6,717l769.5,0l0,-0.7l-769.5,0l0,0.7Z" class="g2_2" />
<path d="M42.6,748.1l0.8,0l0,-31.1l-0.8,0l0,31.1Z" class="g2_2" />
<path d="M305.9,748.1l0.6,0l0,-31.1l-0.6,0l0,31.1Z" class="g2_2" />
<path d="M569.1,748.1l0.7,0l0,-31.1l-0.7,0l0,31.1Z" class="g2_2" />
<path d="M634.8,748.1l0.7,0l0,-31.1l-0.7,0l0,31.1Z" class="g2_2" />
<path d="M716.6,748.1l0.8,0l0,-31.1l-0.8,0l0,31.1Z" class="g2_2" />
<path d="M811.3,748.1l0.8,0l0,-31.1l-0.8,0l0,31.1Z" class="g2_2" />
<path d="M42.6,748.8l769.5,0l0,-0.7l-769.5,0l0,0.7Z" class="g2_2" />
<path d="M42.6,779.9l0.8,0l0,-31.1l-0.8,0l0,31.1Z" class="g2_2" />
<path d="M305.9,779.9l0.6,0l0,-31.1l-0.6,0l0,31.1Z" class="g2_2" />
<path d="M569.1,779.9l0.7,0l0,-31.1l-0.7,0l0,31.1Z" class="g2_2" />
<path d="M634.8,779.9l0.7,0l0,-31.1l-0.7,0l0,31.1Z" class="g2_2" />
<path d="M716.6,779.9l0.8,0l0,-31.1l-0.8,0l0,31.1Z" class="g2_2" />
<path d="M811.3,779.9l0.8,0l0,-31.1l-0.8,0l0,31.1Z" class="g2_2" />
<path d="M42.6,780.6l769.5,0l0,-0.7l-769.5,0l0,0.7Z" class="g2_2" />
<path d="M42.6,811.6l0.8,0l0,-31l-0.8,0l0,31Z" class="g2_2" />
<path d="M305.9,811.6l0.6,0l0,-31l-0.6,0l0,31Z" class="g2_2" />
<path d="M569.1,811.6l0.7,0l0,-31l-0.7,0l0,31Z" class="g2_2" />
<path d="M634.8,811.6l0.7,0l0,-31l-0.7,0l0,31Z" class="g2_2" />
<path d="M716.6,811.6l0.8,0l0,-31l-0.8,0l0,31Z" class="g2_2" />
<path d="M811.3,811.6l0.8,0l0,-31l-0.8,0l0,31Z" class="g2_2" />
<path d="M42.6,812.4l769.5,0l0,-0.8l-769.5,0l0,0.8Z" class="g2_2" />
<path d="M42.6,844.2l0.8,0l0,-31.8l-0.8,0l0,31.8Z" class="g2_2" />
<path d="M42.6,844.2l263.3,0l0,-0.7l-263.3,0l0,0.7Z" class="g2_2" />
<path d="M305.9,844.2l0.6,0l0,-31.8l-0.6,0l0,31.8Z" class="g2_2" />
<path d="M306.5,844.2l262.6,0l0,-0.7l-262.6,0l0,0.7Z" class="g2_2" />
<path d="M569.1,844.2l0.7,0l0,-31.8l-0.7,0l0,31.8Z" class="g2_2" />
<path d="M569.8,844.2l65,0l0,-0.7l-65,0l0,0.7Z" class="g2_2" />
<path d="M634.8,844.2l0.7,0l0,-31.8l-0.7,0l0,31.8Z" class="g2_2" />
<path d="M635.5,844.2l81.2,0l0,-0.7l-81.2,0l0,0.7Z" class="g2_2" />
<path d="M716.6,844.2l0.8,0l0,-31.8l-0.8,0l0,31.8Z" class="g2_2" />
<path d="M717.4,844.2l93.9,0l0,-0.7l-93.9,0l0,0.7Z" class="g2_2" />
<path d="M811.3,844.2l0.8,0l0,-31.8l-0.8,0l0,31.8Z" class="g2_2" />
<path d="M811.3,844.2l0.8,0l0,-0.7l-0.8,0l0,0.7Z" class="g2_2" />
<path d="M45.1,896.7l0.7,0l0,-0.8l-0.7,0l0,0.8Z" class="g2_2" />
<path d="M45.1,896.7l766.1,0l0,-0.8l-766.1,0l0,0.8Z" class="g2_2" />
<path d="M810.4,896.7l0.8,0l0,-0.8l-0.8,0l0,0.8Z" class="g2_2" />
<path d="M45.1,917.2l0.7,0l0,-20.5l-0.7,0l0,20.5Z" class="g2_2" />
<path d="M300.2,917.2l0.7,0l0,-20.5l-0.7,0l0,20.5Z" class="g2_2" />
<path d="M555.3,917.2l0.7,0l0,-20.5l-0.7,0l0,20.5Z" class="g2_2" />
<path d="M810.4,917.2l0.8,0l0,-20.5l-0.8,0l0,20.5Z" class="g2_2" />
<path d="M45.1,918l766.1,0l0,-0.8l-766.1,0l0,0.8Z" class="g2_2" />
<path d="M45.1,948.7l0.7,0l0,-30.7l-0.7,0l0,30.7Z" class="g2_2" />
<path d="M300.2,948.7l0.7,0l0,-30.7l-0.7,0l0,30.7Z" class="g2_2" />
<path d="M555.3,948.7l0.7,0L556,918l-0.7,0l0,30.7Z" class="g2_2" />
<path d="M810.4,948.7l0.8,0l0,-30.7l-0.8,0l0,30.7Z" class="g2_2" />
<path d="M45.1,949.4l766.1,0l0,-0.7l-766.1,0l0,0.7Z" class="g2_2" />
<path d="M45.1,980.2l0.7,0l0,-30.8l-0.7,0l0,30.8Z" class="g2_2" />
<path d="M300.2,980.2l0.7,0l0,-30.8l-0.7,0l0,30.8Z" class="g2_2" />
<path d="M555.3,980.2l0.7,0l0,-30.8l-0.7,0l0,30.8Z" class="g2_2" />
<path d="M810.4,980.2l0.8,0l0,-30.8l-0.8,0l0,30.8Z" class="g2_2" />
<path d="M45.1,980.9l766.1,0l0,-0.7l-766.1,0l0,0.7Z" class="g2_2" />
<path d="M45.1,1011.7l0.7,0l0,-30.8l-0.7,0l0,30.8Z" class="g2_2" />
<path d="M300.2,1011.7l0.7,0l0,-30.8l-0.7,0l0,30.8Z" class="g2_2" />
<path d="M555.3,1011.7l0.7,0l0,-30.8l-0.7,0l0,30.8Z" class="g2_2" />
<path d="M810.4,1011.7l0.8,0l0,-30.8l-0.8,0l0,30.8Z" class="g2_2" />
<path d="M45.1,1012.5l766.1,0l0,-0.8l-766.1,0l0,0.8Z" class="g2_2" />
<path d="M45.1,1043.2l0.7,0l0,-30.7l-0.7,0l0,30.7Z" class="g2_2" />
<path d="M300.2,1043.2l0.7,0l0,-30.7l-0.7,0l0,30.7Z" class="g2_2" />
<path d="M555.3,1043.2l0.7,0l0,-30.7l-0.7,0l0,30.7Z" class="g2_2" />
<path d="M810.4,1043.2l0.8,0l0,-30.7l-0.8,0l0,30.7Z" class="g2_2" />
<path d="M45.1,1043.9l766.1,0l0,-0.7l-766.1,0l0,0.7Z" class="g2_2" />
<path d="M45.1,1074.7l0.7,0l0,-30.8l-0.7,0l0,30.8Z" class="g2_2" />
<path d="M300.2,1074.7l0.7,0l0,-30.8l-0.7,0l0,30.8Z" class="g2_2" />
<path d="M555.3,1074.7l0.7,0l0,-30.8l-0.7,0l0,30.8Z" class="g2_2" />
<path d="M810.4,1074.7l0.8,0l0,-30.8l-0.8,0l0,30.8Z" class="g2_2" />
<path d="M45.1,1075.4l766.1,0l0,-0.7l-766.1,0l0,0.7Z" class="g2_2" />
<path d="M45.1,1106.2l0.7,0l0,-30.8l-0.7,0l0,30.8Z" class="g2_2" />
<path d="M300.2,1106.2l0.7,0l0,-30.8l-0.7,0l0,30.8Z" class="g2_2" />
<path d="M555.3,1106.2l0.7,0l0,-30.8l-0.7,0l0,30.8Z" class="g2_2" />
<path d="M810.4,1106.2l0.8,0l0,-30.8l-0.8,0l0,30.8Z" class="g2_2" />
<path d="M45.1,1106.9l766.1,0l0,-0.7l-766.1,0l0,0.7Z" class="g2_2" />
<path d="M45.1,1138.5l0.7,0l0,-31.6l-0.7,0l0,31.6Z" class="g2_2" />
<path d="M45.1,1138.5l255.1,0l0,-0.7l-255.1,0l0,0.7Z" class="g2_2" />
<path d="M300.2,1138.5l0.7,0l0,-31.6l-0.7,0l0,31.6Z" class="g2_2" />
<path d="M300.9,1138.5l254.4,0l0,-0.7l-254.4,0l0,0.7Z" class="g2_2" />
<path d="M555.3,1138.5l0.7,0l0,-31.6l-0.7,0l0,31.6Z" class="g2_2" />
<path d="M556,1138.5l254.4,0l0,-0.7l-254.4,0l0,0.7Z" class="g2_2" />
<path d="M810.4,1138.5l0.8,0l0,-31.6l-0.8,0l0,31.6Z" class="g2_2" />
<path d="M810.4,1138.5l0.8,0l0,-0.7l-0.8,0l0,0.7Z" class="g2_2" />
</svg>