<?xml version="1.0" encoding="UTF-8" standalone="no"?>
<!DOCTYPE svg PUBLIC "-//W3C//DTD SVG 1.1//EN"
"http://www.w3.org/Graphics/SVG/1.1/DTD/svg11.dtd">
<svg viewBox="0 0 909 1286" version="1.1" xmlns="http://www.w3.org/2000/svg" xmlns:xlink="http://www.w3.org/1999/xlink">
<defs>
<style type="text/css"><![CDATA[
.g1_1{
fill: #FF9A00;
}
.g2_1{
}
]]></style>
</defs>
<path d="M267.6,187.1l373.6,0l0,-89.7l-373.6,0l0,89.7Z" class="g1_1" />
<path d="M275.3,118.1l358.3,0l0,-20.7l-358.3,0l0,20.7Z" class="g1_1" />
<path d="M275.3,142.3l358.3,0l0,-24.2l-358.3,0l0,24.2Z" class="g1_1" />
<path d="M275.3,166.5l358.3,0l0,-24.2l-358.3,0l0,24.2Z" class="g1_1" />
<path d="M275.3,187.1l358.3,0l0,-20.6l-358.3,0l0,20.6Z" class="g1_1" />
<path d="M71.7,97.4l0.7,0l0,-0.7l-0.7,0l0,0.7Z" class="g2_1" />
<path d="M71.7,97.4l570.3,0l0,-0.7l-570.3,0l0,0.7Z" class="g2_1" />
<path d="M642,96.7l199.9,0l0,0.7L642,97.4Z" class="g2_1" />
<path d="M841.9,97.4l0.7,0l0,-0.7l-0.7,0l0,0.7Z" class="g2_1" />
<path d="M841.9,97.4l0.7,0l0,-0.7l-0.7,0l0,0.7Z" class="g2_1" />
<path d="M71.7,187.8l0.7,0l0,-90.4l-0.7,0l0,90.4Z" class="g2_1" />
<path d="M71.7,187.8l195.2,0l0,-0.7l-195.2,0l0,0.7Z" class="g2_1" />
<path d="M266.9,187.8l0.7,0l0,-90.4l-0.7,0l0,90.4Z" class="g2_1" />
<path d="M267.6,187.8l373.7,0l0,-0.7l-373.7,0l0,0.7Z" class="g2_1" />
<path d="M641.3,187.8l0.7,0l0,-90.4l-0.7,0l0,90.4Z" class="g2_1" />
<path d="M642,187.1l199.9,0l0,0.7l-199.9,0Z" class="g2_1" />
<path d="M841.9,187.8l0.7,0l0,-90.4l-0.7,0l0,90.4Z" class="g2_1" />
<path d="M841.9,187.8l0.7,0l0,-0.7l-0.7,0l0,0.7Z" class="g2_1" />
<path d="M72.1,240.4l770.1,0l0,-0.8l-770.1,0l0,0.8Z" class="g2_1" />
<path d="M72.1,261.8l770.1,0l0,-0.7l-770.1,0l0,0.7Z" class="g2_1" />
<path d="M72.1,283.2l770.1,0l0,-0.7l-770.1,0l0,0.7Z" class="g2_1" />
<path d="M72.4,325.3l609,0l0,-20.6l-609,0l0,20.6Z" class="g1_1" />
<path d="M80,325.3l593.8,0l0,-20.6L80,304.7l0,20.6Z" class="g1_1" />
<path d="M682.2,325.3l159.6,0l0,-20.6l-159.6,0l0,20.6Z" class="g1_1" />
<path d="M689.8,325.3l144.4,0l0,-20.6l-144.4,0l0,20.6Z" class="g1_1" />
<path d="M71.7,304.7l0.7,0l0,-0.7l-0.7,0l0,0.7Z" class="g2_1" />
<path d="M71.7,304.7l770.9,0l0,-0.7L71.7,304l0,0.7Z" class="g2_1" />
<path d="M71.7,325.3l0.7,0l0,-20.6l-0.7,0l0,20.6Z" class="g2_1" />
<path d="M681.5,325.3l0.7,0l0,-20.6l-0.7,0l0,20.6Z" class="g2_1" />
<path d="M841.9,325.3l0.7,0l0,-20.6l-0.7,0l0,20.6Z" class="g2_1" />
<path d="M71.7,326.1l770.9,0l0,-0.8l-770.9,0l0,0.8Z" class="g2_1" />
<path d="M71.7,350.4l0.7,0l0,-24.3l-0.7,0l0,24.3Z" class="g2_1" />
<path d="M681.5,350.4l0.7,0l0,-24.3l-0.7,0l0,24.3Z" class="g2_1" />
<path d="M841.9,350.4l0.7,0l0,-24.3l-0.7,0l0,24.3Z" class="g2_1" />
<path d="M71.7,351.1l770.9,0l0,-0.7l-770.9,0l0,0.7Z" class="g2_1" />
<path d="M71.7,375.2l0.7,0l0,-24.1l-0.7,0l0,24.1Z" class="g2_1" />
<path d="M681.5,375.2l0.7,0l0,-24.1l-0.7,0l0,24.1Z" class="g2_1" />
<path d="M841.9,375.2l0.7,0l0,-24.1l-0.7,0l0,24.1Z" class="g2_1" />
<path d="M71.7,375.9l770.9,0l0,-0.7l-770.9,0l0,0.7Z" class="g2_1" />
<path d="M71.7,400l0.7,0l0,-24.1l-0.7,0l0,24.1Z" class="g2_1" />
<path d="M681.5,400l0.7,0l0,-24.1l-0.7,0l0,24.1Z" class="g2_1" />
<path d="M841.9,400l0.7,0l0,-24.1l-0.7,0l0,24.1Z" class="g2_1" />
<path d="M71.7,400.8l770.9,0l0,-0.8L71.7,400l0,0.8Z" class="g2_1" />
<path d="M71.7,425l0.7,0l0,-24.2l-0.7,0l0,24.2Z" class="g2_1" />
<path d="M681.5,425l0.7,0l0,-24.2l-0.7,0l0,24.2Z" class="g2_1" />
<path d="M841.9,425l0.7,0l0,-24.2l-0.7,0l0,24.2Z" class="g2_1" />
<path d="M71.7,425.7l770.9,0l0,-0.7L71.7,425l0,0.7Z" class="g2_1" />
<path d="M71.7,449.9l0.7,0l0,-24.2l-0.7,0l0,24.2Z" class="g2_1" />
<path d="M681.5,449.9l0.7,0l0,-24.2l-0.7,0l0,24.2Z" class="g2_1" />
<path d="M841.9,449.9l0.7,0l0,-24.2l-0.7,0l0,24.2Z" class="g2_1" />
<path d="M71.7,450.6l770.9,0l0,-0.7l-770.9,0l0,0.7Z" class="g2_1" />
<path d="M71.7,474.7l0.7,0l0,-24.1l-0.7,0l0,24.1Z" class="g2_1" />
<path d="M681.5,474.7l0.7,0l0,-24.1l-0.7,0l0,24.1Z" class="g2_1" />
<path d="M841.9,474.7l0.7,0l0,-24.1l-0.7,0l0,24.1Z" class="g2_1" />
<path d="M71.7,475.5l770.9,0l0,-0.8l-770.9,0l0,0.8Z" class="g2_1" />
<path d="M71.7,499.7l0.7,0l0,-24.2l-0.7,0l0,24.2Z" class="g2_1" />
<path d="M681.5,499.7l0.7,0l0,-24.2l-0.7,0l0,24.2Z" class="g2_1" />
<path d="M841.9,499.7l0.7,0l0,-24.2l-0.7,0l0,24.2Z" class="g2_1" />
<path d="M71.7,500.4l770.9,0l0,-0.7l-770.9,0l0,0.7Z" class="g2_1" />
<path d="M71.7,524.5l0.7,0l0,-24.1l-0.7,0l0,24.1Z" class="g2_1" />
<path d="M681.5,524.5l0.7,0l0,-24.1l-0.7,0l0,24.1Z" class="g2_1" />
<path d="M841.9,524.5l0.7,0l0,-24.1l-0.7,0l0,24.1Z" class="g2_1" />
<path d="M71.7,525.2l770.9,0l0,-0.7l-770.9,0l0,0.7Z" class="g2_1" />
<path d="M71.7,549.5l0.7,0l0,-24.2l-0.7,0l0,24.2Z" class="g2_1" />
<path d="M681.5,549.5l0.7,0l0,-24.2l-0.7,0l0,24.2Z" class="g2_1" />
<path d="M841.9,549.5l0.7,0l0,-24.2l-0.7,0l0,24.2Z" class="g2_1" />
<path d="M71.7,550.2l770.9,0l0,-0.8l-770.9,0l0,0.8Z" class="g2_1" />
<path d="M71.7,574.4l0.7,0l0,-24.2l-0.7,0l0,24.2Z" class="g2_1" />
<path d="M681.5,574.4l0.7,0l0,-24.2l-0.7,0l0,24.2Z" class="g2_1" />
<path d="M841.9,574.4l0.7,0l0,-24.2l-0.7,0l0,24.2Z" class="g2_1" />
<path d="M71.7,575l770.9,0l0,-0.6l-770.9,0l0,0.6Z" class="g2_1" />
<path d="M71.7,599.2l0.7,0l0,-24.2l-0.7,0l0,24.2Z" class="g2_1" />
<path d="M681.5,599.2l0.7,0l0,-24.2l-0.7,0l0,24.2Z" class="g2_1" />
<path d="M841.9,599.2l0.7,0l0,-24.2l-0.7,0l0,24.2Z" class="g2_1" />
<path d="M71.7,600l770.9,0l0,-0.8l-770.9,0l0,0.8Z" class="g2_1" />
<path d="M71.7,624.1l0.7,0l0,-24.1l-0.7,0l0,24.1Z" class="g2_1" />
<path d="M681.5,624.1l0.7,0l0,-24.1l-0.7,0l0,24.1Z" class="g2_1" />
<path d="M841.9,624.1l0.7,0l0,-24.1l-0.7,0l0,24.1Z" class="g2_1" />
<path d="M71.7,624.8l770.9,0l0,-0.7l-770.9,0l0,0.7Z" class="g2_1" />
<path d="M71.7,649.1l0.7,0l0,-24.3l-0.7,0l0,24.3Z" class="g2_1" />
<path d="M681.5,649.1l0.7,0l0,-24.3l-0.7,0l0,24.3Z" class="g2_1" />
<path d="M841.9,649.1l0.7,0l0,-24.3l-0.7,0l0,24.3Z" class="g2_1" />
<path d="M71.7,649.7l770.9,0l0,-0.6l-770.9,0l0,0.6Z" class="g2_1" />
<path d="M71.7,673.9l0.7,0l0,-24.2l-0.7,0l0,24.2Z" class="g2_1" />
<path d="M681.5,673.9l0.7,0l0,-24.2l-0.7,0l0,24.2Z" class="g2_1" />
<path d="M841.9,673.9l0.7,0l0,-24.2l-0.7,0l0,24.2Z" class="g2_1" />
<path d="M71.7,674.7l770.9,0l0,-0.8l-770.9,0l0,0.8Z" class="g2_1" />
<path d="M71.7,698.8l0.7,0l0,-24.1l-0.7,0l0,24.1Z" class="g2_1" />
<path d="M681.5,698.8l0.7,0l0,-24.1l-0.7,0l0,24.1Z" class="g2_1" />
<path d="M841.9,698.8l0.7,0l0,-24.1l-0.7,0l0,24.1Z" class="g2_1" />
<path d="M71.7,699.5l770.9,0l0,-0.7l-770.9,0l0,0.7Z" class="g2_1" />
<path d="M71.7,723.8l0.7,0l0,-24.3l-0.7,0l0,24.3Z" class="g2_1" />
<path d="M681.5,723.8l0.7,0l0,-24.3l-0.7,0l0,24.3Z" class="g2_1" />
<path d="M841.9,723.8l0.7,0l0,-24.3l-0.7,0l0,24.3Z" class="g2_1" />
<path d="M71.7,724.4l770.9,0l0,-0.6l-770.9,0l0,0.6Z" class="g2_1" />
<path d="M71.7,748.6l0.7,0l0,-24.2l-0.7,0l0,24.2Z" class="g2_1" />
<path d="M681.5,748.6l0.7,0l0,-24.2l-0.7,0l0,24.2Z" class="g2_1" />
<path d="M841.9,748.6l0.7,0l0,-24.2l-0.7,0l0,24.2Z" class="g2_1" />
<path d="M71.7,749.4l770.9,0l0,-0.8l-770.9,0l0,0.8Z" class="g2_1" />
<path d="M71.7,773.5l0.7,0l0,-24.1l-0.7,0l0,24.1Z" class="g2_1" />
<path d="M681.5,773.5l0.7,0l0,-24.1l-0.7,0l0,24.1Z" class="g2_1" />
<path d="M841.9,773.5l0.7,0l0,-24.1l-0.7,0l0,24.1Z" class="g2_1" />
<path d="M71.7,774.2l770.9,0l0,-0.7l-770.9,0l0,0.7Z" class="g2_1" />
<path d="M71.7,798.4l0.7,0l0,-24.2l-0.7,0l0,24.2Z" class="g2_1" />
<path d="M681.5,798.4l0.7,0l0,-24.2l-0.7,0l0,24.2Z" class="g2_1" />
<path d="M841.9,798.4l0.7,0l0,-24.2l-0.7,0l0,24.2Z" class="g2_1" />
<path d="M71.7,799.1l770.9,0l0,-0.7l-770.9,0l0,0.7Z" class="g2_1" />
<path d="M71.7,823.4l0.7,0l0,-24.3l-0.7,0l0,24.3Z" class="g2_1" />
<path d="M681.5,823.4l0.7,0l0,-24.3l-0.7,0l0,24.3Z" class="g2_1" />
<path d="M841.9,823.4l0.7,0l0,-24.3l-0.7,0l0,24.3Z" class="g2_1" />
<path d="M71.7,824.1l770.9,0l0,-0.8l-770.9,0l0,0.8Z" class="g2_1" />
<path d="M71.7,848.2l0.7,0l0,-24.1l-0.7,0l0,24.1Z" class="g2_1" />
<path d="M681.5,848.2l0.7,0l0,-24.1l-0.7,0l0,24.1Z" class="g2_1" />
<path d="M841.9,848.2l0.7,0l0,-24.1l-0.7,0l0,24.1Z" class="g2_1" />
<path d="M71.7,848.9l770.9,0l0,-0.7l-770.9,0l0,0.7Z" class="g2_1" />
<path d="M71.7,873.1l0.7,0l0,-24.2l-0.7,0l0,24.2Z" class="g2_1" />
<path d="M681.5,873.1l0.7,0l0,-24.2l-0.7,0l0,24.2Z" class="g2_1" />
<path d="M841.9,873.1l0.7,0l0,-24.2l-0.7,0l0,24.2Z" class="g2_1" />
<path d="M71.7,873.8l770.9,0l0,-0.7l-770.9,0l0,0.7Z" class="g2_1" />
<path d="M71.7,898l0.7,0l0,-24.2l-0.7,0l0,24.2Z" class="g2_1" />
<path d="M681.5,898l0.7,0l0,-24.2l-0.7,0l0,24.2Z" class="g2_1" />
<path d="M841.9,898l0.7,0l0,-24.2l-0.7,0l0,24.2Z" class="g2_1" />
<path d="M71.7,898.7l770.9,0l0,-0.7L71.7,898l0,0.7Z" class="g2_1" />
<path d="M71.7,922.9l0.7,0l0,-24.2l-0.7,0l0,24.2Z" class="g2_1" />
<path d="M681.5,922.9l0.7,0l0,-24.2l-0.7,0l0,24.2Z" class="g2_1" />
<path d="M841.9,922.9l0.7,0l0,-24.2l-0.7,0l0,24.2Z" class="g2_1" />
<path d="M71.7,923.6l770.9,0l0,-0.7l-770.9,0l0,0.7Z" class="g2_1" />
<path d="M71.7,947.7l0.7,0l0,-24.1l-0.7,0l0,24.1Z" class="g2_1" />
<path d="M681.5,947.7l0.7,0l0,-24.1l-0.7,0l0,24.1Z" class="g2_1" />
<path d="M841.9,947.7l0.7,0l0,-24.1l-0.7,0l0,24.1Z" class="g2_1" />
<path d="M71.7,948.5l770.9,0l0,-0.8l-770.9,0l0,0.8Z" class="g2_1" />
<path d="M71.7,972.7l0.7,0l0,-24.2l-0.7,0l0,24.2Z" class="g2_1" />
<path d="M681.5,972.7l0.7,0l0,-24.2l-0.7,0l0,24.2Z" class="g2_1" />
<path d="M841.9,972.7l0.7,0l0,-24.2l-0.7,0l0,24.2Z" class="g2_1" />
<path d="M71.7,973.4l770.9,0l0,-0.7l-770.9,0l0,0.7Z" class="g2_1" />
<path d="M71.7,997.5l0.7,0l0,-24.1l-0.7,0l0,24.1Z" class="g2_1" />
<path d="M681.5,997.5l0.7,0l0,-24.1l-0.7,0l0,24.1Z" class="g2_1" />
<path d="M841.9,997.5l0.7,0l0,-24.1l-0.7,0l0,24.1Z" class="g2_1" />
<path d="M71.7,998.2l770.9,0l0,-0.7l-770.9,0l0,0.7Z" class="g2_1" />
<path d="M71.7,1022.5l0.7,0l0,-24.2l-0.7,0l0,24.2Z" class="g2_1" />
<path d="M681.5,1022.5l0.7,0l0,-24.2l-0.7,0l0,24.2Z" class="g2_1" />
<path d="M841.9,1022.5l0.7,0l0,-24.2l-0.7,0l0,24.2Z" class="g2_1" />
<path d="M71.7,1023.2l770.9,0l0,-0.8l-770.9,0l0,0.8Z" class="g2_1" />
<path d="M71.7,1047.4l0.7,0l0,-24.2l-0.7,0l0,24.2Z" class="g2_1" />
<path d="M681.5,1047.4l0.7,0l0,-24.2l-0.7,0l0,24.2Z" class="g2_1" />
<path d="M841.9,1047.4l0.7,0l0,-24.2l-0.7,0l0,24.2Z" class="g2_1" />
<path d="M71.7,1048.1l770.9,0l0,-0.7l-770.9,0l0,0.7Z" class="g2_1" />
<path d="M71.7,1072.2l0.7,0l0,-24.1l-0.7,0l0,24.1Z" class="g2_1" />
<path d="M681.5,1072.2l0.7,0l0,-24.1l-0.7,0l0,24.1Z" class="g2_1" />
<path d="M841.9,1072.2l0.7,0l0,-24.1l-0.7,0l0,24.1Z" class="g2_1" />
<path d="M71.7,1073l770.9,0l0,-0.8l-770.9,0l0,0.8Z" class="g2_1" />
<path d="M71.7,1097.1l0.7,0l0,-24.1l-0.7,0l0,24.1Z" class="g2_1" />
<path d="M681.5,1097.1l0.7,0l0,-24.1l-0.7,0l0,24.1Z" class="g2_1" />
<path d="M841.9,1097.1l0.7,0l0,-24.1l-0.7,0l0,24.1Z" class="g2_1" />
<path d="M71.7,1097.8l770.9,0l0,-0.7l-770.9,0l0,0.7Z" class="g2_1" />
<path d="M71.7,1122.1l0.7,0l0,-24.3l-0.7,0l0,24.3Z" class="g2_1" />
<path d="M681.5,1122.1l0.7,0l0,-24.3l-0.7,0l0,24.3Z" class="g2_1" />
<path d="M841.9,1122.1l0.7,0l0,-24.3l-0.7,0l0,24.3Z" class="g2_1" />
<path d="M71.7,1122.7l770.9,0l0,-0.6l-770.9,0l0,0.6Z" class="g2_1" />
<path d="M71.7,1147.7l0.7,0l0,-25l-0.7,0l0,25Z" class="g2_1" />
<path d="M71.7,1147.7l609.7,0l0,-0.8l-609.7,0l0,0.8Z" class="g2_1" />
<path d="M681.5,1147.7l0.7,0l0,-25l-0.7,0l0,25Z" class="g2_1" />
<path d="M682.2,1147.7l159.7,0l0,-0.8l-159.7,0l0,0.8Z" class="g2_1" />
<path d="M841.9,1147.7l0.7,0l0,-25l-0.7,0l0,25Z" class="g2_1" />
<path d="M841.9,1147.7l0.7,0l0,-0.8l-0.7,0l0,0.8Z" class="g2_1" />
<image preserveAspectRatio="none" x="684" y="100" width="127" height="85" xlink:href="img/1.png" />
</svg>