<?xml version="1.0" encoding="UTF-8" standalone="no"?>
<!DOCTYPE svg PUBLIC "-//W3C//DTD SVG 1.1//EN"
"http://www.w3.org/Graphics/SVG/1.1/DTD/svg11.dtd">
<svg viewBox="0 0 909 1286" version="1.1" xmlns="http://www.w3.org/2000/svg" xmlns:xlink="http://www.w3.org/1999/xlink">
<defs>
<clipPath id="c0_1"><path d="M82.8,168.5L82.8,20l222.6,0l0,148.5Z" /></clipPath>
<clipPath id="c1_1"><path d="M0,1286.2L0,0L909.4,0l0,1286.2Z" /></clipPath>
<style type="text/css"><![CDATA[
.g1_1{
fill: #F26430;
}
.g2_1{
fill: #45146B;
}
.g3_1{
fill: none;
stroke: #FFFFFF;
stroke-width: 0.5943056;
stroke-linecap: butt;
stroke-linejoin: miter;
stroke-miterlimit: 4;
}
.g4_1{
fill: #C7BDD6;
}
.g5_1{
fill: #FFFFFF;
}
.g6_1{
fill: #796097;
}
.g7_1{
fill: #5E3C7F;
}
.g8_1{
fill: none;
stroke: #E2DCEA;
stroke-width: 1.1458334;
stroke-linecap: butt;
stroke-linejoin: miter;
stroke-miterlimit: 4;
}
.g9_1{
fill: none;
stroke: #FFFFFF;
stroke-width: 1.5277778;
stroke-linecap: butt;
stroke-linejoin: miter;
stroke-miterlimit: 4;
}
.g10_1{
fill: none;
stroke: #45146B;
stroke-width: 0.7638889;
stroke-linecap: butt;
stroke-linejoin: miter;
}
.g11_1{
fill: none;
stroke: #231F20;
stroke-width: 0.7638889;
stroke-linecap: butt;
stroke-linejoin: miter;
stroke-miterlimit: 4;
stroke-dasharray: 3,2;
}
.g12_1{
fill: #FEE5D5;
}
.g13_1{
fill: #FDEDE3;
stroke: #45146B;
stroke-width: 0.7638889;
stroke-linecap: butt;
stroke-linejoin: miter;
stroke-miterlimit: 4;
}
.g14_1{
fill: #FDEDE3;
}
.g15_1{
fill: #FDDCC9;
}
.g16_1{
fill: none;
stroke: #45146B;
stroke-width: 1.5277778;
stroke-linecap: butt;
stroke-linejoin: miter;
}
.g17_1{
fill: #E2DCEA;
}
.g18_1{
fill: none;
stroke: #45146B;
stroke-width: 0.39111114;
stroke-linecap: butt;
stroke-linejoin: miter;
stroke-miterlimit: 4;
}
]]></style>
</defs>
<path d="M107.5,119.1l0,0.4c0,2.6,1.2,3.5,4.7,3.5l2.4,0c2.9,0,4,-0.6,4,-2.7l0,-1.6c0,-2.1,-1.2,-2.4,-3.9,-2.7l-7.8,-0.8c-5.9,-0.7,-8.5,-3.6,-8.5,-9.6l0,-2.2c0,-3.4,1.1,-6.1,3.1,-7.8c2.1,-1.7,4.9,-2,8.8,-2l5.8,0c7.4,0,11.2,3.1,11.2,8.5l0,2.5l-9.3,0l0,-0.4c0,-2.2,-0.9,-2.9,-3.6,-2.9l-2.2,0c-2.9,0,-4,0.5,-4,2.5l0,1.5c0,2,1.3,2.1,3.9,2.4l7.2,0.8c6.2,0.7,9.2,3.6,9.2,8.9l0,3.5c0,5.9,-3.9,9.9,-10.3,9.9l-8,0c-8.3,0,-12.1,-2.7,-12.1,-9.2l0,-2.5Z" class="g1_1" />
<path d="M177.7,94.1l0,36.3l-9.5,0l0,-26.7l-7.3,26.7l-9.7,0l-7.4,-27l0,27l-9.5,0l0,-36.3l14.3,0l7.4,26.2l7.5,-26.2Z" class="g1_1" />
<path d="M203.5,116.6l-3.5,-15l-0.7,0l-3.7,15ZM192.2,94.1l14.9,0l10.2,36.3l-10.4,0L205.2,124l-11.4,0l-1.6,6.4l-10.5,0Z" class="g1_1" />
<path d="M236.5,111.6c3.1,0,4.2,-0.9,4.2,-4l0,-1.4c0,-3.2,-1.1,-4.1,-4.2,-4.1l-5.5,0l0,9.5ZM221.3,94.1l14.6,0c10.2,0,14.7,1.9,14.7,9.9l0,2.9c0,4.9,-2.4,7.7,-7.1,8.3c4.9,0.8,7.1,3.1,7.1,7.7l0,7.5l-10,0l0,-6.6c0,-3.1,-1,-4,-4.2,-4l-5.4,0l0,10.6l-9.7,0Z" class="g1_1" />
<path d="M264.3,102.1l-9.3,0L255,94l28.5,0l0,8.1l-9.3,0l0,28.3l-9.9,0Z" class="g1_1" />
<path d="M84.1,144.2l6.3,0c0.9,0,1.5,-0.2,1.8,-0.4c0.3,-0.2,0.5,-0.7,0.5,-1.4l0,-0.5c0,-0.7,-0.2,-1.2,-0.5,-1.4c-0.3,-0.2,-0.9,-0.3,-1.8,-0.3l-6.3,0Zm0,5.2l-1.3,0l0,-10.4l7.2,0c1.6,0,2.7,0.2,3.3,0.6c0.5,0.3,0.7,1,0.7,1.9l0,1.4c0,0.9,-0.2,1.6,-0.7,1.9c-0.6,0.4,-1.7,0.5,-3.3,0.5l-5.9,0Z" class="g2_1" />
<path d="M96,149.4L96,139l1.3,0l0,9.3l8,0l0,1.1Z" class="g2_1" />
<path d="M110.8,149.5c-1,0,-1.8,0,-2.3,-0.1c-0.5,-0.1,-0.9,-0.3,-1.2,-0.6c-0.3,-0.3,-0.6,-0.6,-0.7,-1.1c-0.2,-0.5,-0.2,-1.1,-0.2,-1.9l0,-6.8l1.3,0l0,6.8c0,0.5,0,0.9,0.1,1.2c0,0.2,0.1,0.4,0.2,0.6c0.2,0.3,0.5,0.5,0.8,0.6c0.4,0.1,0.8,0.2,1.4,0.2l4.3,0c0.6,0,1.1,-0.1,1.4,-0.2c0.3,-0.1,0.6,-0.3,0.8,-0.6c0.1,-0.2,0.2,-0.4,0.3,-0.6c0,-0.3,0,-0.7,0,-1.2l0,-0.4l0,-6.4l1.4,0l0,6.7c0,0.8,-0.1,1.4,-0.3,1.9c-0.1,0.5,-0.4,0.9,-0.7,1.2c-0.3,0.3,-0.7,0.5,-1.2,0.6c-0.5,0.1,-1.2,0.1,-2.2,0.1Z" class="g2_1" />
<path d="M122.1,149.4l-1.3,0l0,-10.4l1.9,0l6.2,9.1l6.3,-9.1l1.9,0l0,10.4l-1.3,0l0,-9.1l-6.4,9.1l-0.9,0l-6.4,-9.1Z" class="g2_1" />
<path d="M147.7,144.6l-6.8,0l0,3.6l6.8,0c1,0,1.7,-0.1,2,-0.3c0.3,-0.2,0.4,-0.7,0.4,-1.4c0,-0.8,-0.1,-1.3,-0.4,-1.5c-0.3,-0.3,-1,-0.4,-2,-0.4m-6.8,-4.4l0,3.2l5.9,0c1.4,0,2.2,-0.1,2.5,-0.3c0.3,-0.2,0.5,-0.6,0.5,-1.3c0,-0.4,-0.1,-0.7,-0.1,-0.9c-0.1,-0.2,-0.2,-0.3,-0.4,-0.4c-0.1,-0.1,-0.4,-0.2,-0.7,-0.3c-0.3,0,-0.8,0,-1.6,0l-0.3,0Zm8.4,3.7c0.8,0,1.3,0.2,1.6,0.5c0.3,0.3,0.5,0.8,0.5,1.5l0,1.1c0,0.9,-0.3,1.6,-0.9,1.9c-0.6,0.4,-1.8,0.5,-3.7,0.5l-7.2,0l0,-10.4l7.4,0c1,0,1.6,0.1,2.1,0.1c0.4,0.1,0.8,0.2,1.1,0.4c0.3,0.2,0.5,0.5,0.6,0.8c0.2,0.3,0.2,0.8,0.2,1.4c0,0.7,-0.1,1.2,-0.3,1.5c-0.3,0.3,-0.7,0.5,-1.4,0.7Z" class="g2_1" />
<path d="M154.7,149.4l-1.3,0l0,-10.4l1.3,0l0,10.4Z" class="g2_1" />
<path d="M158.6,149.4l-1.3,0l0,-10.4l2.1,0l9.4,9.2l0,-9.2l1.2,0l0,10.4l-1.8,0l-9.6,-9.3Z" class="g2_1" />
<path d="M181.3,148.3c1,0,1.6,-0.1,1.9,-0.4c0.4,-0.3,0.5,-1,0.5,-2l0,-0.6l-5.3,0l0,-1.1l6.6,0l0,1.7c0,1,0,1.7,-0.2,2c-0.1,0.4,-0.3,0.7,-0.6,1c-0.3,0.2,-0.7,0.4,-1.2,0.5c-0.5,0.1,-1.3,0.1,-2.4,0.1l-3.7,0c-1.1,0,-1.8,0,-2.3,-0.1c-0.5,-0.1,-0.9,-0.3,-1.2,-0.6c-0.4,-0.3,-0.6,-0.7,-0.8,-1.1c-0.2,-0.5,-0.2,-1.2,-0.2,-2l0,-2.8c0,-0.9,0,-1.5,0.2,-2.1c0.2,-0.5,0.4,-0.9,0.8,-1.2c0.3,-0.2,0.7,-0.4,1.2,-0.5c0.5,-0.1,1.2,-0.2,2.3,-0.2l3.7,0c1.7,0,2.8,0.2,3.4,0.6c0.6,0.5,0.9,1.2,0.9,2.3c0,0.2,0,0.3,0,0.4c0,0.1,0,0.1,0,0.2l-1.2,0l0,-0.2c0,-0.8,-0.1,-1.3,-0.5,-1.7c-0.4,-0.3,-1,-0.4,-1.9,-0.4l-4.9,0c-0.7,0,-1.2,0,-1.5,0.1c-0.3,0.1,-0.6,0.3,-0.8,0.6c-0.1,0.2,-0.2,0.4,-0.3,0.7c0,0.3,-0.1,0.7,-0.1,1.3l0,0.2l0,2.6c0,0.6,0.1,1,0.1,1.3c0.1,0.3,0.2,0.5,0.3,0.7c0.2,0.3,0.5,0.5,0.8,0.6c0.4,0.1,0.8,0.1,1.5,0.1Z" class="g2_1" />
<path d="M193.9,146l1.2,0c0,0.1,0,0.2,0,0.2c0,0.2,0,0.4,0,0.5c0,0.6,0.2,1.1,0.7,1.3c0.4,0.3,1.2,0.4,2.4,0.4l2.7,0c1.4,0,2.3,-0.1,2.7,-0.4c0.4,-0.3,0.7,-0.8,0.7,-1.6c0,-0.7,-0.2,-1.1,-0.5,-1.4c-0.3,-0.2,-0.9,-0.3,-1.8,-0.3l-4.4,0c-1.4,0,-2.4,-0.2,-2.9,-0.7c-0.6,-0.4,-0.9,-1.1,-0.9,-2.2c0,-1.1,0.4,-1.8,1,-2.2c0.6,-0.5,1.8,-0.7,3.5,-0.7l2.4,0c1.3,0,2.2,0.1,2.7,0.2c0.5,0.1,0.9,0.2,1.2,0.5c0.2,0.2,0.4,0.4,0.5,0.8c0.1,0.3,0.2,0.7,0.2,1.2l0,0.3l-1.3,0l0,-0.1c0,-0.7,-0.1,-1.2,-0.4,-1.4c-0.4,-0.3,-1.1,-0.4,-2.1,-0.4l-3.6,0c-1.1,0,-1.8,0.1,-2.2,0.4c-0.3,0.2,-0.5,0.7,-0.5,1.4c0,0.6,0.2,1.1,0.5,1.3c0.4,0.3,1.2,0.4,2.3,0.4l3.7,0c0.9,0,1.5,0,1.9,0.1c0.4,0.1,0.7,0.2,1,0.3c0.3,0.2,0.6,0.5,0.7,0.9c0.2,0.4,0.3,0.9,0.3,1.7c0,1.1,-0.4,1.9,-1,2.4c-0.6,0.4,-1.7,0.6,-3.3,0.6l-3.6,0c-1.3,0,-2.3,-0.2,-2.9,-0.6c-0.6,-0.4,-0.9,-1.1,-0.9,-2.1c0,-0.1,0,-0.3,0,-0.6c0,-0.1,0,-0.1,0,-0.2Z" class="g2_1" />
<path d="M216.4,140.1l-4.7,0c-0.7,0,-1.2,0,-1.6,0.1c-0.3,0.2,-0.6,0.3,-0.8,0.6c-0.2,0.2,-0.3,0.4,-0.3,0.7c-0.1,0.3,-0.1,0.7,-0.1,1.3l0,0.2l0,2.6c0,0.6,0,1,0.1,1.3c0,0.3,0.1,0.5,0.3,0.7c0.2,0.3,0.5,0.5,0.8,0.6c0.4,0.1,0.9,0.2,1.6,0.2l4.7,0c0.7,0,1.2,-0.1,1.5,-0.2c0.4,-0.1,0.7,-0.3,0.9,-0.6c0.1,-0.2,0.2,-0.4,0.3,-0.7c0.1,-0.2,0.1,-0.6,0.1,-1.2l0,-0.3l0,-2.7c0,-0.6,0,-1,-0.1,-1.2c-0.1,-0.3,-0.2,-0.5,-0.3,-0.7c-0.2,-0.3,-0.5,-0.4,-0.9,-0.6c-0.3,-0.1,-0.8,-0.1,-1.5,-0.1m-4.1,9.4c-1.1,0,-1.9,0,-2.4,-0.1c-0.6,-0.1,-1,-0.3,-1.3,-0.6c-0.4,-0.3,-0.7,-0.7,-0.8,-1.1c-0.2,-0.5,-0.3,-1.2,-0.3,-2l0,-2.8c0,-0.9,0.1,-1.5,0.3,-2.1c0.1,-0.5,0.4,-0.9,0.8,-1.2c0.3,-0.2,0.7,-0.4,1.3,-0.5c0.5,-0.1,1.3,-0.2,2.4,-0.2l3.5,0c1.1,0,1.9,0.1,2.4,0.2c0.6,0.1,1,0.3,1.3,0.5c0.4,0.3,0.7,0.7,0.8,1.2c0.2,0.5,0.3,1.2,0.3,2l0,2.9c0,0.8,-0.1,1.4,-0.3,1.9c-0.1,0.5,-0.4,0.9,-0.8,1.2c-0.3,0.3,-0.7,0.5,-1.2,0.6c-0.6,0.1,-1.4,0.1,-2.5,0.1Z" class="g2_1" />
<path d="M222.9,149.4l0,-10.4l1.3,0l0,9.3l8,0l0,1.1Z" class="g2_1" />
<path d="M237.7,149.5c-1,0,-1.8,0,-2.3,-0.1c-0.5,-0.1,-0.9,-0.3,-1.2,-0.6c-0.3,-0.3,-0.6,-0.6,-0.7,-1.1c-0.2,-0.5,-0.2,-1.1,-0.2,-1.9l0,-6.8l1.3,0l0,6.8c0,0.5,0,0.9,0.1,1.2c0,0.2,0.1,0.4,0.2,0.6c0.2,0.3,0.5,0.5,0.8,0.6c0.4,0.1,0.8,0.2,1.4,0.2l4.3,0c0.6,0,1.1,-0.1,1.4,-0.2c0.3,-0.1,0.6,-0.3,0.8,-0.6c0.1,-0.2,0.2,-0.4,0.3,-0.6c0,-0.3,0,-0.7,0,-1.2l0,-0.4l0,-6.4l1.4,0l0,6.7c0,0.8,-0.1,1.4,-0.3,1.9c-0.1,0.5,-0.4,0.9,-0.7,1.2c-0.3,0.3,-0.7,0.5,-1.2,0.6c-0.5,0.1,-1.2,0.1,-2.2,0.1Z" class="g2_1" />
<path d="M253.2,149.4l-1.3,0l0,-9.2l-5.1,0l0,-1.2l11.6,0l0,1.2l-5.2,0Z" class="g2_1" />
<path d="M261.3,149.4l-1.3,0L260,139l1.3,0l0,10.4Z" class="g2_1" />
<path d="M272.6,140.1l-4.7,0c-0.6,0,-1.2,0,-1.5,0.1c-0.4,0.2,-0.7,0.3,-0.9,0.6c-0.1,0.2,-0.2,0.4,-0.3,0.7c-0.1,0.3,-0.1,0.7,-0.1,1.3l0,0.2l0,2.6c0,0.6,0,1,0.1,1.3c0.1,0.3,0.2,0.5,0.3,0.7c0.2,0.3,0.5,0.5,0.9,0.6c0.3,0.1,0.9,0.2,1.5,0.2l4.7,0c0.7,0,1.2,-0.1,1.6,-0.2c0.3,-0.1,0.6,-0.3,0.8,-0.6c0.2,-0.2,0.3,-0.4,0.3,-0.7c0.1,-0.2,0.1,-0.6,0.1,-1.2l0,-0.3l0,-2.7c0,-0.6,0,-1,-0.1,-1.2c0,-0.3,-0.1,-0.5,-0.3,-0.7c-0.2,-0.3,-0.5,-0.4,-0.8,-0.6c-0.4,-0.1,-0.9,-0.1,-1.6,-0.1m-4.1,9.4c-1.1,0,-1.9,0,-2.4,-0.1c-0.5,-0.1,-1,-0.3,-1.3,-0.6c-0.4,-0.3,-0.6,-0.7,-0.8,-1.1c-0.2,-0.5,-0.3,-1.2,-0.3,-2l0,-2.8c0,-0.9,0.1,-1.5,0.3,-2.1c0.1,-0.5,0.4,-0.9,0.8,-1.2c0.3,-0.2,0.7,-0.4,1.3,-0.5c0.5,-0.1,1.3,-0.2,2.4,-0.2l3.5,0c1.1,0,1.9,0.1,2.5,0.2c0.5,0.1,0.9,0.3,1.3,0.5c0.3,0.3,0.6,0.7,0.8,1.2c0.1,0.5,0.2,1.2,0.2,2l0,2.9c0,0.8,-0.1,1.4,-0.2,1.9c-0.2,0.5,-0.5,0.9,-0.8,1.2c-0.4,0.3,-0.8,0.5,-1.3,0.6c-0.6,0.1,-1.4,0.1,-2.5,0.1Z" class="g2_1" />
<path d="M280.4,149.4l-1.3,0l0,-10.4l2,0l9.4,9.2l0,-9.2l1.3,0l0,10.4l-1.9,0l-9.5,-9.3Z" class="g2_1" />
<g clip-path="url(#c0_1)">
<path d="M294.1,146l1.3,0c0,0.1,0,0.2,0,0.2c0,0.2,0,0.4,0,0.5c0,0.6,0.2,1.1,0.6,1.3c0.4,0.3,1.2,0.4,2.4,0.4l2.7,0c1.4,0,2.3,-0.1,2.8,-0.4c0.4,-0.3,0.6,-0.8,0.6,-1.6c0,-0.7,-0.1,-1.1,-0.4,-1.4c-0.3,-0.2,-0.9,-0.3,-1.9,-0.3l-4.4,0c-1.3,0,-2.3,-0.2,-2.9,-0.7c-0.5,-0.4,-0.8,-1.1,-0.8,-2.2c0,-1.1,0.3,-1.8,0.9,-2.2c0.7,-0.5,1.9,-0.7,3.6,-0.7l2.3,0c1.3,0,2.2,0.1,2.7,0.2c0.5,0.1,0.9,0.2,1.2,0.5c0.3,0.2,0.4,0.4,0.6,0.8c0.1,0.3,0.1,0.7,0.1,1.2l0,0.3l-1.2,0l0,-0.1c0,-0.7,-0.2,-1.2,-0.5,-1.4c-0.3,-0.3,-1,-0.4,-2.1,-0.4l-3.5,0c-1.1,0,-1.8,0.1,-2.2,0.4c-0.4,0.2,-0.6,0.7,-0.6,1.4c0,0.6,0.2,1.1,0.6,1.3c0.3,0.3,1.1,0.4,2.3,0.4l3.7,0c0.8,0,1.4,0,1.8,0.1c0.4,0.1,0.8,0.2,1,0.3c0.4,0.2,0.6,0.5,0.8,0.9c0.1,0.4,0.2,0.9,0.2,1.7c0,1.1,-0.3,1.9,-0.9,2.4c-0.7,0.4,-1.8,0.6,-3.4,0.6l-3.5,0c-1.4,0,-2.4,-0.2,-3,-0.6c-0.6,-0.4,-0.9,-1.1,-0.9,-2.1c0,-0.1,0,-0.3,0,-0.6c0,-0.1,0,-0.1,0,-0.2Z" class="g2_1" />
</g>
<path d="M178.7,159.4c0,-0.9,-0.5,-1,-1.6,-1l-2.6,0l0,3.4l2.6,0c1.1,0,1.6,-0.1,1.6,-1.1Zm-5.2,-2l3.6,0c1.9,0,2.6,0.5,2.6,2l0,1.3c0,1.6,-0.7,2,-2.6,2l-2.6,0l0,3.4l-1,0Z" class="g2_1" />
<path d="M180.6,160l0.7,0l0,-1.4l0.9,0l0,1.4l3,0l0,0.7l-3,0l0,3.4c0,1,0.3,1.2,1.2,1.2c0.9,0,1.1,-0.2,1.1,-1.2l0,-0.2l0.9,0l0,0.1c0,1.8,-0.5,2.2,-2.2,2.2c-1.4,0,-1.9,-0.6,-1.9,-2.2l0,-3.3l-0.7,0Z" class="g2_1" />
<path d="M187.3,160l1.8,5.2l1.8,-5.2l0.9,0l-2.3,6.6c-0.4,1.3,-0.8,1.9,-1.8,1.9c-0.2,0,-0.3,-0.1,-0.5,-0.1l0,-0.8c0.1,0,0.2,0,0.3,0c0.6,0,0.8,-0.2,1.1,-0.9l0.2,-0.6l-0.3,0L186.4,160Z" class="g2_1" />
<path d="M197,157.4l0.9,0l0,7.8l4.9,0l0,0.9l-5.8,0Z" class="g2_1" />
<path d="M203.4,160l0.7,0l0,-1.4l0.9,0l0,1.4l3,0l0,0.7l-3,0l0,3.4c0,1,0.3,1.2,1.2,1.2c0.9,0,1.1,-0.2,1.1,-1.2l0,-0.2l0.9,0l0,0.1c0,1.8,-0.5,2.2,-2.2,2.2c-1.4,0,-1.9,-0.6,-1.9,-2.2l0,-3.3l-0.7,0Z" class="g2_1" />
<path d="M213.9,162.5c0,-1.2,-0.6,-1.8,-1.9,-1.8c-1.3,0,-1.5,0.4,-1.5,1.8l0,1c0,1.4,0.2,1.8,1.5,1.8c1.3,0,1.9,-0.5,1.9,-1.8Zm-1.9,3.7c-1.8,0,-2.4,-0.7,-2.4,-2.5l0,-1.4c0,-1.7,0.6,-2.4,2.4,-2.4c1,0,1.5,0.2,1.9,0.9l0,-3.4l0.9,0l0,8.7l-0.9,0l0,-1c-0.3,0.8,-0.9,1.1,-1.9,1.1Z" class="g2_1" />
<path d="M188.6,22.3c0,0,-12.9,25,-26.1,34.5C169,64.2,174.7,74,193,77.1c-4.4,3.3,-7.6,4.8,-10.8,8.3c-5.4,-5,-17,-18.2,-20,-20.3C159.2,63,156,59.8,150.1,58.7c7.4,-4.8,26.7,-19.8,38.5,-36.4Z" class="g2_1" />
<path d="M194.3,20c4.7,10.7,18.2,27.6,32.5,31.6c-9.7,0.6,-14.6,0.8,-20.7,-5.9C200,38.9,195.3,31.4,193.7,28.3c-3.6,4.4,-7.4,8.1,-10.2,12C189.6,28.1,194.3,20,194.3,20Z" class="g2_1" />
<path d="M193.1,28.9c4,9.8,11.5,27.6,26.3,28.6c-6.3,7,-20.1,17.9,-26.4,19.6C179.5,73.8,175.2,71.9,166.7,59.5C172.5,53.8,186,37.6,193.1,28.9Z" class="g1_1" />
<path d="M229.3,53.7c-8.6,4.3,-30.6,22,-43.6,35.2c2.6,3.4,5.4,6,5.3,9.6C195.7,91.6,223.6,58,229.3,53.7Z" class="g2_1" />
<path d="M229.3,53.7c-8.6,4.3,-30.6,22,-43.6,35.2c2.6,3.4,5.4,6,5.3,9.6C195.7,91.6,223.6,58,229.3,53.7Z" class="g3_1" />
<path d="M181.6,60.2c0,1.8,-1.5,3.3,-3.3,3.3c-1.9,0,-3.4,-1.5,-3.4,-3.3c0,-1.9,1.5,-3.4,3.4,-3.4c1.8,0,3.3,1.5,3.3,3.4Z" class="g2_1" />
<path d="M203.7,50c0,1,-0.8,1.9,-1.8,1.9C200.8,51.9,200,51,200,50c0,-1,0.8,-1.9,1.9,-1.9c1,0,1.8,0.9,1.8,1.9Z" class="g4_1" />
<path d="M181.8,66.8c0,1.2,-1,2.2,-2.3,2.2c-1.2,0,-2.2,-1,-2.2,-2.2c0,-1.3,1,-2.3,2.2,-2.3c1.3,0,2.3,1,2.3,2.3Z" class="g5_1" />
<path d="M193.1,58.9c0,0.7,-0.6,1.3,-1.4,1.3c-0.7,0,-1.3,-0.6,-1.3,-1.3c0,-0.8,0.6,-1.4,1.3,-1.4c0.8,0,1.4,0.6,1.4,1.4Z" class="g5_1" />
<path d="M189.8,65.7c0,1.6,-1.3,2.8,-2.8,2.8c-1.6,0,-2.9,-1.2,-2.9,-2.8c0,-1.5,1.3,-2.8,2.9,-2.8c1.5,0,2.8,1.3,2.8,2.8Z" class="g6_1" />
<path d="M196.6,53.4c0,1.7,-1.4,3.1,-3.1,3.1c-1.7,0,-3,-1.4,-3,-3.1c0,-1.6,1.3,-3,3,-3c1.7,0,3.1,1.4,3.1,3Z" class="g5_1" />
<path d="M188.7,59.3c0,1.5,-1.2,2.8,-2.8,2.8c-1.6,0,-2.8,-1.3,-2.8,-2.8c0,-1.6,1.2,-2.9,2.8,-2.9c1.6,0,2.8,1.3,2.8,2.9Z" class="g7_1" />
<path d="M201,54.9c0,0.9,-0.8,1.7,-1.7,1.7c-0.9,0,-1.6,-0.8,-1.6,-1.7c0,-0.9,0.7,-1.6,1.6,-1.6c0.9,0,1.7,0.7,1.7,1.6Z" class="g6_1" />
<path d="M197.8,71.2c0,2.6,-2.1,4.7,-4.7,4.7c-2.5,0,-4.6,-2.1,-4.6,-4.7c0,-2.5,2.1,-4.6,4.6,-4.6c2.6,0,4.7,2.1,4.7,4.6Z" class="g5_1" />
<path d="M199.1,43.9c0,2.5,-2.1,4.6,-4.7,4.6c-2.5,0,-4.6,-2.1,-4.6,-4.6c0,-2.6,2.1,-4.7,4.6,-4.7c2.6,0,4.7,2.1,4.7,4.7Z" class="g5_1" />
<g clip-path="url(#c1_1)">
<path d="M464.6,-10.9c94.1,-6.4,366.2,31.6,541.2,77.8c-5.2,41.3,-15.1,77,4,106.8C935.7,139.7,534.6,-2.9,464.6,-10.9Z" class="g8_1" />
<path d="M-12.9,1299.4l0,-248.7c0,0,296.1,52.1,510.2,225l37.7,34.2Z" class="g2_1" />
<path d="M-23,1242.9c55.9,-3.8,245.3,21.7,349.5,49.2c-3.1,24.6,-9,45.8,2.3,63.5C284.8,1335.4,18.6,1247.7,-23,1242.9Z" class="g9_1" />
<path d="M418.8,1419.2C412.9,1361.2,401.3,1254.7,324,1226c44.7,-27.1,134.9,-63,170.9,-62.1c66.7,38.8,86.3,55.4,111.9,134.4c-39.5,21.4,-136.6,86.4,-188,120.9Z" class="g1_1" />
</g>
<path d="M600.9,100.4l285.7,0l0,52l-285.7,0l0,-52Zm0,52l285.7,0l0,52l-285.7,0l0,-52Z" class="g5_1" />
<path d="M600.5,100.4l286.5,0" class="g10_1" />
<path d="M600.9,152l0,-51.2" class="g10_1" />
<path d="M886.6,152l0,-51.2" class="g10_1" />
<path d="M600.5,152.4l286.5,0" class="g10_1" />
<path d="M600.9,204l0,-51.2" class="g10_1" />
<path d="M886.6,204l0,-51.2" class="g10_1" />
<path d="M600.5,204.4l286.5,0" class="g10_1" />
<g clip-path="url(#c1_1)">
<path d="M55.2,-12.9l0,1312.1" class="g11_1" />
</g>
<path d="M80.8,234.2l403.1,0" class="g10_1" />
<path d="M81.2,264.2l0,-29.6" class="g10_1" />
<path d="M483.9,234.2l403.1,0" class="g10_1" />
<path d="M483.9,264.2l0,-29.6" class="g10_1" />
<path d="M886.6,264.2l0,-29.6" class="g10_1" />
<path d="M80.8,264.6l403.1,0" class="g10_1" />
<path d="M81.2,333.5l0,-68.6" class="g10_1" />
<path d="M483.9,264.6l403.1,0" class="g10_1" />
<path d="M483.9,333.5l0,-68.6" class="g10_1" />
<path d="M886.6,333.5l0,-68.6" class="g10_1" />
<path d="M80.8,333.8l403.1,0" class="g10_1" />
<path d="M81.2,363.8l0,-29.6" class="g10_1" />
<path d="M483.9,333.8l403.1,0" class="g10_1" />
<path d="M483.9,363.8l0,-29.6" class="g10_1" />
<path d="M886.6,363.8l0,-29.6" class="g10_1" />
<path d="M80.8,364.2l403.1,0" class="g10_1" />
<path d="M81.2,394.1l0,-29.6" class="g10_1" />
<path d="M483.9,364.2l403.1,0" class="g10_1" />
<path d="M483.9,394.1l0,-29.6" class="g10_1" />
<path d="M886.6,394.1l0,-29.6" class="g10_1" />
<path d="M80.8,394.5l403.1,0" class="g10_1" />
<path d="M483.9,394.5l403.1,0" class="g10_1" />
<path d="M81.2,421.6l402.7,0l0,89.1l-402.7,0l0,-89.1Z" class="g12_1" />
<path d="M80.8,421.6l403.1,0" class="g10_1" />
<path d="M81.2,443.5l0,-21.5" class="g10_1" />
<path d="M81.2,473.8l0,-30.3" class="g10_1" />
<path d="M81.2,510.3l0,-36.5" class="g10_1" />
<path d="M80.8,510.7l403.1,0" class="g10_1" />
<path d="M483.9,421.6l403.1,0" class="g10_1" />
<path d="M483.9,443.1l0,-21.1" class="g10_1" />
<path d="M886.6,443.1l0,-21.1" class="g10_1" />
<path d="M483.6,443.5l403.4,0" class="g10_1" />
<path d="M483.9,473.4l0,-29.5" class="g10_1" />
<path d="M886.6,473.4l0,-29.5" class="g10_1" />
<path d="M483.6,473.8l403.4,0" class="g10_1" />
<path d="M483.9,510.3l0,-36.1" class="g10_1" />
<path d="M886.6,510.3l0,-36.1" class="g10_1" />
<path d="M483.9,510.7l403.1,0" class="g10_1" />
<path d="M81.2,634.7l806.2,0l0,-94.3l-806.2,0l0,94.3Z" class="g13_1" />
<path d="M80.8,663l137.7,0" class="g10_1" />
<path d="M81.2,688.6l0,-25.2" class="g10_1" />
<path d="M218.4,663l669.4,0" class="g10_1" />
<path d="M218.4,688.6l0,-25.2" class="g10_1" />
<path d="M887.4,688.6l0,-25.2" class="g10_1" />
<path d="M80.8,689l137.7,0" class="g10_1" />
<path d="M81.2,710.3l0,-20.9" class="g10_1" />
<path d="M218.4,689l669.4,0" class="g10_1" />
<path d="M218.4,710.3l0,-20.9" class="g10_1" />
<path d="M887.4,710.3l0,-20.9" class="g10_1" />
<path d="M80.8,710.7l137.7,0" class="g10_1" />
<path d="M81.2,731.9l0,-20.8" class="g10_1" />
<path d="M218.4,710.7l669.4,0" class="g10_1" />
<path d="M218.4,731.9l0,-20.8" class="g10_1" />
<path d="M887.4,731.9l0,-20.8" class="g10_1" />
<path d="M80.8,732.3l137.7,0" class="g10_1" />
<path d="M81.2,753.6l0,-20.9" class="g10_1" />
<path d="M218.4,732.3l669.4,0" class="g10_1" />
<path d="M218.4,753.6l0,-20.9" class="g10_1" />
<path d="M887.4,753.6l0,-20.9" class="g10_1" />
<path d="M80.8,754l137.7,0" class="g10_1" />
<path d="M218.4,754l669.4,0" class="g10_1" />
<path d="M80.8,794.2l47.2,0" class="g10_1" />
<path d="M81.2,818.7l0,-24.1" class="g10_1" />
<path d="M128,794.2l46.8,0" class="g10_1" />
<path d="M128,818.7l0,-24.1" class="g10_1" />
<path d="M174.8,794.2l46.7,0" class="g10_1" />
<path d="M174.8,818.7l0,-24.1" class="g10_1" />
<path d="M221.5,794.2l46.8,0" class="g10_1" />
<path d="M221.5,818.7l0,-24.1" class="g10_1" />
<path d="M268.3,794.2l47.2,0" class="g10_1" />
<path d="M268.3,818.7l0,-24.1" class="g10_1" />
<path d="M315.1,818.7l0,-24.1" class="g10_1" />
<path d="M80.8,819.1l47.2,0" class="g10_1" />
<path d="M81.2,849.1l0,-29.6" class="g10_1" />
<path d="M128,819.1l46.8,0" class="g10_1" />
<path d="M128,849.1l0,-29.6" class="g10_1" />
<path d="M174.8,819.1l46.7,0" class="g10_1" />
<path d="M174.8,849.1l0,-29.6" class="g10_1" />
<path d="M221.5,819.1l46.8,0" class="g10_1" />
<path d="M221.5,849.1l0,-29.6" class="g10_1" />
<path d="M268.3,819.1l47.2,0" class="g10_1" />
<path d="M268.3,849.1l0,-29.6" class="g10_1" />
<path d="M315.1,849.1l0,-29.6" class="g10_1" />
<path d="M80.8,849.4l47.2,0" class="g10_1" />
<path d="M81.2,879.4l0,-29.6" class="g10_1" />
<path d="M128,849.4l46.8,0" class="g10_1" />
<path d="M128,879.4l0,-29.6" class="g10_1" />
<path d="M174.8,849.4l46.7,0" class="g10_1" />
<path d="M174.8,879.4l0,-29.6" class="g10_1" />
<path d="M221.5,849.4l46.8,0" class="g10_1" />
<path d="M221.5,879.4l0,-29.6" class="g10_1" />
<path d="M268.3,849.4l47.2,0" class="g10_1" />
<path d="M268.3,879.4l0,-29.6" class="g10_1" />
<path d="M315.1,879.4l0,-29.6" class="g10_1" />
<path d="M80.8,879.8l47.2,0" class="g10_1" />
<path d="M81.2,909.7l0,-29.6" class="g10_1" />
<path d="M128,879.8l46.8,0" class="g10_1" />
<path d="M128,909.7l0,-29.6" class="g10_1" />
<path d="M174.8,879.8l46.7,0" class="g10_1" />
<path d="M174.8,909.7l0,-29.6" class="g10_1" />
<path d="M221.5,879.8l46.8,0" class="g10_1" />
<path d="M221.5,909.7l0,-29.6" class="g10_1" />
<path d="M268.3,879.8l47.2,0" class="g10_1" />
<path d="M268.3,909.7l0,-29.6" class="g10_1" />
<path d="M315.1,909.7l0,-29.6" class="g10_1" />
<path d="M80.8,910.1l47.2,0" class="g10_1" />
<path d="M81.2,940l0,-29.5" class="g10_1" />
<path d="M128,910.1l46.8,0" class="g10_1" />
<path d="M128,940l0,-29.5" class="g10_1" />
<path d="M174.8,910.1l46.7,0" class="g10_1" />
<path d="M174.8,940l0,-29.5" class="g10_1" />
<path d="M221.5,910.1l46.8,0" class="g10_1" />
<path d="M221.5,940l0,-29.5" class="g10_1" />
<path d="M268.3,910.1l47.2,0" class="g10_1" />
<path d="M268.3,940l0,-29.5" class="g10_1" />
<path d="M315.1,940l0,-29.5" class="g10_1" />
<path d="M80.8,940.4l47.2,0" class="g10_1" />
<path d="M81.2,970.3l0,-29.5" class="g10_1" />
<path d="M128,940.4l46.8,0" class="g10_1" />
<path d="M128,970.3l0,-29.5" class="g10_1" />
<path d="M174.8,940.4l46.7,0" class="g10_1" />
<path d="M174.8,970.3l0,-29.5" class="g10_1" />
<path d="M221.5,940.4l46.8,0" class="g10_1" />
<path d="M221.5,970.3l0,-29.5" class="g10_1" />
<path d="M268.3,940.4l47.2,0" class="g10_1" />
<path d="M268.3,970.3l0,-29.5" class="g10_1" />
<path d="M315.1,970.3l0,-29.5" class="g10_1" />
<path d="M80.8,970.7l47.2,0" class="g10_1" />
<path d="M128,970.7l46.8,0" class="g10_1" />
<path d="M174.8,970.7l46.7,0" class="g10_1" />
<path d="M221.5,970.7l46.8,0" class="g10_1" />
<path d="M268.3,970.7l47.2,0" class="g10_1" />
<path d="M330.6,890.4l149.6,0l0,25.6l-149.6,0l0,-25.6Zm149.6,0l278.1,0l0,25.6l-278.1,0l0,-25.6Zm278.1,0l129.6,0l0,25.6l-129.6,0l0,-25.6Zm-86.5,153.3l86.5,0l0,25.6l-86.5,0l0,-25.6Zm86.5,0l129.6,0l0,25.6l-129.6,0l0,-25.6Z" class="g14_1" />
<path d="M671.8,1069.3l86.5,0l0,26l-86.5,0l0,-26Zm86.5,0l129.6,0l0,26l-129.6,0l0,-26Z" class="g15_1" />
<path d="M330.2,890.4l150,0" class="g10_1" />
<path d="M330.6,915.6l0,-24.8" class="g10_1" />
<path d="M480.2,890.4l191.6,0" class="g10_1" />
<path d="M480.2,915.6l0,-24.8" class="g10_1" />
<path d="M671.8,890.4l86.5,0" class="g10_1" />
<path d="M758.3,890.4l130,0" class="g10_1" />
<path d="M758.3,915.6l0,-24.8" class="g10_1" />
<path d="M888,915.6l0,-24.8" class="g10_1" />
<path d="M330.2,916l150,0" class="g10_1" />
<path d="M330.6,941.1l0,-24.7" class="g10_1" />
<path d="M480.2,916l191.6,0" class="g10_1" />
<path d="M480.2,941.1l0,-24.7" class="g10_1" />
<path d="M671.8,916l86.5,0" class="g10_1" />
<path d="M758.3,916l130,0" class="g10_1" />
<path d="M758.3,941.1l0,-24.7" class="g10_1" />
<path d="M888,941.1l0,-24.7" class="g10_1" />
<path d="M330.2,941.5l150,0" class="g10_1" />
<path d="M330.6,966.7l0,-24.8" class="g10_1" />
<path d="M480.2,941.5l191.6,0" class="g10_1" />
<path d="M480.2,966.7l0,-24.8" class="g10_1" />
<path d="M671.8,941.5l86.5,0" class="g10_1" />
<path d="M758.3,941.5l130,0" class="g10_1" />
<path d="M758.3,966.7l0,-24.8" class="g10_1" />
<path d="M888,966.7l0,-24.8" class="g10_1" />
<path d="M330.2,967.1l150,0" class="g10_1" />
<path d="M330.6,992.3l0,-24.8" class="g10_1" />
<path d="M480.2,967.1l191.6,0" class="g10_1" />
<path d="M480.2,992.3l0,-24.8" class="g10_1" />
<path d="M671.8,967.1l86.5,0" class="g10_1" />
<path d="M758.3,967.1l130,0" class="g10_1" />
<path d="M758.3,992.3l0,-24.8" class="g10_1" />
<path d="M888,992.3l0,-24.8" class="g10_1" />
<path d="M330.2,992.6l150,0" class="g10_1" />
<path d="M330.6,1017.8l0,-24.8" class="g10_1" />
<path d="M480.2,992.6l191.6,0" class="g10_1" />
<path d="M480.2,1017.8l0,-24.8" class="g10_1" />
<path d="M671.8,992.6l86.5,0" class="g10_1" />
<path d="M758.3,992.6l130,0" class="g10_1" />
<path d="M758.3,1017.8l0,-24.8" class="g10_1" />
<path d="M888,1017.8L888,993" class="g10_1" />
<path d="M330.2,1018.2l150,0" class="g10_1" />
<path d="M330.6,1043l0,-24.4" class="g10_1" />
<path d="M480.2,1018.2l191.6,0" class="g10_1" />
<path d="M480.2,1043l0,-24.4" class="g10_1" />
<path d="M671.8,1018.2l86.5,0" class="g10_1" />
<path d="M758.3,1018.2l130,0" class="g10_1" />
<path d="M758.3,1043l0,-24.4" class="g10_1" />
<path d="M888,1043.7l0,-25.1" class="g10_1" />
<path d="M671.8,1069.3l0,-24.8" class="g10_1" />
<path d="M758.3,1068.5l0,-24" class="g10_1" />
<path d="M888,1069.3l0,-25.6" class="g10_1" />
<path d="M671.8,1094.5l0,-25.2" class="g10_1" />
<path d="M758.3,1094.5l0,-24.5" class="g10_1" />
<path d="M888,1094.5l0,-25.2" class="g10_1" />
<path d="M330.2,1043.7l150,0" class="g16_1" />
<path d="M480.2,1043.7l191.6,0" class="g16_1" />
<path d="M671.8,1043.7l86.5,0" class="g16_1" />
<path d="M758.3,1043.7l129.3,0" class="g16_1" />
<path d="M672.2,1069.3l86.1,0" class="g16_1" />
<path d="M758.3,1069.3l129.3,0" class="g16_1" />
<path d="M671.4,1095.3l86.9,0" class="g16_1" />
<path d="M758.3,1095.3l130,0" class="g16_1" />
<path d="M331.7,794.4l306.6,0l0,32.7l-306.6,0l0,-32.7Zm0,32.7l306.6,0l0,35.7l-306.6,0l0,-35.7Z" class="g17_1" />
<path d="M331.3,794.4l307,0" class="g10_1" />
<path d="M331.7,826.7l0,-31.9" class="g10_1" />
<path d="M638.3,794.4l248.7,0" class="g10_1" />
<path d="M638.3,826.7l0,-31.9" class="g10_1" />
<path d="M886.6,826.7l0,-31.9" class="g10_1" />
<path d="M331.3,827.1l307,0" class="g10_1" />
<path d="M331.7,862.4l0,-34.9" class="g10_1" />
<path d="M638.3,827.1l248.7,0" class="g10_1" />
<path d="M638.3,862.4l0,-34.9" class="g10_1" />
<path d="M886.6,862.4l0,-34.9" class="g10_1" />
<path d="M331.3,862.8l307,0" class="g10_1" />
<path d="M638.3,862.8l248.7,0" class="g10_1" />
<path d="M238.7,1096.8l14,0l0,-14l-14,0l0,14Z" class="g18_1" />
<path d="M292.9,1096.8l13.9,0l0,-14l-13.9,0l0,14Z" class="g18_1" />
<path d="M396.2,1096.8l14,0l0,-14l-14,0l0,14Z" class="g18_1" />
<path d="M477,1096.8l13.9,0l0,-14l-13.9,0l0,14Z" class="g18_1" />
<path d="M504.1,1139.1l13.9,0l0,-14l-13.9,0l0,14Z" class="g18_1" />
<path d="M518.4,1139.1l14,0l0,-14l-14,0l0,14Z" class="g18_1" />
<path d="M532.8,1139.1l14,0l0,-14l-14,0l0,14Z" class="g18_1" />
<path d="M547.2,1139.1l13.9,0l0,-14l-13.9,0l0,14Z" class="g18_1" />
<path d="M561.5,1139.1l14,0l0,-14l-14,0l0,14Z" class="g18_1" />
<path d="M575.9,1139.1l13.9,0l0,-14l-13.9,0l0,14Z" class="g18_1" />
<path d="M590.2,1139.1l14,0l0,-14l-14,0l0,14Z" class="g18_1" />
<path d="M604.6,1139.1l14,0l0,-14l-14,0l0,14Z" class="g18_1" />
<path d="M619,1139.1l13.9,0l0,-14l-13.9,0l0,14Z" class="g18_1" />
<path d="M633.3,1139.1l14,0l0,-14l-14,0l0,14Z" class="g18_1" />
<path d="M647.7,1139.1l14,0l0,-14l-14,0l0,14Z" class="g18_1" />
<path d="M662,1139.1l14,0l0,-14l-14,0l0,14Z" class="g18_1" />
<path d="M676.4,1139.1l14,0l0,-14l-14,0l0,14Z" class="g18_1" />
<path d="M690.8,1139.1l13.9,0l0,-14l-13.9,0l0,14Z" class="g18_1" />
<path d="M705.1,1139.1l14,0l0,-14l-14,0l0,14Z" class="g18_1" />
<path d="M719.5,1139.1l14,0l0,-14l-14,0l0,14Z" class="g18_1" />
<path d="M796.8,1139.1l14,0l0,-14l-14,0l0,14Z" class="g18_1" />
<path d="M811.2,1139.1l13.9,0l0,-14l-13.9,0l0,14Z" class="g18_1" />
<path d="M825.5,1139.1l14,0l0,-14l-14,0l0,14Z" class="g18_1" />
<path d="M839.9,1139.1l14,0l0,-14l-14,0l0,14Z" class="g18_1" />
<path d="M762.5,1165l14,0l0,-13.9l-14,0l0,13.9Z" class="g18_1" />
<path d="M776.9,1165l14,0l0,-13.9l-14,0l0,13.9Z" class="g18_1" />
<path d="M791.3,1165l13.9,0l0,-13.9l-13.9,0l0,13.9Z" class="g18_1" />
<path d="M725.1,760.3l94.8,0l0,26.8l-94.8,0l0,-26.8Z" class="g14_1" />
<path d="M724.7,760.3l95.2,0" class="g10_1" />
<path d="M725.1,786.7l0,-26" class="g10_1" />
<path d="M819.9,760.3l67.9,0" class="g10_1" />
<path d="M819.9,786.7l0,-26" class="g10_1" />
<path d="M887.4,786.7l0,-26" class="g10_1" />
<path d="M724.7,787.1l95.2,0" class="g10_1" />
<path d="M819.9,787.1l67.9,0" class="g10_1" />
</svg>