<?xml version="1.0" encoding="UTF-8" standalone="no"?>
<!DOCTYPE svg PUBLIC "-//W3C//DTD SVG 1.1//EN"
"http://www.w3.org/Graphics/SVG/1.1/DTD/svg11.dtd">
<svg viewBox="0 0 1286 909" version="1.1" xmlns="http://www.w3.org/2000/svg" xmlns:xlink="http://www.w3.org/1999/xlink">
<defs>
<style type="text/css"><![CDATA[
.g1_1{
fill: #C0C0C0;
}
.g2_1{
fill: #FF9A00;
}
.g3_1{
fill: #FFFF9A;
}
.g4_1{
fill: #0000FF;
}
.g5_1{
}
]]></style>
</defs>
<path d="M1127.5,196.7l0,149.1l72.8,0l0,-149.1l-72.8,0Z" class="g1_1" />
<path d="M106.1,345.6l0,37.4l984.7,0l0,-37.4l-984.7,0Z" class="g1_1" />
<path d="M1200.1,580.8l0,26l37,0l0,-26l-37,0Z" class="g2_1" />
<path d="M283.6,606.6l0,26.1l623.5,0l0,-26.1l-623.5,0Z" class="g1_1" />
<path d="M1200.1,606.6l0,26.1l37,0l0,-26.1l-37,0Z" class="g2_1" />
<path d="M906.9,632.5l0,26l73.4,0l0,-26l-73.4,0Z" class="g3_1" />
<path d="M1200.1,632.5l0,26l37,0l0,-26l-37,0Z" class="g2_1" />
<path d="M906.9,658.4l0,26l73.4,0l0,-26l-73.4,0Z" class="g3_1" />
<path d="M1200.1,658.4l0,26l37,0l0,-26l-37,0Z" class="g2_1" />
<path d="M906.9,684.2l0,26l73.4,0l0,-26l-73.4,0Z" class="g3_1" />
<path d="M1200.1,684.2l0,26l37,0l0,-26l-37,0Z" class="g2_1" />
<path d="M1200.1,710.1l0,26l37,0l0,-26l-37,0Z" class="g2_1" />
<path d="M1200.1,735.9l0,26l37,0l0,-26l-37,0Z" class="g2_1" />
<path d="M1200.1,761.8l0,26l37,0l0,-26l-37,0Z" class="g2_1" />
<path d="M966.9,512.4l0,0.9l211.2,0l0,-0.9l-211.2,0Z" class="g4_1" />
<path d="M106.1,104.7l0,0.7l266.4,0l0,-0.7l-266.4,0Z" class="g5_1" />
<path d="M45.3,132.4l0,1.4l1046.1,0l0,-1.4l-1046.1,0Z" class="g5_1" />
<path d="M45.3,158.8l0,1.4l1046.1,0l0,-1.4l-1046.1,0Z" class="g5_1" />
<path d="M45.3,196l0,1.5l1046.1,0l0,-1.5L45.3,196Z" class="g5_1" />
<path d="M45.3,233.6l0,0.7l60.1,0l0,-0.7l-60.1,0Z" class="g5_1" />
<path d="M106.9,233.2l0,1.5l984.5,0l0,-1.5l-984.5,0Z" class="g5_1" />
<path d="M45.3,270.8l0,0.7l60.1,0l0,-0.7l-60.1,0Z" class="g5_1" />
<path d="M106.9,270.4l0,1.5l984.5,0l0,-1.5l-984.5,0Z" class="g5_1" />
<path d="M45.3,308l0,0.7l60.1,0l0,-0.7l-60.1,0Z" class="g5_1" />
<path d="M106.9,307.6l0,1.5l984.5,0l0,-1.5l-984.5,0Z" class="g5_1" />
<path d="M45.3,344.9l0,1.4l1046.1,0l0,-1.4l-1046.1,0Z" class="g5_1" />
<path d="M45.3,382.1l0,1.4l1046.1,0l0,-1.4l-1046.1,0Z" class="g5_1" />
<path d="M44.5,476.3l0,0.7l416.8,0l0,-0.7l-416.8,0Z" class="g5_1" />
<path d="M44.5,532.9l0,0.8l416.8,0l0,-0.8l-416.8,0Z" class="g5_1" />
<path d="M43.8,132.4l0,251.1l1.5,0l0,-251.1l-1.5,0Z" class="g5_1" />
<path d="M105.4,133.8l0,249.7l1.5,0l0,-249.7l-1.5,0Z" class="g5_1" />
<path d="M45.3,580.1l0,1.4l150.3,0l0,-1.4l-150.3,0Z" class="g5_1" />
<path d="M282.9,133.8l0,249.7l1.4,0l0,-249.7l-1.4,0Z" class="g5_1" />
<path d="M460.3,133.8l0,249.7l1.5,0l0,-249.7l-1.5,0Z" class="g5_1" />
<path d="M638.9,133.8l0,249.7l1.5,0l0,-249.7l-1.5,0Z" class="g5_1" />
<path d="M816.4,133.8l0,249.7l1.4,0l0,-249.7l-1.4,0Z" class="g5_1" />
<path d="M979.4,133.8l0,249.7l1.4,0l0,-249.7l-1.4,0Z" class="g5_1" />
<path d="M284.3,580.1l0,1.4l696.5,0l0,-1.4l-696.5,0Z" class="g5_1" />
<path d="M1199.4,133.8l0,249.7l1.4,0l0,-249.7l-1.4,0Z" class="g5_1" />
<path d="M105.8,581.5l0,24.4l0.7,0l0,-24.4l-0.7,0Z" class="g5_1" />
<path d="M45.3,605.9l0,1.5l150.3,0l0,-1.5l-150.3,0Z" class="g5_1" />
<path d="M460.7,581.5l0,24.4l0.7,0l0,-24.4l-0.7,0Z" class="g5_1" />
<path d="M549.4,581.5l0,24.4l0.8,0l0,-24.4l-0.8,0Z" class="g5_1" />
<path d="M639.3,581.5l0,24.4l0.7,0l0,-24.4l-0.7,0Z" class="g5_1" />
<path d="M729.1,581.5l0,24.4l0.7,0l0,-24.4l-0.7,0Z" class="g5_1" />
<path d="M816.7,581.5l0,24.4l0.8,0l0,-24.4l-0.8,0Z" class="g5_1" />
<path d="M284.3,605.9l0,1.5l696.5,0l0,-1.5l-696.5,0Z" class="g5_1" />
<path d="M45.3,632.1l0,0.8l148.8,0l0,-0.8l-148.8,0Z" class="g5_1" />
<path d="M284.3,632.1l0,0.8l87.3,0l0,-0.8l-87.3,0Z" class="g5_1" />
<path d="M373.1,632.1l0,0.8l533.1,0l0,-0.8l-533.1,0Z" class="g5_1" />
<path d="M907.7,632.1l0,0.8l71.7,0l0,-0.8l-71.7,0Z" class="g5_1" />
<path d="M45.3,658l0,0.7l148.8,0l0,-0.7L45.3,658Z" class="g5_1" />
<path d="M284.3,658l0,0.7l87.3,0l0,-0.7l-87.3,0Z" class="g5_1" />
<path d="M373.1,658l0,0.7l533.1,0l0,-0.7l-533.1,0Z" class="g5_1" />
<path d="M907.7,658l0,0.7l71.7,0l0,-0.7l-71.7,0Z" class="g5_1" />
<path d="M45.3,683.8l0,0.8l148.8,0l0,-0.8l-148.8,0Z" class="g5_1" />
<path d="M284.3,683.8l0,0.8l87.3,0l0,-0.8l-87.3,0Z" class="g5_1" />
<path d="M373.1,683.8l0,0.8l533.1,0l0,-0.8l-533.1,0Z" class="g5_1" />
<path d="M907.7,683.8l0,0.8l71.7,0l0,-0.8l-71.7,0Z" class="g5_1" />
<path d="M45.3,709.7l0,0.7l148.8,0l0,-0.7l-148.8,0Z" class="g5_1" />
<path d="M284.3,709.3l0,1.5l696.5,0l0,-1.5l-696.5,0Z" class="g5_1" />
<path d="M45.3,735.5l0,0.8l148.8,0l0,-0.8l-148.8,0Z" class="g5_1" />
<path d="M45.3,761.4l0,0.7l148.8,0l0,-0.7l-148.8,0Z" class="g5_1" />
<path d="M45.3,786.9l0,1.4l150.3,0l0,-1.4l-150.3,0Z" class="g5_1" />
<path d="M43.8,580.1l0,208.2l1.5,0l0,-208.2l-1.5,0Z" class="g5_1" />
<path d="M105.8,607.4l0,179.5l0.7,0l0,-179.5l-0.7,0Z" class="g5_1" />
<path d="M282.9,580.1l0,130.7l1.4,0l0,-130.7l-1.4,0Z" class="g5_1" />
<path d="M460.7,607.4l0,101.9l0.7,0l0,-101.9l-0.7,0Z" class="g5_1" />
<path d="M639.3,607.4l0,101.9l0.7,0l0,-101.9l-0.7,0Z" class="g5_1" />
<path d="M816.7,607.4l0,101.9l0.8,0l0,-101.9l-0.8,0Z" class="g5_1" />
<path d="M979.4,581.5l0,129.3l1.4,0l0,-129.3l-1.4,0Z" class="g5_1" />
<path d="M1089.9,133.8l0,249.7l1.5,0l0,-249.7l-1.5,0Z" class="g5_1" />
<path d="M1126.7,132.4l0,251.1l1.5,0l0,-251.1l-1.5,0Z" class="g5_1" />
<path d="M1199.4,581.5l0,206.8l1.4,0l0,-206.8l-1.4,0Z" class="g5_1" />
<path d="M194.1,581.5l0,206.8l1.5,0l0,-206.8l-1.5,0Z" class="g5_1" />
<path d="M371.6,581.5l0,129.3l1.5,0l0,-129.3l-1.5,0Z" class="g5_1" />
<path d="M549.4,607.4l0,101.9l0.8,0l0,-101.9l-0.8,0Z" class="g5_1" />
<path d="M729.1,607.4l0,101.9l0.7,0l0,-101.9l-0.7,0Z" class="g5_1" />
<path d="M906.2,581.5l0,129.3l1.5,0l0,-129.3l-1.5,0Z" class="g5_1" />
<path d="M1016.1,580.1l0,234.9l1.7,0l0,-234.9l-1.7,0Z" class="g5_1" />
<path d="M1236.1,581.5l0,233.5l1.7,0l0,-233.5l-1.7,0Z" class="g5_1" />
<path d="M461.1,104.7l0,0.7l268.6,0l0,-0.7l-268.6,0Z" class="g5_1" />
<path d="M1128.2,132.4l0,1.4l72.6,0l0,-1.4l-72.6,0Z" class="g5_1" />
<path d="M1128.2,158.8l0,1.4l72.6,0l0,-1.4l-72.6,0Z" class="g5_1" />
<path d="M1128.2,196l0,1.5l72.6,0l0,-1.5l-72.6,0Z" class="g5_1" />
<path d="M1128.2,233.6l0,0.7l71.2,0l0,-0.7l-71.2,0Z" class="g5_1" />
<path d="M1128.2,270.8l0,0.7l71.2,0l0,-0.7l-71.2,0Z" class="g5_1" />
<path d="M1128.2,308l0,0.7l71.2,0l0,-0.7l-71.2,0Z" class="g5_1" />
<path d="M1128.2,344.9l0,1.4l72.6,0l0,-1.4l-72.6,0Z" class="g5_1" />
<path d="M1128.2,382.1l0,1.4l72.6,0l0,-1.4l-72.6,0Z" class="g5_1" />
<path d="M549.8,476.3l0,0.7l179.9,0l0,-0.7l-179.9,0Z" class="g5_1" />
<path d="M549.8,532.9l0,0.8l179.9,0l0,-0.8l-179.9,0Z" class="g5_1" />
<path d="M44.5,570.4l0,1.4l1192.6,0l0,-1.4l-1192.6,0Z" class="g5_1" />
<path d="M1017.7,580.1l0,1.4l220,0l0,-1.4l-220,0Z" class="g5_1" />
<path d="M1017.7,605.9l0,1.5l220,0l0,-1.5l-220,0Z" class="g5_1" />
<path d="M1017.7,631.8l0,1.4l220,0l0,-1.4l-220,0Z" class="g5_1" />
<path d="M1017.7,657.6l0,1.5l220,0l0,-1.5l-220,0Z" class="g5_1" />
<path d="M1017.7,683.5l0,1.4l220,0l0,-1.4l-220,0Z" class="g5_1" />
<path d="M1017.7,709.3l0,1.5l220,0l0,-1.5l-220,0Z" class="g5_1" />
<path d="M1017.7,735.2l0,1.4l220,0l0,-1.4l-220,0Z" class="g5_1" />
<path d="M1017.7,761l0,1.5l220,0l0,-1.5l-220,0Z" class="g5_1" />
<path d="M1017.7,786.9l0,1.4l220,0l0,-1.4l-220,0Z" class="g5_1" />
<image preserveAspectRatio="none" x="750" y="418" width="193" height="116" xlink:href="img/1.png" />
<path d="M1200.1,788.7l0,26.1l37,0l0,-26.1l-37,0Z" class="g2_1" />
<path d="M1199.4,608.5l0,206.8l1.4,0l0,-206.8l-1.4,0Z" class="g5_1" />
<path d="M1017.7,813.9l0,1.4l220,0l0,-1.4l-220,0Z" class="g5_1" />
</svg>