<?xml version="1.0" encoding="UTF-8" standalone="no"?>
<!DOCTYPE svg PUBLIC "-//W3C//DTD SVG 1.1//EN"
"http://www.w3.org/Graphics/SVG/1.1/DTD/svg11.dtd">
<svg viewBox="0 0 1286 909" version="1.1" xmlns="http://www.w3.org/2000/svg" xmlns:xlink="http://www.w3.org/1999/xlink">
<defs>
<style type="text/css"><![CDATA[
.g1_1{
}
]]></style>
</defs>
<image preserveAspectRatio="none" x="184" y="22" width="918" height="562" xlink:href="img/1.png" />
<path d="M22.6,61.1l0,156.1l4.4,0L27,61.1l-4.4,0Z" class="g1_1" />
<path d="M787.1,127.3l0,63.7l3,0l0,-63.7l-3,0Z" class="g1_1" />
<path d="M1091.1,127.3l0,63.7l2.9,0l0,-63.7l-2.9,0Z" class="g1_1" />
<path d="M1257.7,65.5l0,151.7l4.4,0l0,-151.7l-4.4,0Z" class="g1_1" />
<path d="M26.3,259.9l0,1.4l374.3,0l0,-1.4l-374.3,0Z" class="g1_1" />
<path d="M403.5,259.9l0,1.4l72.5,0l0,-1.4l-72.5,0Z" class="g1_1" />
<path d="M478.9,259.9l0,1.4l308.2,0l0,-1.4l-308.2,0Z" class="g1_1" />
<path d="M790.1,259.9l0,1.4l118.4,0l0,-1.4l-118.4,0Z" class="g1_1" />
<path d="M999.8,259.9l0,1.4l91.3,0l0,-1.4l-91.3,0Z" class="g1_1" />
<path d="M1094,259.9l0,1.4l89,0l0,-1.4l-89,0Z" class="g1_1" />
<path d="M26.3,282.3l0,1.5l374.3,0l0,-1.5l-374.3,0Z" class="g1_1" />
<path d="M403.5,282.3l0,1.5l72.5,0l0,-1.5l-72.5,0Z" class="g1_1" />
<path d="M478.9,282.3l0,1.5l308.2,0l0,-1.5l-308.2,0Z" class="g1_1" />
<path d="M790.1,282.3l0,1.5l118.4,0l0,-1.5l-118.4,0Z" class="g1_1" />
<path d="M911.4,282.3l0,1.5l85.5,0l0,-1.5l-85.5,0Z" class="g1_1" />
<path d="M999.8,282.3l0,1.5l91.3,0l0,-1.5l-91.3,0Z" class="g1_1" />
<path d="M1094,282.3l0,1.5l89,0l0,-1.5l-89,0Z" class="g1_1" />
<path d="M26.3,304.8l0,1.5l374.3,0l0,-1.5l-374.3,0Z" class="g1_1" />
<path d="M403.5,304.8l0,1.5l72.5,0l0,-1.5l-72.5,0Z" class="g1_1" />
<path d="M478.9,304.8l0,1.5l308.2,0l0,-1.5l-308.2,0Z" class="g1_1" />
<path d="M790.1,304.8l0,1.5l118.4,0l0,-1.5l-118.4,0Z" class="g1_1" />
<path d="M911.4,304.8l0,1.5l85.5,0l0,-1.5l-85.5,0Z" class="g1_1" />
<path d="M999.8,304.8l0,1.5l91.3,0l0,-1.5l-91.3,0Z" class="g1_1" />
<path d="M1094,304.8l0,1.5l89,0l0,-1.5l-89,0Z" class="g1_1" />
<path d="M26.3,327.2l0,1.5l374.3,0l0,-1.5l-374.3,0Z" class="g1_1" />
<path d="M403.5,327.2l0,1.5l72.5,0l0,-1.5l-72.5,0Z" class="g1_1" />
<path d="M478.9,327.2l0,1.5l308.2,0l0,-1.5l-308.2,0Z" class="g1_1" />
<path d="M790.1,327.2l0,1.5l118.4,0l0,-1.5l-118.4,0Z" class="g1_1" />
<path d="M911.4,327.2l0,1.5l85.5,0l0,-1.5l-85.5,0Z" class="g1_1" />
<path d="M999.8,327.2l0,1.5l91.3,0l0,-1.5l-91.3,0Z" class="g1_1" />
<path d="M1094,327.2l0,1.5l89,0l0,-1.5l-89,0Z" class="g1_1" />
<path d="M26.3,349.7l0,1.5l374.3,0l0,-1.5l-374.3,0Z" class="g1_1" />
<path d="M403.5,349.7l0,1.5l72.5,0l0,-1.5l-72.5,0Z" class="g1_1" />
<path d="M478.9,349.7l0,1.5l308.2,0l0,-1.5l-308.2,0Z" class="g1_1" />
<path d="M790.1,349.7l0,1.5l118.4,0l0,-1.5l-118.4,0Z" class="g1_1" />
<path d="M911.4,349.7l0,1.5l85.5,0l0,-1.5l-85.5,0Z" class="g1_1" />
<path d="M999.8,349.7l0,1.5l91.3,0l0,-1.5l-91.3,0Z" class="g1_1" />
<path d="M1094,349.7l0,1.5l89,0l0,-1.5l-89,0Z" class="g1_1" />
<path d="M26.3,372.2l0,1.4l374.3,0l0,-1.4l-374.3,0Z" class="g1_1" />
<path d="M403.5,372.2l0,1.4l72.5,0l0,-1.4l-72.5,0Z" class="g1_1" />
<path d="M478.9,372.2l0,1.4l308.2,0l0,-1.4l-308.2,0Z" class="g1_1" />
<path d="M790.1,372.2l0,1.4l118.4,0l0,-1.4l-118.4,0Z" class="g1_1" />
<path d="M911.4,372.2l0,1.4l85.5,0l0,-1.4l-85.5,0Z" class="g1_1" />
<path d="M999.8,372.2l0,1.4l91.3,0l0,-1.4l-91.3,0Z" class="g1_1" />
<path d="M1094,372.2l0,1.4l89,0l0,-1.4l-89,0Z" class="g1_1" />
<path d="M26.3,394.6l0,1.5l374.3,0l0,-1.5l-374.3,0Z" class="g1_1" />
<path d="M403.5,394.6l0,1.5l72.5,0l0,-1.5l-72.5,0Z" class="g1_1" />
<path d="M478.9,394.6l0,1.5l308.2,0l0,-1.5l-308.2,0Z" class="g1_1" />
<path d="M790.1,394.6l0,1.5l118.4,0l0,-1.5l-118.4,0Z" class="g1_1" />
<path d="M911.4,394.6l0,1.5l85.5,0l0,-1.5l-85.5,0Z" class="g1_1" />
<path d="M999.8,394.6l0,1.5l91.3,0l0,-1.5l-91.3,0Z" class="g1_1" />
<path d="M1094,394.6l0,1.5l89,0l0,-1.5l-89,0Z" class="g1_1" />
<path d="M26.3,417.1l0,1.4l374.3,0l0,-1.4l-374.3,0Z" class="g1_1" />
<path d="M403.5,417.1l0,1.4l72.5,0l0,-1.4l-72.5,0Z" class="g1_1" />
<path d="M478.9,417.1l0,1.4l308.2,0l0,-1.4l-308.2,0Z" class="g1_1" />
<path d="M790.1,417.1l0,1.4l118.4,0l0,-1.4l-118.4,0Z" class="g1_1" />
<path d="M911.4,417.1l0,1.4l85.5,0l0,-1.4l-85.5,0Z" class="g1_1" />
<path d="M999.8,417.1l0,1.4l91.3,0l0,-1.4l-91.3,0Z" class="g1_1" />
<path d="M1094,417.1l0,1.4l89,0l0,-1.4l-89,0Z" class="g1_1" />
<path d="M26.3,439.5l0,1.5l374.3,0l0,-1.5l-374.3,0Z" class="g1_1" />
<path d="M403.5,439.5l0,1.5l72.5,0l0,-1.5l-72.5,0Z" class="g1_1" />
<path d="M478.9,439.5l0,1.5l308.2,0l0,-1.5l-308.2,0Z" class="g1_1" />
<path d="M790.1,439.5l0,1.5l118.4,0l0,-1.5l-118.4,0Z" class="g1_1" />
<path d="M911.4,439.5l0,1.5l85.5,0l0,-1.5l-85.5,0Z" class="g1_1" />
<path d="M999.8,439.5l0,1.5l91.3,0l0,-1.5l-91.3,0Z" class="g1_1" />
<path d="M1094,439.5l0,1.5l89,0l0,-1.5l-89,0Z" class="g1_1" />
<path d="M26.3,462l0,1.5l374.3,0l0,-1.5L26.3,462Z" class="g1_1" />
<path d="M403.5,462l0,1.5l72.5,0l0,-1.5l-72.5,0Z" class="g1_1" />
<path d="M478.9,462l0,1.5l308.2,0l0,-1.5l-308.2,0Z" class="g1_1" />
<path d="M790.1,462l0,1.5l118.4,0l0,-1.5l-118.4,0Z" class="g1_1" />
<path d="M911.4,462l0,1.5l85.5,0l0,-1.5l-85.5,0Z" class="g1_1" />
<path d="M999.8,462l0,1.5l91.3,0l0,-1.5l-91.3,0Z" class="g1_1" />
<path d="M1094,462l0,1.5l89,0l0,-1.5l-89,0Z" class="g1_1" />
<path d="M26.3,484.5l0,1.4l374.3,0l0,-1.4l-374.3,0Z" class="g1_1" />
<path d="M403.5,484.5l0,1.4l72.5,0l0,-1.4l-72.5,0Z" class="g1_1" />
<path d="M478.9,484.5l0,1.4l308.2,0l0,-1.4l-308.2,0Z" class="g1_1" />
<path d="M790.1,484.5l0,1.4l118.4,0l0,-1.4l-118.4,0Z" class="g1_1" />
<path d="M911.4,484.5l0,1.4l85.5,0l0,-1.4l-85.5,0Z" class="g1_1" />
<path d="M999.8,484.5l0,1.4l91.3,0l0,-1.4l-91.3,0Z" class="g1_1" />
<path d="M1094,484.5l0,1.4l89,0l0,-1.4l-89,0Z" class="g1_1" />
<path d="M26.3,506.9l0,1.5l374.3,0l0,-1.5l-374.3,0Z" class="g1_1" />
<path d="M403.5,506.9l0,1.5l72.5,0l0,-1.5l-72.5,0Z" class="g1_1" />
<path d="M478.9,506.9l0,1.5l308.2,0l0,-1.5l-308.2,0Z" class="g1_1" />
<path d="M790.1,506.9l0,1.5l118.4,0l0,-1.5l-118.4,0Z" class="g1_1" />
<path d="M911.4,506.9l0,1.5l85.5,0l0,-1.5l-85.5,0Z" class="g1_1" />
<path d="M999.8,506.9l0,1.5l91.3,0l0,-1.5l-91.3,0Z" class="g1_1" />
<path d="M1094,506.9l0,1.5l89,0l0,-1.5l-89,0Z" class="g1_1" />
<path d="M23.4,217.2l0,311.4l2.9,0l0,-311.4l-2.9,0Z" class="g1_1" />
<path d="M1258.5,217.2l0,311.4l2.9,0l0,-311.4l-2.9,0Z" class="g1_1" />
<path d="M27,776.4l0,1.5l373.6,0l0,-1.5L27,776.4Z" class="g1_1" />
<path d="M400.6,217.2l0,314.4l2.9,0l0,-314.4l-2.9,0Z" class="g1_1" />
<path d="M403.5,776.4l0,1.5l351.8,0l0,-1.5l-351.8,0Z" class="g1_1" />
<path d="M758.3,776.4l0,1.5l238.6,0l0,-1.5l-238.6,0Z" class="g1_1" />
<path d="M996.9,217.2l0,314.4l2.9,0l0,-314.4l-2.9,0Z" class="g1_1" />
<path d="M27,798.9l0,1.4l373.6,0l0,-1.4L27,798.9Z" class="g1_1" />
<path d="M403.5,798.9l0,1.4l351.8,0l0,-1.4l-351.8,0Z" class="g1_1" />
<path d="M758.3,798.9l0,1.4l238.6,0l0,-1.4l-238.6,0Z" class="g1_1" />
<path d="M27,821.3l0,1.5l373.6,0l0,-1.5L27,821.3Z" class="g1_1" />
<path d="M403.5,821.3l0,1.5l351.8,0l0,-1.5l-351.8,0Z" class="g1_1" />
<path d="M758.3,821.3l0,1.5l238.6,0l0,-1.5l-238.6,0Z" class="g1_1" />
<path d="M22.6,528.6l0,318.1l4.4,0L27,528.6l-4.4,0Z" class="g1_1" />
<path d="M1257.7,528.6l0,318.1l4.4,0l0,-318.1l-4.4,0Z" class="g1_1" />
<path d="M325.1,127.3l0,63.7l3,0l0,-63.7l-3,0Z" class="g1_1" />
<path d="M626.9,127.3l0,63.7l2.9,0l0,-63.7l-2.9,0Z" class="g1_1" />
<path d="M787.1,217.2l0,314.4l3,0l0,-314.4l-3,0Z" class="g1_1" />
<path d="M1091.1,217.2l0,314.4l2.9,0l0,-314.4l-2.9,0Z" class="g1_1" />
<path d="M400.6,756.9l0,85.4l2.9,0l0,-85.4l-2.9,0Z" class="g1_1" />
<path d="M476,217.2l0,314.4l2.9,0l0,-314.4l-2.9,0Z" class="g1_1" />
<path d="M908.5,217.2l0,314.4l2.9,0l0,-314.4l-2.9,0Z" class="g1_1" />
<path d="M996.9,756.9l0,85.4l2.9,0l0,-85.4l-2.9,0Z" class="g1_1" />
<path d="M1183,217.2l0,314.4l3,0l0,-314.4l-3,0Z" class="g1_1" />
<path d="M755.3,756.9l0,85.4l3,0l0,-85.4l-3,0Z" class="g1_1" />
<path d="M27,61.1l0,4.4l1235.1,0l0,-4.4L27,61.1Z" class="g1_1" />
<path d="M27,101.2l0,4.4l1235.1,0l0,-4.4L27,101.2Z" class="g1_1" />
<path d="M27,124.4l0,2.9l1230.7,0l0,-2.9L27,124.4Z" class="g1_1" />
<path d="M1094,146.9l0,2.9l163.7,0l0,-2.9l-163.7,0Z" class="g1_1" />
<path d="M27,191l0,4.4l1235.1,0l0,-4.4L27,191Z" class="g1_1" />
<path d="M27,214.2l0,3l1230.7,0l0,-3L27,214.2Z" class="g1_1" />
<path d="M26.3,236.7l0,2.9l1235.1,0l0,-2.9l-1235.1,0Z" class="g1_1" />
<path d="M1186,259.9l0,1.4l72.5,0l0,-1.4l-72.5,0Z" class="g1_1" />
<path d="M1186,282.3l0,1.5l72.5,0l0,-1.5l-72.5,0Z" class="g1_1" />
<path d="M1186,304.8l0,1.5l72.5,0l0,-1.5l-72.5,0Z" class="g1_1" />
<path d="M1186,327.2l0,1.5l72.5,0l0,-1.5l-72.5,0Z" class="g1_1" />
<path d="M1186,349.7l0,1.5l72.5,0l0,-1.5l-72.5,0Z" class="g1_1" />
<path d="M1186,372.2l0,1.4l72.5,0l0,-1.4l-72.5,0Z" class="g1_1" />
<path d="M1186,394.6l0,1.5l72.5,0l0,-1.5l-72.5,0Z" class="g1_1" />
<path d="M1186,417.1l0,1.4l72.5,0l0,-1.4l-72.5,0Z" class="g1_1" />
<path d="M1186,439.5l0,1.5l72.5,0l0,-1.5l-72.5,0Z" class="g1_1" />
<path d="M1186,462l0,1.5l72.5,0l0,-1.5l-72.5,0Z" class="g1_1" />
<path d="M1186,484.5l0,1.4l72.5,0l0,-1.4l-72.5,0Z" class="g1_1" />
<path d="M1186,506.9l0,1.5l72.5,0l0,-1.5l-72.5,0Z" class="g1_1" />
<path d="M27,528.6l0,3l1230.7,0l0,-3L27,528.6Z" class="g1_1" />
<path d="M27,551.1l0,2.9l1230.7,0l0,-2.9L27,551.1Z" class="g1_1" />
<path d="M27,574.3l0,1.5l1230.7,0l0,-1.5L27,574.3Z" class="g1_1" />
<path d="M27,596.8l0,1.4l1230.7,0l0,-1.4L27,596.8Z" class="g1_1" />
<path d="M27,619.2l0,1.5l1230.7,0l0,-1.5L27,619.2Z" class="g1_1" />
<path d="M27,641.7l0,1.4l1230.7,0l0,-1.4L27,641.7Z" class="g1_1" />
<path d="M27,664.1l0,1.5l1230.7,0l0,-1.5L27,664.1Z" class="g1_1" />
<path d="M27,686.6l0,1.4l1230.7,0l0,-1.4L27,686.6Z" class="g1_1" />
<path d="M27,709l0,1.5l1230.7,0l0,-1.5L27,709Z" class="g1_1" />
<path d="M27,730l0,4.4l1235.1,0l0,-4.4L27,730Z" class="g1_1" />
<path d="M27,752.5l0,4.4l1235.1,0l0,-4.4L27,752.5Z" class="g1_1" />
<path d="M999.8,776.4l0,1.5l257.9,0l0,-1.5l-257.9,0Z" class="g1_1" />
<path d="M999.8,798.9l0,1.4l257.9,0l0,-1.4l-257.9,0Z" class="g1_1" />
<path d="M999.8,821.3l0,1.5l257.9,0l0,-1.5l-257.9,0Z" class="g1_1" />
<path d="M27,842.3l0,4.4l1235.1,0l0,-4.4L27,842.3Z" class="g1_1" />
</svg>