<?xml version="1.0" encoding="UTF-8" standalone="no"?>
<!DOCTYPE svg PUBLIC "-//W3C//DTD SVG 1.1//EN"
"http://www.w3.org/Graphics/SVG/1.1/DTD/svg11.dtd">
<svg viewBox="0 0 909 1286" version="1.1" xmlns="http://www.w3.org/2000/svg" xmlns:xlink="http://www.w3.org/1999/xlink">
<defs>
<style type="text/css"><![CDATA[
.g1_1{
}
.g2_1{
fill: #FF9A00;
}
.g3_1{
fill: #FFFFFF;
}
]]></style>
</defs>
<path d="M108.3,84.5l400.7,0l0,-0.7l-400.7,0l0,0.7Z" class="g1_1" />
<path d="M108.3,112.4l400.7,0l0,-0.7l-400.7,0l0,0.7Z" class="g1_1" />
<path d="M108.3,140.3l725.6,0l0,-0.7l-725.6,0l0,0.7Z" class="g1_1" />
<image preserveAspectRatio="none" x="632" y="11" width="178" height="119" xlink:href="img/1.png" />
<path d="M108.7,209.6l432.3,0l0,-25.9l-432.3,0l0,25.9Z" class="g2_1" />
<path d="M116.6,209.6l416.5,0l0,-23.2l-416.5,0l0,23.2Z" class="g2_1" />
<path d="M542.5,183.7l290.9,0l0,25.9l-290.9,0Z" class="g2_1" />
<path d="M549.6,209.6l276,0l0,-23.2l-276,0l0,23.2Z" class="g2_1" />
<path d="M108,183.7l436.8,0l0,-2.3l-436.8,0l0,2.3Z" class="g1_1" />
<path d="M544.8,181.4l288.7,0l0,2.3l-288.7,0Z" class="g1_1" />
<path d="M833.5,183.7l2.3,0l0,-2.3l-2.3,0l0,2.3Z" class="g1_1" />
<path d="M108,209.6l0.7,0l0,-25.9l-0.7,0l0,25.9Z" class="g1_1" />
<path d="M540.2,209.6l2.3,0l0,-25.9l-2.3,0l0,25.9Z" class="g1_1" />
<path d="M833.5,209.6l0.8,0l0,-25.9l-0.8,0l0,25.9Z" class="g1_1" />
<path d="M108,211.9l434.5,0l0,-2.3l-434.5,0l0,2.3Z" class="g1_1" />
<path d="M542.5,209.6l291,0l0,2.3l-291,0Z" class="g1_1" />
<path d="M833.5,211.9l0.8,0l0,-2.3l-0.8,0l0,2.3Z" class="g1_1" />
<path d="M108,237.9l0.7,0l0,-26l-0.7,0l0,26Z" class="g1_1" />
<path d="M540.2,237.9l2.3,0l0,-26l-2.3,0l0,26Z" class="g1_1" />
<path d="M833.5,237.9l0.8,0l0,-26l-0.8,0l0,26Z" class="g1_1" />
<path d="M108,238.6l434.5,0l0,-0.7l-434.5,0l0,0.7Z" class="g1_1" />
<path d="M542.5,237.9l291,0l0,0.7l-291,0Z" class="g1_1" />
<path d="M833.5,238.6l0.8,0l0,-0.7l-0.8,0l0,0.7Z" class="g1_1" />
<path d="M108,264.6l0.7,0l0,-26l-0.7,0l0,26Z" class="g1_1" />
<path d="M540.2,264.6l2.3,0l0,-26l-2.3,0l0,26Z" class="g1_1" />
<path d="M833.5,264.6l0.8,0l0,-26l-0.8,0l0,26Z" class="g1_1" />
<path d="M108,265.4l434.5,0l0,-0.8l-434.5,0l0,0.8Z" class="g1_1" />
<path d="M542.5,264.6l291,0l0,0.8l-291,0Z" class="g1_1" />
<path d="M833.5,265.4l0.8,0l0,-0.8l-0.8,0l0,0.8Z" class="g1_1" />
<path d="M108,291.4l0.7,0l0,-26l-0.7,0l0,26Z" class="g1_1" />
<path d="M540.2,291.4l2.3,0l0,-26l-2.3,0l0,26Z" class="g1_1" />
<path d="M833.5,291.4l0.8,0l0,-26l-0.8,0l0,26Z" class="g1_1" />
<path d="M542.5,293.7l290.9,0l0,25.9l-290.9,0Z" class="g2_1" />
<path d="M549.6,319.6l276,0l0,-23.2l-276,0l0,23.2Z" class="g2_1" />
<path d="M108,293.7l0.7,0l0,-2.3l-0.7,0l0,2.3Z" class="g1_1" />
<path d="M108.7,292.1l431.5,0l0,-0.7l-431.5,0l0,0.7Z" class="g1_1" />
<path d="M540.2,293.7l2.3,0l0,-2.3l-2.3,0l0,2.3Z" class="g1_1" />
<path d="M542.5,291.4l291,0l0,2.3l-291,0Z" class="g1_1" />
<path d="M833.5,293.7l0.8,0l0,-2.3l-0.8,0l0,2.3Z" class="g1_1" />
<path d="M108,319.6l0.7,0l0,-25.9l-0.7,0l0,25.9Z" class="g1_1" />
<path d="M540.2,319.6l2.3,0l0,-25.9l-2.3,0l0,25.9Z" class="g1_1" />
<path d="M833.5,319.6l0.8,0l0,-25.9l-0.8,0l0,25.9Z" class="g1_1" />
<path d="M108,321.9l0.7,0l0,-2.3l-0.7,0l0,2.3Z" class="g1_1" />
<path d="M108.7,320.4l431.5,0l0,-0.8l-431.5,0l0,0.8Z" class="g1_1" />
<path d="M540.2,321.9l2.3,0l0,-2.3l-2.3,0l0,2.3Z" class="g1_1" />
<path d="M542.5,319.6l291,0l0,2.3l-291,0Z" class="g1_1" />
<path d="M833.5,321.9l0.8,0l0,-2.3l-0.8,0l0,2.3Z" class="g1_1" />
<path d="M108,347.9l0.7,0l0,-26l-0.7,0l0,26Z" class="g1_1" />
<path d="M540.2,347.9l2.3,0l0,-26l-2.3,0l0,26Z" class="g1_1" />
<path d="M833.5,347.9l0.8,0l0,-26l-0.8,0l0,26Z" class="g1_1" />
<path d="M108,348.6l434.5,0l0,-0.7l-434.5,0l0,0.7Z" class="g1_1" />
<path d="M542.5,347.9l291,0l0,0.7l-291,0Z" class="g1_1" />
<path d="M833.5,348.6l0.8,0l0,-0.7l-0.8,0l0,0.7Z" class="g1_1" />
<path d="M108,374.6l0.7,0l0,-26l-0.7,0l0,26Z" class="g1_1" />
<path d="M540.2,374.6l2.3,0l0,-26l-2.3,0l0,26Z" class="g1_1" />
<path d="M833.5,374.6l0.8,0l0,-26l-0.8,0l0,26Z" class="g1_1" />
<path d="M108,375.4l434.5,0l0,-0.8l-434.5,0l0,0.8Z" class="g1_1" />
<path d="M542.5,374.6l291,0l0,0.8l-291,0Z" class="g1_1" />
<path d="M833.5,375.4l0.8,0l0,-0.8l-0.8,0l0,0.8Z" class="g1_1" />
<path d="M108,401.4l0.7,0l0,-26l-0.7,0l0,26Z" class="g1_1" />
<path d="M540.2,401.4l2.3,0l0,-26l-2.3,0l0,26Z" class="g1_1" />
<path d="M833.5,401.4l0.8,0l0,-26l-0.8,0l0,26Z" class="g1_1" />
<path d="M542.5,403.7l290.9,0l0,25.9l-290.9,0Z" class="g2_1" />
<path d="M549.6,429.6l276,0l0,-23.2l-276,0l0,23.2Z" class="g2_1" />
<path d="M108,403.7l0.7,0l0,-2.3l-0.7,0l0,2.3Z" class="g1_1" />
<path d="M108.7,402.1l431.5,0l0,-0.7l-431.5,0l0,0.7Z" class="g1_1" />
<path d="M540.2,403.7l2.3,0l0,-2.3l-2.3,0l0,2.3Z" class="g1_1" />
<path d="M542.5,401.4l291,0l0,2.3l-291,0Z" class="g1_1" />
<path d="M833.5,403.7l0.8,0l0,-2.3l-0.8,0l0,2.3Z" class="g1_1" />
<path d="M108,429.6l0.7,0l0,-25.9l-0.7,0l0,25.9Z" class="g1_1" />
<path d="M540.2,429.6l2.3,0l0,-25.9l-2.3,0l0,25.9Z" class="g1_1" />
<path d="M833.5,429.6l0.8,0l0,-25.9l-0.8,0l0,25.9Z" class="g1_1" />
<path d="M542.5,431.9l290.9,0l0,26l-290.9,0Z" class="g3_1" />
<path d="M549.6,457.9l276,0l0,-23.3l-276,0l0,23.3Z" class="g3_1" />
<path d="M108,431.9l0.7,0l0,-2.3l-0.7,0l0,2.3Z" class="g1_1" />
<path d="M108.7,430.4l431.5,0l0,-0.8l-431.5,0l0,0.8Z" class="g1_1" />
<path d="M540.2,431.9l2.3,0l0,-2.3l-2.3,0l0,2.3Z" class="g1_1" />
<path d="M542.5,429.6l291,0l0,2.3l-291,0Z" class="g1_1" />
<path d="M833.5,431.9l0.8,0l0,-2.3l-0.8,0l0,2.3Z" class="g1_1" />
<path d="M108,457.9l0.7,0l0,-26l-0.7,0l0,26Z" class="g1_1" />
<path d="M540.2,457.9l2.3,0l0,-26l-2.3,0l0,26Z" class="g1_1" />
<path d="M833.5,457.9l0.8,0l0,-26l-0.8,0l0,26Z" class="g1_1" />
<path d="M108,458.6l434.5,0l0,-0.7l-434.5,0l0,0.7Z" class="g1_1" />
<path d="M542.5,457.9l291,0l0,0.7l-291,0Z" class="g1_1" />
<path d="M833.5,458.6l0.8,0l0,-0.7l-0.8,0l0,0.7Z" class="g1_1" />
<path d="M108,484.6l0.7,0l0,-26l-0.7,0l0,26Z" class="g1_1" />
<path d="M540.2,484.6l2.3,0l0,-26l-2.3,0l0,26Z" class="g1_1" />
<path d="M833.5,484.6l0.8,0l0,-26l-0.8,0l0,26Z" class="g1_1" />
<path d="M108,485.4l434.5,0l0,-0.8l-434.5,0l0,0.8Z" class="g1_1" />
<path d="M542.5,484.6l291,0l0,0.8l-291,0Z" class="g1_1" />
<path d="M833.5,485.4l0.8,0l0,-0.8l-0.8,0l0,0.8Z" class="g1_1" />
<path d="M108,511.4l0.7,0l0,-26l-0.7,0l0,26Z" class="g1_1" />
<path d="M540.2,511.4l2.3,0l0,-26l-2.3,0l0,26Z" class="g1_1" />
<path d="M833.5,511.4l0.8,0l0,-26l-0.8,0l0,26Z" class="g1_1" />
<path d="M109.5,539.6l430.7,0l0,-25.9l-430.7,0l0,25.9Z" class="g2_1" />
<path d="M116.6,539.6l416.5,0l0,-23.2l-416.5,0l0,23.2Z" class="g2_1" />
<path d="M542.5,513.7l290.9,0l0,25.9l-290.9,0Z" class="g2_1" />
<path d="M549.6,539.6l276,0l0,-23.2l-276,0l0,23.2Z" class="g2_1" />
<path d="M107.2,513.7l2.3,0l0,-2.3l-2.3,0l0,2.3Z" class="g1_1" />
<path d="M107.2,513.7l435.3,0l0,-2.3l-435.3,0l0,2.3Z" class="g1_1" />
<path d="M542.5,511.4l291,0l0,2.3l-291,0Z" class="g1_1" />
<path d="M833.5,513.7l0.8,0l0,-2.3l-0.8,0l0,2.3Z" class="g1_1" />
<path d="M107.2,539.6l2.3,0l0,-25.9l-2.3,0l0,25.9Z" class="g1_1" />
<path d="M540.2,539.6l2.3,0l0,-25.9l-2.3,0l0,25.9Z" class="g1_1" />
<path d="M833.5,539.6l0.8,0l0,-25.9l-0.8,0l0,25.9Z" class="g1_1" />
<path d="M107.2,541.9l2.3,0l0,-2.3l-2.3,0l0,2.3Z" class="g1_1" />
<path d="M107.2,541.9l435.3,0l0,-2.3l-435.3,0l0,2.3Z" class="g1_1" />
<path d="M542.5,539.6l291,0l0,2.3l-291,0Z" class="g1_1" />
<path d="M833.5,541.9l0.8,0l0,-2.3l-0.8,0l0,2.3Z" class="g1_1" />
<path d="M108,567.9l0.7,0l0,-26l-0.7,0l0,26Z" class="g1_1" />
<path d="M540.2,567.9l2.3,0l0,-26l-2.3,0l0,26Z" class="g1_1" />
<path d="M833.5,567.9l0.8,0l0,-26l-0.8,0l0,26Z" class="g1_1" />
<path d="M108,568.6l434.5,0l0,-0.7l-434.5,0l0,0.7Z" class="g1_1" />
<path d="M542.5,567.9l291,0l0,0.7l-291,0Z" class="g1_1" />
<path d="M833.5,568.6l0.8,0l0,-0.7l-0.8,0l0,0.7Z" class="g1_1" />
<path d="M108,594.6l0.7,0l0,-26l-0.7,0l0,26Z" class="g1_1" />
<path d="M540.2,594.6l2.3,0l0,-26l-2.3,0l0,26Z" class="g1_1" />
<path d="M833.5,594.6l0.8,0l0,-26l-0.8,0l0,26Z" class="g1_1" />
<path d="M108,595.4l434.5,0l0,-0.8l-434.5,0l0,0.8Z" class="g1_1" />
<path d="M542.5,594.6l291,0l0,0.8l-291,0Z" class="g1_1" />
<path d="M833.5,595.4l0.8,0l0,-0.8l-0.8,0l0,0.8Z" class="g1_1" />
<path d="M108,621.4l0.7,0l0,-26l-0.7,0l0,26Z" class="g1_1" />
<path d="M540.2,621.4l2.3,0l0,-26l-2.3,0l0,26Z" class="g1_1" />
<path d="M833.5,621.4l0.8,0l0,-26l-0.8,0l0,26Z" class="g1_1" />
<path d="M542.5,623.7l290.9,0l0,25.9l-290.9,0Z" class="g2_1" />
<path d="M549.6,649.6l276,0l0,-23.2l-276,0l0,23.2Z" class="g2_1" />
<path d="M108,623.7l0.7,0l0,-2.3l-0.7,0l0,2.3Z" class="g1_1" />
<path d="M108.7,622.1l431.5,0l0,-0.7l-431.5,0l0,0.7Z" class="g1_1" />
<path d="M540.2,623.7l2.3,0l0,-2.3l-2.3,0l0,2.3Z" class="g1_1" />
<path d="M542.5,621.4l291,0l0,2.3l-291,0Z" class="g1_1" />
<path d="M833.5,623.7l0.8,0l0,-2.3l-0.8,0l0,2.3Z" class="g1_1" />
<path d="M108,649.6l0.7,0l0,-25.9l-0.7,0l0,25.9Z" class="g1_1" />
<path d="M540.2,649.6l2.3,0l0,-25.9l-2.3,0l0,25.9Z" class="g1_1" />
<path d="M833.5,649.6l0.8,0l0,-25.9l-0.8,0l0,25.9Z" class="g1_1" />
<path d="M108,651.9l0.7,0l0,-2.3l-0.7,0l0,2.3Z" class="g1_1" />
<path d="M108.7,650.4l431.5,0l0,-0.8l-431.5,0l0,0.8Z" class="g1_1" />
<path d="M540.2,651.9l2.3,0l0,-2.3l-2.3,0l0,2.3Z" class="g1_1" />
<path d="M542.5,649.6l291,0l0,2.3l-291,0Z" class="g1_1" />
<path d="M833.5,651.9l0.8,0l0,-2.3l-0.8,0l0,2.3Z" class="g1_1" />
<path d="M108,677.9l0.7,0l0,-26l-0.7,0l0,26Z" class="g1_1" />
<path d="M540.2,677.9l2.3,0l0,-26l-2.3,0l0,26Z" class="g1_1" />
<path d="M833.5,677.9l0.8,0l0,-26l-0.8,0l0,26Z" class="g1_1" />
<path d="M108,678.6l434.5,0l0,-0.7l-434.5,0l0,0.7Z" class="g1_1" />
<path d="M542.5,677.9l291,0l0,0.7l-291,0Z" class="g1_1" />
<path d="M833.5,678.6l0.8,0l0,-0.7l-0.8,0l0,0.7Z" class="g1_1" />
<path d="M108,704.6l0.7,0l0,-26l-0.7,0l0,26Z" class="g1_1" />
<path d="M540.2,704.6l2.3,0l0,-26l-2.3,0l0,26Z" class="g1_1" />
<path d="M833.5,704.6l0.8,0l0,-26l-0.8,0l0,26Z" class="g1_1" />
<path d="M108,705.4l434.5,0l0,-0.8l-434.5,0l0,0.8Z" class="g1_1" />
<path d="M542.5,704.6l291,0l0,0.8l-291,0Z" class="g1_1" />
<path d="M833.5,705.4l0.8,0l0,-0.8l-0.8,0l0,0.8Z" class="g1_1" />
<path d="M108,731.4l0.7,0l0,-26l-0.7,0l0,26Z" class="g1_1" />
<path d="M540.2,731.4l2.3,0l0,-26l-2.3,0l0,26Z" class="g1_1" />
<path d="M833.5,731.4l0.8,0l0,-26l-0.8,0l0,26Z" class="g1_1" />
<path d="M542.5,733.7l290.9,0l0,25.9l-290.9,0Z" class="g2_1" />
<path d="M549.6,759.6l276,0l0,-23.2l-276,0l0,23.2Z" class="g2_1" />
<path d="M108,733.7l0.7,0l0,-2.3l-0.7,0l0,2.3Z" class="g1_1" />
<path d="M108.7,732.1l431.5,0l0,-0.7l-431.5,0l0,0.7Z" class="g1_1" />
<path d="M540.2,733.7l2.3,0l0,-2.3l-2.3,0l0,2.3Z" class="g1_1" />
<path d="M542.5,731.4l291,0l0,2.3l-291,0Z" class="g1_1" />
<path d="M833.5,733.7l0.8,0l0,-2.3l-0.8,0l0,2.3Z" class="g1_1" />
<path d="M108,759.6l0.7,0l0,-25.9l-0.7,0l0,25.9Z" class="g1_1" />
<path d="M540.2,759.6l2.3,0l0,-25.9l-2.3,0l0,25.9Z" class="g1_1" />
<path d="M833.5,759.6l0.8,0l0,-25.9l-0.8,0l0,25.9Z" class="g1_1" />
<path d="M108,761.9l0.7,0l0,-2.3l-0.7,0l0,2.3Z" class="g1_1" />
<path d="M108.7,760.4l431.5,0l0,-0.8l-431.5,0l0,0.8Z" class="g1_1" />
<path d="M540.2,761.9l2.3,0l0,-2.3l-2.3,0l0,2.3Z" class="g1_1" />
<path d="M542.5,759.6l291,0l0,2.3l-291,0Z" class="g1_1" />
<path d="M833.5,761.9l0.8,0l0,-2.3l-0.8,0l0,2.3Z" class="g1_1" />
<path d="M108,787.9l0.7,0l0,-26l-0.7,0l0,26Z" class="g1_1" />
<path d="M540.2,787.9l2.3,0l0,-26l-2.3,0l0,26Z" class="g1_1" />
<path d="M833.5,787.9l0.8,0l0,-26l-0.8,0l0,26Z" class="g1_1" />
<path d="M108,788.6l434.5,0l0,-0.7l-434.5,0l0,0.7Z" class="g1_1" />
<path d="M542.5,787.9l291,0l0,0.7l-291,0Z" class="g1_1" />
<path d="M833.5,788.6l0.8,0l0,-0.7l-0.8,0l0,0.7Z" class="g1_1" />
<path d="M108,814.6l0.7,0l0,-26l-0.7,0l0,26Z" class="g1_1" />
<path d="M540.2,814.6l2.3,0l0,-26l-2.3,0l0,26Z" class="g1_1" />
<path d="M833.5,814.6l0.8,0l0,-26l-0.8,0l0,26Z" class="g1_1" />
<path d="M108,815.4l434.5,0l0,-0.8l-434.5,0l0,0.8Z" class="g1_1" />
<path d="M542.5,814.6l291,0l0,0.8l-291,0Z" class="g1_1" />
<path d="M833.5,815.4l0.8,0l0,-0.8l-0.8,0l0,0.8Z" class="g1_1" />
<path d="M108,841.4l0.7,0l0,-26l-0.7,0l0,26Z" class="g1_1" />
<path d="M540.2,841.4l2.3,0l0,-26l-2.3,0l0,26Z" class="g1_1" />
<path d="M833.5,841.4l0.8,0l0,-26l-0.8,0l0,26Z" class="g1_1" />
<path d="M109.5,869.6l430.7,0l0,-25.9l-430.7,0l0,25.9Z" class="g2_1" />
<path d="M116.6,869.6l416.5,0l0,-23.2l-416.5,0l0,23.2Z" class="g2_1" />
<path d="M542.5,843.7l290.9,0l0,25.9l-290.9,0Z" class="g2_1" />
<path d="M549.6,869.6l276,0l0,-23.2l-276,0l0,23.2Z" class="g2_1" />
<path d="M107.2,843.7l2.3,0l0,-2.3l-2.3,0l0,2.3Z" class="g1_1" />
<path d="M107.2,843.7l435.3,0l0,-2.3l-435.3,0l0,2.3Z" class="g1_1" />
<path d="M542.5,841.4l291,0l0,2.3l-291,0Z" class="g1_1" />
<path d="M833.5,843.7l0.8,0l0,-2.3l-0.8,0l0,2.3Z" class="g1_1" />
<path d="M107.2,869.6l2.3,0l0,-25.9l-2.3,0l0,25.9Z" class="g1_1" />
<path d="M540.2,869.6l2.3,0l0,-25.9l-2.3,0l0,25.9Z" class="g1_1" />
<path d="M833.5,869.6l0.8,0l0,-25.9l-0.8,0l0,25.9Z" class="g1_1" />
<path d="M107.2,871.9l2.3,0l0,-2.3l-2.3,0l0,2.3Z" class="g1_1" />
<path d="M107.2,871.9l435.3,0l0,-2.3l-435.3,0l0,2.3Z" class="g1_1" />
<path d="M542.5,869.6l291,0l0,2.3l-291,0Z" class="g1_1" />
<path d="M833.5,871.9l0.8,0l0,-2.3l-0.8,0l0,2.3Z" class="g1_1" />
<path d="M108,897.9l0.7,0l0,-26l-0.7,0l0,26Z" class="g1_1" />
<path d="M540.2,897.9l2.3,0l0,-26l-2.3,0l0,26Z" class="g1_1" />
<path d="M833.5,897.9l0.8,0l0,-26l-0.8,0l0,26Z" class="g1_1" />
<path d="M108,898.6l434.5,0l0,-0.7l-434.5,0l0,0.7Z" class="g1_1" />
<path d="M542.5,897.9l291,0l0,0.7l-291,0Z" class="g1_1" />
<path d="M833.5,898.6l0.8,0l0,-0.7l-0.8,0l0,0.7Z" class="g1_1" />
<path d="M108,924.6l0.7,0l0,-26l-0.7,0l0,26Z" class="g1_1" />
<path d="M540.2,924.6l2.3,0l0,-26l-2.3,0l0,26Z" class="g1_1" />
<path d="M833.5,924.6l0.8,0l0,-26l-0.8,0l0,26Z" class="g1_1" />
<path d="M108,925.4l434.5,0l0,-0.8l-434.5,0l0,0.8Z" class="g1_1" />
<path d="M542.5,924.6l291,0l0,0.8l-291,0Z" class="g1_1" />
<path d="M833.5,925.4l0.8,0l0,-0.8l-0.8,0l0,0.8Z" class="g1_1" />
<path d="M108,951.4l0.7,0l0,-26l-0.7,0l0,26Z" class="g1_1" />
<path d="M540.2,951.4l2.3,0l0,-26l-2.3,0l0,26Z" class="g1_1" />
<path d="M833.5,951.4l0.8,0l0,-26l-0.8,0l0,26Z" class="g1_1" />
<path d="M542.5,953.7l290.9,0l0,25.9l-290.9,0Z" class="g2_1" />
<path d="M549.6,979.6l276,0l0,-23.2l-276,0l0,23.2Z" class="g2_1" />
<path d="M108,953.7l0.7,0l0,-2.3l-0.7,0l0,2.3Z" class="g1_1" />
<path d="M108.7,952.1l431.5,0l0,-0.7l-431.5,0l0,0.7Z" class="g1_1" />
<path d="M540.2,953.7l2.3,0l0,-2.3l-2.3,0l0,2.3Z" class="g1_1" />
<path d="M542.5,951.4l291,0l0,2.3l-291,0Z" class="g1_1" />
<path d="M833.5,953.7l0.8,0l0,-2.3l-0.8,0l0,2.3Z" class="g1_1" />
<path d="M108,979.6l0.7,0l0,-25.9l-0.7,0l0,25.9Z" class="g1_1" />
<path d="M540.2,979.6l2.3,0l0,-25.9l-2.3,0l0,25.9Z" class="g1_1" />
<path d="M833.5,979.6l0.8,0l0,-25.9l-0.8,0l0,25.9Z" class="g1_1" />
<path d="M108,981.9l0.7,0l0,-2.3l-0.7,0l0,2.3Z" class="g1_1" />
<path d="M108.7,980.4l431.5,0l0,-0.8l-431.5,0l0,0.8Z" class="g1_1" />
<path d="M540.2,981.9l2.3,0l0,-2.3l-2.3,0l0,2.3Z" class="g1_1" />
<path d="M542.5,979.6l291,0l0,2.3l-291,0Z" class="g1_1" />
<path d="M833.5,981.9l0.8,0l0,-2.3l-0.8,0l0,2.3Z" class="g1_1" />
<path d="M108,1007.9l0.7,0l0,-26l-0.7,0l0,26Z" class="g1_1" />
<path d="M540.2,1007.9l2.3,0l0,-26l-2.3,0l0,26Z" class="g1_1" />
<path d="M833.5,1007.9l0.8,0l0,-26l-0.8,0l0,26Z" class="g1_1" />
<path d="M108,1008.6l434.5,0l0,-0.7l-434.5,0l0,0.7Z" class="g1_1" />
<path d="M542.5,1007.9l291,0l0,0.7l-291,0Z" class="g1_1" />
<path d="M833.5,1008.6l0.8,0l0,-0.7l-0.8,0l0,0.7Z" class="g1_1" />
<path d="M108,1034.6l0.7,0l0,-26l-0.7,0l0,26Z" class="g1_1" />
<path d="M540.2,1034.6l2.3,0l0,-26l-2.3,0l0,26Z" class="g1_1" />
<path d="M833.5,1034.6l0.8,0l0,-26l-0.8,0l0,26Z" class="g1_1" />
<path d="M108,1035.4l434.5,0l0,-0.8l-434.5,0l0,0.8Z" class="g1_1" />
<path d="M542.5,1034.6l291,0l0,0.8l-291,0Z" class="g1_1" />
<path d="M833.5,1035.4l0.8,0l0,-0.8l-0.8,0l0,0.8Z" class="g1_1" />
<path d="M108,1061.4l0.7,0l0,-26l-0.7,0l0,26Z" class="g1_1" />
<path d="M540.2,1061.4l2.3,0l0,-26l-2.3,0l0,26Z" class="g1_1" />
<path d="M833.5,1061.4l0.8,0l0,-26l-0.8,0l0,26Z" class="g1_1" />
<path d="M108,1063.7l436.8,0l0,-2.3l-436.8,0l0,2.3Z" class="g1_1" />
<path d="M544.8,1061.4l288.7,0l0,2.3l-288.7,0Z" class="g1_1" />
<path d="M833.5,1063.7l0.8,0l0,-2.3l-0.8,0l0,2.3Z" class="g1_1" />
<path d="M108,1134.4l0.7,0l0,-70.7l-0.7,0l0,70.7Z" class="g1_1" />
<path d="M108,1134.4l433.4,0l0,-0.8l-433.4,0l0,0.8Z" class="g1_1" />
<path d="M540.3,1134.4l0.7,0l0,-0.8l-0.7,0l0,0.8Z" class="g1_1" />
<path d="M541,1133.6l292.5,0l0,0.8l-292.5,0Z" class="g1_1" />
<path d="M833.5,1134.4l0.8,0l0,-70.7l-0.8,0l0,70.7Z" class="g1_1" />
<path d="M833.5,1134.4l0.8,0l0,-0.8l-0.8,0l0,0.8Z" class="g1_1" />
</svg>