<?xml version="1.0" encoding="UTF-8" standalone="no"?>
<!DOCTYPE svg PUBLIC "-//W3C//DTD SVG 1.1//EN"
"http://www.w3.org/Graphics/SVG/1.1/DTD/svg11.dtd">
<svg viewBox="0 0 909 1286" version="1.1" xmlns="http://www.w3.org/2000/svg" xmlns:xlink="http://www.w3.org/1999/xlink">
<defs>
<style type="text/css"><![CDATA[
.g1_1{
fill: #FF9A00;
}
.g2_1{
}
]]></style>
</defs>
<path d="M267.6,187.1l373.6,0l0,-89.7l-373.6,0l0,89.7Z" class="g1_1" />
<path d="M275.3,142.3l358.3,0l0,-44.9l-358.3,0l0,44.9Z" class="g1_1" />
<path d="M275.3,166.5l358.3,0l0,-24.2l-358.3,0l0,24.2Z" class="g1_1" />
<path d="M275.3,187.1l358.3,0l0,-20.6l-358.3,0l0,20.6Z" class="g1_1" />
<path d="M71.7,97.4l0.7,0l0,-0.7l-0.7,0l0,0.7Z" class="g2_1" />
<path d="M71.7,97.4l570.3,0l0,-0.7l-570.3,0l0,0.7Z" class="g2_1" />
<path d="M642,96.7l199.9,0l0,0.7L642,97.4Z" class="g2_1" />
<path d="M841.9,97.4l0.7,0l0,-0.7l-0.7,0l0,0.7Z" class="g2_1" />
<path d="M841.9,97.4l0.7,0l0,-0.7l-0.7,0l0,0.7Z" class="g2_1" />
<path d="M71.7,187.8l0.7,0l0,-90.4l-0.7,0l0,90.4Z" class="g2_1" />
<path d="M71.7,187.8l195.2,0l0,-0.7l-195.2,0l0,0.7Z" class="g2_1" />
<path d="M266.9,187.8l0.7,0l0,-90.4l-0.7,0l0,90.4Z" class="g2_1" />
<path d="M267.6,187.8l373.7,0l0,-0.7l-373.7,0l0,0.7Z" class="g2_1" />
<path d="M641.3,187.8l0.7,0l0,-90.4l-0.7,0l0,90.4Z" class="g2_1" />
<path d="M642,187.1l199.9,0l0,0.7l-199.9,0Z" class="g2_1" />
<path d="M841.9,187.8l0.7,0l0,-90.4l-0.7,0l0,90.4Z" class="g2_1" />
<path d="M841.9,187.8l0.7,0l0,-0.7l-0.7,0l0,0.7Z" class="g2_1" />
<path d="M72.1,240.4l770.1,0l0,-0.8l-770.1,0l0,0.8Z" class="g2_1" />
<path d="M72.1,261.8l770.1,0l0,-0.7l-770.1,0l0,0.7Z" class="g2_1" />
<path d="M72.1,283.2l770.1,0l0,-0.7l-770.1,0l0,0.7Z" class="g2_1" />
<path d="M72.4,325.3l769.4,0l0,-20.6l-769.4,0l0,20.6Z" class="g1_1" />
<path d="M80,325.3l754.3,0l0,-20.6L80,304.7l0,20.6Z" class="g1_1" />
<path d="M71.7,304.7l0.7,0l0,-0.7l-0.7,0l0,0.7Z" class="g2_1" />
<path d="M71.7,304.7l770.9,0l0,-0.7L71.7,304l0,0.7Z" class="g2_1" />
<path d="M71.7,325.3l0.7,0l0,-20.6l-0.7,0l0,20.6Z" class="g2_1" />
<path d="M841.9,325.3l0.7,0l0,-20.6l-0.7,0l0,20.6Z" class="g2_1" />
<path d="M71.7,326.1l770.9,0l0,-0.8l-770.9,0l0,0.8Z" class="g2_1" />
<path d="M71.7,350.4l0.7,0l0,-24.3l-0.7,0l0,24.3Z" class="g2_1" />
<path d="M841.9,350.4l0.7,0l0,-24.3l-0.7,0l0,24.3Z" class="g2_1" />
<path d="M71.7,351.1l770.9,0l0,-0.7l-770.9,0l0,0.7Z" class="g2_1" />
<path d="M71.7,375.2l0.7,0l0,-24.1l-0.7,0l0,24.1Z" class="g2_1" />
<path d="M841.9,375.2l0.7,0l0,-24.1l-0.7,0l0,24.1Z" class="g2_1" />
<path d="M71.7,375.9l770.9,0l0,-0.7l-770.9,0l0,0.7Z" class="g2_1" />
<path d="M71.7,400l0.7,0l0,-24.1l-0.7,0l0,24.1Z" class="g2_1" />
<path d="M841.9,400l0.7,0l0,-24.1l-0.7,0l0,24.1Z" class="g2_1" />
<path d="M71.7,400.8l770.9,0l0,-0.8L71.7,400l0,0.8Z" class="g2_1" />
<path d="M71.7,425l0.7,0l0,-24.2l-0.7,0l0,24.2Z" class="g2_1" />
<path d="M841.9,425l0.7,0l0,-24.2l-0.7,0l0,24.2Z" class="g2_1" />
<path d="M71.7,425.7l770.9,0l0,-0.7L71.7,425l0,0.7Z" class="g2_1" />
<path d="M71.7,449.9l0.7,0l0,-24.2l-0.7,0l0,24.2Z" class="g2_1" />
<path d="M841.9,449.9l0.7,0l0,-24.2l-0.7,0l0,24.2Z" class="g2_1" />
<path d="M71.7,450.6l770.9,0l0,-0.7l-770.9,0l0,0.7Z" class="g2_1" />
<path d="M71.7,474.7l0.7,0l0,-24.1l-0.7,0l0,24.1Z" class="g2_1" />
<path d="M841.9,474.7l0.7,0l0,-24.1l-0.7,0l0,24.1Z" class="g2_1" />
<path d="M71.7,475.5l770.9,0l0,-0.8l-770.9,0l0,0.8Z" class="g2_1" />
<path d="M71.7,499.7l0.7,0l0,-24.2l-0.7,0l0,24.2Z" class="g2_1" />
<path d="M841.9,499.7l0.7,0l0,-24.2l-0.7,0l0,24.2Z" class="g2_1" />
<path d="M71.7,500.4l770.9,0l0,-0.7l-770.9,0l0,0.7Z" class="g2_1" />
<path d="M71.7,524.5l0.7,0l0,-24.1l-0.7,0l0,24.1Z" class="g2_1" />
<path d="M841.9,524.5l0.7,0l0,-24.1l-0.7,0l0,24.1Z" class="g2_1" />
<path d="M71.7,525.2l770.9,0l0,-0.7l-770.9,0l0,0.7Z" class="g2_1" />
<path d="M71.7,546l0.7,0l0,-20.8l-0.7,0l0,20.8Z" class="g2_1" />
<path d="M841.9,546l0.7,0l0,-20.8l-0.7,0l0,20.8Z" class="g2_1" />
<path d="M71.7,546.7l770.9,0l0,-0.7L71.7,546l0,0.7Z" class="g2_1" />
<path d="M71.7,570.9l0.7,0l0,-24.2l-0.7,0l0,24.2Z" class="g2_1" />
<path d="M841.9,570.9l0.7,0l0,-24.2l-0.7,0l0,24.2Z" class="g2_1" />
<path d="M71.7,571.6l770.9,0l0,-0.7l-770.9,0l0,0.7Z" class="g2_1" />
<path d="M71.7,595.7l0.7,0l0,-24.1l-0.7,0l0,24.1Z" class="g2_1" />
<path d="M841.9,595.7l0.7,0l0,-24.1l-0.7,0l0,24.1Z" class="g2_1" />
<path d="M71.7,596.5l770.9,0l0,-0.8l-770.9,0l0,0.8Z" class="g2_1" />
<path d="M71.7,620.7l0.7,0l0,-24.2l-0.7,0l0,24.2Z" class="g2_1" />
<path d="M841.9,620.7l0.7,0l0,-24.2l-0.7,0l0,24.2Z" class="g2_1" />
<path d="M71.7,621.4l770.9,0l0,-0.7l-770.9,0l0,0.7Z" class="g2_1" />
<path d="M71.7,642.1l0.7,0l0,-20.7l-0.7,0l0,20.7Z" class="g2_1" />
<path d="M841.9,642.1l0.7,0l0,-20.7l-0.7,0l0,20.7Z" class="g2_1" />
<path d="M71.7,642.9l770.9,0l0,-0.8l-770.9,0l0,0.8Z" class="g2_1" />
<path d="M71.7,667.1l0.7,0l0,-24.2l-0.7,0l0,24.2Z" class="g2_1" />
<path d="M841.9,667.1l0.7,0l0,-24.2l-0.7,0l0,24.2Z" class="g2_1" />
<path d="M71.7,667.8l770.9,0l0,-0.7l-770.9,0l0,0.7Z" class="g2_1" />
<path d="M71.7,691.9l0.7,0l0,-24.1l-0.7,0l0,24.1Z" class="g2_1" />
<path d="M841.9,691.9l0.7,0l0,-24.1l-0.7,0l0,24.1Z" class="g2_1" />
<path d="M71.7,692.6l770.9,0l0,-0.7l-770.9,0l0,0.7Z" class="g2_1" />
<path d="M71.7,716.8l0.7,0l0,-24.2l-0.7,0l0,24.2Z" class="g2_1" />
<path d="M841.9,716.8l0.7,0l0,-24.2l-0.7,0l0,24.2Z" class="g2_1" />
<path d="M71.7,717.6l770.9,0l0,-0.8l-770.9,0l0,0.8Z" class="g2_1" />
<path d="M71.7,738.3l0.7,0l0,-20.7l-0.7,0l0,20.7Z" class="g2_1" />
<path d="M841.9,738.3l0.7,0l0,-20.7l-0.7,0l0,20.7Z" class="g2_1" />
<path d="M71.7,739l770.9,0l0,-0.7l-770.9,0l0,0.7Z" class="g2_1" />
<path d="M71.7,763.1l0.7,0l0,-24.1l-0.7,0l0,24.1Z" class="g2_1" />
<path d="M841.9,763.1l0.7,0l0,-24.1l-0.7,0l0,24.1Z" class="g2_1" />
<path d="M71.7,763.9l770.9,0l0,-0.8l-770.9,0l0,0.8Z" class="g2_1" />
<path d="M71.7,788.1l0.7,0l0,-24.2l-0.7,0l0,24.2Z" class="g2_1" />
<path d="M841.9,788.1l0.7,0l0,-24.2l-0.7,0l0,24.2Z" class="g2_1" />
<path d="M71.7,788.8l770.9,0l0,-0.7l-770.9,0l0,0.7Z" class="g2_1" />
<path d="M71.7,812.9l0.7,0l0,-24.1l-0.7,0l0,24.1Z" class="g2_1" />
<path d="M841.9,812.9l0.7,0l0,-24.1l-0.7,0l0,24.1Z" class="g2_1" />
<path d="M71.7,813.6l0.7,0l0,-0.7l-0.7,0l0,0.7Z" class="g2_1" />
<path d="M71.7,813.6l770.9,0l0,-0.7l-770.9,0l0,0.7Z" class="g2_1" />
<path d="M72.4,880.4l207.4,0l0,-24.5l-207.4,0l0,24.5Z" class="g1_1" />
<path d="M80,876.5l192.2,0l0,-20.6L80,855.9l0,20.6Z" class="g1_1" />
<path d="M280.5,880.4l177.6,0l0,-24.5l-177.6,0l0,24.5Z" class="g1_1" />
<path d="M288.1,876.5l163,0l0,-20.6l-163,0l0,20.6Z" class="g1_1" />
<path d="M460.3,880.4l188.1,0l0,-24.5l-188.1,0l0,24.5Z" class="g1_1" />
<path d="M467.1,876.5l173.6,0l0,-20.6l-173.6,0l0,20.6Z" class="g1_1" />
<path d="M649.1,880.4l192.7,0l0,-24.5l-192.7,0l0,24.5Z" class="g1_1" />
<path d="M656.7,876.5l177.5,0l0,-20.6l-177.5,0l0,20.6Z" class="g1_1" />
<path d="M71.7,855.8l0.7,0l0,-0.7l-0.7,0l0,0.7Z" class="g2_1" />
<path d="M71.7,855.8l770.9,0l0,-0.7l-770.9,0l0,0.7Z" class="g2_1" />
<path d="M71.7,880.4l0.7,0l0,-24.6l-0.7,0l0,24.6Z" class="g2_1" />
<path d="M279.9,880.4l0.6,0l0,-24.6l-0.6,0l0,24.6Z" class="g2_1" />
<path d="M459.5,880.4l0.8,0l0,-24.6l-0.8,0l0,24.6Z" class="g2_1" />
<path d="M458.2,880.4l0.6,0l0,-24.6l-0.6,0l0,24.6Z" class="g2_1" />
<path d="M648.4,880.4l0.7,0l0,-24.6l-0.7,0l0,24.6Z" class="g2_1" />
<path d="M841.9,880.4l0.7,0l0,-24.6l-0.7,0l0,24.6Z" class="g2_1" />
<path d="M71.7,881.1l386.5,0l0,-0.7l-386.5,0l0,0.7Z" class="g2_1" />
<path d="M459.5,881.1l0.8,0l0,-0.7l-0.8,0l0,0.7Z" class="g2_1" />
<path d="M458.2,881.1l0.6,0l0,-0.7l-0.6,0l0,0.7Z" class="g2_1" />
<path d="M460.3,881.1l382.3,0l0,-0.7l-382.3,0l0,0.7Z" class="g2_1" />
<path d="M71.7,905.6l0.7,0l0,-24.5l-0.7,0l0,24.5Z" class="g2_1" />
<path d="M279.9,905.6l0.6,0l0,-24.5l-0.6,0l0,24.5Z" class="g2_1" />
<path d="M459.5,905.6l0.8,0l0,-24.5l-0.8,0l0,24.5Z" class="g2_1" />
<path d="M458.2,905.6l0.6,0l0,-24.5l-0.6,0l0,24.5Z" class="g2_1" />
<path d="M648.4,905.6l0.7,0l0,-24.5l-0.7,0l0,24.5Z" class="g2_1" />
<path d="M841.9,905.6l0.7,0l0,-24.5l-0.7,0l0,24.5Z" class="g2_1" />
<path d="M71.7,906.3l386.5,0l0,-0.7l-386.5,0l0,0.7Z" class="g2_1" />
<path d="M459.5,906.3l0.8,0l0,-0.7l-0.8,0l0,0.7Z" class="g2_1" />
<path d="M458.2,906.3l0.6,0l0,-0.7l-0.6,0l0,0.7Z" class="g2_1" />
<path d="M460.3,906.3l382.3,0l0,-0.7l-382.3,0l0,0.7Z" class="g2_1" />
<path d="M71.7,930.9l0.7,0l0,-24.6l-0.7,0l0,24.6Z" class="g2_1" />
<path d="M279.9,930.9l0.6,0l0,-24.6l-0.6,0l0,24.6Z" class="g2_1" />
<path d="M459.5,930.9l0.8,0l0,-24.6l-0.8,0l0,24.6Z" class="g2_1" />
<path d="M458.2,930.9l0.6,0l0,-24.6l-0.6,0l0,24.6Z" class="g2_1" />
<path d="M648.4,930.9l0.7,0l0,-24.6l-0.7,0l0,24.6Z" class="g2_1" />
<path d="M841.9,930.9l0.7,0l0,-24.6l-0.7,0l0,24.6Z" class="g2_1" />
<path d="M71.7,931.5l386.5,0l0,-0.6l-386.5,0l0,0.6Z" class="g2_1" />
<path d="M459.5,931.5l0.8,0l0,-0.6l-0.8,0l0,0.6Z" class="g2_1" />
<path d="M458.2,931.5l0.6,0l0,-0.6l-0.6,0l0,0.6Z" class="g2_1" />
<path d="M460.3,931.5l382.3,0l0,-0.6l-382.3,0l0,0.6Z" class="g2_1" />
<path d="M71.7,956.2l0.7,0l0,-24.7l-0.7,0l0,24.7Z" class="g2_1" />
<path d="M279.9,956.2l0.6,0l0,-24.7l-0.6,0l0,24.7Z" class="g2_1" />
<path d="M459.5,956.2l0.8,0l0,-24.7l-0.8,0l0,24.7Z" class="g2_1" />
<path d="M458.2,956.2l0.6,0l0,-24.7l-0.6,0l0,24.7Z" class="g2_1" />
<path d="M648.4,956.2l0.7,0l0,-24.7l-0.7,0l0,24.7Z" class="g2_1" />
<path d="M841.9,956.2l0.7,0l0,-24.7l-0.7,0l0,24.7Z" class="g2_1" />
<path d="M71.7,956.9l386.5,0l0,-0.7l-386.5,0l0,0.7Z" class="g2_1" />
<path d="M459.5,956.9l0.8,0l0,-0.7l-0.8,0l0,0.7Z" class="g2_1" />
<path d="M458.2,956.9l0.6,0l0,-0.7l-0.6,0l0,0.7Z" class="g2_1" />
<path d="M460.3,956.9l382.3,0l0,-0.7l-382.3,0l0,0.7Z" class="g2_1" />
<path d="M71.7,981.4l0.7,0l0,-24.5l-0.7,0l0,24.5Z" class="g2_1" />
<path d="M279.9,981.4l0.6,0l0,-24.5l-0.6,0l0,24.5Z" class="g2_1" />
<path d="M459.5,981.4l0.8,0l0,-24.5l-0.8,0l0,24.5Z" class="g2_1" />
<path d="M458.2,981.4l0.6,0l0,-24.5l-0.6,0l0,24.5Z" class="g2_1" />
<path d="M648.4,981.4l0.7,0l0,-24.5l-0.7,0l0,24.5Z" class="g2_1" />
<path d="M841.9,981.4l0.7,0l0,-24.5l-0.7,0l0,24.5Z" class="g2_1" />
<path d="M71.7,982.1l386.5,0l0,-0.7l-386.5,0l0,0.7Z" class="g2_1" />
<path d="M459.5,982.1l0.8,0l0,-0.7l-0.8,0l0,0.7Z" class="g2_1" />
<path d="M458.2,982.1l0.6,0l0,-0.7l-0.6,0l0,0.7Z" class="g2_1" />
<path d="M460.3,982.1l382.3,0l0,-0.7l-382.3,0l0,0.7Z" class="g2_1" />
<path d="M71.7,1006.6l0.7,0l0,-24.5l-0.7,0l0,24.5Z" class="g2_1" />
<path d="M279.9,1006.6l0.6,0l0,-24.5l-0.6,0l0,24.5Z" class="g2_1" />
<path d="M459.5,1006.6l0.8,0l0,-24.5l-0.8,0l0,24.5Z" class="g2_1" />
<path d="M458.2,1006.6l0.6,0l0,-24.5l-0.6,0l0,24.5Z" class="g2_1" />
<path d="M648.4,1006.6l0.7,0l0,-24.5l-0.7,0l0,24.5Z" class="g2_1" />
<path d="M841.9,1006.6l0.7,0l0,-24.5l-0.7,0l0,24.5Z" class="g2_1" />
<path d="M71.7,1007.3l386.5,0l0,-0.7l-386.5,0l0,0.7Z" class="g2_1" />
<path d="M459.5,1007.3l0.8,0l0,-0.7l-0.8,0l0,0.7Z" class="g2_1" />
<path d="M458.2,1007.3l0.6,0l0,-0.7l-0.6,0l0,0.7Z" class="g2_1" />
<path d="M460.3,1007.3l382.3,0l0,-0.7l-382.3,0l0,0.7Z" class="g2_1" />
<path d="M71.7,1032l0.7,0l0,-24.7l-0.7,0l0,24.7Z" class="g2_1" />
<path d="M279.9,1032l0.6,0l0,-24.7l-0.6,0l0,24.7Z" class="g2_1" />
<path d="M459.5,1032l0.8,0l0,-24.7l-0.8,0l0,24.7Z" class="g2_1" />
<path d="M458.2,1032l0.6,0l0,-24.7l-0.6,0l0,24.7Z" class="g2_1" />
<path d="M648.4,1032l0.7,0l0,-24.7l-0.7,0l0,24.7Z" class="g2_1" />
<path d="M841.9,1032l0.7,0l0,-24.7l-0.7,0l0,24.7Z" class="g2_1" />
<path d="M71.7,1032.6l386.5,0l0,-0.6l-386.5,0l0,0.6Z" class="g2_1" />
<path d="M459.5,1032.6l0.8,0l0,-0.6l-0.8,0l0,0.6Z" class="g2_1" />
<path d="M458.2,1032.6l0.6,0l0,-0.6l-0.6,0l0,0.6Z" class="g2_1" />
<path d="M460.3,1032.6l382.3,0l0,-0.6l-382.3,0l0,0.6Z" class="g2_1" />
<path d="M71.7,1057.2l0.7,0l0,-24.6l-0.7,0l0,24.6Z" class="g2_1" />
<path d="M279.9,1057.2l0.6,0l0,-24.6l-0.6,0l0,24.6Z" class="g2_1" />
<path d="M459.5,1057.2l0.8,0l0,-24.6l-0.8,0l0,24.6Z" class="g2_1" />
<path d="M458.2,1057.2l0.6,0l0,-24.6l-0.6,0l0,24.6Z" class="g2_1" />
<path d="M648.4,1057.2l0.7,0l0,-24.6l-0.7,0l0,24.6Z" class="g2_1" />
<path d="M841.9,1057.2l0.7,0l0,-24.6l-0.7,0l0,24.6Z" class="g2_1" />
<path d="M71.7,1057.9l386.5,0l0,-0.7l-386.5,0l0,0.7Z" class="g2_1" />
<path d="M459.5,1057.9l0.8,0l0,-0.7l-0.8,0l0,0.7Z" class="g2_1" />
<path d="M458.2,1057.9l0.6,0l0,-0.7l-0.6,0l0,0.7Z" class="g2_1" />
<path d="M460.3,1057.9l382.3,0l0,-0.7l-382.3,0l0,0.7Z" class="g2_1" />
<path d="M71.7,1082.4l0.7,0l0,-24.5l-0.7,0l0,24.5Z" class="g2_1" />
<path d="M279.9,1082.4l0.6,0l0,-24.5l-0.6,0l0,24.5Z" class="g2_1" />
<path d="M459.5,1082.4l0.8,0l0,-24.5l-0.8,0l0,24.5Z" class="g2_1" />
<path d="M458.2,1082.4l0.6,0l0,-24.5l-0.6,0l0,24.5Z" class="g2_1" />
<path d="M648.4,1082.4l0.7,0l0,-24.5l-0.7,0l0,24.5Z" class="g2_1" />
<path d="M841.9,1082.4l0.7,0l0,-24.5l-0.7,0l0,24.5Z" class="g2_1" />
<path d="M71.7,1083.1l386.5,0l0,-0.7l-386.5,0l0,0.7Z" class="g2_1" />
<path d="M459.5,1083.1l0.8,0l0,-0.7l-0.8,0l0,0.7Z" class="g2_1" />
<path d="M458.2,1083.1l0.6,0l0,-0.7l-0.6,0l0,0.7Z" class="g2_1" />
<path d="M460.3,1083.1l382.3,0l0,-0.7l-382.3,0l0,0.7Z" class="g2_1" />
<path d="M71.7,1107.7l0.7,0l0,-24.6l-0.7,0l0,24.6Z" class="g2_1" />
<path d="M279.9,1107.7l0.6,0l0,-24.6l-0.6,0l0,24.6Z" class="g2_1" />
<path d="M459.5,1107.7l0.8,0l0,-24.6l-0.8,0l0,24.6Z" class="g2_1" />
<path d="M458.2,1107.7l0.6,0l0,-24.6l-0.6,0l0,24.6Z" class="g2_1" />
<path d="M648.4,1107.7l0.7,0l0,-24.6l-0.7,0l0,24.6Z" class="g2_1" />
<path d="M841.9,1107.7l0.7,0l0,-24.6l-0.7,0l0,24.6Z" class="g2_1" />
<path d="M71.7,1108.4l386.5,0l0,-0.7l-386.5,0l0,0.7Z" class="g2_1" />
<path d="M459.5,1108.4l0.8,0l0,-0.7l-0.8,0l0,0.7Z" class="g2_1" />
<path d="M458.2,1108.4l0.6,0l0,-0.7l-0.6,0l0,0.7Z" class="g2_1" />
<path d="M460.3,1108.4l382.3,0l0,-0.7l-382.3,0l0,0.7Z" class="g2_1" />
<path d="M71.7,1133.6l0.7,0l0,-25.2l-0.7,0l0,25.2Z" class="g2_1" />
<path d="M71.7,1133.6l208.2,0l0,-0.7l-208.2,0l0,0.7Z" class="g2_1" />
<path d="M279.9,1133.6l0.6,0l0,-25.2l-0.6,0l0,25.2Z" class="g2_1" />
<path d="M280.5,1133.6l177.7,0l0,-0.7l-177.7,0l0,0.7Z" class="g2_1" />
<path d="M459.5,1132.9l0.8,0l0,-24.5l-0.8,0l0,24.5Z" class="g2_1" />
<path d="M458.2,1133.6l0.6,0l0,-25.2l-0.6,0l0,25.2Z" class="g2_1" />
<path d="M458.8,1133.6l189.6,0l0,-0.7l-189.6,0l0,0.7Z" class="g2_1" />
<path d="M648.4,1133.6l0.7,0l0,-25.2l-0.7,0l0,25.2Z" class="g2_1" />
<path d="M649.1,1133.6l192.8,0l0,-0.7l-192.8,0l0,0.7Z" class="g2_1" />
<path d="M841.9,1133.6l0.7,0l0,-25.2l-0.7,0l0,25.2Z" class="g2_1" />
<path d="M841.9,1133.6l0.7,0l0,-0.7l-0.7,0l0,0.7Z" class="g2_1" />
<image preserveAspectRatio="none" x="684" y="100" width="127" height="85" xlink:href="img/1.png" />
</svg>