<?xml version="1.0" encoding="UTF-8" standalone="no"?>
<!DOCTYPE svg PUBLIC "-//W3C//DTD SVG 1.1//EN"
"http://www.w3.org/Graphics/SVG/1.1/DTD/svg11.dtd">
<svg viewBox="0 0 909 1286" version="1.1" xmlns="http://www.w3.org/2000/svg" xmlns:xlink="http://www.w3.org/1999/xlink">
<defs>
<style type="text/css"><![CDATA[
.g1_1{
}
.g2_1{
fill: #FFFFFF;
}
.g3_1{
fill: none;
stroke: #FFFFFF;
stroke-width: 1.11375;
stroke-linecap: round;
stroke-linejoin: miter;
stroke-miterlimit: 8;
}
]]></style>
</defs>
<image preserveAspectRatio="none" x="134" y="108" width="148" height="99" xlink:href="img/1.png" />
<path d="M125.3,108l0.7,0l0,-0.7l-0.7,0l0,0.7Z" class="g1_1" />
<path d="M125.3,108l658.6,0l0,-0.7l-658.6,0l0,0.7Z" class="g1_1" />
<path d="M783.2,108l0.7,0l0,-0.7l-0.7,0l0,0.7Z" class="g1_1" />
<path d="M125.3,212.5l0.7,0L126,108l-0.7,0l0,104.5Z" class="g1_1" />
<path d="M454.3,212.5l0.7,0L455,108l-0.7,0l0,104.5Z" class="g1_1" />
<path d="M783.2,212.5l0.7,0l0,-104.5l-0.7,0l0,104.5Z" class="g1_1" />
<path d="M125.3,213.2l658.6,0l0,-0.7l-658.6,0l0,0.7Z" class="g1_1" />
<path d="M125.3,233.8l0.7,0l0,-20.6l-0.7,0l0,20.6Z" class="g1_1" />
<path d="M783.2,233.8l0.7,0l0,-20.6l-0.7,0l0,20.6Z" class="g1_1" />
<path d="M125.3,234.6l658.6,0l0,-0.8l-658.6,0l0,0.8Z" class="g1_1" />
<path d="M125.3,255.8l0.7,0l0,-21.2l-0.7,0l0,21.2Z" class="g1_1" />
<path d="M125.3,255.8l657.9,0l0,-0.8l-657.9,0l0,0.8Z" class="g1_1" />
<path d="M783.2,255.8l0.7,0l0,-21.2l-0.7,0l0,21.2Z" class="g1_1" />
<path d="M783.2,255.8l0.7,0l0,-0.8l-0.7,0l0,0.8Z" class="g1_1" />
<path d="M125.3,276.9l0.7,0l0,-0.6l-0.7,0l0,0.6Z" class="g1_1" />
<path d="M125.3,276.9l658.6,0l0,-0.6l-658.6,0l0,0.6Z" class="g1_1" />
<path d="M783.2,276.9l0.7,0l0,-0.6l-0.7,0l0,0.6Z" class="g1_1" />
<path d="M125.3,294.1l0.7,0l0,-17.2l-0.7,0l0,17.2Z" class="g1_1" />
<path d="M454.3,294.1l0.7,0l0,-17.2l-0.7,0l0,17.2Z" class="g1_1" />
<path d="M783.2,294.1l0.7,0l0,-17.2l-0.7,0l0,17.2Z" class="g1_1" />
<path d="M125.3,294.8l658.6,0l0,-0.7l-658.6,0l0,0.7Z" class="g1_1" />
<path d="M125.3,311.9l0.7,0l0,-17.1l-0.7,0l0,17.1Z" class="g1_1" />
<path d="M454.3,311.9l0.7,0l0,-17.1l-0.7,0l0,17.1Z" class="g1_1" />
<path d="M783.2,311.9l0.7,0l0,-17.1l-0.7,0l0,17.1Z" class="g1_1" />
<path d="M125.3,312.6l658.6,0l0,-0.7l-658.6,0l0,0.7Z" class="g1_1" />
<path d="M125.3,329.7l0.7,0l0,-17.1l-0.7,0l0,17.1Z" class="g1_1" />
<path d="M454.3,329.7l0.7,0l0,-17.1l-0.7,0l0,17.1Z" class="g1_1" />
<path d="M783.2,329.7l0.7,0l0,-17.1l-0.7,0l0,17.1Z" class="g1_1" />
<path d="M125.3,330.5l658.6,0l0,-0.8l-658.6,0l0,0.8Z" class="g1_1" />
<path d="M125.3,348.3l0.7,0l0,-17.8l-0.7,0l0,17.8Z" class="g1_1" />
<path d="M125.3,348.3l329,0l0,-0.6l-329,0l0,0.6Z" class="g1_1" />
<path d="M454.3,348.3l0.7,0l0,-17.8l-0.7,0l0,17.8Z" class="g1_1" />
<path d="M455,348.3l328.2,0l0,-0.6l-328.2,0l0,0.6Z" class="g1_1" />
<path d="M783.2,348.3l0.7,0l0,-17.8l-0.7,0l0,17.8Z" class="g1_1" />
<path d="M783.2,348.3l0.7,0l0,-0.6l-0.7,0l0,0.6Z" class="g1_1" />
<path d="M133.7,382.4l343.4,0l0,-1.5l-343.4,0l0,1.5Z" class="g1_1" />
<path d="M231.2,1132.7l137.7,0l0,-1l-137.7,0l0,1Z" class="g1_1" />
<path d="M125.3,542.5l0.7,0l0,-0.7l-0.7,0l0,0.7Z" class="g1_1" />
<path d="M125.3,542.5l658.6,0l0,-0.7l-658.6,0l0,0.7Z" class="g1_1" />
<path d="M783.2,542.5l0.7,0l0,-0.7l-0.7,0l0,0.7Z" class="g1_1" />
<path d="M125.3,559.6l0.7,0l0,-17.1l-0.7,0l0,17.1Z" class="g1_1" />
<path d="M583.1,559.6l0.7,0l0,-17.1l-0.7,0l0,17.1Z" class="g1_1" />
<path d="M611.5,559.6l0.7,0l0,-17.1l-0.7,0l0,17.1Z" class="g1_1" />
<path d="M638.3,559.6l0.7,0l0,-17.1l-0.7,0l0,17.1Z" class="g1_1" />
<path d="M668.4,559.6l0.8,0l0,-17.1l-0.8,0l0,17.1Z" class="g1_1" />
<path d="M695.2,559.6l0.6,0l0,-17.1l-0.6,0l0,17.1Z" class="g1_1" />
<path d="M721.9,559.6l0.7,0l0,-17.1l-0.7,0l0,17.1Z" class="g1_1" />
<path d="M748.6,559.6l0.8,0l0,-17.1l-0.8,0l0,17.1Z" class="g1_1" />
<path d="M783.2,559.6l0.7,0l0,-17.1l-0.7,0l0,17.1Z" class="g1_1" />
<path d="M125.3,560.4l658.6,0l0,-0.8l-658.6,0l0,0.8Z" class="g1_1" />
<path d="M125.3,577.5l0.7,0l0,-17.1l-0.7,0l0,17.1Z" class="g1_1" />
<path d="M583.1,577.5l0.7,0l0,-17.1l-0.7,0l0,17.1Z" class="g1_1" />
<path d="M611.5,577.5l0.7,0l0,-17.1l-0.7,0l0,17.1Z" class="g1_1" />
<path d="M638.3,577.5l0.7,0l0,-17.1l-0.7,0l0,17.1Z" class="g1_1" />
<path d="M668.4,577.5l0.8,0l0,-17.1l-0.8,0l0,17.1Z" class="g1_1" />
<path d="M695.2,577.5l0.6,0l0,-17.1l-0.6,0l0,17.1Z" class="g1_1" />
<path d="M721.9,577.5l0.7,0l0,-17.1l-0.7,0l0,17.1Z" class="g1_1" />
<path d="M748.6,577.5l0.8,0l0,-17.1l-0.8,0l0,17.1Z" class="g1_1" />
<path d="M783.2,577.5l0.7,0l0,-17.1l-0.7,0l0,17.1Z" class="g1_1" />
<path d="M125.3,578.1l658.6,0l0,-0.6l-658.6,0l0,0.6Z" class="g1_1" />
<path d="M125.3,595.2l0.7,0l0,-17.1l-0.7,0l0,17.1Z" class="g1_1" />
<path d="M583.1,595.2l0.7,0l0,-17.1l-0.7,0l0,17.1Z" class="g1_1" />
<path d="M611.5,595.2l0.7,0l0,-17.1l-0.7,0l0,17.1Z" class="g1_1" />
<path d="M638.3,595.2l0.7,0l0,-17.1l-0.7,0l0,17.1Z" class="g1_1" />
<path d="M668.4,595.2l0.8,0l0,-17.1l-0.8,0l0,17.1Z" class="g1_1" />
<path d="M695.2,595.2l0.6,0l0,-17.1l-0.6,0l0,17.1Z" class="g1_1" />
<path d="M721.9,595.2l0.7,0l0,-17.1l-0.7,0l0,17.1Z" class="g1_1" />
<path d="M748.6,595.2l0.8,0l0,-17.1l-0.8,0l0,17.1Z" class="g1_1" />
<path d="M783.2,595.2l0.7,0l0,-17.1l-0.7,0l0,17.1Z" class="g1_1" />
<path d="M125.3,595.9l658.6,0l0,-0.7l-658.6,0l0,0.7Z" class="g1_1" />
<path d="M125.3,613.1l0.7,0l0,-17.2l-0.7,0l0,17.2Z" class="g1_1" />
<path d="M583.1,613.1l0.7,0l0,-17.2l-0.7,0l0,17.2Z" class="g1_1" />
<path d="M611.5,613.1l0.7,0l0,-17.2l-0.7,0l0,17.2Z" class="g1_1" />
<path d="M638.3,613.1l0.7,0l0,-17.2l-0.7,0l0,17.2Z" class="g1_1" />
<path d="M668.4,613.1l0.8,0l0,-17.2l-0.8,0l0,17.2Z" class="g1_1" />
<path d="M695.2,613.1l0.6,0l0,-17.2l-0.6,0l0,17.2Z" class="g1_1" />
<path d="M721.9,613.1l0.7,0l0,-17.2l-0.7,0l0,17.2Z" class="g1_1" />
<path d="M748.6,613.1l0.8,0l0,-17.2l-0.8,0l0,17.2Z" class="g1_1" />
<path d="M783.2,613.1l0.7,0l0,-17.2l-0.7,0l0,17.2Z" class="g1_1" />
<path d="M125.3,613.8l658.6,0l0,-0.7l-658.6,0l0,0.7Z" class="g1_1" />
<path d="M125.3,630.9l0.7,0l0,-17.1l-0.7,0l0,17.1Z" class="g1_1" />
<path d="M583.1,630.9l0.7,0l0,-17.1l-0.7,0l0,17.1Z" class="g1_1" />
<path d="M611.5,630.9l0.7,0l0,-17.1l-0.7,0l0,17.1Z" class="g1_1" />
<path d="M638.3,630.9l0.7,0l0,-17.1l-0.7,0l0,17.1Z" class="g1_1" />
<path d="M668.4,630.9l0.8,0l0,-17.1l-0.8,0l0,17.1Z" class="g1_1" />
<path d="M695.2,630.9l0.6,0l0,-17.1l-0.6,0l0,17.1Z" class="g1_1" />
<path d="M721.9,630.9l0.7,0l0,-17.1l-0.7,0l0,17.1Z" class="g1_1" />
<path d="M748.6,630.9l0.8,0l0,-17.1l-0.8,0l0,17.1Z" class="g1_1" />
<path d="M783.2,630.9l0.7,0l0,-17.1l-0.7,0l0,17.1Z" class="g1_1" />
<path d="M125.3,631.6l658.6,0l0,-0.8l-658.6,0l0,0.8Z" class="g1_1" />
<path d="M125.3,648.7l0.7,0l0,-17.1l-0.7,0l0,17.1Z" class="g1_1" />
<path d="M583.1,648.7l0.7,0l0,-17.1l-0.7,0l0,17.1Z" class="g1_1" />
<path d="M611.5,648.7l0.7,0l0,-17.1l-0.7,0l0,17.1Z" class="g1_1" />
<path d="M638.3,648.7l0.7,0l0,-17.1l-0.7,0l0,17.1Z" class="g1_1" />
<path d="M668.4,648.7l0.8,0l0,-17.1l-0.8,0l0,17.1Z" class="g1_1" />
<path d="M695.2,648.7l0.6,0l0,-17.1l-0.6,0l0,17.1Z" class="g1_1" />
<path d="M721.9,648.7l0.7,0l0,-17.1l-0.7,0l0,17.1Z" class="g1_1" />
<path d="M748.6,648.7l0.8,0l0,-17.1l-0.8,0l0,17.1Z" class="g1_1" />
<path d="M783.2,648.7l0.7,0l0,-17.1l-0.7,0l0,17.1Z" class="g1_1" />
<path d="M125.3,649.5l658.6,0l0,-0.8l-658.6,0l0,0.8Z" class="g1_1" />
<path d="M125.3,666.5l0.7,0l0,-17l-0.7,0l0,17Z" class="g1_1" />
<path d="M583.1,666.5l0.7,0l0,-17l-0.7,0l0,17Z" class="g1_1" />
<path d="M611.5,666.5l0.7,0l0,-17l-0.7,0l0,17Z" class="g1_1" />
<path d="M638.3,666.5l0.7,0l0,-17l-0.7,0l0,17Z" class="g1_1" />
<path d="M668.4,666.5l0.8,0l0,-17l-0.8,0l0,17Z" class="g1_1" />
<path d="M695.2,666.5l0.6,0l0,-17l-0.6,0l0,17Z" class="g1_1" />
<path d="M721.9,666.5l0.7,0l0,-17l-0.7,0l0,17Z" class="g1_1" />
<path d="M748.6,666.5l0.8,0l0,-17l-0.8,0l0,17Z" class="g1_1" />
<path d="M783.2,666.5l0.7,0l0,-17l-0.7,0l0,17Z" class="g1_1" />
<path d="M125.3,667.2l658.6,0l0,-0.7l-658.6,0l0,0.7Z" class="g1_1" />
<path d="M125.3,684.4l0.7,0l0,-17.2l-0.7,0l0,17.2Z" class="g1_1" />
<path d="M583.1,684.4l0.7,0l0,-17.2l-0.7,0l0,17.2Z" class="g1_1" />
<path d="M611.5,684.4l0.7,0l0,-17.2l-0.7,0l0,17.2Z" class="g1_1" />
<path d="M638.3,684.4l0.7,0l0,-17.2l-0.7,0l0,17.2Z" class="g1_1" />
<path d="M668.4,684.4l0.8,0l0,-17.2l-0.8,0l0,17.2Z" class="g1_1" />
<path d="M695.2,684.4l0.6,0l0,-17.2l-0.6,0l0,17.2Z" class="g1_1" />
<path d="M721.9,684.4l0.7,0l0,-17.2l-0.7,0l0,17.2Z" class="g1_1" />
<path d="M748.6,684.4l0.8,0l0,-17.2l-0.8,0l0,17.2Z" class="g1_1" />
<path d="M783.2,684.4l0.7,0l0,-17.2l-0.7,0l0,17.2Z" class="g1_1" />
<path d="M125.3,685.1l658.6,0l0,-0.7l-658.6,0l0,0.7Z" class="g1_1" />
<path d="M125.3,702.2l0.7,0l0,-17.1l-0.7,0l0,17.1Z" class="g1_1" />
<path d="M583.1,702.2l0.7,0l0,-17.1l-0.7,0l0,17.1Z" class="g1_1" />
<path d="M611.5,702.2l0.7,0l0,-17.1l-0.7,0l0,17.1Z" class="g1_1" />
<path d="M638.3,702.2l0.7,0l0,-17.1l-0.7,0l0,17.1Z" class="g1_1" />
<path d="M668.4,702.2l0.8,0l0,-17.1l-0.8,0l0,17.1Z" class="g1_1" />
<path d="M695.2,702.2l0.6,0l0,-17.1l-0.6,0l0,17.1Z" class="g1_1" />
<path d="M721.9,702.2l0.7,0l0,-17.1l-0.7,0l0,17.1Z" class="g1_1" />
<path d="M748.6,702.2l0.8,0l0,-17.1l-0.8,0l0,17.1Z" class="g1_1" />
<path d="M783.2,702.2l0.7,0l0,-17.1l-0.7,0l0,17.1Z" class="g1_1" />
<path d="M125.3,702.9l658.6,0l0,-0.7l-658.6,0l0,0.7Z" class="g1_1" />
<path d="M125.3,720l0.7,0l0,-17.1l-0.7,0l0,17.1Z" class="g1_1" />
<path d="M583.1,720l0.7,0l0,-17.1l-0.7,0l0,17.1Z" class="g1_1" />
<path d="M611.5,720l0.7,0l0,-17.1l-0.7,0l0,17.1Z" class="g1_1" />
<path d="M638.3,720l0.7,0l0,-17.1l-0.7,0l0,17.1Z" class="g1_1" />
<path d="M668.4,720l0.8,0l0,-17.1l-0.8,0l0,17.1Z" class="g1_1" />
<path d="M695.2,720l0.6,0l0,-17.1l-0.6,0l0,17.1Z" class="g1_1" />
<path d="M721.9,720l0.7,0l0,-17.1l-0.7,0l0,17.1Z" class="g1_1" />
<path d="M748.6,720l0.8,0l0,-17.1l-0.8,0l0,17.1Z" class="g1_1" />
<path d="M783.2,720l0.7,0l0,-17.1l-0.7,0l0,17.1Z" class="g1_1" />
<path d="M125.3,720.8l658.6,0l0,-0.8l-658.6,0l0,0.8Z" class="g1_1" />
<path d="M125.3,737.8l0.7,0l0,-17l-0.7,0l0,17Z" class="g1_1" />
<path d="M583.1,737.8l0.7,0l0,-17l-0.7,0l0,17Z" class="g1_1" />
<path d="M611.5,737.8l0.7,0l0,-17l-0.7,0l0,17Z" class="g1_1" />
<path d="M638.3,737.8l0.7,0l0,-17l-0.7,0l0,17Z" class="g1_1" />
<path d="M668.4,737.8l0.8,0l0,-17l-0.8,0l0,17Z" class="g1_1" />
<path d="M695.2,737.8l0.6,0l0,-17l-0.6,0l0,17Z" class="g1_1" />
<path d="M721.9,737.8l0.7,0l0,-17l-0.7,0l0,17Z" class="g1_1" />
<path d="M748.6,737.8l0.8,0l0,-17l-0.8,0l0,17Z" class="g1_1" />
<path d="M783.2,737.8l0.7,0l0,-17l-0.7,0l0,17Z" class="g1_1" />
<path d="M125.3,738.6l658.6,0l0,-0.8l-658.6,0l0,0.8Z" class="g1_1" />
<path d="M125.3,755.7l0.7,0l0,-17.1l-0.7,0l0,17.1Z" class="g1_1" />
<path d="M583.1,755.7l0.7,0l0,-17.1l-0.7,0l0,17.1Z" class="g1_1" />
<path d="M611.5,755.7l0.7,0l0,-17.1l-0.7,0l0,17.1Z" class="g1_1" />
<path d="M638.3,755.7l0.7,0l0,-17.1l-0.7,0l0,17.1Z" class="g1_1" />
<path d="M668.4,755.7l0.8,0l0,-17.1l-0.8,0l0,17.1Z" class="g1_1" />
<path d="M695.2,755.7l0.6,0l0,-17.1l-0.6,0l0,17.1Z" class="g1_1" />
<path d="M721.9,755.7l0.7,0l0,-17.1l-0.7,0l0,17.1Z" class="g1_1" />
<path d="M748.6,755.7l0.8,0l0,-17.1l-0.8,0l0,17.1Z" class="g1_1" />
<path d="M783.2,755.7l0.7,0l0,-17.1l-0.7,0l0,17.1Z" class="g1_1" />
<path d="M125.3,756.4l658.6,0l0,-0.7l-658.6,0l0,0.7Z" class="g1_1" />
<path d="M125.3,773.5l0.7,0l0,-17.1l-0.7,0l0,17.1Z" class="g1_1" />
<path d="M583.1,773.5l0.7,0l0,-17.1l-0.7,0l0,17.1Z" class="g1_1" />
<path d="M611.5,773.5l0.7,0l0,-17.1l-0.7,0l0,17.1Z" class="g1_1" />
<path d="M638.3,773.5l0.7,0l0,-17.1l-0.7,0l0,17.1Z" class="g1_1" />
<path d="M668.4,773.5l0.8,0l0,-17.1l-0.8,0l0,17.1Z" class="g1_1" />
<path d="M695.2,773.5l0.6,0l0,-17.1l-0.6,0l0,17.1Z" class="g1_1" />
<path d="M721.9,773.5l0.7,0l0,-17.1l-0.7,0l0,17.1Z" class="g1_1" />
<path d="M748.6,773.5l0.8,0l0,-17.1l-0.8,0l0,17.1Z" class="g1_1" />
<path d="M783.2,773.5l0.7,0l0,-17.1l-0.7,0l0,17.1Z" class="g1_1" />
<path d="M125.3,774.2l658.6,0l0,-0.7l-658.6,0l0,0.7Z" class="g1_1" />
<path d="M125.3,791.4l0.7,0l0,-17.2l-0.7,0l0,17.2Z" class="g1_1" />
<path d="M583.1,791.4l0.7,0l0,-17.2l-0.7,0l0,17.2Z" class="g1_1" />
<path d="M611.5,791.4l0.7,0l0,-17.2l-0.7,0l0,17.2Z" class="g1_1" />
<path d="M638.3,791.4l0.7,0l0,-17.2l-0.7,0l0,17.2Z" class="g1_1" />
<path d="M668.4,791.4l0.8,0l0,-17.2l-0.8,0l0,17.2Z" class="g1_1" />
<path d="M695.2,791.4l0.6,0l0,-17.2l-0.6,0l0,17.2Z" class="g1_1" />
<path d="M721.9,791.4l0.7,0l0,-17.2l-0.7,0l0,17.2Z" class="g1_1" />
<path d="M748.6,791.4l0.8,0l0,-17.2l-0.8,0l0,17.2Z" class="g1_1" />
<path d="M783.2,791.4l0.7,0l0,-17.2l-0.7,0l0,17.2Z" class="g1_1" />
<path d="M125.3,792.1l658.6,0l0,-0.7l-658.6,0l0,0.7Z" class="g1_1" />
<path d="M125.3,809.1l0.7,0l0,-17l-0.7,0l0,17Z" class="g1_1" />
<path d="M583.1,809.1l0.7,0l0,-17l-0.7,0l0,17Z" class="g1_1" />
<path d="M611.5,809.1l0.7,0l0,-17l-0.7,0l0,17Z" class="g1_1" />
<path d="M638.3,809.1l0.7,0l0,-17l-0.7,0l0,17Z" class="g1_1" />
<path d="M668.4,809.1l0.8,0l0,-17l-0.8,0l0,17Z" class="g1_1" />
<path d="M695.2,809.1l0.6,0l0,-17l-0.6,0l0,17Z" class="g1_1" />
<path d="M721.9,809.1l0.7,0l0,-17l-0.7,0l0,17Z" class="g1_1" />
<path d="M748.6,809.1l0.8,0l0,-17l-0.8,0l0,17Z" class="g1_1" />
<path d="M783.2,809.1l0.7,0l0,-17l-0.7,0l0,17Z" class="g1_1" />
<path d="M125.3,809.9l658.6,0l0,-0.8l-658.6,0l0,0.8Z" class="g1_1" />
<path d="M125.3,827l0.7,0l0,-17.1l-0.7,0l0,17.1Z" class="g1_1" />
<path d="M583.1,827l0.7,0l0,-17.1l-0.7,0l0,17.1Z" class="g1_1" />
<path d="M611.5,827l0.7,0l0,-17.1l-0.7,0l0,17.1Z" class="g1_1" />
<path d="M638.3,827l0.7,0l0,-17.1l-0.7,0l0,17.1Z" class="g1_1" />
<path d="M668.4,827l0.8,0l0,-17.1l-0.8,0l0,17.1Z" class="g1_1" />
<path d="M695.2,827l0.6,0l0,-17.1l-0.6,0l0,17.1Z" class="g1_1" />
<path d="M721.9,827l0.7,0l0,-17.1l-0.7,0l0,17.1Z" class="g1_1" />
<path d="M748.6,827l0.8,0l0,-17.1l-0.8,0l0,17.1Z" class="g1_1" />
<path d="M783.2,827l0.7,0l0,-17.1l-0.7,0l0,17.1Z" class="g1_1" />
<path d="M125.3,827.7l658.6,0l0,-0.7l-658.6,0l0,0.7Z" class="g1_1" />
<path d="M125.3,845.6l0.7,0l0,-17.9l-0.7,0l0,17.9Z" class="g1_1" />
<path d="M125.3,845.6l457.8,0l0,-0.7l-457.8,0l0,0.7Z" class="g1_1" />
<path d="M583.1,845.6l0.7,0l0,-17.9l-0.7,0l0,17.9Z" class="g1_1" />
<path d="M583.8,845.6l27.7,0l0,-0.7l-27.7,0l0,0.7Z" class="g1_1" />
<path d="M611.5,845.6l0.7,0l0,-17.9l-0.7,0l0,17.9Z" class="g1_1" />
<path d="M612.2,845.6l26.1,0l0,-0.7l-26.1,0l0,0.7Z" class="g1_1" />
<path d="M638.3,845.6l0.7,0l0,-17.9l-0.7,0l0,17.9Z" class="g1_1" />
<path d="M639,845.6l29.4,0l0,-0.7l-29.4,0l0,0.7Z" class="g1_1" />
<path d="M668.4,845.6l0.8,0l0,-17.9l-0.8,0l0,17.9Z" class="g1_1" />
<path d="M669.2,845.6l26,0l0,-0.7l-26,0l0,0.7Z" class="g1_1" />
<path d="M695.2,845.6l0.6,0l0,-17.9l-0.6,0l0,17.9Z" class="g1_1" />
<path d="M695.8,845.6l26.1,0l0,-0.7l-26.1,0l0,0.7Z" class="g1_1" />
<path d="M721.9,845.6l0.7,0l0,-17.9l-0.7,0l0,17.9Z" class="g1_1" />
<path d="M722.6,845.6l26,0l0,-0.7l-26,0l0,0.7Z" class="g1_1" />
<path d="M748.6,845.6l0.8,0l0,-17.9l-0.8,0l0,17.9Z" class="g1_1" />
<path d="M749.4,845.6l33.8,0l0,-0.7l-33.8,0l0,0.7Z" class="g1_1" />
<path d="M783.2,845.6l0.7,0l0,-17.9l-0.7,0l0,17.9Z" class="g1_1" />
<path d="M783.2,845.6l0.7,0l0,-0.7l-0.7,0l0,0.7Z" class="g1_1" />
<path d="M125.3,859.7l0.7,0l0,-0.7l-0.7,0l0,0.7Z" class="g1_1" />
<path d="M125.3,859.7l376.7,0l0,-0.7l-376.7,0l0,0.7Z" class="g1_1" />
<path d="M502,859l93.2,0l0,0.7l-93.2,0Z" class="g1_1" />
<path d="M595.2,859.7l188.7,0l0,-0.7l-188.7,0l0,0.7Z" class="g1_1" />
<path d="M783.2,859.7l0.7,0l0,-0.7l-0.7,0l0,0.7Z" class="g1_1" />
<path d="M125.3,900.7l0.7,0l0,-41l-0.7,0l0,41Z" class="g1_1" />
<path d="M219.3,900.7l0.7,0l0,-41l-0.7,0l0,41Z" class="g1_1" />
<path d="M313.2,900.7l0.8,0l0,-41l-0.8,0l0,41Z" class="g1_1" />
<path d="M407.3,900.7l0.7,0l0,-41l-0.7,0l0,41Z" class="g1_1" />
<path d="M501.2,900.7l0.8,0l0,-41l-0.8,0l0,41Z" class="g1_1" />
<path d="M595.2,900.7l0.7,0l0,-41l-0.7,0l0,41Z" class="g1_1" />
<path d="M689.1,900.7l0.8,0l0,-41l-0.8,0l0,41Z" class="g1_1" />
<path d="M783.2,900.7l0.7,0l0,-41l-0.7,0l0,41Z" class="g1_1" />
<path d="M125.3,901.4l376.7,0l0,-0.7l-376.7,0l0,0.7Z" class="g1_1" />
<path d="M502,900.7l93.2,0l0,0.7l-93.2,0Z" class="g1_1" />
<path d="M595.2,901.4l188.7,0l0,-0.7l-188.7,0l0,0.7Z" class="g1_1" />
<path d="M125.3,915.2l0.7,0l0,-13.8l-0.7,0l0,13.8Z" class="g1_1" />
<path d="M219.3,915.2l0.7,0l0,-13.8l-0.7,0l0,13.8Z" class="g1_1" />
<path d="M313.2,915.2l0.8,0l0,-13.8l-0.8,0l0,13.8Z" class="g1_1" />
<path d="M407.3,915.2l0.7,0l0,-13.8l-0.7,0l0,13.8Z" class="g1_1" />
<path d="M501.2,915.2l0.8,0l0,-13.8l-0.8,0l0,13.8Z" class="g1_1" />
<path d="M595.2,915.2l0.7,0l0,-13.8l-0.7,0l0,13.8Z" class="g1_1" />
<path d="M689.1,915.2l0.8,0l0,-13.8l-0.8,0l0,13.8Z" class="g1_1" />
<path d="M783.2,915.2l0.7,0l0,-13.8l-0.7,0l0,13.8Z" class="g1_1" />
<path d="M125.3,915.8l376.7,0l0,-0.6l-376.7,0l0,0.6Z" class="g1_1" />
<path d="M502,915.2l93.2,0l0,0.6l-93.2,0Z" class="g1_1" />
<path d="M595.2,915.8l188.7,0l0,-0.6l-188.7,0l0,0.6Z" class="g1_1" />
<path d="M125.3,929.5l0.7,0l0,-13.7l-0.7,0l0,13.7Z" class="g1_1" />
<path d="M219.3,929.5l0.7,0l0,-13.7l-0.7,0l0,13.7Z" class="g1_1" />
<path d="M313.2,929.5l0.8,0l0,-13.7l-0.8,0l0,13.7Z" class="g1_1" />
<path d="M407.3,929.5l0.7,0l0,-13.7l-0.7,0l0,13.7Z" class="g1_1" />
<path d="M501.2,929.5l0.8,0l0,-13.7l-0.8,0l0,13.7Z" class="g1_1" />
<path d="M595.2,929.5l0.7,0l0,-13.7l-0.7,0l0,13.7Z" class="g1_1" />
<path d="M689.1,929.5l0.8,0l0,-13.7l-0.8,0l0,13.7Z" class="g1_1" />
<path d="M783.2,929.5l0.7,0l0,-13.7l-0.7,0l0,13.7Z" class="g1_1" />
<path d="M125.3,930.2l376.7,0l0,-0.7l-376.7,0l0,0.7Z" class="g1_1" />
<path d="M502,929.5l93.2,0l0,0.7l-93.2,0Z" class="g1_1" />
<path d="M595.2,930.2l188.7,0l0,-0.7l-188.7,0l0,0.7Z" class="g1_1" />
<path d="M125.3,944l0.7,0l0,-13.8l-0.7,0l0,13.8Z" class="g1_1" />
<path d="M219.3,944l0.7,0l0,-13.8l-0.7,0l0,13.8Z" class="g1_1" />
<path d="M313.2,944l0.8,0l0,-13.8l-0.8,0l0,13.8Z" class="g1_1" />
<path d="M407.3,944l0.7,0l0,-13.8l-0.7,0l0,13.8Z" class="g1_1" />
<path d="M501.2,944l0.8,0l0,-13.8l-0.8,0l0,13.8Z" class="g1_1" />
<path d="M595.2,944l0.7,0l0,-13.8l-0.7,0l0,13.8Z" class="g1_1" />
<path d="M689.1,944l0.8,0l0,-13.8l-0.8,0l0,13.8Z" class="g1_1" />
<path d="M783.2,944l0.7,0l0,-13.8l-0.7,0l0,13.8Z" class="g1_1" />
<path d="M125.3,944.6l376.7,0l0,-0.6l-376.7,0l0,0.6Z" class="g1_1" />
<path d="M502,944l93.2,0l0,0.6l-93.2,0Z" class="g1_1" />
<path d="M595.2,944.6l188.7,0l0,-0.6l-188.7,0l0,0.6Z" class="g1_1" />
<path d="M125.3,959.1l0.7,0l0,-14.5l-0.7,0l0,14.5Z" class="g1_1" />
<path d="M125.3,959.1l94,0l0,-0.7l-94,0l0,0.7Z" class="g1_1" />
<path d="M219.3,959.1l0.7,0l0,-14.5l-0.7,0l0,14.5Z" class="g1_1" />
<path d="M220,959.1l93.2,0l0,-0.7l-93.2,0l0,0.7Z" class="g1_1" />
<path d="M313.2,959.1l0.8,0l0,-14.5l-0.8,0l0,14.5Z" class="g1_1" />
<path d="M314,959.1l93.3,0l0,-0.7l-93.3,0l0,0.7Z" class="g1_1" />
<path d="M407.3,959.1l0.7,0l0,-14.5l-0.7,0l0,14.5Z" class="g1_1" />
<path d="M408,959.1l93.2,0l0,-0.7l-93.2,0l0,0.7Z" class="g1_1" />
<path d="M501.2,959.1l0.8,0l0,-14.5l-0.8,0l0,14.5Z" class="g1_1" />
<path d="M502,958.4l93.2,0l0,0.7l-93.2,0Z" class="g1_1" />
<path d="M595.2,959.1l0.7,0l0,-14.5l-0.7,0l0,14.5Z" class="g1_1" />
<path d="M595.9,959.1l93.2,0l0,-0.7l-93.2,0l0,0.7Z" class="g1_1" />
<path d="M689.1,959.1l0.8,0l0,-14.5l-0.8,0l0,14.5Z" class="g1_1" />
<path d="M689.9,959.1l93.3,0l0,-0.7l-93.3,0l0,0.7Z" class="g1_1" />
<path d="M783.2,959.1l0.7,0l0,-14.5l-0.7,0l0,14.5Z" class="g1_1" />
<path d="M783.2,959.1l0.7,0l0,-0.7l-0.7,0l0,0.7Z" class="g1_1" />
<image preserveAspectRatio="none" x="134" y="458" width="40" height="40" xlink:href="img/2.png" />
<image preserveAspectRatio="none" x="372" y="456" width="32" height="31" xlink:href="img/3.png" />
<path d="M427.9,498.1l107,0l0,-57.2l-107,0l0,57.2Z" class="g2_1" />
<path d="M534.9,440.9l-107,0l0,57.2l107,0l0,-57.2Z" class="g3_1" />
<path d="M561.6,484.9l53.5,0l0,-26.7l-53.5,0l0,26.7Z" class="g2_1" />
<path d="M615.1,458.2l-53.5,0l0,26.7l53.5,0l0,-26.7Z" class="g3_1" />
<path d="M655.2,515.3l107,0l0,-66.9l-107,0l0,66.9Z" class="g2_1" />
<path d="M762.2,448.3l-107,0l0,67l107,0l0,-67Z" class="g3_1" />
</svg>