<?xml version="1.0" encoding="UTF-8" standalone="no"?>
<!DOCTYPE svg PUBLIC "-//W3C//DTD SVG 1.1//EN"
"http://www.w3.org/Graphics/SVG/1.1/DTD/svg11.dtd">
<svg viewBox="0 0 1286 909" version="1.1" xmlns="http://www.w3.org/2000/svg" xmlns:xlink="http://www.w3.org/1999/xlink">
<defs>
<style type="text/css"><![CDATA[
.g1_1{
}
]]></style>
</defs>
<image preserveAspectRatio="none" x="173" y="22" width="939" height="573" xlink:href="img/1.png" />
<path d="M30.2,220.1l0,4.4l800.4,0l0,-4.4l-800.4,0Z" class="g1_1" />
<path d="M830.6,220.8l0,3l83.8,0l0,-3l-83.8,0Z" class="g1_1" />
<path d="M30.2,243l0,4.4l384.8,0l0,-4.4L30.2,243Z" class="g1_1" />
<path d="M415,243.7l0,3l74.1,0l0,-3l-74.1,0Z" class="g1_1" />
<path d="M827.6,132.1l0,65.1l3,0l0,-65.1l-3,0Z" class="g1_1" />
<path d="M489.1,243l0,4.4l518.6,0l0,-4.4l-518.6,0Z" class="g1_1" />
<path d="M1101.2,132.1l0,65.1l2.9,0l0,-65.1l-2.9,0Z" class="g1_1" />
<path d="M1254.6,69l0,177.7l4.4,0L1259,69l-4.4,0Z" class="g1_1" />
<path d="M30.2,267.4l0,1.5l381.8,0l0,-1.5l-381.8,0Z" class="g1_1" />
<path d="M412,224.5l0,18.5l3,0l0,-18.5l-3,0Z" class="g1_1" />
<path d="M415,267.4l0,1.5l74.1,0l0,-1.5l-74.1,0Z" class="g1_1" />
<path d="M489.1,224.5l0,18.5l3,0l0,-18.5l-3,0Z" class="g1_1" />
<path d="M492.1,267.4l0,1.5l335.5,0l0,-1.5l-335.5,0Z" class="g1_1" />
<path d="M827.6,224.5l0,18.5l3,0l0,-18.5l-3,0Z" class="g1_1" />
<path d="M830.6,267.4l0,1.5l83.8,0l0,-1.5l-83.8,0Z" class="g1_1" />
<path d="M914.4,224.5l0,18.5l2.9,0l0,-18.5l-2.9,0Z" class="g1_1" />
<path d="M917.3,267.4l0,1.5l87.4,0l0,-1.5l-87.4,0Z" class="g1_1" />
<path d="M1004.7,224.5l0,18.5l3,0l0,-18.5l-3,0Z" class="g1_1" />
<path d="M1007.7,267.4l0,1.5l93.5,0l0,-1.5l-93.5,0Z" class="g1_1" />
<path d="M1104.1,267.4l0,1.5l74.2,0l0,-1.5l-74.2,0Z" class="g1_1" />
<path d="M30.2,290.3l0,1.5l381.8,0l0,-1.5l-381.8,0Z" class="g1_1" />
<path d="M415,290.3l0,1.5l74.1,0l0,-1.5l-74.1,0Z" class="g1_1" />
<path d="M492.1,290.3l0,1.5l335.5,0l0,-1.5l-335.5,0Z" class="g1_1" />
<path d="M830.6,290.3l0,1.5l83.8,0l0,-1.5l-83.8,0Z" class="g1_1" />
<path d="M917.3,290.3l0,1.5l87.4,0l0,-1.5l-87.4,0Z" class="g1_1" />
<path d="M1007.7,290.3l0,1.5l93.5,0l0,-1.5l-93.5,0Z" class="g1_1" />
<path d="M1104.1,290.3l0,1.5l74.2,0l0,-1.5l-74.2,0Z" class="g1_1" />
<path d="M30.2,313.2l0,1.5l381.8,0l0,-1.5l-381.8,0Z" class="g1_1" />
<path d="M415,313.2l0,1.5l74.1,0l0,-1.5l-74.1,0Z" class="g1_1" />
<path d="M492.1,313.2l0,1.5l335.5,0l0,-1.5l-335.5,0Z" class="g1_1" />
<path d="M830.6,313.2l0,1.5l83.8,0l0,-1.5l-83.8,0Z" class="g1_1" />
<path d="M917.3,313.2l0,1.5l87.4,0l0,-1.5l-87.4,0Z" class="g1_1" />
<path d="M1007.7,313.2l0,1.5l93.5,0l0,-1.5l-93.5,0Z" class="g1_1" />
<path d="M1104.1,313.2l0,1.5l74.2,0l0,-1.5l-74.2,0Z" class="g1_1" />
<path d="M30.2,336.1l0,1.5l381.8,0l0,-1.5l-381.8,0Z" class="g1_1" />
<path d="M415,336.1l0,1.5l74.1,0l0,-1.5l-74.1,0Z" class="g1_1" />
<path d="M492.1,336.1l0,1.5l335.5,0l0,-1.5l-335.5,0Z" class="g1_1" />
<path d="M830.6,336.1l0,1.5l83.8,0l0,-1.5l-83.8,0Z" class="g1_1" />
<path d="M917.3,336.1l0,1.5l87.4,0l0,-1.5l-87.4,0Z" class="g1_1" />
<path d="M1007.7,336.1l0,1.5l93.5,0l0,-1.5l-93.5,0Z" class="g1_1" />
<path d="M1104.1,336.1l0,1.5l74.2,0l0,-1.5l-74.2,0Z" class="g1_1" />
<path d="M30.2,359.1l0,1.4l381.8,0l0,-1.4l-381.8,0Z" class="g1_1" />
<path d="M415,359.1l0,1.4l74.1,0l0,-1.4l-74.1,0Z" class="g1_1" />
<path d="M492.1,359.1l0,1.4l335.5,0l0,-1.4l-335.5,0Z" class="g1_1" />
<path d="M830.6,359.1l0,1.4l83.8,0l0,-1.4l-83.8,0Z" class="g1_1" />
<path d="M917.3,359.1l0,1.4l87.4,0l0,-1.4l-87.4,0Z" class="g1_1" />
<path d="M1007.7,359.1l0,1.4l93.5,0l0,-1.4l-93.5,0Z" class="g1_1" />
<path d="M1104.1,359.1l0,1.4l74.2,0l0,-1.4l-74.2,0Z" class="g1_1" />
<path d="M30.2,382l0,1.4l381.8,0l0,-1.4L30.2,382Z" class="g1_1" />
<path d="M415,382l0,1.4l74.1,0l0,-1.4L415,382Z" class="g1_1" />
<path d="M492.1,382l0,1.4l335.5,0l0,-1.4l-335.5,0Z" class="g1_1" />
<path d="M830.6,382l0,1.4l83.8,0l0,-1.4l-83.8,0Z" class="g1_1" />
<path d="M917.3,382l0,1.4l87.4,0l0,-1.4l-87.4,0Z" class="g1_1" />
<path d="M1007.7,382l0,1.4l93.5,0l0,-1.4l-93.5,0Z" class="g1_1" />
<path d="M1104.1,382l0,1.4l74.2,0l0,-1.4l-74.2,0Z" class="g1_1" />
<path d="M30.2,404.9l0,1.5l381.8,0l0,-1.5l-381.8,0Z" class="g1_1" />
<path d="M415,404.9l0,1.5l74.1,0l0,-1.5l-74.1,0Z" class="g1_1" />
<path d="M492.1,404.9l0,1.5l335.5,0l0,-1.5l-335.5,0Z" class="g1_1" />
<path d="M830.6,404.9l0,1.5l83.8,0l0,-1.5l-83.8,0Z" class="g1_1" />
<path d="M917.3,404.9l0,1.5l87.4,0l0,-1.5l-87.4,0Z" class="g1_1" />
<path d="M1007.7,404.9l0,1.5l93.5,0l0,-1.5l-93.5,0Z" class="g1_1" />
<path d="M1104.1,404.9l0,1.5l74.2,0l0,-1.5l-74.2,0Z" class="g1_1" />
<path d="M30.2,427.8l0,1.5l381.8,0l0,-1.5l-381.8,0Z" class="g1_1" />
<path d="M415,427.8l0,1.5l74.1,0l0,-1.5l-74.1,0Z" class="g1_1" />
<path d="M492.1,427.8l0,1.5l335.5,0l0,-1.5l-335.5,0Z" class="g1_1" />
<path d="M830.6,427.8l0,1.5l83.8,0l0,-1.5l-83.8,0Z" class="g1_1" />
<path d="M917.3,427.8l0,1.5l87.4,0l0,-1.5l-87.4,0Z" class="g1_1" />
<path d="M1007.7,427.8l0,1.5l93.5,0l0,-1.5l-93.5,0Z" class="g1_1" />
<path d="M1104.1,427.8l0,1.5l74.2,0l0,-1.5l-74.2,0Z" class="g1_1" />
<path d="M30.2,450.7l0,1.5l381.8,0l0,-1.5l-381.8,0Z" class="g1_1" />
<path d="M415,450.7l0,1.5l74.1,0l0,-1.5l-74.1,0Z" class="g1_1" />
<path d="M492.1,450.7l0,1.5l335.5,0l0,-1.5l-335.5,0Z" class="g1_1" />
<path d="M830.6,450.7l0,1.5l83.8,0l0,-1.5l-83.8,0Z" class="g1_1" />
<path d="M917.3,450.7l0,1.5l87.4,0l0,-1.5l-87.4,0Z" class="g1_1" />
<path d="M1007.7,450.7l0,1.5l93.5,0l0,-1.5l-93.5,0Z" class="g1_1" />
<path d="M1104.1,450.7l0,1.5l74.2,0l0,-1.5l-74.2,0Z" class="g1_1" />
<path d="M30.2,473.6l0,1.5l381.8,0l0,-1.5l-381.8,0Z" class="g1_1" />
<path d="M415,473.6l0,1.5l74.1,0l0,-1.5l-74.1,0Z" class="g1_1" />
<path d="M492.1,473.6l0,1.5l335.5,0l0,-1.5l-335.5,0Z" class="g1_1" />
<path d="M830.6,473.6l0,1.5l83.8,0l0,-1.5l-83.8,0Z" class="g1_1" />
<path d="M917.3,473.6l0,1.5l87.4,0l0,-1.5l-87.4,0Z" class="g1_1" />
<path d="M1007.7,473.6l0,1.5l93.5,0l0,-1.5l-93.5,0Z" class="g1_1" />
<path d="M1104.1,473.6l0,1.5l74.2,0l0,-1.5l-74.2,0Z" class="g1_1" />
<path d="M30.2,496.6l0,1.4L412,498l0,-1.4l-381.8,0Z" class="g1_1" />
<path d="M415,496.6l0,1.4l74.1,0l0,-1.4l-74.1,0Z" class="g1_1" />
<path d="M492.1,496.6l0,1.4l335.5,0l0,-1.4l-335.5,0Z" class="g1_1" />
<path d="M830.6,496.6l0,1.4l83.8,0l0,-1.4l-83.8,0Z" class="g1_1" />
<path d="M917.3,496.6l0,1.4l87.4,0l0,-1.4l-87.4,0Z" class="g1_1" />
<path d="M1007.7,496.6l0,1.4l93.5,0l0,-1.4l-93.5,0Z" class="g1_1" />
<path d="M1104.1,496.6l0,1.4l74.2,0l0,-1.4l-74.2,0Z" class="g1_1" />
<path d="M30.2,518l0,4.4l384.8,0l0,-4.4L30.2,518Z" class="g1_1" />
<path d="M415,518.7l0,3l74.1,0l0,-3l-74.1,0Z" class="g1_1" />
<path d="M489.1,518l0,4.4l518.6,0l0,-4.4l-518.6,0Z" class="g1_1" />
<path d="M1255.4,246.7l0,272l2.9,0l0,-272l-2.9,0Z" class="g1_1" />
<path d="M30.2,771.6l0,1.4L412,773l0,-1.4l-381.8,0Z" class="g1_1" />
<path d="M412,247.4L412,518l3,0l0,-270.6l-3,0Z" class="g1_1" />
<path d="M415,771.6l0,1.4l335.6,0l0,-1.4l-335.6,0Z" class="g1_1" />
<path d="M753.5,771.6l0,1.4l251.2,0l0,-1.4l-251.2,0Z" class="g1_1" />
<path d="M1004.7,247.4l0,270.6l3,0l0,-270.6l-3,0Z" class="g1_1" />
<path d="M30.2,794.5l0,1.4l381.8,0l0,-1.4l-381.8,0Z" class="g1_1" />
<path d="M415,794.5l0,1.4l335.6,0l0,-1.4l-335.6,0Z" class="g1_1" />
<path d="M753.5,794.5l0,1.4l251.2,0l0,-1.4l-251.2,0Z" class="g1_1" />
<path d="M30.2,817.4l0,1.5l381.8,0l0,-1.5l-381.8,0Z" class="g1_1" />
<path d="M415,817.4l0,1.5l335.6,0l0,-1.5l-335.6,0Z" class="g1_1" />
<path d="M753.5,817.4l0,1.5l251.2,0l0,-1.5l-251.2,0Z" class="g1_1" />
<path d="M25.8,64.6l0,778.6l4.4,0l0,-778.6l-4.4,0Z" class="g1_1" />
<path d="M1254.6,518.7l0,324.5l4.4,0l0,-324.5l-4.4,0Z" class="g1_1" />
<path d="M334.9,132.1l0,65.1l3,0l0,-65.1l-3,0Z" class="g1_1" />
<path d="M643.3,132.1l0,65.1l2.9,0l0,-65.1l-2.9,0Z" class="g1_1" />
<path d="M827.6,247.4l0,270.6l3,0l0,-270.6l-3,0Z" class="g1_1" />
<path d="M1101.2,224.5l0,297.2l2.9,0l0,-297.2l-2.9,0Z" class="g1_1" />
<path d="M412,751.6l0,87.2l3,0l0,-87.2l-3,0Z" class="g1_1" />
<path d="M489.1,247.4l0,270.6l3,0l0,-270.6l-3,0Z" class="g1_1" />
<path d="M914.4,247.4l0,270.6l2.9,0l0,-270.6l-2.9,0Z" class="g1_1" />
<path d="M1004.7,751.6l0,87.2l3,0l0,-87.2l-3,0Z" class="g1_1" />
<path d="M1178.3,224.5l0,297.2l2.9,0l0,-297.2l-2.9,0Z" class="g1_1" />
<path d="M750.6,751.6l0,87.2l2.9,0l0,-87.2l-2.9,0Z" class="g1_1" />
<path d="M30.2,64.6l0,4.4L1259,69l0,-4.4L30.2,64.6Z" class="g1_1" />
<path d="M30.2,105.5l0,4.4l1228.8,0l0,-4.4l-1228.8,0Z" class="g1_1" />
<path d="M30.2,129.2l0,2.9l1224.4,0l0,-2.9l-1224.4,0Z" class="g1_1" />
<path d="M1104.1,152.1l0,2.9l150.5,0l0,-2.9l-150.5,0Z" class="g1_1" />
<path d="M30.2,197.2l0,4.4l1228.8,0l0,-4.4l-1228.8,0Z" class="g1_1" />
<path d="M914.4,220.1l0,4.4l344.6,0l0,-4.4l-344.6,0Z" class="g1_1" />
<path d="M1007.7,243.7l0,3l246.9,0l0,-3l-246.9,0Z" class="g1_1" />
<path d="M1181.2,267.4l0,1.5l74.2,0l0,-1.5l-74.2,0Z" class="g1_1" />
<path d="M1181.2,290.3l0,1.5l74.2,0l0,-1.5l-74.2,0Z" class="g1_1" />
<path d="M1181.2,313.2l0,1.5l74.2,0l0,-1.5l-74.2,0Z" class="g1_1" />
<path d="M1181.2,336.1l0,1.5l74.2,0l0,-1.5l-74.2,0Z" class="g1_1" />
<path d="M1181.2,359.1l0,1.4l74.2,0l0,-1.4l-74.2,0Z" class="g1_1" />
<path d="M1181.2,382l0,1.4l74.2,0l0,-1.4l-74.2,0Z" class="g1_1" />
<path d="M1181.2,404.9l0,1.5l74.2,0l0,-1.5l-74.2,0Z" class="g1_1" />
<path d="M1181.2,427.8l0,1.5l74.2,0l0,-1.5l-74.2,0Z" class="g1_1" />
<path d="M1181.2,450.7l0,1.5l74.2,0l0,-1.5l-74.2,0Z" class="g1_1" />
<path d="M1181.2,473.6l0,1.5l74.2,0l0,-1.5l-74.2,0Z" class="g1_1" />
<path d="M1181.2,496.6l0,1.4l74.2,0l0,-1.4l-74.2,0Z" class="g1_1" />
<path d="M1007.7,518.7l0,3l246.9,0l0,-3l-246.9,0Z" class="g1_1" />
<path d="M30.2,541.7l0,2.9l1224.4,0l0,-2.9l-1224.4,0Z" class="g1_1" />
<path d="M30.2,565.3l0,1.5l1224.4,0l0,-1.5l-1224.4,0Z" class="g1_1" />
<path d="M30.2,588.2l0,1.5l1224.4,0l0,-1.5l-1224.4,0Z" class="g1_1" />
<path d="M30.2,611.1l0,1.5l1224.4,0l0,-1.5l-1224.4,0Z" class="g1_1" />
<path d="M30.2,634.1l0,1.4l1224.4,0l0,-1.4l-1224.4,0Z" class="g1_1" />
<path d="M30.2,657l0,1.4l1224.4,0l0,-1.4L30.2,657Z" class="g1_1" />
<path d="M30.2,679.9l0,1.5l1224.4,0l0,-1.5l-1224.4,0Z" class="g1_1" />
<path d="M30.2,702.8l0,1.5l1224.4,0l0,-1.5l-1224.4,0Z" class="g1_1" />
<path d="M30.2,724.3l0,4.4l1228.8,0l0,-4.4l-1228.8,0Z" class="g1_1" />
<path d="M30.2,747.2l0,4.4l1228.8,0l0,-4.4l-1228.8,0Z" class="g1_1" />
<path d="M1007.7,771.6l0,1.4l246.9,0l0,-1.4l-246.9,0Z" class="g1_1" />
<path d="M1007.7,794.5l0,1.4l246.9,0l0,-1.4l-246.9,0Z" class="g1_1" />
<path d="M1007.7,817.4l0,1.5l246.9,0l0,-1.5l-246.9,0Z" class="g1_1" />
<path d="M30.2,838.8l0,4.4l1228.8,0l0,-4.4l-1228.8,0Z" class="g1_1" />
</svg>