<?xml version="1.0" encoding="UTF-8" standalone="no"?>
<!DOCTYPE svg PUBLIC "-//W3C//DTD SVG 1.1//EN"
"http://www.w3.org/Graphics/SVG/1.1/DTD/svg11.dtd">
<svg viewBox="0 0 1286 909" version="1.1" xmlns="http://www.w3.org/2000/svg" xmlns:xlink="http://www.w3.org/1999/xlink">
<defs>
<style type="text/css"><![CDATA[
.g1_1{
}
]]></style>
</defs>
<image preserveAspectRatio="none" x="179" y="22" width="928" height="565" xlink:href="img/1.png" />
<path d="M21.3,60.8l0,39.1l2.9,0l0,-39.1l-2.9,0Z" class="g1_1" />
<path d="M1260.6,63.7l0,36.2l2.9,0l0,-36.2l-2.9,0Z" class="g1_1" />
<path d="M20.5,99.9l0,25.5l4.4,0l0,-25.5l-4.4,0Z" class="g1_1" />
<path d="M1259.9,99.9l0,25.5l4.4,0l0,-25.5l-4.4,0Z" class="g1_1" />
<path d="M21.3,125.4l0,64.7l2.9,0l0,-64.7l-2.9,0Z" class="g1_1" />
<path d="M1260.6,125.4l0,64.7l2.9,0l0,-64.7l-2.9,0Z" class="g1_1" />
<path d="M20.5,190.1l0,25.5l4.4,0l0,-25.5l-4.4,0Z" class="g1_1" />
<path d="M814.9,125.4l0,67.7l2.9,0l0,-67.7l-2.9,0Z" class="g1_1" />
<path d="M24.9,212.7l0,2.9l881.8,0l0,-2.9l-881.8,0Z" class="g1_1" />
<path d="M21.3,215.6l0,19.6l2.9,0l0,-19.6l-2.9,0Z" class="g1_1" />
<path d="M1091.4,125.4l0,67.7l2.9,0l0,-67.7l-2.9,0Z" class="g1_1" />
<path d="M1259.9,190.1l0,48.1l4.4,0l0,-48.1l-4.4,0Z" class="g1_1" />
<path d="M24.9,258.5l0,1.5l377.7,0l0,-1.5l-377.7,0Z" class="g1_1" />
<path d="M405.5,258.5l0,1.5l73.4,0l0,-1.5l-73.4,0Z" class="g1_1" />
<path d="M481.8,258.5l0,1.5l333.1,0l0,-1.5l-333.1,0Z" class="g1_1" />
<path d="M817.8,258.5l0,1.5l88.9,0l0,-1.5l-88.9,0Z" class="g1_1" />
<path d="M909.6,258.5l0,1.5l86.4,0l0,-1.5l-86.4,0Z" class="g1_1" />
<path d="M999,258.5l0,1.5l92.4,0l0,-1.5l-92.4,0Z" class="g1_1" />
<path d="M1094.3,258.5l0,1.5l90,0l0,-1.5l-90,0Z" class="g1_1" />
<path d="M24.9,281.1l0,1.4l377.7,0l0,-1.4l-377.7,0Z" class="g1_1" />
<path d="M405.5,281.1l0,1.4l73.4,0l0,-1.4l-73.4,0Z" class="g1_1" />
<path d="M481.8,281.1l0,1.4l333.1,0l0,-1.4l-333.1,0Z" class="g1_1" />
<path d="M817.8,281.1l0,1.4l88.9,0l0,-1.4l-88.9,0Z" class="g1_1" />
<path d="M909.6,281.1l0,1.4l86.4,0l0,-1.4l-86.4,0Z" class="g1_1" />
<path d="M999,281.1l0,1.4l92.4,0l0,-1.4l-92.4,0Z" class="g1_1" />
<path d="M1094.3,281.1l0,1.4l90,0l0,-1.4l-90,0Z" class="g1_1" />
<path d="M24.9,303.6l0,1.5l377.7,0l0,-1.5l-377.7,0Z" class="g1_1" />
<path d="M405.5,303.6l0,1.5l73.4,0l0,-1.5l-73.4,0Z" class="g1_1" />
<path d="M481.8,303.6l0,1.5l333.1,0l0,-1.5l-333.1,0Z" class="g1_1" />
<path d="M817.8,303.6l0,1.5l88.9,0l0,-1.5l-88.9,0Z" class="g1_1" />
<path d="M909.6,303.6l0,1.5l86.4,0l0,-1.5l-86.4,0Z" class="g1_1" />
<path d="M999,303.6l0,1.5l92.4,0l0,-1.5l-92.4,0Z" class="g1_1" />
<path d="M1094.3,303.6l0,1.5l90,0l0,-1.5l-90,0Z" class="g1_1" />
<path d="M24.9,326.1l0,1.5l377.7,0l0,-1.5l-377.7,0Z" class="g1_1" />
<path d="M405.5,326.1l0,1.5l73.4,0l0,-1.5l-73.4,0Z" class="g1_1" />
<path d="M481.8,326.1l0,1.5l333.1,0l0,-1.5l-333.1,0Z" class="g1_1" />
<path d="M817.8,326.1l0,1.5l88.9,0l0,-1.5l-88.9,0Z" class="g1_1" />
<path d="M909.6,326.1l0,1.5l86.4,0l0,-1.5l-86.4,0Z" class="g1_1" />
<path d="M999,326.1l0,1.5l92.4,0l0,-1.5l-92.4,0Z" class="g1_1" />
<path d="M1094.3,326.1l0,1.5l90,0l0,-1.5l-90,0Z" class="g1_1" />
<path d="M24.9,348.7l0,1.5l377.7,0l0,-1.5l-377.7,0Z" class="g1_1" />
<path d="M405.5,348.7l0,1.5l73.4,0l0,-1.5l-73.4,0Z" class="g1_1" />
<path d="M481.8,348.7l0,1.5l333.1,0l0,-1.5l-333.1,0Z" class="g1_1" />
<path d="M817.8,348.7l0,1.5l88.9,0l0,-1.5l-88.9,0Z" class="g1_1" />
<path d="M909.6,348.7l0,1.5l86.4,0l0,-1.5l-86.4,0Z" class="g1_1" />
<path d="M999,348.7l0,1.5l92.4,0l0,-1.5l-92.4,0Z" class="g1_1" />
<path d="M1094.3,348.7l0,1.5l90,0l0,-1.5l-90,0Z" class="g1_1" />
<path d="M24.9,371.3l0,1.4l377.7,0l0,-1.4l-377.7,0Z" class="g1_1" />
<path d="M405.5,371.3l0,1.4l73.4,0l0,-1.4l-73.4,0Z" class="g1_1" />
<path d="M481.8,371.3l0,1.4l333.1,0l0,-1.4l-333.1,0Z" class="g1_1" />
<path d="M817.8,371.3l0,1.4l88.9,0l0,-1.4l-88.9,0Z" class="g1_1" />
<path d="M909.6,371.3l0,1.4l86.4,0l0,-1.4l-86.4,0Z" class="g1_1" />
<path d="M999,371.3l0,1.4l92.4,0l0,-1.4l-92.4,0Z" class="g1_1" />
<path d="M1094.3,371.3l0,1.4l90,0l0,-1.4l-90,0Z" class="g1_1" />
<path d="M24.9,393.8l0,1.5l377.7,0l0,-1.5l-377.7,0Z" class="g1_1" />
<path d="M405.5,393.8l0,1.5l73.4,0l0,-1.5l-73.4,0Z" class="g1_1" />
<path d="M481.8,393.8l0,1.5l333.1,0l0,-1.5l-333.1,0Z" class="g1_1" />
<path d="M817.8,393.8l0,1.5l88.9,0l0,-1.5l-88.9,0Z" class="g1_1" />
<path d="M909.6,393.8l0,1.5l86.4,0l0,-1.5l-86.4,0Z" class="g1_1" />
<path d="M999,393.8l0,1.5l92.4,0l0,-1.5l-92.4,0Z" class="g1_1" />
<path d="M1094.3,393.8l0,1.5l90,0l0,-1.5l-90,0Z" class="g1_1" />
<path d="M24.9,416.3l0,1.5l377.7,0l0,-1.5l-377.7,0Z" class="g1_1" />
<path d="M405.5,416.3l0,1.5l73.4,0l0,-1.5l-73.4,0Z" class="g1_1" />
<path d="M481.8,416.3l0,1.5l333.1,0l0,-1.5l-333.1,0Z" class="g1_1" />
<path d="M817.8,416.3l0,1.5l88.9,0l0,-1.5l-88.9,0Z" class="g1_1" />
<path d="M909.6,416.3l0,1.5l86.4,0l0,-1.5l-86.4,0Z" class="g1_1" />
<path d="M999,416.3l0,1.5l92.4,0l0,-1.5l-92.4,0Z" class="g1_1" />
<path d="M1094.3,416.3l0,1.5l90,0l0,-1.5l-90,0Z" class="g1_1" />
<path d="M20.5,235.2l0,205.2l4.4,0l0,-205.2l-4.4,0Z" class="g1_1" />
<path d="M24.9,438.9l0,1.5l377.7,0l0,-1.5l-377.7,0Z" class="g1_1" />
<path d="M405.5,438.9l0,1.5l73.4,0l0,-1.5l-73.4,0Z" class="g1_1" />
<path d="M481.8,438.9l0,1.5l333.1,0l0,-1.5l-333.1,0Z" class="g1_1" />
<path d="M817.8,438.9l0,1.5l88.9,0l0,-1.5l-88.9,0Z" class="g1_1" />
<path d="M909.6,438.9l0,1.5l86.4,0l0,-1.5l-86.4,0Z" class="g1_1" />
<path d="M999,438.9l0,1.5l92.4,0l0,-1.5l-92.4,0Z" class="g1_1" />
<path d="M1094.3,438.9l0,1.5l90,0l0,-1.5l-90,0Z" class="g1_1" />
<path d="M24.2,461.4l0,1.5l378.4,0l0,-1.5l-378.4,0Z" class="g1_1" />
<path d="M405.5,461.4l0,1.5l73.4,0l0,-1.5l-73.4,0Z" class="g1_1" />
<path d="M481.8,461.4l0,1.5l333.1,0l0,-1.5l-333.1,0Z" class="g1_1" />
<path d="M817.8,461.4l0,1.5l88.9,0l0,-1.5l-88.9,0Z" class="g1_1" />
<path d="M909.6,461.4l0,1.5l86.4,0l0,-1.5l-86.4,0Z" class="g1_1" />
<path d="M999,461.4l0,1.5l92.4,0l0,-1.5l-92.4,0Z" class="g1_1" />
<path d="M1094.3,461.4l0,1.5l90,0l0,-1.5l-90,0Z" class="g1_1" />
<path d="M24.2,484l0,1.5l378.4,0l0,-1.5L24.2,484Z" class="g1_1" />
<path d="M405.5,484l0,1.5l73.4,0l0,-1.5l-73.4,0Z" class="g1_1" />
<path d="M481.8,484l0,1.5l333.1,0l0,-1.5l-333.1,0Z" class="g1_1" />
<path d="M817.8,484l0,1.5l88.9,0l0,-1.5l-88.9,0Z" class="g1_1" />
<path d="M909.6,484l0,1.5l86.4,0l0,-1.5l-86.4,0Z" class="g1_1" />
<path d="M999,484l0,1.5l92.4,0l0,-1.5L999,484Z" class="g1_1" />
<path d="M1094.3,484l0,1.5l90,0l0,-1.5l-90,0Z" class="g1_1" />
<path d="M24.2,506.6l0,1.4l378.4,0l0,-1.4l-378.4,0Z" class="g1_1" />
<path d="M405.5,506.6l0,1.4l73.4,0l0,-1.4l-73.4,0Z" class="g1_1" />
<path d="M481.8,506.6l0,1.4l333.1,0l0,-1.4l-333.1,0Z" class="g1_1" />
<path d="M817.8,506.6l0,1.4l88.9,0l0,-1.4l-88.9,0Z" class="g1_1" />
<path d="M909.6,506.6l0,1.4l86.4,0l0,-1.4l-86.4,0Z" class="g1_1" />
<path d="M999,506.6l0,1.4l92.4,0l0,-1.4l-92.4,0Z" class="g1_1" />
<path d="M1094.3,506.6l0,1.4l90,0l0,-1.4l-90,0Z" class="g1_1" />
<path d="M402.6,215.6l0,315.7l2.9,0l0,-315.7l-2.9,0Z" class="g1_1" />
<path d="M996,216.3l0,315l3,0l0,-315l-3,0Z" class="g1_1" />
<path d="M24.2,777.1l0,1.5l378.4,0l0,-1.5l-378.4,0Z" class="g1_1" />
<path d="M405.5,777.1l0,1.5l333.1,0l0,-1.5l-333.1,0Z" class="g1_1" />
<path d="M741.6,777.1l0,1.5l254.4,0l0,-1.5l-254.4,0Z" class="g1_1" />
<path d="M24.2,799.7l0,1.5l378.4,0l0,-1.5l-378.4,0Z" class="g1_1" />
<path d="M405.5,799.7l0,1.5l333.1,0l0,-1.5l-333.1,0Z" class="g1_1" />
<path d="M741.6,799.7l0,1.5l254.4,0l0,-1.5l-254.4,0Z" class="g1_1" />
<path d="M24.2,822.3l0,1.4l378.4,0l0,-1.4l-378.4,0Z" class="g1_1" />
<path d="M405.5,822.3l0,1.4l333.1,0l0,-1.4l-333.1,0Z" class="g1_1" />
<path d="M741.6,822.3l0,1.4l254.4,0l0,-1.4l-254.4,0Z" class="g1_1" />
<path d="M21.3,440.4l0,406.6l2.9,0l0,-406.6l-2.9,0Z" class="g1_1" />
<path d="M1260.6,238.2l0,608.8l2.9,0l0,-608.8l-2.9,0Z" class="g1_1" />
<path d="M326.3,125.4l0,67.7l3,0l0,-67.7l-3,0Z" class="g1_1" />
<path d="M631.4,125.4l0,67.7l2.9,0l0,-67.7l-2.9,0Z" class="g1_1" />
<path d="M814.9,215.6l0,315.7l2.9,0l0,-315.7l-2.9,0Z" class="g1_1" />
<path d="M1091.4,216.3l0,315l2.9,0l0,-315l-2.9,0Z" class="g1_1" />
<path d="M402.6,756.8l0,90.2l2.9,0l0,-90.2l-2.9,0Z" class="g1_1" />
<path d="M478.9,215.6l0,315.7l2.9,0l0,-315.7l-2.9,0Z" class="g1_1" />
<path d="M906.7,216.3l0,315l2.9,0l0,-315l-2.9,0Z" class="g1_1" />
<path d="M996,756.8l0,90.2l3,0l0,-90.2l-3,0Z" class="g1_1" />
<path d="M1184.3,216.3l0,315l3,0l0,-315l-3,0Z" class="g1_1" />
<path d="M738.6,756.8l0,90.2l3,0l0,-90.2l-3,0Z" class="g1_1" />
<path d="M24.2,60.8l0,2.9l1239.3,0l0,-2.9L24.2,60.8Z" class="g1_1" />
<path d="M24.9,99.9l0,3l1235,0l0,-3l-1235,0Z" class="g1_1" />
<path d="M24.9,122.5l0,2.9l1235,0l0,-2.9l-1235,0Z" class="g1_1" />
<path d="M1094.3,145l0,2.9l169.2,0l0,-2.9l-169.2,0Z" class="g1_1" />
<path d="M24.9,190.1l0,3l1235,0l0,-3l-1235,0Z" class="g1_1" />
<path d="M906.7,211.9l0,4.4l357.6,0l0,-4.4l-357.6,0Z" class="g1_1" />
<path d="M24.9,235.2l0,3l1235,0l0,-3l-1235,0Z" class="g1_1" />
<path d="M1187.2,258.5l0,1.5l73.4,0l0,-1.5l-73.4,0Z" class="g1_1" />
<path d="M1187.2,281.1l0,1.4l73.4,0l0,-1.4l-73.4,0Z" class="g1_1" />
<path d="M1187.2,303.6l0,1.5l73.4,0l0,-1.5l-73.4,0Z" class="g1_1" />
<path d="M1187.2,326.1l0,1.5l73.4,0l0,-1.5l-73.4,0Z" class="g1_1" />
<path d="M1187.2,348.7l0,1.5l73.4,0l0,-1.5l-73.4,0Z" class="g1_1" />
<path d="M1187.2,371.3l0,1.4l73.4,0l0,-1.4l-73.4,0Z" class="g1_1" />
<path d="M1187.2,393.8l0,1.5l73.4,0l0,-1.5l-73.4,0Z" class="g1_1" />
<path d="M1187.2,416.3l0,1.5l73.4,0l0,-1.5l-73.4,0Z" class="g1_1" />
<path d="M1187.2,438.9l0,1.5l73.4,0l0,-1.5l-73.4,0Z" class="g1_1" />
<path d="M1187.2,461.4l0,1.5l73.4,0l0,-1.5l-73.4,0Z" class="g1_1" />
<path d="M1187.2,484l0,1.5l73.4,0l0,-1.5l-73.4,0Z" class="g1_1" />
<path d="M1187.2,506.6l0,1.4l73.4,0l0,-1.4l-73.4,0Z" class="g1_1" />
<path d="M24.2,528.4l0,2.9l1239.3,0l0,-2.9l-1239.3,0Z" class="g1_1" />
<path d="M24.2,550.9l0,3l1239.3,0l0,-3l-1239.3,0Z" class="g1_1" />
<path d="M24.2,574.2l0,1.5l1236.4,0l0,-1.5l-1236.4,0Z" class="g1_1" />
<path d="M24.2,596.8l0,1.4l1236.4,0l0,-1.4l-1236.4,0Z" class="g1_1" />
<path d="M24.2,619.3l0,1.5l1236.4,0l0,-1.5l-1236.4,0Z" class="g1_1" />
<path d="M24.2,641.8l0,1.5l1236.4,0l0,-1.5l-1236.4,0Z" class="g1_1" />
<path d="M24.2,664.4l0,1.5l1236.4,0l0,-1.5l-1236.4,0Z" class="g1_1" />
<path d="M24.2,687l0,1.4l1236.4,0l0,-1.4L24.2,687Z" class="g1_1" />
<path d="M24.2,709.5l0,1.5l1236.4,0l0,-1.5l-1236.4,0Z" class="g1_1" />
<path d="M24.2,731.3l0,3l1239.3,0l0,-3l-1239.3,0Z" class="g1_1" />
<path d="M24.2,753.9l0,2.9l1239.3,0l0,-2.9l-1239.3,0Z" class="g1_1" />
<path d="M999,777.1l0,1.5l261.6,0l0,-1.5l-261.6,0Z" class="g1_1" />
<path d="M999,799.7l0,1.5l261.6,0l0,-1.5l-261.6,0Z" class="g1_1" />
<path d="M999,822.3l0,1.4l261.6,0l0,-1.4l-261.6,0Z" class="g1_1" />
<path d="M24.2,844.1l0,2.9l1239.3,0l0,-2.9l-1239.3,0Z" class="g1_1" />
</svg>