<?xml version="1.0" encoding="UTF-8" standalone="no"?>
<!DOCTYPE svg PUBLIC "-//W3C//DTD SVG 1.1//EN"
"http://www.w3.org/Graphics/SVG/1.1/DTD/svg11.dtd">
<svg viewBox="0 0 1286 909" version="1.1" xmlns="http://www.w3.org/2000/svg" xmlns:xlink="http://www.w3.org/1999/xlink">
<defs>
<style type="text/css"><![CDATA[
.g1_1{
}
]]></style>
</defs>
<image preserveAspectRatio="none" x="185" y="22" width="917" height="42" xlink:href="img/1.png" />
<image preserveAspectRatio="none" x="185" y="64" width="917" height="42" xlink:href="img/2.png" />
<image preserveAspectRatio="none" x="185" y="106" width="917" height="41" xlink:href="img/3.png" />
<image preserveAspectRatio="none" x="185" y="147" width="917" height="42" xlink:href="img/4.png" />
<image preserveAspectRatio="none" x="185" y="189" width="917" height="42" xlink:href="img/5.png" />
<image preserveAspectRatio="none" x="185" y="231" width="917" height="42" xlink:href="img/6.png" />
<image preserveAspectRatio="none" x="185" y="273" width="917" height="42" xlink:href="img/7.png" />
<image preserveAspectRatio="none" x="185" y="315" width="917" height="41" xlink:href="img/8.png" />
<image preserveAspectRatio="none" x="185" y="356" width="917" height="42" xlink:href="img/9.png" />
<image preserveAspectRatio="none" x="185" y="398" width="917" height="42" xlink:href="img/10.png" />
<image preserveAspectRatio="none" x="185" y="440" width="917" height="42" xlink:href="img/11.png" />
<image preserveAspectRatio="none" x="185" y="482" width="917" height="42" xlink:href="img/12.png" />
<image preserveAspectRatio="none" x="185" y="524" width="917" height="41" xlink:href="img/13.png" />
<image preserveAspectRatio="none" x="185" y="565" width="917" height="28" xlink:href="img/14.png" />
<path d="M35.9,233.6l0,4.4l781.2,0l0,-4.4l-781.2,0Z" class="g1_1" />
<path d="M817.1,234.3l0,2.9l83.1,0l0,-2.9l-83.1,0Z" class="g1_1" />
<path d="M31.5,79.2l0,180.8l4.4,0l0,-180.8l-4.4,0Z" class="g1_1" />
<path d="M814.2,146.3l0,64.5l2.9,0l0,-64.5l-2.9,0Z" class="g1_1" />
<path d="M1082.8,146.3l0,64.5l2.9,0l0,-64.5l-2.9,0Z" class="g1_1" />
<path d="M1249.2,83.6l0,176.4l4.4,0l0,-176.4l-4.4,0Z" class="g1_1" />
<path d="M35.2,280.5l0,1.5L409,282l0,-1.5l-373.8,0Z" class="g1_1" />
<path d="M411.9,280.5l0,1.5l72.5,0l0,-1.5l-72.5,0Z" class="g1_1" />
<path d="M487.3,280.5l0,1.5l326.9,0l0,-1.5l-326.9,0Z" class="g1_1" />
<path d="M817.1,280.5l0,1.5l83.1,0l0,-1.5l-83.1,0Z" class="g1_1" />
<path d="M903.1,280.5l0,1.5l85.4,0l0,-1.5l-85.4,0Z" class="g1_1" />
<path d="M991.5,280.5l0,1.5l91.3,0l0,-1.5l-91.3,0Z" class="g1_1" />
<path d="M1085.7,280.5l0,1.5l88.9,0l0,-1.5l-88.9,0Z" class="g1_1" />
<path d="M35.2,303.2l0,1.5l373.8,0l0,-1.5l-373.8,0Z" class="g1_1" />
<path d="M411.9,303.2l0,1.5l72.5,0l0,-1.5l-72.5,0Z" class="g1_1" />
<path d="M487.3,303.2l0,1.5l326.9,0l0,-1.5l-326.9,0Z" class="g1_1" />
<path d="M817.1,303.2l0,1.5l83.1,0l0,-1.5l-83.1,0Z" class="g1_1" />
<path d="M903.1,303.2l0,1.5l85.4,0l0,-1.5l-85.4,0Z" class="g1_1" />
<path d="M991.5,303.2l0,1.5l91.3,0l0,-1.5l-91.3,0Z" class="g1_1" />
<path d="M1085.7,303.2l0,1.5l88.9,0l0,-1.5l-88.9,0Z" class="g1_1" />
<path d="M35.2,326l0,1.4l373.8,0l0,-1.4L35.2,326Z" class="g1_1" />
<path d="M411.9,326l0,1.4l72.5,0l0,-1.4l-72.5,0Z" class="g1_1" />
<path d="M487.3,326l0,1.4l326.9,0l0,-1.4l-326.9,0Z" class="g1_1" />
<path d="M817.1,326l0,1.4l83.1,0l0,-1.4l-83.1,0Z" class="g1_1" />
<path d="M903.1,326l0,1.4l85.4,0l0,-1.4l-85.4,0Z" class="g1_1" />
<path d="M991.5,326l0,1.4l91.3,0l0,-1.4l-91.3,0Z" class="g1_1" />
<path d="M1085.7,326l0,1.4l88.9,0l0,-1.4l-88.9,0Z" class="g1_1" />
<path d="M35.2,348.7l0,1.5l373.8,0l0,-1.5l-373.8,0Z" class="g1_1" />
<path d="M411.9,348.7l0,1.5l72.5,0l0,-1.5l-72.5,0Z" class="g1_1" />
<path d="M487.3,348.7l0,1.5l326.9,0l0,-1.5l-326.9,0Z" class="g1_1" />
<path d="M817.1,348.7l0,1.5l83.1,0l0,-1.5l-83.1,0Z" class="g1_1" />
<path d="M903.1,348.7l0,1.5l85.4,0l0,-1.5l-85.4,0Z" class="g1_1" />
<path d="M991.5,348.7l0,1.5l91.3,0l0,-1.5l-91.3,0Z" class="g1_1" />
<path d="M1085.7,348.7l0,1.5l88.9,0l0,-1.5l-88.9,0Z" class="g1_1" />
<path d="M35.2,371.4l0,1.5l373.8,0l0,-1.5l-373.8,0Z" class="g1_1" />
<path d="M411.9,371.4l0,1.5l72.5,0l0,-1.5l-72.5,0Z" class="g1_1" />
<path d="M487.3,371.4l0,1.5l326.9,0l0,-1.5l-326.9,0Z" class="g1_1" />
<path d="M817.1,371.4l0,1.5l83.1,0l0,-1.5l-83.1,0Z" class="g1_1" />
<path d="M903.1,371.4l0,1.5l85.4,0l0,-1.5l-85.4,0Z" class="g1_1" />
<path d="M991.5,371.4l0,1.5l91.3,0l0,-1.5l-91.3,0Z" class="g1_1" />
<path d="M1085.7,371.4l0,1.5l88.9,0l0,-1.5l-88.9,0Z" class="g1_1" />
<path d="M35.2,394.2l0,1.4l373.8,0l0,-1.4l-373.8,0Z" class="g1_1" />
<path d="M411.9,394.2l0,1.4l72.5,0l0,-1.4l-72.5,0Z" class="g1_1" />
<path d="M487.3,394.2l0,1.4l326.9,0l0,-1.4l-326.9,0Z" class="g1_1" />
<path d="M817.1,394.2l0,1.4l83.1,0l0,-1.4l-83.1,0Z" class="g1_1" />
<path d="M903.1,394.2l0,1.4l85.4,0l0,-1.4l-85.4,0Z" class="g1_1" />
<path d="M991.5,394.2l0,1.4l91.3,0l0,-1.4l-91.3,0Z" class="g1_1" />
<path d="M1085.7,394.2l0,1.4l88.9,0l0,-1.4l-88.9,0Z" class="g1_1" />
<path d="M35.2,416.9l0,1.5l373.8,0l0,-1.5l-373.8,0Z" class="g1_1" />
<path d="M411.9,416.9l0,1.5l72.5,0l0,-1.5l-72.5,0Z" class="g1_1" />
<path d="M487.3,416.9l0,1.5l326.9,0l0,-1.5l-326.9,0Z" class="g1_1" />
<path d="M817.1,416.9l0,1.5l83.1,0l0,-1.5l-83.1,0Z" class="g1_1" />
<path d="M903.1,416.9l0,1.5l85.4,0l0,-1.5l-85.4,0Z" class="g1_1" />
<path d="M991.5,416.9l0,1.5l91.3,0l0,-1.5l-91.3,0Z" class="g1_1" />
<path d="M1085.7,416.9l0,1.5l88.9,0l0,-1.5l-88.9,0Z" class="g1_1" />
<path d="M35.2,439.6l0,1.5l373.8,0l0,-1.5l-373.8,0Z" class="g1_1" />
<path d="M411.9,439.6l0,1.5l72.5,0l0,-1.5l-72.5,0Z" class="g1_1" />
<path d="M487.3,439.6l0,1.5l326.9,0l0,-1.5l-326.9,0Z" class="g1_1" />
<path d="M817.1,439.6l0,1.5l83.1,0l0,-1.5l-83.1,0Z" class="g1_1" />
<path d="M903.1,439.6l0,1.5l85.4,0l0,-1.5l-85.4,0Z" class="g1_1" />
<path d="M991.5,439.6l0,1.5l91.3,0l0,-1.5l-91.3,0Z" class="g1_1" />
<path d="M1085.7,439.6l0,1.5l88.9,0l0,-1.5l-88.9,0Z" class="g1_1" />
<path d="M35.2,462.4l0,1.4l373.8,0l0,-1.4l-373.8,0Z" class="g1_1" />
<path d="M411.9,462.4l0,1.4l72.5,0l0,-1.4l-72.5,0Z" class="g1_1" />
<path d="M487.3,462.4l0,1.4l326.9,0l0,-1.4l-326.9,0Z" class="g1_1" />
<path d="M817.1,462.4l0,1.4l83.1,0l0,-1.4l-83.1,0Z" class="g1_1" />
<path d="M903.1,462.4l0,1.4l85.4,0l0,-1.4l-85.4,0Z" class="g1_1" />
<path d="M991.5,462.4l0,1.4l91.3,0l0,-1.4l-91.3,0Z" class="g1_1" />
<path d="M1085.7,462.4l0,1.4l88.9,0l0,-1.4l-88.9,0Z" class="g1_1" />
<path d="M35.2,485.1l0,1.5l373.8,0l0,-1.5l-373.8,0Z" class="g1_1" />
<path d="M411.9,485.1l0,1.5l72.5,0l0,-1.5l-72.5,0Z" class="g1_1" />
<path d="M487.3,485.1l0,1.5l326.9,0l0,-1.5l-326.9,0Z" class="g1_1" />
<path d="M817.1,485.1l0,1.5l83.1,0l0,-1.5l-83.1,0Z" class="g1_1" />
<path d="M903.1,485.1l0,1.5l85.4,0l0,-1.5l-85.4,0Z" class="g1_1" />
<path d="M991.5,485.1l0,1.5l91.3,0l0,-1.5l-91.3,0Z" class="g1_1" />
<path d="M1085.7,485.1l0,1.5l88.9,0l0,-1.5l-88.9,0Z" class="g1_1" />
<path d="M32.3,260l0,247.8l2.9,0L35.2,260l-2.9,0Z" class="g1_1" />
<path d="M35.9,507.8l0,1.5l373.1,0l0,-1.5l-373.1,0Z" class="g1_1" />
<path d="M411.9,507.8l0,1.5l72.5,0l0,-1.5l-72.5,0Z" class="g1_1" />
<path d="M487.3,507.8l0,1.5l326.9,0l0,-1.5l-326.9,0Z" class="g1_1" />
<path d="M817.1,507.8l0,1.5l83.1,0l0,-1.5l-83.1,0Z" class="g1_1" />
<path d="M903.1,507.8l0,1.5l85.4,0l0,-1.5l-85.4,0Z" class="g1_1" />
<path d="M1250,260l0,247.1l2.9,0l0,-247.1l-2.9,0Z" class="g1_1" />
<path d="M31.5,507.8l0,25l4.4,0l0,-25l-4.4,0Z" class="g1_1" />
<path d="M1249.2,507.1l0,25.7l4.4,0l0,-25.7l-4.4,0Z" class="g1_1" />
<path d="M32.3,532.8l0,178.9l2.9,0l0,-178.9l-2.9,0Z" class="g1_1" />
<path d="M1250,532.8l0,178.9l2.9,0l0,-178.9l-2.9,0Z" class="g1_1" />
<path d="M31.5,711.7l0,25.7l4.4,0l0,-25.7l-4.4,0Z" class="g1_1" />
<path d="M409,238l0,271.3l2.9,0l0,-271.3l-2.9,0Z" class="g1_1" />
<path d="M988.5,238l0,272l3,0l0,-272l-3,0Z" class="g1_1" />
<path d="M1249.2,711.7l0,25.7l4.4,0l0,-25.7l-4.4,0Z" class="g1_1" />
<path d="M35.2,757.9l0,1.5l373.8,0l0,-1.5l-373.8,0Z" class="g1_1" />
<path d="M411.9,757.9l0,1.5l326.9,0l0,-1.5l-326.9,0Z" class="g1_1" />
<path d="M741.8,757.9l0,1.5l246.7,0l0,-1.5l-246.7,0Z" class="g1_1" />
<path d="M35.2,780.6l0,1.5l373.8,0l0,-1.5l-373.8,0Z" class="g1_1" />
<path d="M411.9,780.6l0,1.5l326.9,0l0,-1.5l-326.9,0Z" class="g1_1" />
<path d="M741.8,780.6l0,1.5l246.7,0l0,-1.5l-246.7,0Z" class="g1_1" />
<path d="M35.2,803.4l0,1.4l373.8,0l0,-1.4l-373.8,0Z" class="g1_1" />
<path d="M411.9,803.4l0,1.4l326.9,0l0,-1.4l-326.9,0Z" class="g1_1" />
<path d="M741.8,803.4l0,1.4l246.7,0l0,-1.4l-246.7,0Z" class="g1_1" />
<path d="M32.3,737.4l0,90.9l2.9,0l0,-90.9l-2.9,0Z" class="g1_1" />
<path d="M1250,737.4l0,90.9l2.9,0l0,-90.9l-2.9,0Z" class="g1_1" />
<path d="M333.7,146.3l0,64.5l2.9,0l0,-64.5l-2.9,0Z" class="g1_1" />
<path d="M635.1,146.3l0,64.5l2.9,0l0,-64.5l-2.9,0Z" class="g1_1" />
<path d="M814.2,238l0,271.3l2.9,0l0,-271.3l-2.9,0Z" class="g1_1" />
<path d="M1082.8,238l0,272l2.9,0l0,-272l-2.9,0Z" class="g1_1" />
<path d="M409,737.4l0,90.9l2.9,0l0,-90.9l-2.9,0Z" class="g1_1" />
<path d="M484.4,238l0,271.3l2.9,0l0,-271.3l-2.9,0Z" class="g1_1" />
<path d="M900.2,238l0,271.3l2.9,0l0,-271.3l-2.9,0Z" class="g1_1" />
<path d="M988.5,737.4l0,90.9l3,0l0,-90.9l-3,0Z" class="g1_1" />
<path d="M1174.6,238l0,272l2.9,0l0,-272l-2.9,0Z" class="g1_1" />
<path d="M738.8,737.4l0,90.9l3,0l0,-90.9l-3,0Z" class="g1_1" />
<path d="M35.9,79.2l0,4.4l1217.7,0l0,-4.4L35.9,79.2Z" class="g1_1" />
<path d="M35.9,119.9l0,4.4l1217.7,0l0,-4.4l-1217.7,0Z" class="g1_1" />
<path d="M35.9,143.4l0,2.9l1213.3,0l0,-2.9l-1213.3,0Z" class="g1_1" />
<path d="M1085.7,166.1l0,2.9l163.5,0l0,-2.9l-163.5,0Z" class="g1_1" />
<path d="M35.9,210.8l0,4.4l1217.7,0l0,-4.4l-1217.7,0Z" class="g1_1" />
<path d="M900.2,233.6l0,4.4l353.4,0l0,-4.4l-353.4,0Z" class="g1_1" />
<path d="M35.9,257l0,3l1213.3,0l0,-3L35.9,257Z" class="g1_1" />
<path d="M1177.5,280.5l0,1.5l72.4,0l0,-1.5l-72.4,0Z" class="g1_1" />
<path d="M1177.5,303.2l0,1.5l72.4,0l0,-1.5l-72.4,0Z" class="g1_1" />
<path d="M1177.5,326l0,1.4l72.4,0l0,-1.4l-72.4,0Z" class="g1_1" />
<path d="M1177.5,348.7l0,1.5l72.4,0l0,-1.5l-72.4,0Z" class="g1_1" />
<path d="M1177.5,371.4l0,1.5l72.4,0l0,-1.5l-72.4,0Z" class="g1_1" />
<path d="M1177.5,394.2l0,1.4l72.4,0l0,-1.4l-72.4,0Z" class="g1_1" />
<path d="M1177.5,416.9l0,1.5l72.4,0l0,-1.5l-72.4,0Z" class="g1_1" />
<path d="M1177.5,439.6l0,1.5l72.4,0l0,-1.5l-72.4,0Z" class="g1_1" />
<path d="M1177.5,462.4l0,1.4l72.4,0l0,-1.4l-72.4,0Z" class="g1_1" />
<path d="M1177.5,485.1l0,1.5l72.4,0l0,-1.5l-72.4,0Z" class="g1_1" />
<path d="M991.5,507.1l0,2.9l257.7,0l0,-2.9l-257.7,0Z" class="g1_1" />
<path d="M35.9,529.8l0,3l1213.3,0l0,-3l-1213.3,0Z" class="g1_1" />
<path d="M35.2,553.3l0,1.5l1214.8,0l0,-1.5l-1214.8,0Z" class="g1_1" />
<path d="M35.2,576l0,1.5l1214.8,0l0,-1.5L35.2,576Z" class="g1_1" />
<path d="M35.2,598.8l0,1.4l1214.8,0l0,-1.4l-1214.8,0Z" class="g1_1" />
<path d="M35.2,621.5l0,1.5L1250,623l0,-1.5l-1214.8,0Z" class="g1_1" />
<path d="M35.2,644.2l0,1.5l1214.8,0l0,-1.5l-1214.8,0Z" class="g1_1" />
<path d="M35.2,667l0,1.4l1214.8,0l0,-1.4L35.2,667Z" class="g1_1" />
<path d="M35.2,689.7l0,1.5l1214.8,0l0,-1.5l-1214.8,0Z" class="g1_1" />
<path d="M35.9,711.7l0,2.9l1213.3,0l0,-2.9l-1213.3,0Z" class="g1_1" />
<path d="M35.9,734.4l0,3l1213.3,0l0,-3l-1213.3,0Z" class="g1_1" />
<path d="M991.5,757.9l0,1.5l258.5,0l0,-1.5l-258.5,0Z" class="g1_1" />
<path d="M991.5,780.6l0,1.5l258.5,0l0,-1.5l-258.5,0Z" class="g1_1" />
<path d="M991.5,803.4l0,1.4l258.5,0l0,-1.4l-258.5,0Z" class="g1_1" />
<path d="M35.2,825.4l0,2.9l1217.7,0l0,-2.9l-1217.7,0Z" class="g1_1" />
</svg>